<?xml version="1.0" encoding="UTF-8"?>
<svg id="Layer_3" data-name="Layer 3" xmlns="http://www.w3.org/2000/svg" width="101.6mm" height="128.5mm" viewBox="-5.49 -8.16 287.86 364.13">
  <rect x="-5.49" y="-8.16" width="287.86" height="364.13" fill="#f0f0f0"/>
  <rect fill="#231f20" x="203.74" y="239.14" width="62.15" height="101.62" rx="2.51" ry="2.51"/>
  <line stroke="#606060" stroke-miterlimit="10" stroke-width=".5" fill="none" x1="86.1" y1="113.78" x2="266.07" y2="113.78"/>
  <line stroke="#606060" stroke-miterlimit="10" stroke-width=".5" fill="none" x1="86.1" y1="151.67" x2="266.07" y2="151.67"/>
  <line stroke="#606060" stroke-miterlimit="10" stroke-width=".5" fill="none" x1="86.1" y1="132.72" x2="266.07" y2="132.72"/>
  <line stroke="#606060" stroke-miterlimit="10" stroke-width=".5" fill="none" x1="86.1" y1="142.1" x2="266.07" y2="142.1"/>
  <line stroke="#606060" stroke-miterlimit="10" stroke-width=".5" fill="none" x1="86.1" y1="123.25" x2="266.07" y2="123.25"/>
  <line stroke="#606060" stroke-miterlimit="10" stroke-width=".5" fill="none" x1="86.1" y1="104.22" x2="266.07" y2="104.22"/>
  <line stroke="#606060" stroke-miterlimit="10" stroke-width=".5" fill="none" x1="86.1" y1="85.08" x2="266.07" y2="85.08"/>
  <line stroke="#606060" stroke-miterlimit="10" stroke-width=".5" fill="none" x1="86.1" y1="75.51" x2="266.07" y2="75.51"/>
  <line stroke="#606060" stroke-miterlimit="10" stroke-width=".5" fill="none" x1="86.1" y1="94.65" x2="266.07" y2="94.65"/>
  <line stroke="#606060" stroke-miterlimit="10" stroke-width=".5" fill="none" x1="91.19" y1="265.24" x2="91.19" y2="332.96"/>
  <line stroke="#606060" stroke-miterlimit="10" stroke-width=".5" fill="none" x1="184.73" y1="265.24" x2="184.73" y2="332.96"/>
  <line stroke="#606060" stroke-miterlimit="10" stroke-width=".5" fill="none" x1="137.96" y1="265.24" x2="137.96" y2="332.96"/>
  <line stroke="#606060" stroke-miterlimit="10" stroke-width=".5" fill="none" x1="114.58" y1="265.24" x2="114.58" y2="332.96"/>
  <line stroke="#606060" stroke-miterlimit="10" stroke-width=".5" fill="none" x1="161.35" y1="265.24" x2="161.35" y2="332.96"/>
  <line stroke="#606060" stroke-miterlimit="10" stroke-width=".5" fill="none" x1="173.04" y1="265.24" x2="173.04" y2="332.96"/>
  <line stroke="#606060" stroke-miterlimit="10" stroke-width=".5" fill="none" x1="149.65" y1="265.24" x2="149.65" y2="332.96"/>
  <line stroke="#606060" stroke-miterlimit="10" stroke-width=".5" fill="none" x1="126.27" y1="265.24" x2="126.27" y2="332.96"/>
  <line stroke="#606060" stroke-miterlimit="10" stroke-width=".5" fill="none" x1="102.88" y1="265.24" x2="102.88" y2="332.96"/>
  <g>
    <path d="M13.55,35.31v2.7h-.76v-6.28h2.5c.37,0,.68.07.94.21.26.14.46.34.6.6.14.26.21.59.21.97,0,.46-.11.83-.32,1.13-.22.3-.53.5-.94.59l1.44,2.77h-.85l-1.36-2.7h-1.47ZM13.55,34.66h1.75c.2,0,.37-.03.51-.1.14-.07.25-.17.32-.31.08-.14.11-.3.11-.49v-.47c0-.19-.04-.36-.11-.49-.08-.13-.18-.24-.32-.31-.14-.07-.31-.1-.51-.1h-1.75v2.27Z"/>
    <path d="M20.59,38.12c-.54,0-1.01-.12-1.41-.37s-.71-.61-.93-1.1c-.22-.48-.33-1.08-.33-1.78s.11-1.29.33-1.78c.22-.48.53-.85.93-1.1s.87-.37,1.41-.37,1.01.12,1.41.37c.4.25.71.62.93,1.1.22.48.33,1.08.33,1.78s-.11,1.29-.33,1.78c-.22.48-.53.85-.93,1.1-.4.25-.87.37-1.41.37ZM20.59,37.44c.37,0,.69-.09.96-.26.28-.17.49-.41.65-.72.16-.31.24-.67.24-1.08v-1.04c0-.41-.08-.78-.24-1.08-.16-.31-.38-.55-.65-.72s-.6-.25-.96-.25-.68.08-.96.25-.5.41-.66.72c-.16.31-.24.67-.24,1.08v1.04c0,.41.08.77.24,1.08.16.31.38.54.66.72.28.17.6.26.96.26Z"/>
    <path d="M26.74,38.12c-.54,0-1.01-.12-1.41-.37s-.71-.61-.93-1.1c-.22-.48-.33-1.08-.33-1.78s.11-1.29.33-1.78c.22-.48.53-.85.93-1.1s.87-.37,1.41-.37,1.01.12,1.41.37c.4.25.71.62.93,1.1.22.48.33,1.08.33,1.78s-.11,1.29-.33,1.78c-.22.48-.53.85-.93,1.1-.4.25-.87.37-1.41.37ZM26.74,37.44c.37,0,.69-.09.96-.26.28-.17.49-.41.65-.72.16-.31.24-.67.24-1.08v-1.04c0-.41-.08-.78-.24-1.08-.16-.31-.38-.55-.65-.72s-.6-.25-.96-.25-.68.08-.96.25-.5.41-.66.72c-.16.31-.24.67-.24,1.08v1.04c0,.41.08.77.24,1.08.16.31.38.54.66.72.28.17.6.26.96.26Z"/>
    <path d="M34.47,32.39h-2v5.62h-.76v-5.62h-2v-.67h4.75v.67Z"/>
  </g>
  <g>
    <path d="M49.19,38.12c-.5,0-.94-.1-1.3-.29-.36-.19-.67-.46-.92-.81l.56-.47c.22.29.47.52.74.67.27.15.59.23.95.23.45,0,.79-.11,1.03-.32.24-.22.36-.5.36-.86,0-.2-.04-.37-.12-.5s-.2-.25-.37-.35c-.17-.09-.39-.17-.67-.23l-.51-.12c-.38-.09-.7-.21-.96-.35s-.46-.33-.6-.56-.21-.5-.21-.82c0-.37.09-.69.26-.94.17-.25.42-.45.73-.58s.68-.2,1.08-.2c.47,0,.88.09,1.22.26.34.17.63.43.86.77l-.57.41c-.17-.24-.38-.43-.63-.57-.25-.14-.56-.21-.92-.21-.4,0-.72.09-.95.26s-.35.43-.35.76c0,.2.04.36.13.5.09.13.22.24.39.33s.39.16.66.22l.51.12c.41.09.74.21,1,.37.26.16.45.35.57.58.12.23.18.5.18.81,0,.38-.09.72-.26,1-.17.28-.42.5-.74.66-.32.16-.71.23-1.16.23Z"/>
    <path d="M54.65,38.12c-.53,0-.98-.12-1.36-.36-.38-.24-.67-.6-.87-1.08-.2-.48-.3-1.07-.3-1.77s.1-1.3.3-1.79c.2-.49.49-.86.87-1.12.38-.26.83-.38,1.36-.38s.96.12,1.32.36c.36.24.64.58.84,1.02l-.61.37c-.13-.32-.32-.58-.58-.78s-.58-.29-.97-.29c-.54,0-.96.2-1.26.59-.3.39-.45.91-.45,1.55v.94c0,.64.15,1.15.45,1.52.3.37.72.55,1.26.55.4,0,.74-.1,1.01-.31s.47-.48.59-.82l.6.38c-.2.44-.48.79-.86,1.04-.38.26-.82.39-1.35.39Z"/>
    <path d="M62.52,38.01h-.79l-.63-1.85h-2.54l-.63,1.85h-.77l2.2-6.28h.96l2.2,6.28ZM60.91,35.49l-.79-2.28-.27-.78h-.04l-.27.78-.79,2.28h2.17Z"/>
    <path d="M66.77,38.01h-3.43v-6.28h.76v5.62h2.67v.67Z"/>
    <path d="M71.46,38.01h-3.83v-6.28h3.83v.67h-3.08v2.11h2.9v.67h-2.9v2.18h3.08v.67Z"/>
  </g>
  <g>
    <path d="M13.27,117.27c-.5,0-.94-.1-1.3-.29-.36-.19-.67-.46-.92-.81l.56-.47c.22.29.47.52.74.67.27.15.59.23.95.23.45,0,.79-.11,1.03-.32.24-.22.36-.5.36-.86,0-.2-.04-.37-.12-.5s-.2-.25-.37-.35c-.17-.09-.39-.17-.67-.23l-.51-.12c-.38-.09-.7-.21-.96-.35s-.46-.33-.6-.56-.21-.5-.21-.82c0-.37.09-.69.26-.94.17-.25.42-.45.73-.58s.68-.2,1.08-.2c.47,0,.88.09,1.22.26.34.17.63.43.86.77l-.57.41c-.17-.24-.38-.43-.63-.57-.25-.14-.56-.21-.92-.21-.4,0-.72.09-.95.26s-.35.43-.35.76c0,.2.04.36.13.5.09.13.22.24.39.33s.39.16.66.22l.51.12c.41.09.74.21,1,.37.26.16.45.35.57.58.12.23.18.5.18.81,0,.38-.09.72-.26,1-.17.28-.42.5-.74.66-.32.16-.71.23-1.16.23Z"/>
    <path d="M20.51,111.54h-2v5.62h-.76v-5.62h-2v-.67h4.75v.67Z"/>
    <path d="M25.15,117.16h-3.83v-6.28h3.83v.67h-3.08v2.11h2.9v.67h-2.9v2.18h3.08v.67Z"/>
    <path d="M27.09,117.16h-.76v-6.28h2.5c.38,0,.7.07.96.22.26.15.46.35.59.62.13.27.2.59.2.96s-.07.68-.2.95c-.14.27-.33.48-.59.63-.26.15-.58.22-.96.22h-1.75v2.68ZM27.09,111.54v2.27h1.75c.2,0,.37-.03.51-.1.14-.07.25-.17.32-.31.08-.14.11-.3.11-.49v-.47c0-.19-.04-.36-.11-.49-.08-.13-.18-.24-.32-.31-.14-.07-.31-.1-.51-.1h-1.75Z"/>
    <path d="M33.33,117.27c-.5,0-.94-.1-1.3-.29-.36-.19-.67-.46-.92-.81l.56-.47c.22.29.47.52.74.67.27.15.59.23.95.23.45,0,.79-.11,1.03-.32.24-.22.36-.5.36-.86,0-.2-.04-.37-.12-.5s-.2-.25-.37-.35c-.17-.09-.39-.17-.67-.23l-.51-.12c-.38-.09-.7-.21-.96-.35s-.46-.33-.6-.56-.21-.5-.21-.82c0-.37.09-.69.26-.94.17-.25.42-.45.73-.58s.68-.2,1.08-.2c.47,0,.88.09,1.22.26.34.17.63.43.86.77l-.57.41c-.17-.24-.38-.43-.63-.57-.25-.14-.56-.21-.92-.21-.4,0-.72.09-.95.26s-.35.43-.35.76c0,.2.04.36.13.5.09.13.22.24.39.33s.39.16.66.22l.51.12c.41.09.74.21,1,.37.26.16.45.35.57.58.12.23.18.5.18.81,0,.38-.09.72-.26,1-.17.28-.42.5-.74.66-.32.16-.71.23-1.16.23Z"/>
  </g>
  <g>
    <path d="M12.04,190.18v2.7h-.76v-6.28h2.5c.37,0,.68.07.94.21.26.14.46.34.6.6.14.26.21.59.21.97,0,.46-.11.83-.32,1.13s-.53.5-.94.59l1.44,2.77h-.85l-1.36-2.7h-1.47ZM12.04,189.53h1.75c.2,0,.37-.03.51-.1.14-.07.25-.17.32-.31s.11-.3.11-.49v-.47c0-.19-.04-.36-.11-.49-.08-.13-.18-.24-.32-.31-.14-.07-.31-.1-.51-.1h-1.75v2.27Z"/>
    <path d="M20.65,192.88h-3.83v-6.28h3.83v.67h-3.08v2.11h2.9v.67h-2.9v2.18h3.08v.67Z"/>
    <path d="M23.61,192.99c-.5,0-.94-.1-1.3-.29-.36-.2-.67-.46-.92-.81l.56-.47c.22.29.47.52.74.67.27.15.59.23.95.23.45,0,.79-.11,1.03-.32.24-.22.36-.5.36-.86,0-.2-.04-.37-.12-.5-.08-.14-.2-.25-.37-.35s-.39-.17-.67-.23l-.51-.12c-.38-.09-.7-.21-.96-.35-.26-.14-.46-.33-.6-.56-.14-.23-.21-.5-.21-.82,0-.37.09-.69.26-.94.17-.25.42-.45.73-.58s.68-.2,1.08-.2c.47,0,.88.09,1.22.26.34.17.63.43.86.76l-.57.41c-.17-.24-.38-.43-.63-.57-.25-.14-.56-.21-.92-.21-.4,0-.72.09-.95.26s-.35.43-.35.76c0,.2.04.36.13.5s.22.24.39.33.39.16.66.22l.51.12c.41.09.74.21,1,.37s.45.35.57.58c.12.23.18.5.18.81,0,.38-.09.72-.26,1-.17.28-.42.5-.74.66-.32.16-.71.23-1.16.23Z"/>
    <path d="M30.68,192.88h-3.83v-6.28h3.83v.67h-3.08v2.11h2.9v.67h-2.9v2.18h3.08v.67Z"/>
    <path d="M35.98,187.26h-2v5.62h-.76v-5.62h-2v-.67h4.75v.67Z"/>
  </g>
  <g>
    <path d="M13.07,250.93c-.53,0-.98-.12-1.36-.36s-.67-.6-.87-1.08c-.2-.48-.3-1.07-.3-1.77s.1-1.3.3-1.79c.2-.49.49-.86.87-1.12s.83-.38,1.36-.38.96.12,1.32.36.64.58.84,1.02l-.61.37c-.13-.32-.32-.58-.58-.78-.26-.19-.58-.29-.97-.29-.54,0-.96.2-1.26.59-.3.39-.45.91-.45,1.55v.94c0,.64.15,1.15.45,1.52.3.37.72.55,1.26.55.4,0,.74-.1,1.01-.31s.47-.48.59-.82l.6.38c-.2.44-.48.79-.86,1.04s-.82.39-1.35.39Z"/>
    <path d="M19.65,250.83h-3.43v-6.28h.76v5.62h2.67v.67Z"/>
    <path d="M22.58,250.93c-.54,0-1.01-.12-1.41-.37s-.71-.62-.93-1.1c-.22-.48-.33-1.08-.33-1.78s.11-1.29.33-1.78c.22-.48.53-.85.93-1.1s.87-.37,1.41-.37,1.01.12,1.41.37c.4.25.71.62.93,1.1.22.48.33,1.08.33,1.78s-.11,1.29-.33,1.78c-.22.48-.53.85-.93,1.1-.4.25-.87.37-1.41.37ZM22.58,250.26c.37,0,.69-.08.96-.26.28-.17.49-.41.65-.71.16-.31.24-.67.24-1.08v-1.04c0-.41-.08-.78-.24-1.08-.16-.31-.38-.55-.65-.71s-.6-.25-.96-.25-.68.08-.96.25-.5.41-.66.71c-.16.31-.24.67-.24,1.08v1.04c0,.41.08.77.24,1.08.16.31.38.54.66.71.28.17.6.26.96.26Z"/>
    <path d="M28.59,250.93c-.53,0-.98-.12-1.36-.36s-.67-.6-.87-1.08c-.2-.48-.3-1.07-.3-1.77s.1-1.3.3-1.79c.2-.49.49-.86.87-1.12s.83-.38,1.36-.38.96.12,1.32.36.64.58.84,1.02l-.61.37c-.13-.32-.32-.58-.58-.78-.26-.19-.58-.29-.97-.29-.54,0-.96.2-1.26.59-.3.39-.45.91-.45,1.55v.94c0,.64.15,1.15.45,1.52.3.37.72.55,1.26.55.4,0,.74-.1,1.01-.31s.47-.48.59-.82l.6.38c-.2.44-.48.79-.86,1.04s-.82.39-1.35.39Z"/>
    <path d="M35.48,250.83l-2.09-3.09-.89.99v2.1h-.76v-6.28h.76v3.34h.03l.9-1.09,1.9-2.25h.93l-2.34,2.69,2.5,3.59h-.94Z"/>
  </g>
  <path d="M5.35,277.57h-.79l-.63-1.85H1.4l-.63,1.85h-.77l2.2-6.28h.96l2.2,6.28ZM3.74,275.05l-.79-2.28-.27-.78h-.04l-.27.78-.79,2.28h2.17Z"/>
  <path d="M.58,302.43v-6.28h2.58c.52,0,.92.15,1.22.44.3.29.45.69.45,1.18,0,.31-.06.56-.17.75-.11.19-.25.32-.41.41s-.31.15-.45.17v.05c.11,0,.24.04.38.09s.28.14.4.26c.13.11.24.26.32.44s.13.4.13.67c0,.34-.07.65-.21.93-.14.28-.33.49-.58.65-.24.16-.52.24-.83.24H.58ZM1.33,296.82v2.05h1.74c.2,0,.37-.03.51-.1.14-.07.25-.17.33-.3s.12-.29.12-.47v-.31c0-.19-.04-.34-.12-.47s-.19-.23-.33-.3-.31-.1-.51-.1h-1.74ZM1.33,299.52v2.25h1.86c.22,0,.4-.04.56-.11.16-.08.28-.18.36-.33.08-.14.13-.32.13-.53v-.31c0-.21-.04-.39-.13-.53-.08-.14-.2-.25-.36-.33-.16-.08-.34-.11-.56-.11h-1.86Z"/>
  <path d="M2.93,327.4c-.53,0-.98-.12-1.36-.36-.38-.24-.67-.6-.87-1.08-.2-.48-.3-1.07-.3-1.77s.1-1.3.3-1.79c.2-.49.49-.86.87-1.12.38-.26.83-.38,1.36-.38s.96.12,1.32.36c.36.24.64.58.84,1.02l-.61.37c-.13-.32-.32-.58-.58-.78-.26-.2-.58-.29-.97-.29-.54,0-.96.2-1.26.59-.3.39-.45.91-.45,1.55v.94c0,.64.15,1.15.45,1.52.3.37.72.55,1.26.55.4,0,.74-.1,1.01-.31s.47-.48.59-.82l.6.38c-.2.44-.48.79-.86,1.04-.38.26-.82.39-1.35.39Z"/>
  <g>
    <path d="M93.74,250.83h-.84l-1.53-6.28h.8l.67,3.02.52,2.35h.02l.58-2.35.79-3.02h.86l.77,3.02.58,2.34h.03l.54-2.34.71-3.02h.77l-1.61,6.28h-.84l-.82-3.13-.58-2.3h-.02l-.59,2.3-.84,3.13Z"/>
    <path d="M104.51,250.83h-.79l-.63-1.85h-2.54l-.63,1.85h-.77l2.2-6.28h.96l2.2,6.28ZM102.9,248.31l-.79-2.28-.27-.78h-.04l-.27.78-.79,2.28h2.17Z"/>
    <path d="M109.14,250.83l-2.29-3.83-.76-1.4h-.03v5.23h-.74v-6.28h.87l2.29,3.83.76,1.39h.03v-5.23h.74v6.28h-.87Z"/>
    <path d="M111.47,250.83v-6.28h2.11c.52,0,.98.12,1.36.35.39.23.69.58.9,1.04.21.46.31,1.05.31,1.75s-.1,1.29-.31,1.75c-.21.46-.51.81-.9,1.04-.39.23-.84.35-1.36.35h-2.11ZM112.22,250.16h1.35c.35,0,.65-.08.92-.23s.47-.38.62-.67.23-.64.23-1.06v-1.03c0-.41-.08-.77-.23-1.06s-.36-.52-.62-.67-.57-.23-.92-.23h-1.35v4.95Z"/>
    <path d="M121.11,250.83h-3.83v-6.28h3.83v.67h-3.08v2.11h2.9v.67h-2.9v2.18h3.08v.67Z"/>
    <path d="M123.06,248.13v2.7h-.76v-6.28h2.5c.37,0,.68.07.94.21.26.14.46.34.6.6.14.26.21.59.21.97,0,.46-.11.83-.32,1.13s-.53.5-.94.59l1.44,2.77h-.85l-1.36-2.7h-1.47ZM123.06,247.48h1.75c.2,0,.37-.03.51-.1.14-.07.25-.17.32-.31s.11-.3.11-.49v-.47c0-.19-.04-.36-.11-.49-.08-.13-.18-.24-.32-.31-.14-.07-.31-.1-.51-.1h-1.75v2.27Z"/>
  </g>
  <g>
    <path d="M50.75,117.27c-.5,0-.94-.1-1.3-.29-.36-.19-.67-.46-.92-.81l.56-.47c.22.29.47.52.74.67.27.15.59.23.95.23.45,0,.79-.11,1.03-.32.24-.22.36-.5.36-.86,0-.2-.04-.37-.12-.5s-.2-.25-.37-.35c-.17-.09-.39-.17-.67-.23l-.51-.12c-.38-.09-.7-.21-.96-.35s-.46-.33-.6-.56-.21-.5-.21-.82c0-.37.09-.69.26-.94.17-.25.42-.45.73-.58s.68-.2,1.08-.2c.47,0,.88.09,1.22.26.34.17.63.43.86.77l-.57.41c-.17-.24-.38-.43-.63-.57-.25-.14-.56-.21-.92-.21-.4,0-.72.09-.95.26s-.35.43-.35.76c0,.2.04.36.13.5.09.13.22.24.39.33s.39.16.66.22l.51.12c.41.09.74.21,1,.37.26.16.45.35.57.58.12.23.18.5.18.81,0,.38-.09.72-.26,1-.17.28-.42.5-.74.66-.32.16-.71.23-1.16.23Z"/>
    <path d="M57.42,117.16h-3.43v-6.28h.76v5.62h2.67v.67Z"/>
    <path d="M62.11,117.16h-3.83v-6.28h3.83v.67h-3.08v2.11h2.9v.67h-2.9v2.18h3.08v.67Z"/>
    <path d="M65.01,117.16h-.84l-1.53-6.28h.8l.67,3.02.52,2.35h.02l.58-2.35.79-3.02h.86l.77,3.02.58,2.34h.03l.54-2.34.71-3.02h.77l-1.61,6.28h-.84l-.82-3.13-.58-2.3h-.02l-.59,2.3-.84,3.13Z"/>
  </g>
  <g>
    <path fill="#fff" d="M215.48,250.83v-.92h-.03c-.08.29-.27.54-.57.73-.3.19-.69.29-1.17.29-.51,0-.96-.12-1.36-.37-.39-.25-.7-.62-.92-1.1-.22-.48-.33-1.08-.33-1.78s.11-1.29.33-1.77c.22-.48.53-.85.94-1.1.4-.25.87-.38,1.4-.38.56,0,1.04.13,1.41.38s.67.59.87.99l-.62.38c-.14-.34-.36-.6-.64-.79-.29-.19-.62-.29-1.02-.29-.37,0-.69.08-.97.26s-.5.41-.66.72c-.16.31-.23.67-.23,1.08v1.02c0,.41.08.78.23,1.08.16.31.38.55.67.72s.63.26,1.03.26c.29,0,.56-.05.8-.15.24-.1.43-.25.58-.46.15-.2.22-.46.22-.76v-.62h-1.39v-.67h2.12v3.23h-.7Z"/>
    <path fill="#fff" d="M222.17,250.83h-.79l-.63-1.85h-2.54l-.63,1.85h-.76l2.2-6.28h.96l2.2,6.28ZM220.56,248.31l-.79-2.28-.27-.78h-.04l-.27.78-.79,2.28h2.17Z"/>
    <path fill="#fff" d="M226.52,245.21h-2v5.62h-.76v-5.62h-2v-.67h4.75v.67Z"/>
    <path fill="#fff" d="M231.16,250.83h-3.83v-6.28h3.83v.67h-3.08v2.11h2.9v.67h-2.9v2.18h3.08v.67Z"/>
  </g>
  <g>
    <path fill="#fff" d="M246.11,250.93c-.53,0-.98-.12-1.36-.36s-.67-.6-.87-1.08c-.2-.48-.3-1.07-.3-1.77s.1-1.3.3-1.79c.2-.49.49-.86.87-1.12s.83-.38,1.36-.38.96.12,1.32.36c.36.24.64.58.84,1.02l-.61.37c-.13-.32-.32-.58-.58-.78-.26-.19-.58-.29-.97-.29-.54,0-.96.2-1.26.59-.3.39-.46.91-.46,1.55v.94c0,.64.15,1.15.46,1.52.3.37.72.55,1.26.55.4,0,.74-.1,1.01-.31.27-.21.47-.48.59-.82l.6.38c-.2.44-.48.79-.86,1.04s-.82.39-1.35.39Z"/>
    <path fill="#fff" d="M251.61,250.83h-.92l-2.09-6.28h.81l1.03,3.17.69,2.36h.04l.71-2.36,1.04-3.17h.78l-2.12,6.28Z"/>
  </g>
  <line stroke="#606060" stroke-miterlimit="10" stroke-width=".5" fill="none" x1="59.31" y1="274.24" x2="89.64" y2="274.24"/>
  <line stroke="#606060" stroke-miterlimit="10" stroke-width=".5" fill="none" x1="59.31" y1="299.1" x2="89.64" y2="299.1"/>
  <line stroke="#606060" stroke-miterlimit="10" stroke-width=".5" fill="none" x1="59.31" y1="323.96" x2="89.64" y2="323.96"/>
  <g transform="translate(-22, 0)">
    <path id="path12" stroke="#51484a" stroke-width=".85" stroke-linecap="round" stroke-linejoin="round" fill="none" d="M210.68,5.97h1.7v-1.7h1.7v3.4h1.7V2.57h1.7v6.8h1.7V.87h1.7v8.5h1.7v-5.1h1.7v3.4h1.7v-1.7h1.7"/>
    <path id="path13" stroke="#51484a" stroke-width=".85" stroke-linecap="square" stroke-linejoin="bevel" fill="none" d="M230.19,9.37l5.1-8.5c0,1.86,1.43,5.1,3.4,5.1,0,0,3.4,0,6.8,0l1.7,3.4"/>
    <path id="path17" stroke="#51484a" stroke-width=".85" stroke-linecap="square" stroke-linejoin="bevel" fill="none" d="M252.91.87h-1.7v10.2h1.7"/>
    <path id="path18" stroke="#51484a" stroke-width=".85" stroke-linecap="square" stroke-linejoin="bevel" fill="none" d="M266.51.87h1.7v10.2h-1.7"/>
    <path id="path21" stroke="#51484a" stroke-width=".85" stroke-linejoin="bevel" fill="none" d="M254.61,1.77l3.4,3.4"/>
    <path id="path22" stroke="#51484a" stroke-width=".85" stroke-linejoin="bevel" fill="none" d="M258.01,1.77l-3.4,3.4"/>
    <path id="path23-5" stroke="#51484a" stroke-width=".85" stroke-linejoin="bevel" fill="none" d="M254.61,6.87l3.4,3.4"/>
    <path id="path24" stroke="#51484a" stroke-width=".85" stroke-linejoin="bevel" fill="none" d="M254.61,10.27l3.4-3.4"/>
    <path id="path25-3" stroke="#51484a" stroke-width=".85" stroke-linejoin="bevel" fill="none" d="M261.41,1.77l3.4,3.4"/>
    <path id="path26-7" stroke="#51484a" stroke-width=".85" stroke-linejoin="bevel" fill="none" d="M264.81,1.77l-3.4,3.4"/>
    <rect id="rect26" stroke="#51484a" stroke-width=".85" stroke-linejoin="bevel" fill="none" x="261.41" y="6.87" width="3.4" height="3.4"/>
  </g>
  <g transform="translate(7, 0)">
    <path fill="#51484a" d="M23.7,9.23h-1.98V.16h6.02v1.76h-4.04v1.86h3.44v1.74h-3.44v3.72Z"/>
    <path fill="#51484a" d="M28.95.16h1.92v5.56c0,.42.05.78.16,1.06.11.28.28.49.53.64s.56.21.95.21.7-.07.94-.21c.24-.14.41-.36.53-.64.11-.28.17-.63.17-1.06V.16h1.92v5.36c0,.89-.12,1.62-.35,2.2-.23.57-.61.99-1.13,1.27s-1.21.41-2.08.41-1.56-.14-2.08-.41-.9-.7-1.13-1.27c-.23-.57-.35-1.3-.35-2.2V.16Z"/>
    <path fill="#51484a" d="M43.46,9.23v-1.44h-.06c-.06.45-.29.83-.7,1.14-.4.31-.95.46-1.63.46s-1.32-.18-1.89-.53-1.01-.88-1.34-1.57c-.33-.69-.49-1.54-.49-2.55s.17-1.88.51-2.59c.34-.7.82-1.23,1.44-1.6.62-.36,1.34-.55,2.15-.55s1.51.18,2.1.53,1.06.88,1.4,1.57l-1.61.92c-.14-.35-.36-.66-.65-.9-.29-.25-.71-.37-1.24-.37-.41,0-.76.08-1.07.24s-.54.4-.7.73c-.17.32-.25.74-.25,1.24v1.46c0,.5.08.92.25,1.24.16.32.4.57.7.73.3.16.66.24,1.07.24.33,0,.63-.05.9-.16s.48-.26.64-.46c.16-.2.24-.45.24-.74v-.45h-1.69v-1.65h3.57v5.06h-1.66Z"/>
    <path fill="#51484a" d="M46.67.16h1.92v5.56c0,.42.05.78.16,1.06.11.28.28.49.53.64s.56.21.95.21.7-.07.94-.21c.24-.14.41-.36.53-.64.11-.28.17-.63.17-1.06V.16h1.92v5.36c0,.89-.12,1.62-.35,2.2-.23.57-.61.99-1.13,1.27s-1.21.41-2.08.41-1.56-.14-2.08-.41-.9-.7-1.13-1.27c-.23-.57-.35-1.3-.35-2.2V.16Z"/>
    <path fill="#51484a" d="M61.6,9.23h-6.17V.16h6.17v1.76h-4.2v1.86h3.6v1.74h-3.6v1.96h4.2v1.75Z"/>
  </g>
  <line stroke="#888" stroke-miterlimit="11.34" stroke-width=".85" fill="none" x1="11.41" y1="21.35" x2="268.21" y2="21.35"/>
</svg>