<?xml version="1.0" encoding="UTF-8"?>
<svg xmlns="http://www.w3.org/2000/svg" width="121.92mm" height="128.5mm" viewBox="0 0 345.6 364.25">
  <g id="Background">
    <rect x="0" y="0" width="345.6" height="364.25" fill="#f0f0f0"/>
  </g>
  <g id="UI">
    <rect x="14.4" y="244.8" width="230.37" height="100.77" rx="2.37" ry="2.37"/>
    <rect x="302.4" y="244.8" width="28.8" height="100.77" rx="2.37" ry="2.37"/>
    <g>
      <path id="path12" d="M273.65,22.8h1.7v-1.7h1.7v3.4h1.7v-5.1h1.7v6.8h1.7v-8.5h1.7v8.5h1.7v-5.1h1.7v3.4h1.7v-1.7h1.7" fill="none" stroke="#b2b2b2" stroke-linecap="round" stroke-linejoin="round" stroke-width=".85"/>
      <path id="path13" d="M293.17,26.2l5.1-8.5c0,1.86,1.43,5.1,3.4,5.1h6.8l1.7,3.4" fill="none" stroke="#b2b2b2" stroke-linecap="square" stroke-linejoin="bevel" stroke-width=".85"/>
      <path id="path17" d="M315.9,17.7h-1.7v10.2h1.7" fill="none" stroke="#b2b2b2" stroke-linecap="square" stroke-linejoin="bevel" stroke-width=".85"/>
      <path id="path18" d="M329.5,17.7h1.7v10.2h-1.7" fill="none" stroke="#b2b2b2" stroke-linecap="square" stroke-linejoin="bevel" stroke-width=".85"/>
      <path id="path21" d="M317.6,18.6l3.4,3.4" fill="none" stroke="#b2b2b2" stroke-linejoin="bevel" stroke-width=".85"/>
      <path id="path22" d="M321,18.6l-3.4,3.4" fill="none" stroke="#b2b2b2" stroke-linejoin="bevel" stroke-width=".85"/>
      <path id="path23-5" d="M317.6,23.7l3.4,3.4" fill="none" stroke="#b2b2b2" stroke-linejoin="bevel" stroke-width=".85"/>
      <path id="path24" d="M317.6,27.1l3.4-3.4" fill="none" stroke="#b2b2b2" stroke-linejoin="bevel" stroke-width=".85"/>
      <path id="path25-3" d="M324.4,18.6l3.4,3.4" fill="none" stroke="#b2b2b2" stroke-linejoin="bevel" stroke-width=".85"/>
      <path id="path26-7" d="M327.8,18.6l-3.4,3.4" fill="none" stroke="#b2b2b2" stroke-linejoin="bevel" stroke-width=".85"/>
      <rect id="rect26" x="324.4" y="23.7" width="3.4" height="3.4" fill="none" stroke="#b2b2b2" stroke-linejoin="bevel" stroke-width=".85"/>
    </g>
    <line x1="14.4" y1="95.82" x2="331.2" y2="95.82" fill="none" stroke="#b2b2b2" stroke-miterlimit="11.34" stroke-width=".5"/>
    <line x1="28.8" y1="129.6" x2="57.6" y2="129.6" fill="none" stroke="#b2b2b2" stroke-miterlimit="11.34" stroke-width=".5"/>
    <line x1="28.8" y1="172.8" x2="57.6" y2="172.8" fill="none" stroke="#b2b2b2" stroke-miterlimit="11.34" stroke-width=".5"/>
    <line x1="28.8" y1="216" x2="57.6" y2="216" fill="none" stroke="#b2b2b2" stroke-miterlimit="11.34" stroke-width=".5"/>
    <line x1="115.2" y1="129.6" x2="144" y2="129.6" fill="none" stroke="#b2b2b2" stroke-miterlimit="11.34" stroke-width=".5"/>
    <line x1="115.2" y1="172.8" x2="144" y2="172.8" fill="none" stroke="#b2b2b2" stroke-miterlimit="11.34" stroke-width=".5"/>
    <line x1="115.2" y1="216" x2="144" y2="216" fill="none" stroke="#b2b2b2" stroke-miterlimit="11.34" stroke-width=".5"/>
    <line x1="201.6" y1="129.6" x2="230.4" y2="129.6" fill="none" stroke="#b2b2b2" stroke-miterlimit="11.34" stroke-width=".5"/>
    <line x1="201.6" y1="172.8" x2="230.4" y2="172.8" fill="none" stroke="#b2b2b2" stroke-miterlimit="11.34" stroke-width=".5"/>
    <line x1="201.6" y1="216" x2="230.4" y2="216" fill="none" stroke="#b2b2b2" stroke-miterlimit="11.34" stroke-width=".5"/>
    <line x1="288" y1="129.6" x2="316.8" y2="129.6" fill="none" stroke="#b2b2b2" stroke-miterlimit="11.34" stroke-width=".5"/>
    <line x1="288" y1="172.8" x2="316.8" y2="172.8" fill="none" stroke="#b2b2b2" stroke-miterlimit="11.34" stroke-width=".5"/>
    <line x1="288" y1="216" x2="316.8" y2="216" fill="none" stroke="#b2b2b2" stroke-miterlimit="11.34" stroke-width=".5"/>
    <line x1="28.8" y1="79.2" x2="57.6" y2="79.2" fill="none" stroke="#b2b2b2" stroke-miterlimit="11.34" stroke-width=".5"/>
    <line x1="86.41" y1="96" x2="86.41" y2="237.6" fill="none" stroke="#b2b2b2" stroke-miterlimit="10" stroke-width=".5"/>
    <line x1="173.13" y1="96" x2="173.13" y2="237.66" fill="none" stroke="#b2b2b2" stroke-miterlimit="10" stroke-width=".5"/>
    <line x1="259.53" y1="96" x2="259.53" y2="237.66" fill="none" stroke="#b2b2b2" stroke-miterlimit="10" stroke-width=".5"/>
    <line x1="14.4" y1="237.6" x2="334.26" y2="237.6" fill="none" stroke="#b2b2b2" stroke-miterlimit="10" stroke-width=".5"/>
  </g>
  <g id="Text">
    <g>
      <rect x="14.4" y="16.8" width="86.4" height="12" fill="none"/>
      <path d="M15.01,25.95v-6.3h4.18v1.33h-2.73v1.21h2.21v1.32h-2.21v2.43h-1.45Z" fill="#231f20"/>
      <path d="M22.35,26.07c-.54,0-1.01-.1-1.4-.31-.39-.2-.69-.49-.9-.87s-.31-.82-.31-1.34v-3.91h1.45v3.91c0,.24.05.45.14.62.1.17.23.31.41.41.18.1.39.14.63.14s.45-.05.63-.14c.18-.1.32-.23.41-.41.1-.17.14-.38.14-.62v-3.91h1.45v3.91c0,.52-.11.96-.32,1.34s-.52.67-.92.87c-.4.2-.87.31-1.42.31Z" fill="#231f20"/>
      <path d="M28.87,26.06c-.65,0-1.22-.14-1.71-.42s-.88-.66-1.17-1.15c-.28-.49-.42-1.05-.42-1.69s.14-1.2.42-1.69c.28-.49.67-.87,1.17-1.15.5-.28,1.07-.42,1.71-.42.4,0,.77.06,1.09.18.33.12.61.28.86.48.25.2.45.44.61.7l-1.2.72c-.09-.14-.21-.27-.36-.39-.15-.11-.31-.2-.48-.27-.17-.06-.35-.09-.53-.09-.35,0-.67.08-.94.24-.27.16-.49.39-.64.68-.16.29-.23.62-.23,1s.08.71.23,1c.15.29.37.52.65.69s.61.25.98.25c.26,0,.49-.05.7-.14.21-.1.38-.23.5-.4s.2-.37.22-.59h-1.42v-1.12h2.82v.86c-.01.59-.14,1.08-.4,1.49s-.59.71-1.01.91-.91.31-1.45.31Z" fill="#231f20"/>
      <path d="M34.83,26.07c-.54,0-1.01-.1-1.4-.31-.39-.2-.69-.49-.9-.87s-.31-.82-.31-1.34v-3.91h1.45v3.91c0,.24.05.45.14.62.1.17.23.31.41.41.18.1.39.14.63.14s.45-.05.63-.14c.18-.1.32-.23.41-.41.1-.17.14-.38.14-.62v-3.91h1.45v3.91c0,.52-.11.96-.32,1.34s-.52.67-.92.87c-.4.2-.87.31-1.42.31Z" fill="#231f20"/>
      <path d="M38.4,25.95v-6.3h4.1v1.33h-2.66v1.15h2.22v1.29h-2.22v1.2h2.7v1.33h-4.15Z" fill="#231f20"/>
      <path d="M44.81,25.95l2.29-3.24-2.24-3.06h1.73l1.32,1.9,1.31-1.9h1.73l-2.23,3.06,2.29,3.24h-1.75l-1.35-2.04-1.36,2.04h-1.75Z" fill="#231f20"/>
      <path d="M51.49,25.95v-6.3h1.45v4.97h2.68v1.33h-4.13Z" fill="#231f20"/>
    </g>
    <g isolation="isolate">
      <path d="M19.82,62.4v-4.9h1.65c.33,0,.61.06.86.19s.45.31.59.53c.14.23.21.49.21.79,0,.32-.09.6-.27.85-.18.24-.42.42-.71.53l1.18,2.01h-.78l-1.09-1.88h-.96v1.88h-.69ZM20.51,59.89h1.03c.17,0,.32-.04.45-.12s.24-.18.32-.31c.08-.13.12-.28.12-.45,0-.26-.09-.47-.27-.64-.18-.16-.42-.25-.71-.25h-.94v1.76Z" fill="#231f20"/>
      <path d="M23.7,62.4l1.97-4.9h.73l1.97,4.9h-.74l-.53-1.31h-2.16l-.53,1.31h-.74ZM25.2,60.48h1.69l-.84-2.11-.85,2.11Z" fill="#231f20"/>
      <path d="M29.07,62.4v-4.9h.71l2.77,3.75v-3.75h.69v4.9h-.69l-2.79-3.79v3.79h-.69Z" fill="#231f20"/>
      <path d="M34.49,62.4v-4.9h1.51c.47,0,.88.1,1.24.31.36.21.64.5.85.86.21.37.31.79.31,1.27s-.1.9-.31,1.27c-.21.37-.49.66-.85.87-.36.21-.78.31-1.24.31h-1.51ZM35.17,61.76h.83c.24,0,.46-.05.67-.14.21-.09.39-.22.54-.39s.28-.36.36-.58c.09-.22.13-.46.13-.71s-.04-.49-.13-.71c-.09-.22-.21-.41-.36-.58s-.34-.29-.54-.39c-.21-.09-.43-.14-.67-.14h-.83v3.61Z" fill="#231f20"/>
      <path d="M41.45,62.48c-.48,0-.9-.11-1.27-.32-.37-.21-.66-.51-.87-.9-.21-.38-.31-.82-.31-1.31s.1-.94.31-1.32c.21-.38.49-.68.86-.9.36-.22.78-.33,1.26-.33s.9.11,1.26.33c.36.22.65.52.85.9.21.38.31.82.31,1.31s-.1.93-.31,1.32c-.21.38-.49.68-.85.9-.36.21-.78.32-1.25.32ZM41.45,61.85c.33,0,.63-.08.88-.25.26-.16.46-.39.6-.67s.22-.61.22-.99-.07-.7-.22-.98c-.15-.29-.35-.51-.61-.68-.26-.16-.56-.25-.89-.25s-.63.08-.9.25c-.26.16-.46.39-.61.68-.15.29-.22.62-.22.98s.08.7.22.99.36.51.62.67c.26.16.57.25.91.25Z" fill="#231f20"/>
      <path d="M44.78,62.4v-4.9h.73l1.62,2.4,1.62-2.4h.73v4.9h-.69v-3.79l-1.67,2.46-1.66-2.45v3.79h-.69Z" fill="#231f20"/>
      <path d="M54.01,62.48c-.26,0-.5-.03-.71-.09-.21-.06-.4-.14-.55-.25s-.29-.22-.39-.35c-.1-.13-.18-.27-.22-.41l.67-.22c.07.19.2.36.4.5.2.14.44.21.72.22.35,0,.62-.07.82-.21s.3-.32.3-.55c0-.21-.09-.38-.26-.51-.17-.13-.4-.23-.69-.3l-.57-.15c-.22-.06-.43-.15-.61-.26-.18-.11-.33-.25-.44-.43-.11-.17-.16-.38-.16-.62,0-.45.15-.8.44-1.05.29-.25.71-.38,1.26-.38.32,0,.59.05.83.15.23.1.43.23.58.4.15.16.26.34.33.54l-.67.22c-.08-.21-.21-.38-.41-.51s-.43-.19-.71-.19-.53.07-.7.21c-.17.14-.26.33-.26.57,0,.21.07.36.2.47.13.11.31.19.54.25l.57.14c.46.11.81.3,1.06.56.25.26.37.54.37.85,0,.27-.07.51-.2.72s-.33.38-.59.5c-.26.12-.58.19-.96.19Z" fill="#231f20"/>
      <path d="M56.71,62.4v-4.9h2.95v.63h-2.26v1.46h2.04v.62h-2.04v1.57h2.27v.63h-2.96Z" fill="#231f20"/>
      <path d="M64.93,62.68l-.59-.6c-.19.13-.4.23-.63.3-.23.07-.48.1-.74.1-.48,0-.9-.11-1.27-.32-.37-.21-.66-.51-.87-.9-.21-.38-.31-.82-.31-1.32,0-.37.06-.71.18-1.02.12-.31.29-.57.5-.8s.47-.4.77-.52c.3-.12.62-.19.98-.19.48,0,.9.11,1.27.33.36.22.65.52.85.9.21.38.31.82.31,1.31,0,.34-.05.66-.15.95-.1.29-.24.55-.42.76l.57.57-.44.44ZM62.97,61.85c.17,0,.32-.02.47-.07.14-.05.28-.12.41-.2l-.68-.69.45-.43.7.71c.12-.16.21-.35.27-.55.06-.2.09-.43.09-.67,0-.37-.07-.7-.22-.99-.15-.28-.35-.51-.61-.67-.26-.16-.56-.25-.9-.25s-.63.08-.89.25c-.26.16-.46.39-.61.67-.15.28-.22.61-.22.99s.08.7.22.99.36.51.62.67c.26.16.56.25.9.25Z" fill="#231f20"/>
    </g>
    <g isolation="isolate">
      <path d="M107.8,62.48c-.26,0-.5-.03-.71-.09s-.4-.14-.55-.25-.29-.22-.39-.35c-.1-.13-.17-.27-.22-.41l.67-.22c.07.19.2.36.4.5.2.14.44.21.72.22.35,0,.62-.07.82-.21.2-.14.3-.32.3-.55,0-.21-.09-.38-.26-.51-.17-.13-.4-.23-.69-.3l-.57-.15c-.22-.06-.43-.15-.61-.26-.18-.11-.33-.25-.44-.43-.11-.17-.16-.38-.16-.62,0-.45.15-.8.44-1.05.29-.25.71-.38,1.26-.38.32,0,.59.05.83.15.23.1.43.23.58.4.15.16.26.34.33.54l-.67.22c-.08-.21-.21-.38-.41-.51s-.43-.19-.71-.19c-.29,0-.53.07-.7.21s-.26.33-.26.57c0,.21.07.36.2.47.13.11.31.19.54.25l.57.14c.46.11.81.3,1.06.56.25.26.38.54.38.85,0,.27-.07.51-.2.72s-.33.38-.59.5-.58.19-.96.19Z" fill="#231f20"/>
      <path d="M111.69,62.5c-.28,0-.53-.06-.75-.16-.22-.11-.39-.26-.52-.46-.12-.2-.19-.42-.19-.67,0-.2.04-.38.12-.54.08-.16.18-.3.31-.44.13-.13.27-.25.42-.36l.71-.49c.11-.07.21-.15.32-.23.11-.08.2-.17.28-.28.08-.1.12-.22.12-.35,0-.17-.06-.3-.18-.4-.12-.1-.27-.15-.45-.15-.16,0-.29.05-.41.15-.11.1-.17.23-.17.38,0,.13.04.25.12.35.08.1.18.23.3.37l.88,1.06,1.74,2.11h-.81l-1.45-1.74-.88-1.06c-.11-.14-.21-.28-.29-.39-.08-.12-.15-.23-.19-.35s-.07-.23-.07-.35c0-.21.05-.4.16-.56.11-.17.25-.3.44-.39s.39-.14.61-.14c.25,0,.47.05.67.14s.35.22.46.39c.11.17.17.36.17.59,0,.19-.05.36-.15.52-.1.16-.23.32-.41.47-.17.15-.37.3-.6.46l-.51.36c-.1.07-.19.14-.28.22s-.16.17-.21.28-.08.23-.08.38c0,.21.07.38.22.51.14.13.33.2.57.2s.45-.04.65-.12.39-.19.54-.33c.16-.14.28-.32.37-.52.09-.21.13-.43.13-.69h.64c0,.43-.1.82-.3,1.16s-.48.6-.84.79-.76.29-1.22.29Z" fill="#231f20"/>
      <path d="M115.02,62.4v-4.9h.69v2.06h2.64v-2.06h.69v4.9h-.69v-2.21h-2.64v2.21h-.69Z" fill="#231f20"/>
    </g>
    <g isolation="isolate">
      <path d="M21.41,112.88c-.26,0-.5-.03-.71-.09-.21-.06-.4-.14-.55-.25s-.29-.22-.39-.35c-.1-.13-.18-.27-.22-.41l.67-.22c.07.19.2.36.4.5.2.14.44.21.72.22.35,0,.62-.07.82-.21s.3-.32.3-.55c0-.21-.09-.38-.26-.51-.17-.13-.4-.23-.69-.3l-.57-.15c-.22-.06-.43-.15-.61-.26-.18-.11-.33-.25-.44-.43-.11-.17-.16-.38-.16-.62,0-.45.15-.8.44-1.05.29-.25.71-.38,1.26-.38.32,0,.59.05.83.15.23.1.43.23.58.4.15.16.26.34.33.54l-.67.22c-.08-.21-.21-.38-.41-.51s-.43-.19-.71-.19-.53.07-.7.21c-.17.14-.26.33-.26.57,0,.21.07.36.2.47.13.11.31.19.54.25l.57.14c.46.11.81.3,1.06.56.25.26.37.54.37.85,0,.27-.07.51-.2.72s-.33.38-.59.5c-.26.12-.58.19-.96.19Z" fill="#231f20"/>
      <path d="M25.1,112.8v-4.27h-1.53v-.63h3.76v.63h-1.53v4.27h-.69Z" fill="#231f20"/>
      <path d="M28.03,112.8v-4.9h2.95v.63h-2.26v1.46h2.04v.62h-2.04v1.57h2.27v.63h-2.96Z" fill="#231f20"/>
      <path d="M32.17,112.8v-4.9h1.65c.33,0,.61.07.86.2.25.13.45.32.59.56.14.24.21.51.21.82s-.07.57-.2.81c-.13.24-.31.42-.54.56-.23.14-.5.2-.79.2h-1.1v1.75h-.69ZM32.86,110.41h1.09c.25,0,.45-.09.61-.26.16-.18.24-.4.24-.68s-.09-.51-.28-.68c-.18-.18-.42-.26-.7-.26h-.96v1.88Z" fill="#231f20"/>
      <path d="M37.86,112.88c-.26,0-.5-.03-.71-.09-.21-.06-.4-.14-.55-.25s-.29-.22-.39-.35c-.1-.13-.17-.27-.22-.41l.67-.22c.07.19.2.36.4.5.2.14.44.21.72.22.34,0,.62-.07.82-.21s.3-.32.3-.55c0-.21-.09-.38-.26-.51-.17-.13-.4-.23-.69-.3l-.57-.15c-.22-.06-.43-.15-.61-.26-.18-.11-.33-.25-.44-.43-.11-.17-.16-.38-.16-.62,0-.45.15-.8.44-1.05s.71-.38,1.26-.38c.32,0,.59.05.83.15.23.1.43.23.58.4.15.16.26.34.33.54l-.67.22c-.08-.21-.21-.38-.41-.51s-.43-.19-.71-.19c-.29,0-.53.07-.7.21-.17.14-.25.33-.25.57,0,.21.07.36.2.47.13.11.31.19.54.25l.57.14c.46.11.81.3,1.06.56.25.26.38.54.38.85,0,.27-.07.51-.2.72s-.33.38-.59.5-.58.19-.96.19Z" fill="#231f20"/>
    </g>
    <g isolation="isolate">
      <path d="M106.22,112.09v-4.9h1.65c.33,0,.61.06.86.19s.45.31.59.53c.14.23.21.49.21.79,0,.32-.09.6-.27.85-.18.24-.42.42-.71.53l1.18,2.01h-.78l-1.09-1.88h-.96v1.88h-.69ZM106.91,109.59h1.03c.17,0,.32-.04.45-.12s.24-.18.32-.31c.08-.13.12-.28.12-.45,0-.26-.09-.47-.27-.64-.18-.16-.42-.25-.71-.25h-.95v1.76Z" fill="#231f20"/>
      <path d="M110.1,112.09l1.97-4.9h.73l1.97,4.9h-.73l-.53-1.31h-2.16l-.53,1.31h-.74ZM111.6,110.17h1.69l-.84-2.11-.85,2.11Z" fill="#231f20"/>
      <path d="M115.47,112.09v-4.9h.71l2.77,3.75v-3.75h.69v4.9h-.69l-2.79-3.79v3.79h-.69Z" fill="#231f20"/>
      <path d="M123.12,112.18c-.49,0-.93-.11-1.32-.33-.38-.22-.69-.52-.9-.9-.22-.38-.33-.82-.33-1.31s.11-.94.33-1.32c.22-.38.52-.68.9-.9.39-.22.83-.33,1.32-.33.27,0,.53.04.78.13s.48.21.68.36c.2.15.37.33.49.52l-.55.36c-.09-.15-.21-.27-.37-.39-.15-.11-.31-.2-.49-.26s-.36-.09-.54-.09c-.36,0-.68.08-.96.25-.28.16-.5.39-.66.67s-.24.62-.24.99.08.7.23.98.38.51.66.67c.28.16.61.25.97.25.29,0,.55-.06.78-.18.23-.12.41-.28.54-.5.13-.21.2-.46.21-.74h-1.18v-.57h1.85v.5c0,.42-.1.8-.29,1.11-.19.32-.45.56-.78.74-.33.18-.71.26-1.14.26Z" fill="#231f20"/>
      <path d="M126.18,112.09v-4.9h2.95v.63h-2.26v1.46h2.04v.62h-2.04v1.57h2.27v.63h-2.96Z" fill="#231f20"/>
    </g>
    <g isolation="isolate">
      <path d="M193.43,112.18c-.26,0-.5-.03-.71-.09-.21-.06-.4-.14-.55-.25s-.29-.22-.39-.35c-.1-.13-.18-.27-.22-.41l.67-.22c.07.19.2.36.4.5.2.14.44.21.72.22.35,0,.62-.07.82-.21s.3-.32.3-.55c0-.21-.09-.38-.26-.51-.17-.13-.4-.23-.69-.3l-.57-.15c-.22-.06-.43-.15-.61-.26-.18-.11-.33-.25-.44-.43-.11-.17-.16-.38-.16-.62,0-.45.15-.8.44-1.05.29-.25.71-.38,1.26-.38.32,0,.59.05.83.15.23.1.43.23.58.4.15.16.26.34.33.54l-.67.22c-.08-.21-.21-.38-.41-.51s-.43-.19-.71-.19-.53.07-.7.21c-.17.14-.26.33-.26.57,0,.21.07.36.2.47.13.11.31.19.54.25l.57.14c.46.11.81.3,1.06.56.25.26.37.54.37.85,0,.27-.07.51-.2.72s-.33.38-.59.5c-.26.12-.58.19-.96.19Z" fill="#231f20"/>
      <path d="M196.13,112.09v-4.9h.69v4.27h2.27v.63h-2.96Z" fill="#231f20"/>
      <path d="M199.8,112.09v-4.9h2.95v.63h-2.26v1.46h2.04v.62h-2.04v1.57h2.27v.63h-2.96Z" fill="#231f20"/>
      <path d="M203.93,112.09v-4.9h2.95v.63h-2.26v1.46h2.04v.62h-2.04v1.57h2.27v.63h-2.96Z" fill="#231f20"/>
      <path d="M208.07,112.09v-4.9h1.65c.33,0,.61.07.86.2.25.13.45.32.59.56.14.24.21.51.21.82s-.07.57-.2.81c-.13.24-.31.42-.54.56-.23.14-.5.2-.79.2h-1.1v1.75h-.69ZM208.76,109.7h1.09c.25,0,.45-.09.61-.26.16-.18.24-.4.24-.68s-.09-.51-.28-.68c-.18-.18-.42-.26-.7-.26h-.96v1.88Z" fill="#231f20"/>
    </g>
    <g isolation="isolate">
      <path d="M279.02,112.09v-4.9h1.65c.33,0,.61.07.86.2.25.13.45.32.59.56.14.24.21.51.21.82s-.07.57-.2.81c-.13.24-.31.42-.54.56-.23.14-.5.2-.79.2h-1.1v1.75h-.69ZM279.71,109.7h1.09c.25,0,.45-.09.61-.26.16-.18.24-.4.24-.68s-.09-.51-.28-.68c-.18-.18-.42-.26-.7-.26h-.96v1.88Z" fill="#231f20"/>
      <path d="M283.12,112.09v-4.9h1.65c.33,0,.62.06.87.19.25.13.45.31.59.53.14.23.21.49.21.79,0,.32-.09.6-.27.85-.18.24-.42.42-.71.53l1.18,2.01h-.78l-1.09-1.88h-.96v1.88h-.69ZM283.81,109.59h1.03c.17,0,.32-.04.45-.12s.24-.18.32-.31c.08-.13.12-.28.12-.45,0-.26-.09-.47-.27-.64-.18-.16-.42-.25-.71-.25h-.94v1.76Z" fill="#231f20"/>
      <path d="M289.66,112.18c-.48,0-.9-.11-1.27-.32-.37-.21-.66-.51-.87-.9-.21-.38-.31-.82-.31-1.31s.1-.94.31-1.32c.21-.38.49-.68.86-.9.36-.22.78-.33,1.26-.33s.9.11,1.26.33c.36.22.65.52.85.9.21.38.31.82.31,1.31s-.1.93-.31,1.32c-.21.38-.49.68-.85.9-.36.21-.78.32-1.25.32ZM289.67,111.55c.33,0,.63-.08.88-.25.26-.16.46-.39.6-.67s.22-.61.22-.99-.07-.7-.22-.98c-.15-.29-.35-.51-.61-.68-.26-.16-.56-.25-.89-.25s-.63.08-.9.25c-.26.16-.47.39-.61.68-.15.29-.22.62-.22.98s.08.7.22.99.36.51.62.67c.26.16.57.25.91.25Z" fill="#231f20"/>
      <path d="M293,112.09v-4.9h1.58c.34,0,.62.05.86.15.24.1.43.25.56.46s.2.45.2.74c0,.22-.05.42-.16.6-.11.18-.25.32-.44.43.24.12.43.27.56.47.13.2.19.43.19.7,0,.28-.06.53-.19.73-.13.2-.31.36-.54.46-.23.1-.51.16-.84.16h-1.78ZM293.67,109.3h1.01c.25,0,.45-.07.6-.2.15-.14.22-.32.22-.56s-.08-.44-.25-.57-.4-.2-.71-.2h-.87v1.53ZM293.67,111.47h1.06c.29,0,.52-.07.68-.21.16-.14.24-.32.24-.56,0-.26-.09-.46-.28-.61-.18-.14-.44-.21-.77-.21h-.92v1.58Z" fill="#231f20"/>
    </g>
    <g isolation="isolate">
      <path d="M4.86,132l1.97-4.9h.74l1.97,4.9h-.74l-.53-1.31h-2.16l-.53,1.31h-.73ZM6.35,130.08h1.69l-.84-2.11-.85,2.11Z" fill="#231f20"/>
    </g>
    <g isolation="isolate">
      <path d="M5.95,175.2v-4.9h1.58c.34,0,.62.05.86.15.24.1.43.25.56.46s.2.45.2.74c0,.22-.05.42-.16.6-.1.18-.25.32-.44.43.24.12.43.27.56.47.13.2.19.43.19.7,0,.28-.06.53-.19.73-.13.2-.31.36-.54.46-.23.1-.51.16-.84.16h-1.78ZM6.63,172.41h1.01c.25,0,.45-.07.6-.2.15-.14.22-.32.22-.56s-.08-.44-.25-.57-.4-.2-.71-.2h-.87v1.53ZM6.63,174.58h1.06c.29,0,.51-.07.68-.21s.24-.32.24-.56c0-.26-.09-.46-.28-.61-.18-.14-.44-.21-.77-.21h-.92v1.58Z" fill="#231f20"/>
    </g>
    <g isolation="isolate">
      <path d="M7.26,218.48c-.47,0-.88-.11-1.25-.33-.36-.22-.65-.52-.85-.9-.21-.38-.31-.82-.31-1.31s.1-.93.31-1.31c.21-.38.49-.68.85-.9s.77-.33,1.24-.33c.3,0,.59.05.87.16s.52.26.74.46.38.42.5.68l-.62.28c-.09-.19-.21-.36-.36-.5-.15-.14-.33-.25-.52-.33-.19-.08-.4-.12-.61-.12-.33,0-.62.08-.88.25-.26.16-.46.39-.6.67-.14.28-.22.61-.22.99s.07.71.22.99c.15.29.35.51.61.68.26.16.55.24.88.24.21,0,.42-.04.61-.13.19-.09.36-.21.51-.36s.27-.33.37-.52l.62.27c-.12.27-.28.5-.5.71-.21.21-.46.37-.74.48-.28.11-.57.17-.88.17Z" fill="#231f20"/>
    </g>
    <g isolation="isolate">
      <path d="M91.25,132l1.97-4.9h.74l1.97,4.9h-.73l-.53-1.31h-2.16l-.53,1.31h-.74ZM92.75,130.08h1.69l-.84-2.11-.85,2.11Z" fill="#231f20"/>
    </g>
    <g isolation="isolate">
      <path d="M92.35,175.2v-4.9h1.58c.34,0,.62.05.86.15.24.1.43.25.56.46.13.2.2.45.2.74,0,.22-.05.42-.16.6-.11.18-.25.32-.44.43.24.12.43.27.56.47.13.2.19.43.19.7,0,.28-.06.53-.19.73-.13.2-.31.36-.54.46s-.51.16-.84.16h-1.78ZM93.03,172.41h1.01c.25,0,.45-.07.6-.2.15-.14.22-.32.22-.56s-.08-.44-.25-.57-.4-.2-.71-.2h-.87v1.53ZM93.03,174.58h1.06c.29,0,.51-.07.68-.21.16-.14.24-.32.24-.56,0-.26-.09-.46-.28-.61-.18-.14-.44-.21-.77-.21h-.92v1.58Z" fill="#231f20"/>
    </g>
    <g isolation="isolate">
      <path d="M93.66,218.48c-.47,0-.88-.11-1.25-.33s-.65-.52-.85-.9c-.21-.38-.31-.82-.31-1.31s.1-.93.31-1.31c.21-.38.49-.68.85-.9s.77-.33,1.24-.33c.3,0,.59.05.87.16s.52.26.74.46c.22.19.38.42.5.68l-.62.28c-.09-.19-.21-.36-.36-.5-.15-.14-.33-.25-.52-.33-.19-.08-.4-.12-.61-.12-.33,0-.62.08-.88.25-.26.16-.46.39-.6.67-.14.28-.22.61-.22.99s.07.71.22.99c.15.29.35.51.61.68s.55.24.89.24c.21,0,.42-.04.61-.13.19-.09.36-.21.51-.36.15-.15.27-.33.37-.52l.62.27c-.12.27-.28.5-.5.71-.21.21-.46.37-.74.48-.28.11-.57.17-.88.17Z" fill="#231f20"/>
    </g>
    <g isolation="isolate">
      <path d="M177.66,132l1.97-4.9h.74l1.97,4.9h-.73l-.53-1.31h-2.16l-.53,1.31h-.74ZM179.15,130.08h1.69l-.84-2.11-.85,2.11Z" fill="#231f20"/>
    </g>
    <g isolation="isolate">
      <path d="M178.75,175.2v-4.9h1.58c.34,0,.62.05.86.15.24.1.43.25.56.46.13.2.2.45.2.74,0,.22-.05.42-.16.6-.11.18-.25.32-.44.43.24.12.43.27.56.47.13.2.19.43.19.7,0,.28-.06.53-.19.73-.13.2-.31.36-.54.46s-.51.16-.84.16h-1.78ZM179.43,172.41h1.01c.25,0,.45-.07.6-.2.15-.14.22-.32.22-.56s-.08-.44-.25-.57-.4-.2-.71-.2h-.87v1.53ZM179.43,174.58h1.06c.29,0,.51-.07.68-.21.16-.14.24-.32.24-.56,0-.26-.09-.46-.28-.61-.18-.14-.44-.21-.77-.21h-.92v1.58Z" fill="#231f20"/>
    </g>
    <g isolation="isolate">
      <path d="M180.06,218.48c-.47,0-.88-.11-1.25-.33s-.65-.52-.85-.9c-.21-.38-.31-.82-.31-1.31s.1-.93.31-1.31c.21-.38.49-.68.85-.9s.77-.33,1.24-.33c.3,0,.59.05.87.16s.52.26.74.46c.22.19.38.42.5.68l-.62.28c-.09-.19-.21-.36-.36-.5-.15-.14-.33-.25-.52-.33-.19-.08-.4-.12-.61-.12-.33,0-.62.08-.88.25-.26.16-.46.39-.6.67-.14.28-.22.61-.22.99s.07.71.22.99c.15.29.35.51.61.68s.55.24.89.24c.21,0,.42-.04.61-.13.19-.09.36-.21.51-.36.15-.15.27-.33.37-.52l.62.27c-.12.27-.28.5-.5.71-.21.21-.46.37-.74.48-.28.11-.57.17-.88.17Z" fill="#231f20"/>
    </g>
    <g isolation="isolate">
      <path d="M264.05,132l1.97-4.9h.74l1.97,4.9h-.73l-.53-1.31h-2.16l-.53,1.31h-.73ZM265.55,130.08h1.69l-.84-2.11-.85,2.11Z" fill="#231f20"/>
    </g>
    <g isolation="isolate">
      <path d="M265.15,175.2v-4.9h1.58c.34,0,.62.05.86.15.24.1.43.25.56.46.13.2.2.45.2.74,0,.22-.05.42-.16.6-.1.18-.25.32-.44.43.24.12.43.27.56.47.13.2.19.43.19.7,0,.28-.06.53-.19.73-.13.2-.31.36-.54.46s-.51.16-.84.16h-1.78ZM265.83,172.41h1.01c.25,0,.45-.07.6-.2.15-.14.22-.32.22-.56s-.08-.44-.25-.57-.4-.2-.71-.2h-.87v1.53ZM265.83,174.58h1.06c.29,0,.51-.07.68-.21.16-.14.24-.32.24-.56,0-.26-.09-.46-.28-.61-.19-.14-.44-.21-.77-.21h-.92v1.58Z" fill="#231f20"/>
    </g>
    <g isolation="isolate">
      <path d="M266.46,218.48c-.47,0-.88-.11-1.25-.33-.36-.22-.65-.52-.85-.9-.21-.38-.31-.82-.31-1.31s.1-.93.31-1.31c.21-.38.49-.68.85-.9s.77-.33,1.24-.33c.3,0,.59.05.87.16s.52.26.74.46c.22.19.38.42.5.68l-.62.28c-.09-.19-.21-.36-.36-.5-.15-.14-.33-.25-.52-.33-.19-.08-.4-.12-.61-.12-.33,0-.62.08-.88.25-.26.16-.46.39-.6.67-.14.28-.22.61-.22.99s.07.71.22.99c.15.29.35.51.61.68s.55.24.89.24c.21,0,.42-.04.61-.13.19-.09.36-.21.51-.36.15-.15.27-.33.37-.52l.62.27c-.12.27-.28.5-.5.71-.21.21-.46.37-.74.48s-.57.17-.88.17Z" fill="#231f20"/>
    </g>
    <g isolation="isolate">
      <path d="M283.05,276v-4.9h.73l1.62,2.4,1.62-2.4h.73v4.9h-.69v-3.79l-1.67,2.46-1.66-2.45v3.79h-.69Z" fill="#231f20"/>
      <path d="M288.43,276l1.97-4.9h.74l1.97,4.9h-.74l-.53-1.31h-2.16l-.53,1.31h-.73ZM289.93,274.08h1.69l-.84-2.11-.85,2.11Z" fill="#231f20"/>
      <path d="M293.25,276l1.76-2.49-1.74-2.41h.83l1.31,1.86,1.29-1.86h.83l-1.74,2.41,1.75,2.49h-.84l-1.29-1.93-1.31,1.93h-.84Z" fill="#231f20"/>
    </g>
    <g isolation="isolate">
      <path d="M285.51,305.08v-4.9h.73l1.62,2.4,1.62-2.4h.73v4.9h-.69v-3.79l-1.67,2.46-1.66-2.45v3.79h-.69Z" fill="#231f20"/>
      <path d="M291.46,305.08v-4.9h.69v4.9h-.69Z" fill="#231f20"/>
      <path d="M293.39,305.08v-4.9h1.51c.47,0,.88.1,1.24.31.36.21.64.5.85.86.21.37.31.79.31,1.27s-.1.9-.31,1.27c-.21.37-.49.66-.85.87-.36.21-.78.32-1.24.32h-1.51ZM294.07,304.44h.83c.24,0,.46-.04.67-.14.21-.09.39-.22.54-.39.16-.17.28-.36.36-.58.09-.22.13-.46.13-.71s-.04-.49-.13-.71c-.09-.22-.21-.41-.36-.58-.16-.17-.34-.29-.54-.39-.21-.09-.43-.14-.67-.14h-.83v3.61Z" fill="#231f20"/>
    </g>
    <g isolation="isolate">
      <path d="M284.93,333.43v-4.9h.73l1.62,2.4,1.62-2.4h.73v4.9h-.69v-3.79l-1.67,2.46-1.66-2.45v3.79h-.69Z" fill="#231f20"/>
      <path d="M290.87,333.43v-4.9h.69v4.9h-.69Z" fill="#231f20"/>
      <path d="M292.81,333.43v-4.9h.71l2.77,3.75v-3.75h.69v4.9h-.69l-2.79-3.79v3.79h-.69Z" fill="#231f20"/>
    </g>
    <g isolation="isolate">
      <path d="M4.86,276l1.97-4.9h.74l1.97,4.9h-.74l-.53-1.31h-2.16l-.53,1.31h-.73ZM6.35,274.08h1.69l-.84-2.11-.85,2.11Z" fill="#231f20"/>
    </g>
    <g isolation="isolate">
      <path d="M5.95,304.8v-4.9h1.58c.34,0,.62.05.86.15.24.1.43.25.56.46.13.2.2.45.2.74,0,.22-.05.42-.16.6-.1.17-.25.32-.44.43.24.12.43.27.56.47.13.2.19.43.19.7,0,.28-.06.53-.19.73-.13.2-.31.36-.54.46-.23.1-.51.16-.84.16h-1.78ZM6.63,302.01h1.01c.25,0,.45-.07.6-.2.15-.13.22-.32.22-.56s-.08-.44-.25-.57-.4-.2-.71-.2h-.87v1.53ZM6.63,304.18h1.06c.29,0,.51-.07.68-.21.16-.14.24-.32.24-.56,0-.26-.09-.46-.28-.61-.19-.14-.44-.21-.77-.21h-.92v1.58Z" fill="#231f20"/>
    </g>
    <g isolation="isolate">
      <path d="M7.26,333.68c-.47,0-.88-.11-1.25-.33-.36-.22-.65-.52-.85-.9-.21-.38-.31-.82-.31-1.31s.1-.93.31-1.31c.21-.38.49-.68.85-.9.36-.22.77-.33,1.24-.33.3,0,.59.06.87.17s.52.26.74.46c.22.19.38.42.5.67l-.62.28c-.09-.19-.21-.36-.36-.5-.15-.14-.33-.25-.52-.33-.19-.08-.4-.12-.61-.12-.33,0-.62.08-.88.24-.26.16-.46.39-.6.67-.14.28-.22.61-.22.99s.07.71.22.99c.15.29.35.51.61.68s.55.24.89.24c.21,0,.42-.04.61-.13.19-.09.36-.21.51-.36.15-.15.27-.33.37-.52l.62.27c-.12.27-.28.5-.5.71-.21.21-.46.37-.74.48s-.57.17-.88.17Z" fill="#231f20"/>
    </g>
    <g isolation="isolate">
      <path d="M22.05,254.48c-.49,0-.93-.11-1.32-.33-.38-.22-.69-.52-.9-.9-.22-.38-.33-.82-.33-1.3s.11-.94.33-1.32c.22-.38.52-.68.9-.9.39-.22.83-.33,1.32-.33.27,0,.53.04.78.13.25.09.48.21.68.36s.37.33.49.52l-.55.36c-.09-.15-.21-.27-.36-.39-.15-.11-.31-.2-.49-.26-.18-.06-.36-.09-.54-.09-.36,0-.68.08-.96.25-.28.16-.5.39-.65.67-.16.28-.24.62-.24.99s.08.7.23.98c.16.29.38.51.66.67.28.16.61.25.97.25.29,0,.55-.06.78-.18.23-.12.41-.28.54-.5.13-.21.2-.46.21-.74h-1.18v-.57h1.86v.5c0,.42-.1.79-.29,1.11s-.45.56-.78.74c-.33.18-.71.26-1.14.26Z" fill="#fff"/>
      <path d="M24.48,254.4l1.97-4.9h.74l1.97,4.9h-.74l-.53-1.31h-2.16l-.53,1.31h-.73ZM25.98,252.47h1.69l-.84-2.11-.85,2.11Z" fill="#fff"/>
      <path d="M30.68,254.4v-4.27h-1.53v-.63h3.76v.63h-1.53v4.27h-.69Z" fill="#fff"/>
      <path d="M33.61,254.4v-4.9h2.95v.63h-2.26v1.46h2.04v.62h-2.04v1.57h2.28v.63h-2.96Z" fill="#fff"/>
    </g>
    <g isolation="isolate">
      <path d="M314.53,254.48c-.47,0-.88-.11-1.25-.33s-.65-.52-.85-.9c-.21-.38-.31-.82-.31-1.31s.1-.93.31-1.31c.21-.38.49-.68.85-.9s.77-.33,1.24-.33c.3,0,.59.05.87.16s.52.26.74.46c.22.19.38.42.5.68l-.62.28c-.09-.19-.21-.36-.36-.5-.15-.14-.33-.25-.52-.33-.19-.08-.4-.12-.61-.12-.33,0-.62.08-.88.25-.26.16-.46.39-.6.67-.14.28-.22.61-.22.99s.07.71.22.99c.15.29.35.51.61.68s.55.24.89.24c.21,0,.42-.04.61-.13.19-.09.36-.21.51-.36.15-.15.27-.33.37-.52l.62.27c-.12.27-.28.5-.5.71-.21.21-.46.37-.74.48-.28.11-.57.17-.88.17Z" fill="#fff"/>
      <path d="M318.95,254.4l-2.01-4.9h.74l1.65,4.1,1.66-4.1h.74l-2.01,4.9h-.76Z" fill="#fff"/>
    </g>
  </g>
</svg>