<?xml version="1.0" encoding="UTF-8" standalone="no"?>
<!-- Created with Inkscape (http://www.inkscape.org/) -->

<svg
   width="60.959999mm"
   height="128.5mm"
   viewBox="0 0 60.959999 128.5"
   version="1.1"
   id="svg1"
   inkscape:version="1.4.2 (ebf0e940, 2025-05-08)"
   sodipodi:docname="gsx2.svg"
   xmlns:inkscape="http://www.inkscape.org/namespaces/inkscape"
   xmlns:sodipodi="http://sodipodi.sourceforge.net/DTD/sodipodi-0.dtd"
   xmlns="http://www.w3.org/2000/svg"
   xmlns:svg="http://www.w3.org/2000/svg">
  <sodipodi:namedview
     id="namedview1"
     pagecolor="#ffffff"
     bordercolor="#000000"
     borderopacity="0.25"
     inkscape:showpageshadow="2"
     inkscape:pageopacity="0.0"
     inkscape:pagecheckerboard="0"
     inkscape:deskcolor="#d1d1d1"
     inkscape:document-units="mm"
     showgrid="true"
     inkscape:zoom="1.2593191"
     inkscape:cx="92.113273"
     inkscape:cy="226.70982"
     inkscape:window-width="1632"
     inkscape:window-height="1044"
     inkscape:window-x="87"
     inkscape:window-y="35"
     inkscape:window-maximized="0"
     inkscape:current-layer="layer1">
    <inkscape:grid
       id="grid4"
       units="mm"
       originx="30.48"
       originy="64.250001"
       spacingx="2.54"
       spacingy="2.54"
       empcolor="#0099e5"
       empopacity="0.30196078"
       color="#0099e5"
       opacity="0.14901961"
       empspacing="5"
       enabled="true"
       visible="true" />
  </sodipodi:namedview>
  <defs
     id="defs1">
    <rect
       x="115.2"
       y="108.43465"
       width="89.06625"
       height="19.199996"
       id="rect20" />
    <rect
       x="38.399999"
       y="89.234646"
       width="76.799998"
       height="19.199999"
       id="rect12" />
    <rect
       x="38.399999"
       y="89.234646"
       width="76.799998"
       height="19.199999"
       id="rect13" />
    <rect
       x="38.399999"
       y="89.234646"
       width="76.799998"
       height="19.199999"
       id="rect14" />
    <rect
       x="38.399999"
       y="89.234646"
       width="76.799998"
       height="19.199999"
       id="rect19" />
    <rect
       x="115.2"
       y="108.43465"
       width="57.599998"
       height="19.199996"
       id="rect21" />
    <rect
       x="38.399999"
       y="89.234646"
       width="76.799998"
       height="19.199999"
       id="rect42" />
    <rect
       x="38.399999"
       y="89.234646"
       width="76.799998"
       height="19.199999"
       id="rect43" />
    <rect
       x="38.399999"
       y="89.234646"
       width="76.799998"
       height="19.199999"
       id="rect44" />
    <rect
       x="38.399999"
       y="89.234646"
       width="76.799998"
       height="19.199999"
       id="rect45" />
    <rect
       x="115.2"
       y="108.43465"
       width="57.599998"
       height="19.199996"
       id="rect46" />
    <rect
       x="115.2"
       y="108.43465"
       width="57.599998"
       height="19.199996"
       id="rect47" />
    <rect
       x="38.399999"
       y="89.234646"
       width="76.799998"
       height="19.199999"
       id="rect11" />
    <rect
       x="38.399999"
       y="89.234646"
       width="76.799998"
       height="19.199999"
       id="rect15" />
    <rect
       x="38.399999"
       y="89.234646"
       width="76.799998"
       height="19.199999"
       id="rect17" />
    <rect
       x="38.399999"
       y="89.234646"
       width="76.799998"
       height="19.199999"
       id="rect18" />
    <rect
       x="38.399999"
       y="89.234646"
       width="76.799998"
       height="19.199999"
       id="rect25" />
    <rect
       x="38.399999"
       y="89.234646"
       width="76.799998"
       height="19.199999"
       id="rect27" />
    <rect
       x="38.399999"
       y="89.234646"
       width="76.799998"
       height="19.199999"
       id="rect35" />
    <rect
       x="38.399999"
       y="89.234646"
       width="76.799998"
       height="19.199999"
       id="rect36" />
    <rect
       x="38.399999"
       y="89.234646"
       width="76.799998"
       height="19.199999"
       id="rect37" />
    <rect
       x="38.399999"
       y="89.234646"
       width="76.799998"
       height="19.199999"
       id="rect38" />
    <rect
       x="38.399999"
       y="89.234646"
       width="76.799998"
       height="19.199999"
       id="rect39" />
    <rect
       x="38.399999"
       y="89.234646"
       width="76.799998"
       height="19.199999"
       id="rect40" />
    <rect
       x="38.399999"
       y="89.234646"
       width="76.799998"
       height="19.199999"
       id="rect41" />
    <rect
       x="38.399999"
       y="89.234646"
       width="76.799998"
       height="19.199999"
       id="rect50" />
    <rect
       x="38.399999"
       y="89.234646"
       width="76.799998"
       height="19.199999"
       id="rect52" />
    <rect
       x="115.2"
       y="108.43465"
       width="69.461214"
       height="49.520959"
       id="rect53" />
  </defs>
  <g
     inkscape:groupmode="layer"
     id="layer3"
     inkscape:label="Shapes"
     style="display:inline"
     sodipodi:insensitive="true">
    <rect
       style="display:inline;fill:#e6e6e6;fill-opacity:1;stroke:none;stroke-width:0.499999;stroke-linecap:round;stroke-linejoin:round"
       id="rect49"
       width="60.959999"
       height="128.5"
       x="0"
       y="0" />
    <rect
       style="fill:#000000;fill-opacity:1;stroke:none;stroke-width:0.447213;stroke-linecap:round;stroke-linejoin:round"
       id="rect48"
       width="20.32"
       height="15.24"
       x="35.559998"
       y="109.97"
       rx="2" />
  </g>
  <g
     inkscape:label="Text"
     inkscape:groupmode="layer"
     id="layer1"
     style="display:inline">
    <path
       d="m 40.788391,100.19591 h -1.356 v -8.375997 h 5.232 v 1.2 h -3.876 v 2.34 h 3.444 v 1.2 h -3.444 z m 6.839996,-3.371997 v 3.371997 h -1.356 v -8.375997 h 3.612 q 0.756,0 1.284,0.3 0.54,0.3 0.84,0.864 0.3,0.552 0.3,1.344 0,0.876 -0.42,1.5 -0.408,0.612 -1.2,0.852 l 1.8,3.515997 h -1.512 l -1.668,-3.371997 z m 0,-1.152 h 2.16 q 0.336,0 0.576,-0.12 0.252,-0.12 0.384,-0.348 0.132,-0.24 0.132,-0.576 v -0.576 q 0,-0.348 -0.132,-0.576 -0.132,-0.228 -0.384,-0.348 -0.24,-0.12 -0.576,-0.12 h -2.16 z m 11.868008,4.523997 h -5.364 v -8.375997 h 5.364 v 1.2 h -4.008 v 2.34 h 3.636 v 1.2 h -3.636 v 2.436 h 4.008 z m 6.996005,0.948 v 1.128 h -1.2 q -0.696,0 -1.032,-0.36 -0.336,-0.36 -0.336,-0.972 v -0.636 q -0.936,-0.12 -1.632,-0.647997 -0.684,-0.528 -1.056,-1.44 -0.36,-0.924 -0.36,-2.208 0,-1.416 0.444,-2.376 0.444,-0.96 1.248,-1.452 0.816,-0.504 1.908,-0.504 1.104,0 1.908,0.504 0.816,0.492 1.26,1.452 0.444,0.96 0.444,2.376 0,1.248 -0.36,2.148 -0.348,0.9 -0.996,1.44 -0.636,0.527997 -1.524,0.683997 v 0.864 z m -2.016,-2.015997 q 0.66,0 1.14,-0.3 0.48,-0.3 0.756,-0.852 0.276,-0.552 0.276,-1.308 v -1.32 q 0,-0.768 -0.276,-1.32 -0.276,-0.552 -0.756,-0.84 -0.48,-0.3 -1.14,-0.3 -0.636,0 -1.128,0.3 -0.492,0.288 -0.768,0.84 -0.264,0.552 -0.264,1.32 v 1.32 q 0,0.756 0.264,1.308 0.276,0.552 0.768,0.852 0.492,0.3 1.128,0.3 z"
       id="text12"
       style="font-weight:500;font-size:12px;font-family:'IBM Plex Sans';-inkscape-font-specification:'IBM Plex Sans, Medium';white-space:pre;stroke-width:1.88976;stroke-linecap:round;stroke-linejoin:round"
       transform="matrix(0.26458333,0,0,0.26458333,-4.064104,-7.1276813)"
       aria-label="FREQ" />
    <path
       d="m 41.940391,100.33991 q -1.044,0 -1.788,-0.383997 -0.744,-0.396 -1.272,-1.032 l 0.948,-0.876 q 0.432,0.54 0.96,0.816 0.54,0.276 1.224,0.276 0.804,0 1.212,-0.36 0.408,-0.372 0.408,-0.972 0,-0.324 -0.12,-0.564 -0.12,-0.24 -0.408,-0.396 -0.288,-0.156 -0.768,-0.252 l -0.744,-0.132 q -0.816,-0.156 -1.368,-0.456 -0.54,-0.3 -0.816,-0.78 -0.276,-0.492 -0.276,-1.152 0,-0.744 0.36,-1.284 0.36,-0.54 1.02,-0.828 0.672,-0.288 1.56,-0.288 0.948,0 1.644,0.336 0.696,0.324 1.176,0.948 l -0.948,0.84 q -0.324,-0.42 -0.792,-0.672 -0.468,-0.252 -1.164,-0.252 -0.72,0 -1.116,0.288 -0.384,0.288 -0.384,0.84 0,0.348 0.144,0.576 0.144,0.228 0.432,0.372 0.3,0.144 0.744,0.228 l 0.744,0.156 q 0.84,0.156 1.38,0.468 0.54,0.312 0.792,0.792 0.264,0.468 0.264,1.14 0,0.78 -0.36,1.368 -0.36,0.576 -1.044,0.911997 -0.684,0.324 -1.644,0.324 z m 10.080008,-7.319997 h -2.496 v 7.175997 h -1.356 v -7.175997 h -2.496 v -1.2 h 6.348 z m 2.675996,3.804 v 3.371997 h -1.356 v -8.375997 h 3.612 q 0.756,0 1.284,0.3 0.54,0.3 0.84,0.864 0.3,0.552 0.3,1.344 0,0.876 -0.42,1.5 -0.408,0.612 -1.2,0.852 l 1.8,3.515997 h -1.512 l -1.668,-3.371997 z m 0,-1.152 h 2.16 q 0.336,0 0.576,-0.12 0.252,-0.12 0.384,-0.348 0.132,-0.24 0.132,-0.576 v -0.576 q 0,-0.348 -0.132,-0.576 -0.132,-0.228 -0.384,-0.348 -0.24,-0.12 -0.576,-0.12 h -2.16 z m 11.868009,4.523997 h -5.364 v -8.375997 h 5.364 v 1.2 h -4.008 v 2.34 h 3.636 v 1.2 h -3.636 v 2.436 h 4.008 z m 8.376005,0 h -1.416 l -0.732,-2.267997 h -3.132 l -0.744,2.267997 h -1.368 l 2.856,-8.375997 h 1.692 z m -2.484,-3.431997 -0.828,-2.484 -0.384,-1.212 h -0.06 l -0.384,1.212 -0.828,2.484 z m 3.779998,3.431997 v -8.375997 h 1.596 l 1.38,2.616 0.876,1.644 h 0.036 l 0.876,-1.644 1.38,-2.616 h 1.572 v 8.375997 h -1.296 v -5.027997 -1.356 h -0.048 l -0.672,1.32 -1.848,3.36 -1.824,-3.348 -0.684,-1.368 h -0.048 v 1.392 5.027997 z m 12.288006,0.144 q -1.044,0 -1.788,-0.383997 -0.744,-0.396 -1.272,-1.032 l 0.948,-0.876 q 0.432,0.54 0.96,0.816 0.54,0.276 1.224,0.276 0.804,0 1.212,-0.36 0.408,-0.372 0.408,-0.972 0,-0.324 -0.12,-0.564 -0.12,-0.24 -0.408,-0.396 -0.288,-0.156 -0.768,-0.252 l -0.744,-0.132 q -0.816,-0.156 -1.368,-0.456 -0.54,-0.3 -0.816,-0.78 -0.276,-0.492 -0.276,-1.152 0,-0.744 0.36,-1.284 0.36,-0.54 1.02,-0.828 0.672,-0.288 1.56,-0.288 0.948,0 1.644,0.336 0.696,0.324 1.176,0.948 l -0.948,0.84 q -0.324,-0.42 -0.792,-0.672 -0.468,-0.252 -1.164,-0.252 -0.72,0 -1.116,0.288 -0.384,0.288 -0.384,0.84 0,0.348 0.144,0.576 0.144,0.228 0.432,0.372 0.3,0.144 0.744,0.228 l 0.744,0.156 q 0.84,0.156 1.38,0.468 0.54,0.312 0.792,0.792 0.264,0.468 0.264,1.14 0,0.78 -0.36,1.368 -0.36,0.576 -1.044,0.911997 -0.684,0.324 -1.644,0.324 z"
       id="text13"
       style="font-weight:500;font-size:12px;font-family:'IBM Plex Sans';-inkscape-font-specification:'IBM Plex Sans, Medium';white-space:pre;stroke-width:1.88976;stroke-linecap:round;stroke-linejoin:round"
       transform="matrix(0.26458333,0,0,0.26458333,13.222178,-6.8720953)"
       aria-label="STREAMS" />
    <path
       d="m 41.940391,100.33991 q -1.044,0 -1.788,-0.383997 -0.744,-0.396 -1.272,-1.032 l 0.948,-0.876 q 0.432,0.54 0.96,0.816 0.54,0.276 1.224,0.276 0.804,0 1.212,-0.36 0.408,-0.372 0.408,-0.972 0,-0.324 -0.12,-0.564 -0.12,-0.24 -0.408,-0.396 -0.288,-0.156 -0.768,-0.252 l -0.744,-0.132 q -0.816,-0.156 -1.368,-0.456 -0.54,-0.3 -0.816,-0.78 -0.276,-0.492 -0.276,-1.152 0,-0.744 0.36,-1.284 0.36,-0.54 1.02,-0.828 0.672,-0.288 1.56,-0.288 0.948,0 1.644,0.336 0.696,0.324 1.176,0.948 l -0.948,0.84 q -0.324,-0.42 -0.792,-0.672 -0.468,-0.252 -1.164,-0.252 -0.72,0 -1.116,0.288 -0.384,0.288 -0.384,0.84 0,0.348 0.144,0.576 0.144,0.228 0.432,0.372 0.3,0.144 0.744,0.228 l 0.744,0.156 q 0.84,0.156 1.38,0.468 0.54,0.312 0.792,0.792 0.264,0.468 0.264,1.14 0,0.78 -0.36,1.368 -0.36,0.576 -1.044,0.911997 -0.684,0.324 -1.644,0.324 z m 9.828011,-0.144 v -3.635997 h -3.792 v 3.635997 h -1.356 v -8.375997 h 1.356 v 3.54 h 3.792 v -3.54 h 1.356 v 8.375997 z m 10.044008,0 h -1.416 l -0.732,-2.267997 h -3.132 l -0.744,2.267997 h -1.368 l 2.856,-8.375997 h 1.692 z m -2.484,-3.431997 -0.828,-2.484 -0.384,-1.212 h -0.06 l -0.384,1.212 -0.828,2.484 z m 5.135998,3.431997 h -1.356 v -8.375997 h 3.6 q 0.768,0 1.308,0.312 0.552,0.312 0.84,0.876 0.288,0.564 0.288,1.332 0,0.756 -0.288,1.32 -0.288,0.564 -0.84,0.888 -0.54,0.312 -1.308,0.312 h -2.244 z m 0,-7.187997 v 2.664 h 2.16 q 0.336,0 0.576,-0.12 0.252,-0.12 0.384,-0.348 0.132,-0.24 0.132,-0.576 v -0.576 q 0,-0.348 -0.132,-0.576 -0.132,-0.228 -0.384,-0.348 -0.24,-0.12 -0.576,-0.12 z m 11.53201,7.187997 h -5.364 v -8.375997 h 5.364 v 1.2 h -4.008 v 2.34 h 3.636 v 1.2 h -3.636 v 2.436 h 4.008 z"
       id="text14"
       style="font-weight:500;font-size:12px;font-family:'IBM Plex Sans';-inkscape-font-specification:'IBM Plex Sans, Medium';white-space:pre;stroke-width:1.88976;stroke-linecap:round;stroke-linejoin:round"
       transform="matrix(0.26458333,0,0,0.26458333,35.602753,-6.8720953)"
       aria-label="SHAPE" />
    <path
       d="m 40.788391,96.823913 v 3.371997 h -1.356 v -8.375997 h 3.612 q 0.756,0 1.284,0.3 0.54,0.3 0.84,0.864 0.3,0.552 0.3,1.344 0,0.876 -0.42,1.5 -0.408,0.612 -1.2,0.852 l 1.8,3.515997 h -1.512 l -1.668,-3.371997 z m 0,-1.152 h 2.16 q 0.336,0 0.576,-0.12 0.252,-0.12 0.384,-0.348 0.132,-0.24 0.132,-0.576 v -0.576 q 0,-0.348 -0.132,-0.576 -0.132,-0.228 -0.384,-0.348 -0.24,-0.12 -0.576,-0.12 h -2.16 z m 13.128008,4.523997 h -1.416 l -0.732,-2.267997 h -3.132 l -0.744,2.267997 h -1.368 l 2.856,-8.375997 h 1.692 z m -2.484,-3.431997 -0.828,-2.484 -0.384,-1.212 h -0.06 l -0.384,1.212 -0.828,2.484 z m 8.771998,3.431997 -2.736,-4.619997 -0.924,-1.788 h -0.036 v 1.824 4.583997 h -1.296 v -8.375997 h 1.524 l 2.724,4.62 0.924,1.788 h 0.036 v -1.824 -4.584 h 1.296 v 8.375997 z m 8.952008,0 v -1.271997 h -0.048 q -0.12,0.6 -0.708,1.008 -0.588,0.407997 -1.536,0.407997 -0.996,0 -1.788,-0.491997 -0.78,-0.504 -1.224,-1.464 -0.444,-0.96 -0.444,-2.364 0,-1.404 0.456,-2.364 0.456,-0.972 1.284,-1.476 0.828,-0.504 1.92,-0.504 1.116,0 1.896,0.504 0.792,0.504 1.224,1.38 l -1.104,0.648 q -0.252,-0.588 -0.756,-0.948 -0.492,-0.372 -1.26,-0.372 -0.66,0 -1.164,0.288 -0.504,0.288 -0.78,0.84 -0.276,0.54 -0.276,1.308 v 1.356 q 0,0.768 0.276,1.32 0.276,0.54 0.78,0.84 0.516,0.288 1.212,0.288 0.54,0 0.972,-0.168 0.432,-0.18 0.696,-0.528 0.264,-0.36 0.264,-0.888 v -0.648 h -1.728 v -1.164 h 3.036 v 4.463997 z m 8.448,0 h -5.364 v -8.375997 h 5.364 v 1.2 h -4.008 v 2.34 h 3.636 v 1.2 h -3.636 v 2.436 h 4.008 z"
       id="text19"
       style="font-weight:500;font-size:12px;font-family:'IBM Plex Sans';-inkscape-font-specification:'IBM Plex Sans, Medium';white-space:pre;stroke-width:1.88976;stroke-linecap:round;stroke-linejoin:round"
       transform="matrix(0.26458333,0,0,0.26458333,-5.3229921,23.607909)"
       aria-label="RANGE" />
    <path
       d="m 116.23122,119.39709 v -8.376 h 2.964 q 1.068,0 1.86,0.468 0.804,0.456 1.236,1.392 0.444,0.924 0.444,2.328 0,1.404 -0.444,2.34 -0.432,0.924 -1.236,1.392 -0.792,0.456 -1.86,0.456 z m 1.356,-1.2 h 1.608 q 0.624,0 1.092,-0.264 0.48,-0.264 0.732,-0.78 0.264,-0.516 0.264,-1.272 v -1.344 q 0,-0.756 -0.264,-1.272 -0.252,-0.516 -0.732,-0.78 -0.468,-0.264 -1.092,-0.264 h -1.608 z m 6.77999,-7.176 h 1.332 v 5.16 q 0,0.708 0.168,1.188 0.18,0.48 0.576,0.72 0.396,0.24 1.044,0.24 0.66,0 1.044,-0.24 0.396,-0.24 0.576,-0.72 0.18,-0.48 0.18,-1.188 v -5.16 h 1.332 v 4.944 q 0,1.224 -0.312,2.016 -0.3,0.792 -0.996,1.176 -0.684,0.384 -1.836,0.384 -1.152,0 -1.836,-0.384 -0.672,-0.384 -0.972,-1.176 -0.3,-0.792 -0.3,-2.016 z m 9.62399,5.004 v 3.372 h -1.356 v -8.376 h 3.612 q 0.756,0 1.284,0.3 0.54,0.3 0.84,0.864 0.3,0.552 0.3,1.344 0,0.876 -0.42,1.5 -0.408,0.612 -1.2,0.852 l 1.8,3.516 h -1.512 l -1.668,-3.372 z m 0,-1.152 h 2.16 q 0.336,0 0.576,-0.12 0.252,-0.12 0.384,-0.348 0.132,-0.24 0.132,-0.576 v -0.576 q 0,-0.348 -0.132,-0.576 -0.132,-0.228 -0.384,-0.348 -0.24,-0.12 -0.576,-0.12 h -2.16 z m 13.12801,4.524 h -1.416 l -0.732,-2.268 h -3.132 l -0.744,2.268 h -1.368 l 2.856,-8.376 h 1.692 z m -2.484,-3.432 -0.828,-2.484 -0.384,-1.212 h -0.06 l -0.384,1.212 -0.828,2.484 z m 8.60399,-3.744 h -2.496 v 7.176 h -1.356 v -7.176 h -2.496 v -1.2 h 6.348 z m 4.51199,7.176 h -3.624 v -1.104 h 1.128 v -6.168 h -1.128 v -1.104 h 3.624 v 1.104 h -1.14 v 6.168 h 1.14 z m 4.932,0.144 q -1.092,0 -1.908,-0.492 -0.804,-0.504 -1.248,-1.464 -0.444,-0.972 -0.444,-2.376 0,-1.416 0.444,-2.376 0.444,-0.96 1.248,-1.452 0.816,-0.504 1.908,-0.504 1.104,0 1.908,0.504 0.816,0.492 1.26,1.452 0.444,0.96 0.444,2.376 0,1.404 -0.444,2.376 -0.444,0.96 -1.26,1.464 -0.804,0.492 -1.908,0.492 z m 0,-1.212 q 0.66,0 1.14,-0.3 0.48,-0.3 0.756,-0.852 0.276,-0.552 0.276,-1.308 v -1.32 q 0,-0.768 -0.276,-1.32 -0.276,-0.552 -0.756,-0.84 -0.48,-0.3 -1.14,-0.3 -0.636,0 -1.128,0.3 -0.492,0.288 -0.768,0.84 -0.264,0.552 -0.264,1.32 v 1.32 q 0,0.756 0.264,1.308 0.276,0.552 0.768,0.852 0.492,0.3 1.128,0.3 z m 10.296,1.068 -2.736,-4.62 -0.924,-1.788 h -0.036 v 1.824 4.584 h -1.296 v -8.376 h 1.524 l 2.724,4.62 0.924,1.788 h 0.036 v -1.824 -4.584 h 1.296 v 8.376 z"
       id="text20"
       style="font-weight:500;font-size:12px;font-family:'IBM Plex Sans';-inkscape-font-specification:'IBM Plex Sans, Medium';white-space:pre;stroke-width:1.88976;stroke-linecap:round;stroke-linejoin:round"
       transform="matrix(0.26458333,0,0,0.26458333,-7.9801509,18.527599)"
       aria-label="DURATION" />
    <path
       d="m 116.23122,119.39709 v -8.376 h 2.964 q 1.068,0 1.86,0.468 0.804,0.456 1.236,1.392 0.444,0.924 0.444,2.328 0,1.404 -0.444,2.34 -0.432,0.924 -1.236,1.392 -0.792,0.456 -1.86,0.456 z m 1.356,-1.2 h 1.608 q 0.624,0 1.092,-0.264 0.48,-0.264 0.732,-0.78 0.264,-0.516 0.264,-1.272 v -1.344 q 0,-0.756 -0.264,-1.272 -0.252,-0.516 -0.732,-0.78 -0.468,-0.264 -1.092,-0.264 h -1.608 z m 12.19199,1.2 h -5.364 v -8.376 h 5.364 v 1.2 h -4.008 v 2.34 h 3.636 v 1.2 h -3.636 v 2.436 h 4.008 z m 6.516,0 h -4.764 v -8.376 h 1.356 v 7.176 h 3.408 z m 8.23201,0 h -1.416 l -0.732,-2.268 h -3.132 l -0.744,2.268 h -1.368 l 2.856,-8.376 h 1.692 z m -2.484,-3.432 -0.828,-2.484 -0.384,-1.212 h -0.06 l -0.384,1.212 -0.828,2.484 z m 6.38398,3.432 h -1.356 v -3.3 l -2.88,-5.076 h 1.536 l 2.052,3.732 h 0.024 l 2.016,-3.732 h 1.512 l -2.904,5.052 z"
       id="text21"
       style="font-weight:500;font-size:12px;font-family:'IBM Plex Sans';-inkscape-font-specification:'IBM Plex Sans, Medium';white-space:pre;stroke-width:1.88976;stroke-linecap:round;stroke-linejoin:round"
       transform="matrix(0.26458333,0,0,0.26458333,15.40372,18.527599)"
       aria-label="DELAY" />
    <path
       style="font-weight:500;font-size:3.175px;font-family:'IBM Plex Sans';-inkscape-font-specification:'IBM Plex Sans, Medium';stroke-width:0.5;stroke-linecap:round;stroke-linejoin:round"
       d="m 3.6560148,80.598068 v -2.21615 h 0.784225 q 0.282575,0 0.492125,0.123825 0.212725,0.12065 0.327025,0.3683 0.117475,0.244475 0.117475,0.61595 0,0.371475 -0.117475,0.619125 -0.1143,0.244475 -0.327025,0.3683 -0.20955,0.12065 -0.492125,0.12065 z m 0.358775,-0.3175 h 0.42545 q 0.1651,0 0.288925,-0.06985 0.127,-0.06985 0.193675,-0.206375 0.06985,-0.136525 0.06985,-0.33655 v -0.3556 q 0,-0.200025 -0.06985,-0.33655 -0.066675,-0.136525 -0.193675,-0.206375 -0.123825,-0.06985 -0.288925,-0.06985 h -0.42545 z m 3.2257974,0.3175 h -1.419225 v -2.21615 h 1.419225 v 0.3175 h -1.06045 v 0.619125 h 0.962025 v 0.3175 h -0.962025 v 0.644525 h 1.06045 z m 1.784351,0 -0.7239,-1.222375 -0.244475,-0.473075 h -0.00953 v 0.4826 1.21285 h -0.3429 v -2.21615 h 0.403225 l 0.720725,1.222375 0.244475,0.473075 h 0.00953 v -0.4826 -1.21285 h 0.3429 v 2.21615 z m 1.6097278,0.0381 q -0.276225,0 -0.473075,-0.1016 -0.1968503,-0.104775 -0.3365503,-0.27305 l 0.2508253,-0.231775 q 0.1143,0.142875 0.254,0.2159 0.142875,0.07303 0.32385,0.07303 0.212725,0 0.320675,-0.09525 0.10795,-0.09842 0.10795,-0.257175 0,-0.08573 -0.03175,-0.149225 -0.03175,-0.0635 -0.10795,-0.104775 -0.0762,-0.04127 -0.2032,-0.06668 l -0.19685,-0.03493 q -0.2159,-0.04127 -0.36195,-0.12065 -0.142875,-0.07937 -0.2159003,-0.206375 -0.073025,-0.130175 -0.073025,-0.3048 0,-0.19685 0.09525,-0.339725 0.09525,-0.142875 0.2698753,-0.219075 0.1778,-0.0762 0.41275,-0.0762 0.250825,0 0.434975,0.0889 0.18415,0.08573 0.31115,0.250825 l -0.250825,0.22225 q -0.08573,-0.111125 -0.20955,-0.1778 -0.123825,-0.06668 -0.307975,-0.06668 -0.1905,0 -0.295275,0.0762 -0.1016,0.0762 -0.1016,0.22225 0,0.09208 0.0381,0.1524 0.0381,0.06033 0.1143,0.09843 0.07937,0.0381 0.19685,0.06032 l 0.19685,0.04127 q 0.22225,0.04128 0.365125,0.123825 0.142875,0.08255 0.20955,0.20955 0.06985,0.123825 0.06985,0.301625 0,0.206375 -0.09525,0.36195 -0.09525,0.1524 -0.276225,0.2413 -0.180975,0.08572 -0.434975,0.08572 z m 2.101853,-0.0381 h -0.95885 v -0.2921 h 0.29845 v -1.63195 h -0.29845 v -0.2921 h 0.95885 v 0.2921 h -0.301625 v 1.63195 h 0.301625 z m 1.914521,-1.89865 h -0.6604 v 1.89865 h -0.358775 v -1.89865 h -0.6604 v -0.3175 h 1.679575 z m 1.244598,1.89865 h -0.358775 v -0.873125 l -0.762,-1.343025 h 0.4064 l 0.542925,0.987425 h 0.0063 l 0.5334,-0.987425 h 0.40005 l -0.76835,1.336675 z"
       id="text22"
       aria-label="DENSITY" />
    <path
       style="font-weight:500;font-size:3.175px;font-family:'IBM Plex Sans';-inkscape-font-specification:'IBM Plex Sans, Medium';stroke-width:0.5;stroke-linecap:round;stroke-linejoin:round"
       d="m 23.350541,80.598068 h -0.415925 l -0.727075,-2.21615 h 0.37465 l 0.34925,1.095375 0.2159,0.771525 h 0.0127 l 0.2159,-0.771525 0.352425,-1.095375 h 0.358775 z m 2.670175,0 h -0.37465 l -0.193675,-0.600075 h -0.828675 l -0.19685,0.600075 h -0.36195 l 0.75565,-2.21615 h 0.447675 z m -0.657225,-0.90805 -0.219075,-0.657225 -0.1016,-0.320675 h -0.01587 l -0.1016,0.320675 -0.219075,0.657225 z m 1.3589,0.01588 v 0.892175 h -0.358775 v -2.21615 h 0.955675 q 0.200025,0 0.339725,0.07937 0.142875,0.07937 0.22225,0.2286 0.07937,0.14605 0.07937,0.3556 0,0.231775 -0.111125,0.396875 -0.10795,0.161925 -0.3175,0.225425 l 0.47625,0.930275 h -0.40005 l -0.441325,-0.892175 z m 0,-0.3048 h 0.5715 q 0.0889,0 0.1524,-0.03175 0.06668,-0.03175 0.1016,-0.09207 0.03493,-0.0635 0.03493,-0.1524 v -0.1524 q 0,-0.09208 -0.03493,-0.1524 -0.03493,-0.06033 -0.1016,-0.09208 -0.0635,-0.03175 -0.1524,-0.03175 h -0.5715 z m 2.584452,1.196975 h -0.95885 v -0.2921 h 0.29845 v -1.63195 h -0.29845 v -0.2921 h 0.95885 v 0.2921 h -0.301625 v 1.63195 h 0.301625 z m 2.203448,0 h -0.37465 l -0.193675,-0.600075 h -0.828675 l -0.19685,0.600075 h -0.36195 l 0.75565,-2.21615 h 0.447675 z m -0.657225,-0.90805 -0.219075,-0.657225 -0.1016,-0.320675 h -0.01588 l -0.1016,0.320675 -0.219075,0.657225 z m 2.276473,-0.9906 h -0.6604 v 1.89865 h -0.358775 v -1.89865 h -0.6604 v -0.3175 h 1.679575 z m 1.193797,1.89865 h -0.958849 v -0.2921 h 0.29845 v -1.63195 h -0.29845 v -0.2921 h 0.958849 v 0.2921 h -0.301624 v 1.63195 h 0.301624 z m 1.304924,0.0381 q -0.288925,0 -0.504825,-0.130175 -0.212725,-0.13335 -0.3302,-0.38735 -0.117475,-0.257175 -0.117475,-0.62865 0,-0.37465 0.117475,-0.62865 0.117475,-0.254 0.3302,-0.384175 0.2159,-0.13335 0.504825,-0.13335 0.2921,0 0.504825,0.13335 0.2159,0.130175 0.333375,0.384175 0.117475,0.254 0.117475,0.62865 0,0.371475 -0.117475,0.62865 -0.117475,0.254 -0.333375,0.38735 -0.212725,0.130175 -0.504825,0.130175 z m 0,-0.320675 q 0.174625,0 0.301625,-0.07937 0.127,-0.07937 0.200025,-0.225425 0.07302,-0.14605 0.07302,-0.346075 v -0.34925 q 0,-0.2032 -0.07302,-0.34925 -0.07303,-0.14605 -0.200025,-0.22225 -0.127,-0.07938 -0.301625,-0.07938 -0.168275,0 -0.29845,0.07938 -0.130175,0.0762 -0.2032,0.22225 -0.06985,0.14605 -0.06985,0.34925 v 0.34925 q 0,0.200025 0.06985,0.346075 0.07303,0.14605 0.2032,0.225425 0.130175,0.07937 0.29845,0.07937 z m 2.724151,0.282575 -0.7239,-1.222375 -0.244475,-0.473075 h -0.0095 v 0.4826 1.21285 h -0.3429 v -2.21615 h 0.403225 l 0.720725,1.222375 0.244475,0.473075 h 0.0095 v -0.4826 -1.21285 h 0.3429 v 2.21615 z"
       id="text23"
       aria-label="VARIATION" />
    <path
       style="font-weight:500;font-size:3.175px;font-family:'IBM Plex Sans';-inkscape-font-specification:'IBM Plex Sans, Medium';stroke-width:0.5;stroke-linecap:round;stroke-linejoin:round"
       d="m 45.700945,80.636168 q -0.276225,0 -0.473075,-0.1016 -0.19685,-0.104775 -0.33655,-0.27305 l 0.250825,-0.231775 q 0.1143,0.142875 0.254,0.2159 0.142875,0.07303 0.32385,0.07303 0.212725,0 0.320675,-0.09525 0.10795,-0.09842 0.10795,-0.257175 0,-0.08573 -0.03175,-0.149225 -0.03175,-0.0635 -0.10795,-0.104775 -0.0762,-0.04127 -0.2032,-0.06668 l -0.19685,-0.03493 q -0.2159,-0.04127 -0.36195,-0.12065 -0.142875,-0.07937 -0.2159,-0.206375 -0.07303,-0.130175 -0.07303,-0.3048 0,-0.19685 0.09525,-0.339725 0.09525,-0.142875 0.269875,-0.219075 0.1778,-0.0762 0.41275,-0.0762 0.250825,0 0.434975,0.0889 0.18415,0.08573 0.31115,0.250825 l -0.250825,0.22225 q -0.08572,-0.111125 -0.20955,-0.1778 -0.123825,-0.06668 -0.307975,-0.06668 -0.1905,0 -0.295275,0.0762 -0.1016,0.0762 -0.1016,0.22225 0,0.09208 0.0381,0.1524 0.0381,0.06033 0.1143,0.09843 0.07937,0.0381 0.19685,0.06032 l 0.19685,0.04127 q 0.22225,0.04128 0.365125,0.123825 0.142875,0.08255 0.20955,0.20955 0.06985,0.123825 0.06985,0.301625 0,0.206375 -0.09525,0.36195 -0.09525,0.1524 -0.276225,0.2413 -0.180975,0.08572 -0.434975,0.08572 z m 1.597028,-0.0381 h -0.358775 v -2.21615 h 0.9525 q 0.2032,0 0.346075,0.08255 0.14605,0.08255 0.22225,0.231775 0.0762,0.149225 0.0762,0.352425 0,0.200025 -0.0762,0.34925 -0.0762,0.149225 -0.22225,0.23495 -0.142875,0.08255 -0.346075,0.08255 h -0.593725 z m 0,-1.901825 v 0.70485 h 0.5715 q 0.0889,0 0.1524,-0.03175 0.06668,-0.03175 0.1016,-0.09207 0.03493,-0.0635 0.03493,-0.1524 v -0.1524 q 0,-0.09208 -0.03493,-0.1524 -0.03492,-0.06033 -0.1016,-0.09208 -0.0635,-0.03175 -0.1524,-0.03175 z m 1.990728,1.00965 v 0.892175 h -0.358775 v -2.21615 h 0.955675 q 0.200025,0 0.339725,0.07937 0.142875,0.07937 0.22225,0.2286 0.07937,0.14605 0.07937,0.3556 0,0.231775 -0.111125,0.396875 -0.10795,0.161925 -0.3175,0.225425 l 0.47625,0.930275 h -0.40005 l -0.441325,-0.892175 z m 0,-0.3048 h 0.5715 q 0.0889,0 0.1524,-0.03175 0.06668,-0.03175 0.1016,-0.09207 0.03493,-0.0635 0.03493,-0.1524 v -0.1524 q 0,-0.09208 -0.03493,-0.1524 -0.03493,-0.06033 -0.1016,-0.09208 -0.0635,-0.03175 -0.1524,-0.03175 h -0.5715 z m 3.140077,1.196975 h -1.419225 v -2.21615 h 1.419225 v 0.3175 h -1.06045 v 0.619125 h 0.962025 v 0.3175 h -0.962025 v 0.644525 h 1.06045 z m 2.216151,0 h -0.37465 l -0.193675,-0.600075 h -0.828675 l -0.19685,0.600075 h -0.36195 l 0.75565,-2.21615 h 0.447675 z m -0.657225,-0.90805 -0.219075,-0.657225 -0.1016,-0.320675 h -0.01588 l -0.1016,0.320675 -0.219075,0.657225 z m 1.000125,0.90805 v -2.21615 h 0.784225 q 0.282575,0 0.492125,0.123825 0.212725,0.12065 0.327025,0.3683 0.117475,0.244475 0.117475,0.61595 0,0.371475 -0.117475,0.619125 -0.1143,0.244475 -0.327025,0.3683 -0.20955,0.12065 -0.492125,0.12065 z m 0.358775,-0.3175 h 0.42545 q 0.1651,0 0.288925,-0.06985 0.127,-0.06985 0.193675,-0.206375 0.06985,-0.136525 0.06985,-0.33655 v -0.3556 q 0,-0.200025 -0.06985,-0.33655 -0.06668,-0.136525 -0.193675,-0.206375 -0.123825,-0.06985 -0.288925,-0.06985 h -0.42545 z"
       id="text24"
       aria-label="SPREAD" />
    <path
       style="font-weight:500;font-size:3.175px;font-family:'IBM Plex Sans';-inkscape-font-specification:'IBM Plex Sans, Medium';fill:#ffffff;stroke-width:0.5;stroke-linecap:round;stroke-linejoin:round"
       d="M 41.270235,114.57056 H 40.00976 v -2.21615 h 0.358775 v 1.89865 h 0.9017 z"
       id="text47"
       aria-label="L" />
    <path
       style="font-weight:500;font-size:3.175px;font-family:'IBM Plex Sans';-inkscape-font-specification:'IBM Plex Sans, Medium';fill:#ffffff;stroke-width:0.5;stroke-linecap:round;stroke-linejoin:round"
       d="m 50.336449,113.67839 v 0.89217 h -0.358775 v -2.21615 h 0.955675 q 0.200025,0 0.339725,0.0794 0.142875,0.0794 0.22225,0.2286 0.07938,0.14605 0.07938,0.3556 0,0.23177 -0.111125,0.39687 -0.10795,0.16193 -0.3175,0.22543 l 0.47625,0.93027 h -0.40005 l -0.441325,-0.89217 z m 0,-0.3048 h 0.5715 q 0.0889,0 0.1524,-0.0318 0.06667,-0.0318 0.1016,-0.0921 0.03493,-0.0635 0.03493,-0.1524 v -0.1524 q 0,-0.0921 -0.03493,-0.1524 -0.03493,-0.0603 -0.1016,-0.0921 -0.0635,-0.0318 -0.1524,-0.0318 h -0.5715 z"
       id="text48"
       aria-label="R" />
    <path
       d="m 41.727059,95.324121 h -2.800001 v -0.606666 h 1.1 V 91.18412 h -0.04667 l -0.84,0.92 -0.44,-0.373334 0.953334,-1.06 h 1.08 v 4.046669 h 0.993334 z"
       id="text11"
       style="font-weight:500;font-stretch:condensed;font-size:6.66667px;font-family:'IBM Plex Sans Condensed';-inkscape-font-specification:'IBM Plex Sans Condensed, Medium Condensed';white-space:pre;fill:#231f20;stroke-width:1.88976;stroke-linecap:round;stroke-linejoin:round"
       transform="matrix(0.26458333,0,0,0.26458333,14.760119,9.1644241)"
       aria-label="1" />
    <path
       d="m 41.653726,94.717455 v 0.606666 h -2.860002 v -0.686667 l 1.353334,-1.373333 q 0.34,-0.346667 0.486667,-0.620001 0.153333,-0.273333 0.153333,-0.553333 v -0.193334 q 0,-0.34 -0.166666,-0.513333 -0.16,-0.18 -0.480001,-0.18 -0.326666,0 -0.52,0.2 -0.186667,0.193333 -0.26,0.5 l -0.62,-0.24 q 0.08667,-0.3 0.266667,-0.540001 0.18,-0.246666 0.466666,-0.386666 0.293334,-0.146667 0.706667,-0.146667 0.480001,0 0.773334,0.153333 0.3,0.153334 0.44,0.453334 0.14,0.3 0.14,0.72 0,0.313334 -0.08,0.566667 -0.08,0.253334 -0.286666,0.526667 -0.2,0.273334 -0.566667,0.646667 l -1.040001,1.060001 z m 2.146673,0.686667 q -0.52,0 -0.86,-0.240001 -0.34,-0.246666 -0.5,-0.773333 -0.153334,-0.533334 -0.153334,-1.393334 0,-0.860001 0.153334,-1.386668 0.16,-0.533333 0.5,-0.773333 0.34,-0.246667 0.86,-0.246667 0.526667,0 0.860001,0.246667 0.34,0.24 0.493333,0.773333 0.16,0.526667 0.16,1.386668 0,0.86 -0.16,1.393334 -0.153333,0.526667 -0.493333,0.773333 -0.333334,0.240001 -0.860001,0.240001 z m 0,-0.606667 q 0.28,0 0.446667,-0.126667 0.166667,-0.126667 0.24,-0.38 0.07333,-0.26 0.07333,-0.646667 v -1.293334 q 0,-0.386667 -0.07333,-0.640001 -0.07333,-0.26 -0.24,-0.386666 -0.166667,-0.126667 -0.446667,-0.126667 -0.28,0 -0.446667,0.126667 -0.166666,0.126666 -0.24,0.386666 -0.07333,0.253334 -0.07333,0.640001 v 1.293334 q 0,0.386667 0.07333,0.646667 0.07333,0.253333 0.24,0.38 0.166667,0.126667 0.446667,0.126667 z"
       id="text15"
       style="font-weight:500;font-stretch:condensed;font-size:6.66667px;font-family:'IBM Plex Sans Condensed';-inkscape-font-specification:'IBM Plex Sans Condensed, Medium Condensed';white-space:pre;fill:#231f20;stroke-width:1.88976;stroke-linecap:round;stroke-linejoin:round"
       transform="matrix(0.26458333,0,0,0.26458333,24.440339,9.1644241)"
       aria-label="20" />
    <path
       d="m 41.460392,90.670786 v 0.62 h -1.853334 l -0.113334,1.706668 h 0.08667 q 0.05333,-0.186667 0.166667,-0.326667 0.113333,-0.14 0.286667,-0.22 0.18,-0.08 0.413333,-0.08 0.373334,0 0.653334,0.16 0.28,0.16 0.433333,0.48 0.160001,0.32 0.160001,0.813334 0,0.506667 -0.173334,0.86 -0.173333,0.353334 -0.513333,0.54 -0.333334,0.180001 -0.820001,0.180001 -0.353333,0 -0.633333,-0.106667 -0.280001,-0.113334 -0.473334,-0.3 -0.193333,-0.193334 -0.313334,-0.420001 l 0.520001,-0.4 q 0.146666,0.293334 0.366667,0.46 0.22,0.166667 0.533333,0.166667 0.38,0 0.566667,-0.206667 0.186667,-0.213333 0.186667,-0.633333 v -0.18 q 0,-0.413334 -0.193334,-0.613334 -0.186666,-0.206667 -0.553333,-0.206667 -0.273334,0 -0.44,0.113334 -0.16,0.113333 -0.260001,0.26 l -0.6,-0.08 0.153334,-2.586668 z m 2.340007,4.733336 q -0.52,0 -0.86,-0.240001 -0.34,-0.246666 -0.5,-0.773333 -0.153334,-0.533334 -0.153334,-1.393334 0,-0.860001 0.153334,-1.386668 0.16,-0.533333 0.5,-0.773333 0.34,-0.246667 0.86,-0.246667 0.526667,0 0.860001,0.246667 0.34,0.24 0.493333,0.773333 0.16,0.526667 0.16,1.386668 0,0.86 -0.16,1.393334 -0.153333,0.526667 -0.493333,0.773333 -0.333334,0.240001 -0.860001,0.240001 z m 0,-0.606667 q 0.28,0 0.446667,-0.126667 0.166667,-0.126667 0.24,-0.38 0.07333,-0.26 0.07333,-0.646667 v -1.293334 q 0,-0.386667 -0.07333,-0.640001 -0.07333,-0.26 -0.24,-0.386666 -0.166667,-0.126667 -0.446667,-0.126667 -0.28,0 -0.446667,0.126667 -0.166666,0.126666 -0.24,0.386666 -0.07333,0.253334 -0.07333,0.640001 v 1.293334 q 0,0.386667 0.07333,0.646667 0.07333,0.253333 0.24,0.38 0.166667,0.126667 0.446667,0.126667 z m 2.266674,0.526666 v -4.933335 h 0.686667 v 2.040001 h 0.08 q 0.1,-0.293334 0.3,-0.473334 0.2,-0.18 0.560001,-0.18 0.46,0 0.713333,0.32 0.26,0.313334 0.26,0.926667 v 2.300001 h -0.686667 v -2.206667 q 0,-0.366667 -0.14,-0.56 -0.14,-0.193334 -0.44,-0.193334 -0.173333,0 -0.32,0.08 -0.146667,0.07333 -0.24,0.213334 -0.08667,0.133333 -0.08667,0.326666 v 2.340001 z m 5.753333,0 h -2.500001 v -0.533333 l 1.660001,-2.366668 h -1.606668 v -0.566667 h 2.400001 v 0.533334 l -1.673334,2.366668 h 1.720001 z"
       id="text16"
       style="font-weight:500;font-stretch:condensed;font-size:6.66667px;font-family:'IBM Plex Sans Condensed';-inkscape-font-specification:'IBM Plex Sans Condensed, Medium Condensed';white-space:pre;fill:#231f20;stroke-width:1.88976;stroke-linecap:round;stroke-linejoin:round"
       transform="matrix(0.26458333,0,0,0.26458333,-6.9039659,9.1908827)"
       aria-label="50hz" />
    <path
       d="m 41.653726,94.717455 v 0.606666 h -2.860002 v -0.686667 l 1.353334,-1.373333 q 0.34,-0.346667 0.486667,-0.620001 0.153333,-0.273333 0.153333,-0.553333 v -0.193334 q 0,-0.34 -0.166666,-0.513333 -0.16,-0.18 -0.480001,-0.18 -0.326666,0 -0.52,0.2 -0.186667,0.193333 -0.26,0.5 l -0.62,-0.24 q 0.08667,-0.3 0.266667,-0.540001 0.18,-0.246666 0.466666,-0.386666 0.293334,-0.146667 0.706667,-0.146667 0.480001,0 0.773334,0.153333 0.3,0.153334 0.44,0.453334 0.14,0.3 0.14,0.72 0,0.313334 -0.08,0.566667 -0.08,0.253334 -0.286666,0.526667 -0.2,0.273334 -0.566667,0.646667 l -1.040001,1.060001 z m 0.813339,0.606666 v -4.933335 h 0.686667 v 2.393334 l -0.04667,0.700001 h 0.07333 l 0.44,-0.646667 0.760001,-0.980001 h 0.793333 l -1.106667,1.373334 1.180001,2.093334 H 44.4604 l -0.880001,-1.66 -0.426667,0.513333 v 1.146667 z m 5.920001,0 v -2.04 h -1.853334 v 2.04 h -0.706667 v -4.653335 h 0.706667 v 1.986668 h 1.853334 V 90.670786 H 49.1004 v 4.653335 z m 3.939997,0 h -2.500002 v -0.533333 l 1.660001,-2.366668 h -1.606667 v -0.566667 h 2.400001 v 0.533334 l -1.673334,2.366668 h 1.720001 z"
       id="text17"
       style="font-weight:500;font-stretch:condensed;font-size:6.66667px;font-family:'IBM Plex Sans Condensed';-inkscape-font-specification:'IBM Plex Sans Condensed, Medium Condensed';white-space:pre;fill:#231f20;stroke-width:1.88976;stroke-linecap:round;stroke-linejoin:round"
       transform="matrix(0.26458333,0,0,0.26458333,3.1925349,9.2014652)"
       aria-label="2kHz" />
    <path
       d="m 40.200391,95.404122 q -0.52,0 -0.86,-0.240001 -0.34,-0.246666 -0.5,-0.773333 -0.153334,-0.533334 -0.153334,-1.393334 0,-0.860001 0.153334,-1.386668 0.16,-0.533333 0.5,-0.773333 0.34,-0.246667 0.86,-0.246667 0.526667,0 0.860001,0.246667 0.34,0.24 0.493333,0.773333 0.160001,0.526667 0.160001,1.386668 0,0.86 -0.160001,1.393334 -0.153333,0.526667 -0.493333,0.773333 -0.333334,0.240001 -0.860001,0.240001 z m 0,-0.606667 q 0.280001,0 0.446667,-0.126667 0.166667,-0.126667 0.24,-0.38 0.07333,-0.26 0.07333,-0.646667 v -1.293334 q 0,-0.386667 -0.07333,-0.640001 -0.07333,-0.26 -0.24,-0.386666 -0.166666,-0.126667 -0.446667,-0.126667 -0.28,0 -0.446666,0.126667 -0.166667,0.126666 -0.240001,0.386666 -0.07333,0.253334 -0.07333,0.640001 v 1.293334 q 0,0.386667 0.07333,0.646667 0.07333,0.253333 0.240001,0.38 0.166666,0.126667 0.446666,0.126667 z m 2.266674,0.526666 v -4.933335 h 0.686667 v 2.040001 h 0.08 q 0.1,-0.293334 0.3,-0.473334 0.200001,-0.18 0.560001,-0.18 0.46,0 0.713333,0.32 0.260001,0.313334 0.260001,0.926667 v 2.300001 H 44.3804 v -2.206667 q 0,-0.366667 -0.140001,-0.56 -0.14,-0.193334 -0.44,-0.193334 -0.173333,0 -0.32,0.08 -0.146667,0.07333 -0.24,0.213334 -0.08667,0.133333 -0.08667,0.326666 v 2.340001 z m 5.753334,0 h -2.500001 v -0.533333 l 1.660001,-2.366668 h -1.606668 v -0.566667 h 2.400001 v 0.533334 l -1.673334,2.366668 h 1.720001 z"
       id="text18"
       style="font-weight:500;font-stretch:condensed;font-size:6.66667px;font-family:'IBM Plex Sans Condensed';-inkscape-font-specification:'IBM Plex Sans Condensed, Medium Condensed';white-space:pre;fill:#231f20;stroke-width:1.88976;stroke-linecap:round;stroke-linejoin:round"
       transform="matrix(0.26458333,0,0,0.26458333,-6.4171319,39.670882)"
       aria-label="0hz" />
    <path
       d="m 41.460392,90.670786 v 0.62 h -1.853334 l -0.113334,1.706668 h 0.08667 q 0.05333,-0.186667 0.166667,-0.326667 0.113333,-0.14 0.286667,-0.22 0.18,-0.08 0.413333,-0.08 0.373334,0 0.653334,0.16 0.28,0.16 0.433333,0.48 0.160001,0.32 0.160001,0.813334 0,0.506667 -0.173334,0.86 -0.173333,0.353334 -0.513333,0.54 -0.333334,0.180001 -0.820001,0.180001 -0.353333,0 -0.633333,-0.106667 -0.280001,-0.113334 -0.473334,-0.3 -0.193333,-0.193334 -0.313334,-0.420001 l 0.520001,-0.4 q 0.146666,0.293334 0.366667,0.46 0.22,0.166667 0.533333,0.166667 0.38,0 0.566667,-0.206667 0.186667,-0.213333 0.186667,-0.633333 v -0.18 q 0,-0.413334 -0.193334,-0.613334 -0.186666,-0.206667 -0.553333,-0.206667 -0.273334,0 -0.44,0.113334 -0.16,0.113333 -0.260001,0.26 l -0.6,-0.08 0.153334,-2.586668 z m 2.340007,4.733336 q -0.52,0 -0.86,-0.240001 -0.34,-0.246666 -0.5,-0.773333 -0.153334,-0.533334 -0.153334,-1.393334 0,-0.860001 0.153334,-1.386668 0.16,-0.533333 0.5,-0.773333 0.34,-0.246667 0.86,-0.246667 0.526667,0 0.860001,0.246667 0.34,0.24 0.493333,0.773333 0.16,0.526667 0.16,1.386668 0,0.86 -0.16,1.393334 -0.153333,0.526667 -0.493333,0.773333 -0.333334,0.240001 -0.860001,0.240001 z m 0,-0.606667 q 0.28,0 0.446667,-0.126667 0.166667,-0.126667 0.24,-0.38 0.07333,-0.26 0.07333,-0.646667 v -1.293334 q 0,-0.386667 -0.07333,-0.640001 -0.07333,-0.26 -0.24,-0.386666 -0.166667,-0.126667 -0.446667,-0.126667 -0.28,0 -0.446667,0.126667 -0.166666,0.126666 -0.24,0.386666 -0.07333,0.253334 -0.07333,0.640001 v 1.293334 q 0,0.386667 0.07333,0.646667 0.07333,0.253333 0.24,0.38 0.166667,0.126667 0.446667,0.126667 z m 3.600008,0.606667 q -0.52,0 -0.86,-0.240001 -0.340001,-0.246666 -0.500001,-0.773333 -0.153333,-0.533334 -0.153333,-1.393334 0,-0.860001 0.153333,-1.386668 0.16,-0.533333 0.500001,-0.773333 0.34,-0.246667 0.86,-0.246667 0.526667,0 0.86,0.246667 0.340001,0.24 0.493334,0.773333 0.16,0.526667 0.16,1.386668 0,0.86 -0.16,1.393334 -0.153333,0.526667 -0.493334,0.773333 -0.333333,0.240001 -0.86,0.240001 z m 0,-0.606667 q 0.28,0 0.446667,-0.126667 0.166667,-0.126667 0.24,-0.38 0.07333,-0.26 0.07333,-0.646667 v -1.293334 q 0,-0.386667 -0.07333,-0.640001 -0.07333,-0.26 -0.24,-0.386666 -0.166667,-0.126667 -0.446667,-0.126667 -0.28,0 -0.446667,0.126667 -0.166667,0.126666 -0.24,0.386666 -0.07333,0.253334 -0.07333,0.640001 v 1.293334 q 0,0.386667 0.07333,0.646667 0.07333,0.253333 0.24,0.38 0.166667,0.126667 0.446667,0.126667 z m 2.266674,0.526666 v -4.933335 h 0.686667 v 2.040001 h 0.08 q 0.1,-0.293334 0.3,-0.473334 0.2,-0.18 0.56,-0.18 0.46,0 0.713334,0.32 0.26,0.313334 0.26,0.926667 v 2.300001 h -0.686667 v -2.206667 q 0,-0.366667 -0.14,-0.56 -0.14,-0.193334 -0.44,-0.193334 -0.173334,0 -0.320001,0.08 -0.146666,0.07333 -0.24,0.213334 -0.08667,0.133333 -0.08667,0.326666 v 2.340001 z m 5.753333,0 h -2.500001 v -0.533333 l 1.660001,-2.366668 h -1.606668 v -0.566667 h 2.400001 v 0.533334 l -1.673334,2.366668 h 1.720001 z"
       id="text25"
       style="font-weight:500;font-stretch:condensed;font-size:6.66667px;font-family:'IBM Plex Sans Condensed';-inkscape-font-specification:'IBM Plex Sans Condensed, Medium Condensed';white-space:pre;fill:#231f20;stroke-width:1.88976;stroke-linecap:round;stroke-linejoin:round"
       transform="matrix(0.26458333,0,0,0.26458333,2.7797824,39.670881)"
       aria-label="500hz" />
    <path
       d="m 41.727059,95.324121 h -2.800001 v -0.606666 h 1.1 V 91.18412 h -0.04667 l -0.84,0.92 -0.44,-0.373334 0.953334,-1.06 h 1.08 v 4.046669 h 0.993334 z m 1.426673,0 h -0.686667 v -3.466668 h 0.686667 v 0.573334 h 0.08 q 0.1,-0.293334 0.293334,-0.473334 0.193333,-0.18 0.54,-0.18 0.32,0 0.54,0.173334 0.22,0.166666 0.32,0.493333 h 0.07333 q 0.106667,-0.333333 0.34,-0.5 0.24,-0.166667 0.586667,-0.166667 0.446667,0 0.7,0.32 0.253334,0.313334 0.253334,0.926667 v 2.300001 h -0.693334 v -2.206667 q 0,-0.366667 -0.14,-0.56 -0.133333,-0.193334 -0.413334,-0.193334 -0.166666,0 -0.313333,0.08 -0.14,0.07333 -0.226667,0.213334 -0.08,0.133333 -0.08,0.326666 v 2.340001 h -0.686667 v -2.206667 q 0,-0.366667 -0.14,-0.56 -0.133333,-0.193334 -0.413333,-0.193334 -0.173334,0 -0.313334,0.08 -0.14,0.07333 -0.226667,0.213334 -0.08,0.133333 -0.08,0.326666 z m 5.633333,0.08 q -0.426667,0 -0.746667,-0.160001 -0.32,-0.166666 -0.553334,-0.48 l 0.44,-0.406667 q 0.166667,0.246667 0.380001,0.373334 0.213333,0.12 0.486666,0.12 0.273334,0 0.420001,-0.12 0.146666,-0.126667 0.146666,-0.366667 0,-0.186667 -0.09333,-0.3 -0.09333,-0.113333 -0.34,-0.16 l -0.3,-0.05333 q -0.346667,-0.06667 -0.573334,-0.186666 -0.226667,-0.126667 -0.34,-0.326667 -0.106667,-0.206667 -0.106667,-0.506667 0,-0.533334 0.313334,-0.786667 0.313333,-0.26 0.86,-0.26 0.273334,0 0.48,0.06 0.213334,0.05333 0.386667,0.173333 0.173334,0.12 0.313334,0.293334 l -0.413334,0.406667 q -0.126667,-0.166667 -0.313333,-0.273334 -0.186667,-0.106667 -0.446667,-0.106667 -0.26,0 -0.393334,0.12 -0.126666,0.113334 -0.126666,0.346667 0,0.206667 0.106666,0.306667 0.106667,0.1 0.34,0.14 l 0.306667,0.06 q 0.54,0.09333 0.766667,0.333334 0.233334,0.24 0.233334,0.646667 0,0.353333 -0.146667,0.606667 -0.14,0.246666 -0.42,0.38 -0.273334,0.126667 -0.666667,0.126667 z"
       id="text34"
       style="font-weight:500;font-stretch:condensed;font-size:6.66667px;font-family:'IBM Plex Sans Condensed';-inkscape-font-specification:'IBM Plex Sans Condensed, Medium Condensed';white-space:pre;fill:#231f20;stroke-width:1.88976;stroke-linecap:round;stroke-linejoin:round"
       transform="matrix(0.26458333,0,0,0.26458333,13.662979,39.63384)"
       aria-label="1ms" />
    <path
       d="m 41.727059,95.324121 h -2.800001 v -0.606666 h 1.1 V 91.18412 h -0.04667 l -0.84,0.92 -0.44,-0.373334 0.953334,-1.06 h 1.08 v 4.046669 h 0.993334 z m 2.07334,0.08 q -0.52,0 -0.86,-0.240001 -0.34,-0.246666 -0.5,-0.773333 -0.153334,-0.533334 -0.153334,-1.393334 0,-0.860001 0.153334,-1.386668 0.16,-0.533333 0.5,-0.773333 0.34,-0.246667 0.86,-0.246667 0.526667,0 0.860001,0.246667 0.34,0.24 0.493333,0.773333 0.16,0.526667 0.16,1.386668 0,0.86 -0.16,1.393334 -0.153333,0.526667 -0.493333,0.773333 -0.333334,0.240001 -0.860001,0.240001 z m 0,-0.606667 q 0.28,0 0.446667,-0.126667 0.166667,-0.126667 0.24,-0.38 0.07333,-0.26 0.07333,-0.646667 v -1.293334 q 0,-0.386667 -0.07333,-0.640001 -0.07333,-0.26 -0.24,-0.386666 -0.166667,-0.126667 -0.446667,-0.126667 -0.28,0 -0.446667,0.126667 -0.166666,0.126666 -0.24,0.386666 -0.07333,0.253334 -0.07333,0.640001 v 1.293334 q 0,0.386667 0.07333,0.646667 0.07333,0.253333 0.24,0.38 0.166667,0.126667 0.446667,0.126667 z m 3.600008,0.606667 q -0.52,0 -0.86,-0.240001 -0.340001,-0.246666 -0.500001,-0.773333 -0.153333,-0.533334 -0.153333,-1.393334 0,-0.860001 0.153333,-1.386668 0.16,-0.533333 0.500001,-0.773333 0.34,-0.246667 0.86,-0.246667 0.526667,0 0.86,0.246667 0.340001,0.24 0.493334,0.773333 0.16,0.526667 0.16,1.386668 0,0.86 -0.16,1.393334 -0.153333,0.526667 -0.493334,0.773333 -0.333333,0.240001 -0.86,0.240001 z m 0,-0.606667 q 0.28,0 0.446667,-0.126667 0.166667,-0.126667 0.24,-0.38 0.07333,-0.26 0.07333,-0.646667 v -1.293334 q 0,-0.386667 -0.07333,-0.640001 -0.07333,-0.26 -0.24,-0.386666 -0.166667,-0.126667 -0.446667,-0.126667 -0.28,0 -0.446667,0.126667 -0.166667,0.126666 -0.24,0.386666 -0.07333,0.253334 -0.07333,0.640001 v 1.293334 q 0,0.386667 0.07333,0.646667 0.07333,0.253333 0.24,0.38 0.166667,0.126667 0.446667,0.126667 z m 2.953341,0.526666 h -0.686667 v -3.466668 h 0.686667 v 0.573334 h 0.08 q 0.1,-0.293334 0.293333,-0.473334 0.193334,-0.18 0.54,-0.18 0.320001,0 0.540001,0.173334 0.22,0.166666 0.32,0.493333 h 0.07333 q 0.106667,-0.333333 0.34,-0.5 0.24,-0.166667 0.586667,-0.166667 0.446667,0 0.700001,0.32 0.253333,0.313334 0.253333,0.926667 v 2.300001 h -0.693334 v -2.206667 q 0,-0.366667 -0.14,-0.56 -0.133333,-0.193334 -0.413333,-0.193334 -0.166667,0 -0.313334,0.08 -0.14,0.07333 -0.226666,0.213334 -0.08,0.133333 -0.08,0.326666 v 2.340001 h -0.686667 v -2.206667 q 0,-0.366667 -0.14,-0.56 -0.133333,-0.193334 -0.413333,-0.193334 -0.173334,0 -0.313334,0.08 -0.14,0.07333 -0.226666,0.213334 -0.08,0.133333 -0.08,0.326666 z m 5.633333,0.08 q -0.426667,0 -0.746667,-0.160001 -0.32,-0.166666 -0.553334,-0.48 l 0.44,-0.406667 q 0.166667,0.246667 0.380001,0.373334 0.213333,0.12 0.486666,0.12 0.273334,0 0.420001,-0.12 0.146666,-0.126667 0.146666,-0.366667 0,-0.186667 -0.09333,-0.3 -0.09333,-0.113333 -0.34,-0.16 l -0.3,-0.05333 q -0.346667,-0.06667 -0.573334,-0.186666 -0.226667,-0.126667 -0.34,-0.326667 -0.106667,-0.206667 -0.106667,-0.506667 0,-0.533334 0.313334,-0.786667 0.313333,-0.26 0.86,-0.26 0.273334,0 0.48,0.06 0.213334,0.05333 0.386667,0.173333 0.173334,0.12 0.313334,0.293334 l -0.413334,0.406667 q -0.126667,-0.166667 -0.313333,-0.273334 -0.186667,-0.106667 -0.446667,-0.106667 -0.26,0 -0.393334,0.12 -0.126666,0.113334 -0.126666,0.346667 0,0.206667 0.106666,0.306667 0.106667,0.1 0.34,0.14 l 0.306667,0.06 q 0.54,0.09333 0.766667,0.333334 0.233334,0.24 0.233334,0.646667 0,0.353333 -0.146667,0.606667 -0.14,0.246666 -0.42,0.38 -0.273334,0.126667 -0.666667,0.126667 z"
       id="text35"
       style="font-weight:500;font-stretch:condensed;font-size:6.66667px;font-family:'IBM Plex Sans Condensed';-inkscape-font-specification:'IBM Plex Sans Condensed, Medium Condensed';white-space:pre;fill:#231f20;stroke-width:1.88976;stroke-linecap:round;stroke-linejoin:round"
       transform="matrix(0.26458333,0,0,0.26458333,22.870477,39.644423)"
       aria-label="100ms" />
    <path
       d="m 39.280391,95.397455 q -0.233333,0 -0.346667,-0.1 -0.113333,-0.106667 -0.113333,-0.3 v -0.133334 q 0,-0.193333 0.113333,-0.293333 0.113334,-0.106667 0.346667,-0.106667 0.226667,0 0.34,0.106667 0.12,0.1 0.12,0.293333 v 0.133334 q 0,0.193333 -0.12,0.3 -0.113333,0.1 -0.34,0.1 z m 4.200005,-0.07333 h -2.800001 v -0.606666 h 1.1 V 91.18412 h -0.04667 l -0.840001,0.92 -0.44,-0.373334 0.953334,-1.06 h 1.08 v 4.046669 h 0.993334 z m 1.426673,0 h -0.686667 v -3.466668 h 0.686667 v 0.573334 h 0.08 q 0.100001,-0.293334 0.293334,-0.473334 0.193333,-0.18 0.54,-0.18 0.32,0 0.54,0.173334 0.220001,0.166666 0.320001,0.493333 h 0.07333 q 0.106667,-0.333333 0.34,-0.5 0.24,-0.166667 0.586667,-0.166667 0.446667,0 0.7,0.32 0.253334,0.313334 0.253334,0.926667 v 2.300001 h -0.693334 v -2.206667 q 0,-0.366667 -0.14,-0.56 -0.133333,-0.193334 -0.413333,-0.193334 -0.166667,0 -0.313334,0.08 -0.14,0.07333 -0.226667,0.213334 -0.08,0.133333 -0.08,0.326666 v 2.340001 h -0.686667 v -2.206667 q 0,-0.366667 -0.14,-0.56 -0.133333,-0.193334 -0.413333,-0.193334 -0.173334,0 -0.313334,0.08 -0.14,0.07333 -0.226667,0.213334 -0.08,0.133333 -0.08,0.326666 z m 5.633334,0.08 q -0.426667,0 -0.746667,-0.160001 -0.320001,-0.166666 -0.553334,-0.48 l 0.44,-0.406667 q 0.166667,0.246667 0.38,0.373334 0.213334,0.12 0.486667,0.12 0.273334,0 0.42,-0.12 0.146667,-0.126667 0.146667,-0.366667 0,-0.186667 -0.09333,-0.3 -0.09333,-0.113333 -0.34,-0.16 l -0.3,-0.05333 q -0.346667,-0.06667 -0.573334,-0.186666 -0.226667,-0.126667 -0.34,-0.326667 -0.106667,-0.206667 -0.106667,-0.506667 0,-0.533334 0.313334,-0.786667 0.313333,-0.26 0.86,-0.26 0.273333,0 0.48,0.06 0.213334,0.05333 0.386667,0.173333 0.173333,0.12 0.313334,0.293334 l -0.413334,0.406667 q -0.126667,-0.166667 -0.313333,-0.273334 -0.186667,-0.106667 -0.446667,-0.106667 -0.260001,0 -0.393334,0.12 -0.126667,0.113334 -0.126667,0.346667 0,0.206667 0.106667,0.306667 0.106667,0.1 0.34,0.14 l 0.306667,0.06 q 0.54,0.09333 0.766667,0.333334 0.233334,0.24 0.233334,0.646667 0,0.353333 -0.146667,0.606667 -0.14,0.246666 -0.42,0.38 -0.273334,0.126667 -0.666667,0.126667 z"
       id="text36"
       style="font-weight:500;font-stretch:condensed;font-size:6.66667px;font-family:'IBM Plex Sans Condensed';-inkscape-font-specification:'IBM Plex Sans Condensed, Medium Condensed';white-space:pre;fill:#231f20;stroke-width:1.88976;stroke-linecap:round;stroke-linejoin:round"
       transform="matrix(0.26458333,0,0,0.26458333,33.735151,39.633839)"
       aria-label=".1ms" />
    <path
       d="m 41.653726,94.717455 v 0.606666 h -2.860002 v -0.686667 l 1.353334,-1.373333 q 0.34,-0.346667 0.486667,-0.620001 0.153333,-0.273333 0.153333,-0.553333 v -0.193334 q 0,-0.34 -0.166666,-0.513333 -0.16,-0.18 -0.480001,-0.18 -0.326666,0 -0.52,0.2 -0.186667,0.193333 -0.26,0.5 l -0.62,-0.24 q 0.08667,-0.3 0.266667,-0.540001 0.18,-0.246666 0.466666,-0.386666 0.293334,-0.146667 0.706667,-0.146667 0.480001,0 0.773334,0.153333 0.3,0.153334 0.44,0.453334 0.14,0.3 0.14,0.72 0,0.313334 -0.08,0.566667 -0.08,0.253334 -0.286666,0.526667 -0.2,0.273334 -0.566667,0.646667 l -1.040001,1.060001 z m 2.146673,0.686667 q -0.52,0 -0.86,-0.240001 -0.34,-0.246666 -0.5,-0.773333 -0.153334,-0.533334 -0.153334,-1.393334 0,-0.860001 0.153334,-1.386668 0.16,-0.533333 0.5,-0.773333 0.34,-0.246667 0.86,-0.246667 0.526667,0 0.860001,0.246667 0.34,0.24 0.493333,0.773333 0.16,0.526667 0.16,1.386668 0,0.86 -0.16,1.393334 -0.153333,0.526667 -0.493333,0.773333 -0.333334,0.240001 -0.860001,0.240001 z m 0,-0.606667 q 0.28,0 0.446667,-0.126667 0.166667,-0.126667 0.24,-0.38 0.07333,-0.26 0.07333,-0.646667 v -1.293334 q 0,-0.386667 -0.07333,-0.640001 -0.07333,-0.26 -0.24,-0.386666 -0.166667,-0.126667 -0.446667,-0.126667 -0.28,0 -0.446667,0.126667 -0.166666,0.126666 -0.24,0.386666 -0.07333,0.253334 -0.07333,0.640001 v 1.293334 q 0,0.386667 0.07333,0.646667 0.07333,0.253333 0.24,0.38 0.166667,0.126667 0.446667,0.126667 z m 3.600008,0.606667 q -0.52,0 -0.86,-0.240001 -0.340001,-0.246666 -0.500001,-0.773333 -0.153333,-0.533334 -0.153333,-1.393334 0,-0.860001 0.153333,-1.386668 0.16,-0.533333 0.500001,-0.773333 0.34,-0.246667 0.86,-0.246667 0.526667,0 0.86,0.246667 0.340001,0.24 0.493334,0.773333 0.16,0.526667 0.16,1.386668 0,0.86 -0.16,1.393334 -0.153333,0.526667 -0.493334,0.773333 -0.333333,0.240001 -0.86,0.240001 z m 0,-0.606667 q 0.28,0 0.446667,-0.126667 0.166667,-0.126667 0.24,-0.38 0.07333,-0.26 0.07333,-0.646667 v -1.293334 q 0,-0.386667 -0.07333,-0.640001 -0.07333,-0.26 -0.24,-0.386666 -0.166667,-0.126667 -0.446667,-0.126667 -0.28,0 -0.446667,0.126667 -0.166667,0.126666 -0.24,0.386666 -0.07333,0.253334 -0.07333,0.640001 v 1.293334 q 0,0.386667 0.07333,0.646667 0.07333,0.253333 0.24,0.38 0.166667,0.126667 0.446667,0.126667 z m 2.953341,0.526666 h -0.686667 v -3.466668 h 0.686667 v 0.573334 h 0.08 q 0.1,-0.293334 0.293333,-0.473334 0.193334,-0.18 0.54,-0.18 0.320001,0 0.540001,0.173334 0.22,0.166666 0.32,0.493333 h 0.07333 q 0.106667,-0.333333 0.34,-0.5 0.24,-0.166667 0.586667,-0.166667 0.446667,0 0.700001,0.32 0.253333,0.313334 0.253333,0.926667 v 2.300001 h -0.693334 v -2.206667 q 0,-0.366667 -0.14,-0.56 -0.133333,-0.193334 -0.413333,-0.193334 -0.166667,0 -0.313334,0.08 -0.14,0.07333 -0.226666,0.213334 -0.08,0.133333 -0.08,0.326666 v 2.340001 h -0.686667 v -2.206667 q 0,-0.366667 -0.14,-0.56 -0.133333,-0.193334 -0.413333,-0.193334 -0.173334,0 -0.313334,0.08 -0.14,0.07333 -0.226666,0.213334 -0.08,0.133333 -0.08,0.326666 z m 5.633333,0.08 q -0.426667,0 -0.746667,-0.160001 -0.32,-0.166666 -0.553334,-0.48 l 0.44,-0.406667 q 0.166667,0.246667 0.380001,0.373334 0.213333,0.12 0.486666,0.12 0.273334,0 0.420001,-0.12 0.146666,-0.126667 0.146666,-0.366667 0,-0.186667 -0.09333,-0.3 -0.09333,-0.113333 -0.34,-0.16 l -0.3,-0.05333 q -0.346667,-0.06667 -0.573334,-0.186666 -0.226667,-0.126667 -0.34,-0.326667 -0.106667,-0.206667 -0.106667,-0.506667 0,-0.533334 0.313334,-0.786667 0.313333,-0.26 0.86,-0.26 0.273334,0 0.48,0.06 0.213334,0.05333 0.386667,0.173333 0.173334,0.12 0.313334,0.293334 l -0.413334,0.406667 q -0.126667,-0.166667 -0.313333,-0.273334 -0.186667,-0.106667 -0.446667,-0.106667 -0.26,0 -0.393334,0.12 -0.126666,0.113334 -0.126666,0.346667 0,0.206667 0.106666,0.306667 0.106667,0.1 0.34,0.14 l 0.306667,0.06 q 0.54,0.09333 0.766667,0.333334 0.233334,0.24 0.233334,0.646667 0,0.353333 -0.146667,0.606667 -0.14,0.246666 -0.42,0.38 -0.273334,0.126667 -0.666667,0.126667 z"
       id="text37"
       style="font-weight:500;font-stretch:condensed;font-size:6.66667px;font-family:'IBM Plex Sans Condensed';-inkscape-font-specification:'IBM Plex Sans Condensed, Medium Condensed';white-space:pre;fill:#231f20;stroke-width:1.88976;stroke-linecap:round;stroke-linejoin:round"
       transform="matrix(0.26458333,0,0,0.26458333,43.185184,39.644423)"
       aria-label="200ms" />
    <path
       d="m 41.727059,95.324121 h -2.800001 v -0.606666 h 1.1 V 91.18412 h -0.04667 l -0.84,0.92 -0.44,-0.373334 0.953334,-1.06 h 1.08 v 4.046669 h 0.993334 z"
       id="text38"
       style="font-weight:500;font-stretch:condensed;font-size:6.66667px;font-family:'IBM Plex Sans Condensed';-inkscape-font-specification:'IBM Plex Sans Condensed, Medium Condensed';white-space:pre;fill:#231f20;stroke-width:1.88976;stroke-linecap:round;stroke-linejoin:round"
       transform="matrix(0.26458333,0,0,0.26458333,-5.5598802,70.124422)"
       aria-label="1" />
    <path
       d="m 41.727059,95.324121 h -2.800001 v -0.606666 h 1.1 V 91.18412 h -0.04667 l -0.84,0.92 -0.44,-0.373334 0.953334,-1.06 h 1.08 v 4.046669 h 0.993334 z m 0.740006,0 v -4.933335 h 0.686667 v 2.393334 l -0.04667,0.700001 h 0.07333 l 0.44,-0.646667 0.760001,-0.980001 h 0.793333 l -1.106667,1.373334 1.180001,2.093334 H 44.4604 l -0.880001,-1.66 -0.426667,0.513333 v 1.146667 z"
       id="text39"
       style="font-weight:500;font-stretch:condensed;font-size:6.66667px;font-family:'IBM Plex Sans Condensed';-inkscape-font-specification:'IBM Plex Sans Condensed, Medium Condensed';white-space:pre;fill:#231f20;stroke-width:1.88976;stroke-linecap:round;stroke-linejoin:round"
       transform="matrix(0.26458333,0,0,0.26458333,4.1344511,70.161463)"
       aria-label="1k" />
    <path
       d="m 40.200391,95.404122 q -0.52,0 -0.86,-0.240001 -0.34,-0.246666 -0.5,-0.773333 -0.153334,-0.533334 -0.153334,-1.393334 0,-0.860001 0.153334,-1.386668 0.16,-0.533333 0.5,-0.773333 0.34,-0.246667 0.86,-0.246667 0.526667,0 0.860001,0.246667 0.34,0.24 0.493333,0.773333 0.160001,0.526667 0.160001,1.386668 0,0.86 -0.160001,1.393334 -0.153333,0.526667 -0.493333,0.773333 -0.333334,0.240001 -0.860001,0.240001 z m 0,-0.606667 q 0.280001,0 0.446667,-0.126667 0.166667,-0.126667 0.24,-0.38 0.07333,-0.26 0.07333,-0.646667 v -1.293334 q 0,-0.386667 -0.07333,-0.640001 -0.07333,-0.26 -0.24,-0.386666 -0.166666,-0.126667 -0.446667,-0.126667 -0.28,0 -0.446666,0.126667 -0.166667,0.126666 -0.240001,0.386666 -0.07333,0.253334 -0.07333,0.640001 v 1.293334 q 0,0.386667 0.07333,0.646667 0.07333,0.253333 0.240001,0.38 0.166666,0.126667 0.446666,0.126667 z m 3.513342,0.526666 H 43.093732 L 46.0004,90.670786 h 0.620001 z m -0.346667,-2.093334 q -0.326667,0 -0.553334,-0.133333 -0.226667,-0.14 -0.346667,-0.426667 -0.12,-0.293334 -0.12,-0.76 0,-0.466667 0.12,-0.753334 0.12,-0.293334 0.346667,-0.426667 0.226667,-0.14 0.553334,-0.14 0.326667,0 0.553333,0.14 0.226667,0.133333 0.346667,0.426667 0.12,0.286667 0.12,0.753334 0,0.466666 -0.12,0.76 -0.12,0.286667 -0.346667,0.426667 -0.226666,0.133333 -0.553333,0.133333 z m 0,-0.42 q 0.146666,0 0.233333,-0.06 0.09333,-0.06 0.14,-0.186667 0.04667,-0.133333 0.04667,-0.333333 v -0.640001 q 0,-0.206666 -0.04667,-0.333333 -0.04667,-0.126667 -0.14,-0.186667 -0.08667,-0.06 -0.233333,-0.06 -0.14,0 -0.233334,0.06 -0.09333,0.06 -0.14,0.186667 -0.04667,0.126667 -0.04667,0.333333 v 0.640001 q 0,0.2 0.04667,0.333333 0.04667,0.126667 0.14,0.186667 0.09333,0.06 0.233334,0.06 z m 2.980001,2.593335 q -0.326667,0 -0.553333,-0.133334 -0.226667,-0.14 -0.346667,-0.426667 -0.113334,-0.293333 -0.113334,-0.76 0,-0.466667 0.113334,-0.753334 0.12,-0.293333 0.346667,-0.426667 0.226666,-0.14 0.553333,-0.14 0.326667,0 0.553334,0.14 0.226667,0.133334 0.346667,0.426667 0.12,0.286667 0.12,0.753334 0,0.466667 -0.12,0.76 -0.12,0.286667 -0.346667,0.426667 -0.226667,0.133334 -0.553334,0.133334 z m 0,-0.420001 q 0.146667,0 0.233334,-0.06 0.09333,-0.06 0.14,-0.186666 0.04667,-0.133334 0.04667,-0.333334 v -0.64 q 0,-0.206667 -0.04667,-0.333334 -0.04667,-0.126666 -0.14,-0.186666 -0.08667,-0.06 -0.233334,-0.06 -0.14,0 -0.233333,0.06 -0.09333,0.06 -0.14,0.186666 -0.04667,0.126667 -0.04667,0.333334 v 0.64 q 0,0.2 0.04667,0.333334 0.04667,0.126666 0.14,0.186666 0.09333,0.06 0.233333,0.06 z"
       id="text40"
       style="font-weight:500;font-stretch:condensed;font-size:6.66667px;font-family:'IBM Plex Sans Condensed';-inkscape-font-specification:'IBM Plex Sans Condensed, Medium Condensed';white-space:pre;fill:#231f20;stroke-width:1.88976;stroke-linecap:round;stroke-linejoin:round"
       transform="matrix(0.26458333,0,0,0.26458333,14.015756,70.124422)"
       aria-label="0%" />
    <path
       d="m 41.727059,95.324121 h -2.800001 v -0.606666 h 1.1 V 91.18412 h -0.04667 l -0.84,0.92 -0.44,-0.373334 0.953334,-1.06 h 1.08 v 4.046669 h 0.993334 z m 2.07334,0.08 q -0.52,0 -0.86,-0.240001 -0.34,-0.246666 -0.5,-0.773333 -0.153334,-0.533334 -0.153334,-1.393334 0,-0.860001 0.153334,-1.386668 0.16,-0.533333 0.5,-0.773333 0.34,-0.246667 0.86,-0.246667 0.526667,0 0.860001,0.246667 0.34,0.24 0.493333,0.773333 0.16,0.526667 0.16,1.386668 0,0.86 -0.16,1.393334 -0.153333,0.526667 -0.493333,0.773333 -0.333334,0.240001 -0.860001,0.240001 z m 0,-0.606667 q 0.28,0 0.446667,-0.126667 0.166667,-0.126667 0.24,-0.38 0.07333,-0.26 0.07333,-0.646667 v -1.293334 q 0,-0.386667 -0.07333,-0.640001 -0.07333,-0.26 -0.24,-0.386666 -0.166667,-0.126667 -0.446667,-0.126667 -0.28,0 -0.446667,0.126667 -0.166666,0.126666 -0.24,0.386666 -0.07333,0.253334 -0.07333,0.640001 v 1.293334 q 0,0.386667 0.07333,0.646667 0.07333,0.253333 0.24,0.38 0.166667,0.126667 0.446667,0.126667 z m 3.600008,0.606667 q -0.52,0 -0.86,-0.240001 -0.340001,-0.246666 -0.500001,-0.773333 -0.153333,-0.533334 -0.153333,-1.393334 0,-0.860001 0.153333,-1.386668 0.16,-0.533333 0.500001,-0.773333 0.34,-0.246667 0.86,-0.246667 0.526667,0 0.86,0.246667 0.340001,0.24 0.493334,0.773333 0.16,0.526667 0.16,1.386668 0,0.86 -0.16,1.393334 -0.153333,0.526667 -0.493334,0.773333 -0.333333,0.240001 -0.86,0.240001 z m 0,-0.606667 q 0.28,0 0.446667,-0.126667 0.166667,-0.126667 0.24,-0.38 0.07333,-0.26 0.07333,-0.646667 v -1.293334 q 0,-0.386667 -0.07333,-0.640001 -0.07333,-0.26 -0.24,-0.386666 -0.166667,-0.126667 -0.446667,-0.126667 -0.28,0 -0.446667,0.126667 -0.166667,0.126666 -0.24,0.386666 -0.07333,0.253334 -0.07333,0.640001 v 1.293334 q 0,0.386667 0.07333,0.646667 0.07333,0.253333 0.24,0.38 0.166667,0.126667 0.446667,0.126667 z m 3.513341,0.526666 h -0.62 l 2.906668,-4.653335 h 0.62 z m -0.346667,-2.093334 q -0.326667,0 -0.553334,-0.133333 -0.226666,-0.14 -0.346666,-0.426667 -0.12,-0.293334 -0.12,-0.76 0,-0.466667 0.12,-0.753334 0.12,-0.293334 0.346666,-0.426667 0.226667,-0.14 0.553334,-0.14 0.326667,0 0.553334,0.14 0.226666,0.133333 0.346666,0.426667 0.120001,0.286667 0.120001,0.753334 0,0.466666 -0.120001,0.76 -0.12,0.286667 -0.346666,0.426667 -0.226667,0.133333 -0.553334,0.133333 z m 0,-0.42 q 0.146667,0 0.233333,-0.06 0.09333,-0.06 0.140001,-0.186667 0.04667,-0.133333 0.04667,-0.333333 v -0.640001 q 0,-0.206666 -0.04667,-0.333333 -0.04667,-0.126667 -0.140001,-0.186667 -0.08667,-0.06 -0.233333,-0.06 -0.14,0 -0.233333,0.06 -0.09333,0.06 -0.14,0.186667 -0.04667,0.126667 -0.04667,0.333333 v 0.640001 q 0,0.2 0.04667,0.333333 0.04667,0.126667 0.14,0.186667 0.09333,0.06 0.233333,0.06 z m 2.980001,2.593335 q -0.326666,0 -0.553333,-0.133334 -0.226667,-0.14 -0.346667,-0.426667 -0.113333,-0.293333 -0.113333,-0.76 0,-0.466667 0.113333,-0.753334 0.12,-0.293333 0.346667,-0.426667 0.226667,-0.14 0.553333,-0.14 0.326667,0 0.553334,0.14 0.226667,0.133334 0.346667,0.426667 0.12,0.286667 0.12,0.753334 0,0.466667 -0.12,0.76 -0.12,0.286667 -0.346667,0.426667 -0.226667,0.133334 -0.553334,0.133334 z m 0,-0.420001 q 0.146667,0 0.233334,-0.06 0.09333,-0.06 0.14,-0.186666 0.04667,-0.133334 0.04667,-0.333334 v -0.64 q 0,-0.206667 -0.04667,-0.333334 -0.04667,-0.126666 -0.14,-0.186666 -0.08667,-0.06 -0.233334,-0.06 -0.14,0 -0.233333,0.06 -0.09333,0.06 -0.14,0.186666 -0.04667,0.126667 -0.04667,0.333334 v 0.64 q 0,0.2 0.04667,0.333334 0.04667,0.126666 0.14,0.186666 0.09333,0.06 0.233333,0.06 z"
       id="text41"
       style="font-weight:500;font-stretch:condensed;font-size:6.66667px;font-family:'IBM Plex Sans Condensed';-inkscape-font-specification:'IBM Plex Sans Condensed, Medium Condensed';white-space:pre;fill:#231f20;stroke-width:1.88976;stroke-linecap:round;stroke-linejoin:round"
       transform="matrix(0.26458333,0,0,0.26458333,23.221491,70.124422)"
       aria-label="100%" />
    <g
       id="g73"
       transform="matrix(0.26458333,0,0,0.26458333,41.5925,50.980002)"
       style="display:inline">
      <path
         style="fill:none;fill-opacity:1;stroke:#231f20;stroke-linecap:round;stroke-linejoin:round;stroke-opacity:1"
         d="m 15.599996,164.40944 v 1.88976"
         id="path72" />
    </g>
    <g
       id="g51"
       transform="matrix(0.26458333,0,0,0.26458333,51.111819,50.979998)"
       style="display:inline">
      <path
         style="fill:none;fill-opacity:1;stroke:#231f20;stroke-linecap:round;stroke-linejoin:round;stroke-opacity:1"
         d="m 14.400001,164.40945 v 1.88976"
         id="path50" />
      <path
         style="fill:none;fill-opacity:1;stroke:#231f20;stroke-linecap:round;stroke-linejoin:round;stroke-opacity:1"
         d="m 21.642933,164.40945 v 1.88976"
         id="path51" />
    </g>
    <path
       style="font-weight:500;font-size:3.175px;font-family:'IBM Plex Sans';-inkscape-font-specification:'IBM Plex Sans, Medium';stroke-width:0.5;stroke-linecap:round;stroke-linejoin:round"
       d="m 8.3518379,114.57056 h -0.415925 l -0.727075,-2.21615 h 0.37465 l 0.34925,1.09538 0.2159,0.77152 h 0.0127 l 0.2159,-0.77152 0.352425,-1.09538 h 0.358775 z m 1.8351511,0.0381 q -0.2889251,0 -0.4984751,-0.127 -0.20955,-0.13017 -0.320675,-0.381 -0.111125,-0.25082 -0.111125,-0.62547 0,-0.37148 0.111125,-0.62865 0.111125,-0.26035 0.320675,-0.3937 0.20955,-0.13653 0.4984751,-0.13653 0.28575,0 0.479425,0.127 0.19685,0.127 0.31115,0.37465 l -0.301625,0.1651 q -0.05715,-0.15875 -0.1778,-0.25082 -0.117475,-0.0952 -0.31115,-0.0952 -0.2571751,0 -0.4032251,0.1778 -0.14605,0.1778 -0.14605,0.48577 v 0.33973 q 0,0.3048 0.14605,0.47625 0.14605,0.17145 0.4032251,0.17145 0.19685,0 0.32385,-0.1016 0.127,-0.10478 0.187325,-0.2667 l 0.288925,0.17462 q -0.111125,0.23813 -0.314325,0.37783 -0.200025,0.13652 -0.485775,0.13652 z m 2.924176,-0.0381 h -0.37465 l -0.193675,-0.60007 h -0.828675 l -0.19685,0.60007 h -0.36195 l 0.75565,-2.21615 h 0.447675 z m -0.657225,-0.90805 -0.219075,-0.65722 -0.1016,-0.32068 h -0.01587 l -0.1016,0.32068 -0.219075,0.65722 z"
       id="text51"
       aria-label="VCA" />
    <path
       d="m 41.727059,95.324121 h -2.800001 v -0.606666 h 1.1 V 91.18412 h -0.04667 l -0.84,0.92 -0.44,-0.373334 0.953334,-1.06 h 1.08 v 4.046669 h 0.993334 z m 2.606674,0 h -0.860001 l -1.366667,-4.653335 h 0.74 l 0.826668,2.926668 0.193333,1.086667 h 0.08667 l 0.193333,-1.086667 0.82,-2.926668 h 0.726667 z m 1.713334,1.006668 h -0.580001 l 1.680001,-5.940003 h 0.58 z m 3.86666,-0.926667 q -0.56,0 -0.966667,-0.246667 -0.406667,-0.253334 -0.626667,-0.780001 -0.213334,-0.533333 -0.213334,-1.38 0,-0.853334 0.213334,-1.380001 0.22,-0.526667 0.626667,-0.773334 0.406667,-0.253333 0.966667,-0.253333 0.56,0 0.966667,0.253333 0.406667,0.246667 0.62,0.773334 0.220001,0.526667 0.220001,1.380001 0,0.846667 -0.220001,1.38 -0.213333,0.526667 -0.62,0.780001 -0.406667,0.246667 -0.966667,0.246667 z m 0,-0.626667 q 0.333333,0 0.56,-0.146667 0.233334,-0.146667 0.36,-0.42 0.126667,-0.280001 0.126667,-0.653334 v -1.120001 q 0,-0.38 -0.126667,-0.653333 -0.126666,-0.273334 -0.36,-0.42 -0.226667,-0.146667 -0.56,-0.146667 -0.326667,0 -0.566667,0.146667 -0.233333,0.146666 -0.36,0.42 -0.12,0.273333 -0.12,0.653333 v 1.120001 q 0,0.373333 0.12,0.653334 0.126667,0.273333 0.36,0.42 0.24,0.146667 0.566667,0.146667 z m 4.219998,0.626667 q -0.54,0 -0.940001,-0.246667 -0.393333,-0.246667 -0.606667,-0.773334 -0.213333,-0.526667 -0.213333,-1.373334 0,-0.846667 0.213333,-1.380001 0.213334,-0.533333 0.606667,-0.786667 0.400001,-0.253333 0.940001,-0.253333 0.6,0 0.953334,0.26 0.353333,0.253333 0.566667,0.766667 l -0.600001,0.333334 q -0.1,-0.340001 -0.306667,-0.533334 -0.2,-0.2 -0.613333,-0.2 -0.466667,0 -0.733334,0.326667 -0.266667,0.32 -0.266667,0.893333 v 1.120001 q 0,0.573334 0.266667,0.9 0.266667,0.320001 0.733334,0.320001 0.42,0 0.633333,-0.206667 0.220001,-0.213334 0.326667,-0.573334 l 0.586667,0.346667 q -0.22,0.513334 -0.586667,0.786667 -0.36,0.273334 -0.96,0.273334 z m 5.033334,-4.113336 h -1.226667 v 4.033335 h -0.713334 v -4.033335 h -1.226667 v -0.62 h 3.166668 z"
       id="text52"
       style="font-weight:500;font-stretch:condensed;font-size:6.66667px;font-family:'IBM Plex Sans Condensed';-inkscape-font-specification:'IBM Plex Sans Condensed, Medium Condensed';white-space:pre;fill:#231f20;stroke-width:1.88976;stroke-linecap:round;stroke-linejoin:round"
       transform="matrix(0.26458333,0,0,0.26458333,3.1925349,16.821465)"
       aria-label="1V/OCT" />
    <path
       d="m 128.01522,130.35862 v -2.544 h -0.096 q -0.24,1.2 -1.416,2.016 -1.176,0.816 -3.072,0.816 -1.992,0 -3.576,-0.984 -1.56,-1.008 -2.448,-2.928 -0.888,-1.92 -0.888,-4.728 0,-2.808 0.912,-4.728 0.912,-1.944 2.568,-2.952 1.656,-1.008 3.84,-1.008 2.232,0 3.792,1.008 1.584,1.008 2.448,2.76 l -2.208,1.296 q -0.504,-1.176 -1.512,-1.896 -0.984,-0.744 -2.52,-0.744 -1.32,0 -2.328,0.576 -1.008,0.576 -1.56,1.68 -0.552,1.08 -0.552,2.616 v 2.712 q 0,1.536 0.552,2.64 0.552,1.08 1.56,1.68 1.032,0.576 2.424,0.576 1.08,0 1.944,-0.336 0.864,-0.36 1.392,-1.056 0.528,-0.72 0.528,-1.776 v -1.296 h -3.456 v -2.328 h 6.072 v 8.928 z m 11.184,0.288 q -2.088,0 -3.576,-0.768 -1.488,-0.792 -2.544,-2.064 l 1.896,-1.752 q 0.864,1.08 1.92,1.632 1.08,0.552 2.448,0.552 1.608,0 2.424,-0.72 0.816,-0.744 0.816,-1.944 0,-0.648 -0.24,-1.128 -0.24,-0.48 -0.816,-0.792 -0.576,-0.312 -1.536,-0.504 l -1.488,-0.264 q -1.632,-0.312 -2.736,-0.912 -1.08,-0.6 -1.632,-1.56 -0.552,-0.984 -0.552,-2.304 0,-1.488 0.72,-2.568 0.72,-1.08 2.04,-1.656 1.344,-0.576 3.12,-0.576 1.896,0 3.288,0.672 1.392,0.648 2.352,1.896 l -1.896,1.68 q -0.648,-0.84 -1.584,-1.344 -0.936,-0.504 -2.328,-0.504 -1.44,0 -2.232,0.576 -0.768,0.576 -0.768,1.68 0,0.696 0.288,1.152 0.288,0.456 0.864,0.744 0.6,0.288 1.488,0.456 l 1.488,0.312 q 1.68,0.312 2.76,0.936 1.08,0.624 1.584,1.584 0.528,0.936 0.528,2.28 0,1.56 -0.72,2.736 -0.72,1.152 -2.088,1.824 -1.368,0.648 -3.288,0.648 z m 7.80002,-0.288 5.424,-8.592 -5.232,-8.16 h 3.192 l 3.816,6.24 h 0.048 l 3.864,-6.24 h 3 l -5.28,8.16 5.496,8.592 h -3.192 l -4.056,-6.672 h -0.072 l -4.008,6.672 z"
       id="text53"
       style="font-weight:500;font-size:24px;font-family:'IBM Plex Sans';-inkscape-font-specification:'IBM Plex Sans, Medium';white-space:pre;stroke-width:1.88976;stroke-linecap:round;stroke-linejoin:round"
       transform="matrix(0.26458333,0,0,0.26458333,-25.706115,-23.942751)"
       aria-label="GSX" />
  </g>
  <g
     inkscape:groupmode="layer"
     id="layer4"
     inkscape:label="Illustration"
     style="display:inline">
    <g
       id="g26"
       transform="matrix(0.60000002,0,0,0.60000002,-1.2768312,-54.620139)"
       style="display:inline;stroke:#51484a;stroke-opacity:1">
      <path
         style="fill:none;stroke:#51484a;stroke-width:0.499999;stroke-linecap:round;stroke-linejoin:round;stroke-opacity:1"
         d="m 61.173607,105 h 1.000001 v -0.99999 h 1.000001 V 106 h 0.999998 v -2.99999 h 1 v 4 h 1.000001 V 102 h 1.000001 v 5.00001 h 0.999998 v -3 h 1 V 106 h 1.000001 v -1 h 1"
         id="path12" />
      <path
         style="fill:none;stroke:#51484a;stroke-width:0.499999;stroke-linecap:square;stroke-linejoin:bevel;stroke-opacity:1"
         d="m 72.645834,107 3,-5 c 0,1.09352 0.83821,2.99999 1.999999,2.99999 0,0 2,0 4.000001,1e-5 l 1,2"
         id="path13"
         sodipodi:nodetypes="ccscc" />
      <path
         style="fill:none;stroke:#51484a;stroke-width:0.499999;stroke-linecap:square;stroke-linejoin:bevel;stroke-opacity:1"
         d="m 86.000002,102 h -1.000001 v 5.99999 h 1.000001"
         id="path17" />
      <path
         style="fill:none;stroke:#51484a;stroke-width:0.499999;stroke-linecap:square;stroke-linejoin:bevel;stroke-opacity:1"
         d="m 94.000002,102 h 1 v 5.99999 l -1,1e-5"
         id="path18"
         sodipodi:nodetypes="cccc" />
      <path
         style="fill:none;stroke:#51484a;stroke-width:0.499999;stroke-linecap:butt;stroke-linejoin:bevel;stroke-opacity:1"
         d="m 87.000002,102.52917 1.999999,2"
         id="path21" />
      <path
         style="fill:none;stroke:#51484a;stroke-width:0.499999;stroke-linecap:butt;stroke-linejoin:bevel;stroke-opacity:1"
         d="m 89.000001,102.52917 -1.999999,2"
         id="path22" />
      <path
         style="fill:none;stroke:#51484a;stroke-width:0.499999;stroke-linecap:butt;stroke-linejoin:bevel;stroke-opacity:1"
         d="m 87.000003,105.52917 1.999999,1.99999"
         id="path23-5" />
      <path
         style="fill:none;stroke:#51484a;stroke-width:0.499999;stroke-linecap:butt;stroke-linejoin:bevel;stroke-opacity:1"
         d="m 87.000003,107.52916 1.999999,-1.99999"
         id="path24" />
      <path
         style="fill:none;stroke:#51484a;stroke-width:0.499999;stroke-linecap:butt;stroke-linejoin:bevel;stroke-opacity:1"
         d="m 91.000002,102.52917 1.999999,2"
         id="path25-3" />
      <path
         style="fill:none;stroke:#51484a;stroke-width:0.499999;stroke-linecap:butt;stroke-linejoin:bevel;stroke-opacity:1"
         d="m 93.000001,102.52917 -1.999999,2"
         id="path26-7" />
      <rect
         style="fill:none;stroke:#51484a;stroke-width:0.499999;stroke-linecap:butt;stroke-linejoin:bevel;stroke-opacity:1"
         id="rect26"
         width="2"
         height="1.9999999"
         x="91"
         y="105.52919" />
    </g>
    <path
       style="display:inline;fill:none;fill-opacity:1;stroke:#231f20;stroke-width:0.264583;stroke-linecap:round;stroke-linejoin:round;stroke-opacity:1"
       d="M 56.514999,23.609999 V 24.11 l -1.27,-1 v 0.500001"
       id="path23"
       sodipodi:nodetypes="cccc" />
    <path
       style="display:inline;fill:none;fill-opacity:1;stroke:#231f20;stroke-width:0.264583;stroke-linecap:round;stroke-linejoin:round;stroke-opacity:1"
       d="m 55.244996,33.769999 v -0.500001 h 0.635 v 1 h 0.635 v -0.499999"
       id="path25"
       sodipodi:nodetypes="cccccc" />
    <path
       style="display:inline;fill:none;fill-opacity:1;stroke:#231f20;stroke-width:0.265;stroke-linecap:round;stroke-linejoin:round;stroke-dasharray:none;stroke-opacity:1"
       d="m 45.084999,33.770001 v -0.182502 a 0.31749981,0.31749981 0 0 1 0.3175,-0.3175 v 0 a 0.31749997,0.31749997 0 0 1 0.3175,0.3175 V 33.9525 a 0.31749997,0.31749997 0 0 0 0.3175,0.3175 v 0 a 0.31749997,0.31749997 0 0 0 0.3175,-0.3175 v -0.182499"
       id="path26"
       sodipodi:nodetypes="cccccc" />
    <path
       style="display:inline;fill:none;stroke:#231f1f;stroke-width:0.265;stroke-linecap:round;stroke-linejoin:round;stroke-dasharray:none;stroke-opacity:1"
       d="M 45.060788,23.61 45.390393,23.126591 46.049604,24.09341 46.37921,23.61"
       id="path10" />
    <path
       style="display:inline;fill:#231f20;fill-opacity:1;stroke:#231f20;stroke-width:0.264999;stroke-linecap:round;stroke-linejoin:round;stroke-dasharray:none;stroke-opacity:1"
       d="M 5.0800009,13.45 H 55.879998"
       id="path53" />
    <path
       style="display:inline;fill:#e6e6e6;stroke:#7e7e7e;stroke-width:0.499999;stroke-linecap:round;stroke-linejoin:round;stroke-opacity:1"
       d="m 10.159998,33.769998 2e-6,5.08"
       id="path1" />
    <path
       style="display:inline;fill:#e6e6e6;stroke:#7e7e7e;stroke-width:0.499999;stroke-linecap:round;stroke-linejoin:round;stroke-opacity:1"
       d="m 30.48,33.769998 2e-6,5.08"
       id="path2" />
    <path
       style="display:inline;fill:#e6e6e6;stroke:#7e7e7e;stroke-width:0.499999;stroke-linecap:round;stroke-linejoin:round;stroke-opacity:1"
       d="m 50.799998,33.77 2e-6,5.08"
       id="path3" />
    <path
       style="display:inline;fill:#e6e6e6;stroke:#7e7e7e;stroke-width:0.499999;stroke-linecap:round;stroke-linejoin:round;stroke-opacity:1"
       d="m 10.159996,64.249999 2e-6,5.08"
       id="path4" />
    <path
       style="display:inline;fill:#e6e6e6;stroke:#7e7e7e;stroke-width:0.499999;stroke-linecap:round;stroke-linejoin:round;stroke-opacity:1"
       d="m 30.479998,64.249999 2e-6,5.08"
       id="path5" />
    <path
       style="display:inline;fill:#e6e6e6;stroke:#7e7e7e;stroke-width:0.499999;stroke-linecap:round;stroke-linejoin:round;stroke-opacity:1"
       d="m 50.799996,64.250001 2e-6,5.08"
       id="path6" />
    <path
       style="display:inline;fill:#e6e6e6;stroke:#7e7e7e;stroke-width:0.499999;stroke-linecap:round;stroke-linejoin:round;stroke-opacity:1"
       d="m 10.159997,94.729995 2e-6,5.08"
       id="path7" />
    <path
       style="display:inline;fill:#e6e6e6;stroke:#7e7e7e;stroke-width:0.499999;stroke-linecap:round;stroke-linejoin:round;stroke-opacity:1"
       d="m 30.479999,94.729995 2e-6,5.08"
       id="path8" />
    <path
       style="display:inline;fill:#e6e6e6;stroke:#7e7e7e;stroke-width:0.499999;stroke-linecap:round;stroke-linejoin:round;stroke-opacity:1"
       d="m 50.799997,94.729997 2e-6,5.08"
       id="path9" />
  </g>
  <g
     inkscape:groupmode="layer"
     id="layer2"
     inkscape:label="components"
     style="display:none">
    <ellipse
       style="fill:#00ff00;stroke:none;stroke-width:0.249999;stroke-linecap:round;stroke-linejoin:round"
       id="circle24"
       cx="10.159996"
       cy="71.870003"
       rx="2.5399997"
       ry="2.5399978"
       inkscape:label="outRange" />
    <ellipse
       style="fill:#00ff00;stroke:none;stroke-width:0.249999;stroke-linecap:round;stroke-linejoin:round"
       id="ellipse24"
       cx="30.48"
       cy="71.870003"
       rx="2.5399997"
       ry="2.5399978"
       inkscape:label="outDuration" />
    <ellipse
       style="fill:#00ff00;stroke:none;stroke-width:0.249999;stroke-linecap:round;stroke-linejoin:round"
       id="ellipse25"
       cx="50.799999"
       cy="71.870003"
       rx="2.5399997"
       ry="2.5399978"
       inkscape:label="outDelay" />
    <ellipse
       style="fill:#00ff00;stroke:none;stroke-width:0.249999;stroke-linecap:round;stroke-linejoin:round"
       id="ellipse26"
       cx="10.159999"
       cy="102.35"
       rx="2.5399997"
       ry="2.5399978"
       inkscape:label="outDensity" />
    <ellipse
       style="fill:#00ff00;stroke:none;stroke-width:0.249999;stroke-linecap:round;stroke-linejoin:round"
       id="ellipse27"
       cx="30.48"
       cy="102.35"
       rx="2.5399997"
       ry="2.5399978"
       inkscape:label="outVariation" />
    <ellipse
       style="fill:#00ff00;stroke:none;stroke-width:0.249999;stroke-linecap:round;stroke-linejoin:round"
       id="ellipse28"
       cx="50.799999"
       cy="102.35"
       rx="2.5399997"
       ry="2.5399978"
       inkscape:label="outSpread" />
    <ellipse
       style="fill:#0000ff;stroke:none;stroke-width:0.249999;stroke-linecap:round;stroke-linejoin:round"
       id="ellipse30"
       cx="40.639999"
       cy="120.13"
       rx="2.5399997"
       ry="2.5399978"
       inkscape:label="outLeft" />
    <ellipse
       style="fill:#0000ff;stroke:none;stroke-width:0.249999;stroke-linecap:round;stroke-linejoin:round"
       id="ellipse31"
       cx="50.799999"
       cy="120.13"
       rx="2.5399997"
       ry="2.5399978"
       inkscape:label="outRight" />
    <ellipse
       style="fill:#00ff00;stroke:none;stroke-width:0.249999;stroke-linecap:round;stroke-linejoin:round"
       id="ellipse32"
       cx="10.159995"
       cy="41.389996"
       rx="2.5399997"
       ry="2.5399978"
       inkscape:label="inFrequency" />
    <ellipse
       style="fill:#00ff00;stroke:none;stroke-width:0.249999;stroke-linecap:round;stroke-linejoin:round"
       id="ellipse33"
       cx="30.48"
       cy="41.389996"
       rx="2.5399997"
       ry="2.5399978"
       inkscape:label="inStreams" />
    <ellipse
       style="fill:#00ff00;stroke:none;stroke-width:0.249999;stroke-linecap:round;stroke-linejoin:round"
       id="ellipse34"
       cx="50.799999"
       cy="41.389996"
       rx="2.5399997"
       ry="2.5399978"
       inkscape:label="inShape" />
    <circle
       style="fill:#ff0000;stroke:none;stroke-width:0.499999;stroke-linecap:round;stroke-linejoin:round"
       id="circle4"
       cx="10.159998"
       cy="28.689999"
       r="5.0799994"
       inkscape:label="paramFrequency" />
    <circle
       style="fill:#ff0000;stroke:none;stroke-width:0.499999;stroke-linecap:round;stroke-linejoin:round"
       id="circle5"
       cx="30.48"
       cy="28.689999"
       r="5.0799994"
       inkscape:label="paramStreams" />
    <circle
       style="fill:#ff0000;stroke:none;stroke-width:0.499999;stroke-linecap:round;stroke-linejoin:round"
       id="circle6"
       cx="50.799999"
       cy="28.689999"
       r="5.0799994"
       inkscape:label="paramShape" />
    <circle
       style="fill:#ff0000;stroke:none;stroke-width:0.499999;stroke-linecap:round;stroke-linejoin:round"
       id="circle7"
       cx="10.159999"
       cy="59.169998"
       r="5.0799994"
       inkscape:label="paramRange" />
    <circle
       style="fill:#ff0000;stroke:none;stroke-width:0.499999;stroke-linecap:round;stroke-linejoin:round"
       id="circle8"
       cx="30.48"
       cy="59.169998"
       r="5.0799994"
       inkscape:label="paramDuration" />
    <circle
       style="fill:#ff0000;stroke:none;stroke-width:0.499999;stroke-linecap:round;stroke-linejoin:round"
       id="circle9"
       cx="50.799999"
       cy="59.169998"
       r="5.0799994"
       inkscape:label="paramDelay" />
    <circle
       style="fill:#ff0000;stroke:none;stroke-width:0.499999;stroke-linecap:round;stroke-linejoin:round"
       id="circle10"
       cx="10.16"
       cy="89.650002"
       r="5.0799994"
       inkscape:label="paramDensity" />
    <circle
       style="fill:#ff0000;stroke:none;stroke-width:0.499999;stroke-linecap:round;stroke-linejoin:round"
       id="circle11"
       cx="30.48"
       cy="89.650002"
       r="5.0799994"
       inkscape:label="paramVariation" />
    <circle
       style="fill:#ff0000;stroke:none;stroke-width:0.499999;stroke-linecap:round;stroke-linejoin:round"
       id="circle12"
       cx="50.799999"
       cy="89.650002"
       r="5.0799994"
       inkscape:label="paramSpread" />
    <ellipse
       style="fill:#00ff00;stroke:none;stroke-width:0.249999;stroke-linecap:round;stroke-linejoin:round"
       id="ellipse51"
       cx="10.16"
       cy="120.13"
       rx="2.5399997"
       ry="2.5399978"
       inkscape:label="inVca" />
  </g>
</svg>
