<?xml version="1.0" encoding="UTF-8"?>
<svg xmlns="http://www.w3.org/2000/svg" width="81.28mm" height="128.5mm" viewBox="0 0 81.28 128.5">

  <!-- Panel background -->
  <rect width="81.28" height="128.5" fill="#f0f0f0"/>
  <text x="40.64" y="8" text-anchor="middle" font-family="sans-serif" font-size="4" fill="#231f20">INTONE</text>

  <!-- Spectrum display -->
  <rect x="5.8" y="14" width="69.68" height="24" rx="1" ry="1" fill="#1a1a2e" stroke="#404060" stroke-width="0.3"/>

  <!-- Formant column labels Y=42 -->
  <text x="13.55" y="42" text-anchor="middle" font-family="sans-serif" font-size="2" fill="#808080">F1</text>
  <text x="27.10" y="42" text-anchor="middle" font-family="sans-serif" font-size="2" fill="#808080">F2</text>
  <text x="40.64" y="42" text-anchor="middle" font-family="sans-serif" font-size="2" fill="#808080">F3</text>
  <text x="54.18" y="42" text-anchor="middle" font-family="sans-serif" font-size="2" fill="#808080">F4</text>
  <text x="67.73" y="42" text-anchor="middle" font-family="sans-serif" font-size="2" fill="#808080">F5</text>

  <!-- FREQ knobs Y=48 (red) -->
  <g transform="translate(13.55,48)"><line x1="-2" y1="0" x2="2" y2="0" stroke="#ff0000" stroke-width="0.2"/><line x1="0" y1="-2" x2="0" y2="2" stroke="#ff0000" stroke-width="0.2"/><circle cx="0" cy="0" r="1.5" fill="none" stroke="#ff0000" stroke-width="0.15"/></g>
  <g transform="translate(27.10,48)"><line x1="-2" y1="0" x2="2" y2="0" stroke="#ff0000" stroke-width="0.2"/><line x1="0" y1="-2" x2="0" y2="2" stroke="#ff0000" stroke-width="0.2"/><circle cx="0" cy="0" r="1.5" fill="none" stroke="#ff0000" stroke-width="0.15"/></g>
  <g transform="translate(40.64,48)"><line x1="-2" y1="0" x2="2" y2="0" stroke="#ff0000" stroke-width="0.2"/><line x1="0" y1="-2" x2="0" y2="2" stroke="#ff0000" stroke-width="0.2"/><circle cx="0" cy="0" r="1.5" fill="none" stroke="#ff0000" stroke-width="0.15"/></g>
  <g transform="translate(54.18,48)"><line x1="-2" y1="0" x2="2" y2="0" stroke="#ff0000" stroke-width="0.2"/><line x1="0" y1="-2" x2="0" y2="2" stroke="#ff0000" stroke-width="0.2"/><circle cx="0" cy="0" r="1.5" fill="none" stroke="#ff0000" stroke-width="0.15"/></g>
  <g transform="translate(67.73,48)"><line x1="-2" y1="0" x2="2" y2="0" stroke="#ff0000" stroke-width="0.2"/><line x1="0" y1="-2" x2="0" y2="2" stroke="#ff0000" stroke-width="0.2"/><circle cx="0" cy="0" r="1.5" fill="none" stroke="#ff0000" stroke-width="0.15"/></g>

  <!-- BW knobs Y=60 (red) -->
  <g transform="translate(13.55,60)"><line x1="-2" y1="0" x2="2" y2="0" stroke="#ff0000" stroke-width="0.2"/><line x1="0" y1="-2" x2="0" y2="2" stroke="#ff0000" stroke-width="0.2"/><circle cx="0" cy="0" r="1.5" fill="none" stroke="#ff0000" stroke-width="0.15"/></g>
  <g transform="translate(27.10,60)"><line x1="-2" y1="0" x2="2" y2="0" stroke="#ff0000" stroke-width="0.2"/><line x1="0" y1="-2" x2="0" y2="2" stroke="#ff0000" stroke-width="0.2"/><circle cx="0" cy="0" r="1.5" fill="none" stroke="#ff0000" stroke-width="0.15"/></g>
  <g transform="translate(40.64,60)"><line x1="-2" y1="0" x2="2" y2="0" stroke="#ff0000" stroke-width="0.2"/><line x1="0" y1="-2" x2="0" y2="2" stroke="#ff0000" stroke-width="0.2"/><circle cx="0" cy="0" r="1.5" fill="none" stroke="#ff0000" stroke-width="0.15"/></g>
  <g transform="translate(54.18,60)"><line x1="-2" y1="0" x2="2" y2="0" stroke="#ff0000" stroke-width="0.2"/><line x1="0" y1="-2" x2="0" y2="2" stroke="#ff0000" stroke-width="0.2"/><circle cx="0" cy="0" r="1.5" fill="none" stroke="#ff0000" stroke-width="0.15"/></g>
  <g transform="translate(67.73,60)"><line x1="-2" y1="0" x2="2" y2="0" stroke="#ff0000" stroke-width="0.2"/><line x1="0" y1="-2" x2="0" y2="2" stroke="#ff0000" stroke-width="0.2"/><circle cx="0" cy="0" r="1.5" fill="none" stroke="#ff0000" stroke-width="0.15"/></g>

  <!-- AMP knobs Y=72 (red) -->
  <g transform="translate(13.55,72)"><line x1="-2" y1="0" x2="2" y2="0" stroke="#ff0000" stroke-width="0.2"/><line x1="0" y1="-2" x2="0" y2="2" stroke="#ff0000" stroke-width="0.2"/><circle cx="0" cy="0" r="1.5" fill="none" stroke="#ff0000" stroke-width="0.15"/></g>
  <g transform="translate(27.10,72)"><line x1="-2" y1="0" x2="2" y2="0" stroke="#ff0000" stroke-width="0.2"/><line x1="0" y1="-2" x2="0" y2="2" stroke="#ff0000" stroke-width="0.2"/><circle cx="0" cy="0" r="1.5" fill="none" stroke="#ff0000" stroke-width="0.15"/></g>
  <g transform="translate(40.64,72)"><line x1="-2" y1="0" x2="2" y2="0" stroke="#ff0000" stroke-width="0.2"/><line x1="0" y1="-2" x2="0" y2="2" stroke="#ff0000" stroke-width="0.2"/><circle cx="0" cy="0" r="1.5" fill="none" stroke="#ff0000" stroke-width="0.15"/></g>
  <g transform="translate(54.18,72)"><line x1="-2" y1="0" x2="2" y2="0" stroke="#ff0000" stroke-width="0.2"/><line x1="0" y1="-2" x2="0" y2="2" stroke="#ff0000" stroke-width="0.2"/><circle cx="0" cy="0" r="1.5" fill="none" stroke="#ff0000" stroke-width="0.15"/></g>
  <g transform="translate(67.73,72)"><line x1="-2" y1="0" x2="2" y2="0" stroke="#ff0000" stroke-width="0.2"/><line x1="0" y1="-2" x2="0" y2="2" stroke="#ff0000" stroke-width="0.2"/><circle cx="0" cy="0" r="1.5" fill="none" stroke="#ff0000" stroke-width="0.15"/></g>

  <!-- FREQ CV jacks Y=84 (blue) -->
  <g transform="translate(13.55,84)"><line x1="-1.5" y1="0" x2="1.5" y2="0" stroke="#0066ff" stroke-width="0.2"/><line x1="0" y1="-1.5" x2="0" y2="1.5" stroke="#0066ff" stroke-width="0.2"/><circle cx="0" cy="0" r="1.2" fill="none" stroke="#0066ff" stroke-width="0.15"/></g>
  <g transform="translate(27.10,84)"><line x1="-1.5" y1="0" x2="1.5" y2="0" stroke="#0066ff" stroke-width="0.2"/><line x1="0" y1="-1.5" x2="0" y2="1.5" stroke="#0066ff" stroke-width="0.2"/><circle cx="0" cy="0" r="1.2" fill="none" stroke="#0066ff" stroke-width="0.15"/></g>
  <g transform="translate(40.64,84)"><line x1="-1.5" y1="0" x2="1.5" y2="0" stroke="#0066ff" stroke-width="0.2"/><line x1="0" y1="-1.5" x2="0" y2="1.5" stroke="#0066ff" stroke-width="0.2"/><circle cx="0" cy="0" r="1.2" fill="none" stroke="#0066ff" stroke-width="0.15"/></g>
  <g transform="translate(54.18,84)"><line x1="-1.5" y1="0" x2="1.5" y2="0" stroke="#0066ff" stroke-width="0.2"/><line x1="0" y1="-1.5" x2="0" y2="1.5" stroke="#0066ff" stroke-width="0.2"/><circle cx="0" cy="0" r="1.2" fill="none" stroke="#0066ff" stroke-width="0.15"/></g>
  <g transform="translate(67.73,84)"><line x1="-1.5" y1="0" x2="1.5" y2="0" stroke="#0066ff" stroke-width="0.2"/><line x1="0" y1="-1.5" x2="0" y2="1.5" stroke="#0066ff" stroke-width="0.2"/><circle cx="0" cy="0" r="1.2" fill="none" stroke="#0066ff" stroke-width="0.15"/></g>

  <!-- BW CV jacks Y=94 (blue) -->
  <g transform="translate(13.55,94)"><line x1="-1.5" y1="0" x2="1.5" y2="0" stroke="#0066ff" stroke-width="0.2"/><line x1="0" y1="-1.5" x2="0" y2="1.5" stroke="#0066ff" stroke-width="0.2"/><circle cx="0" cy="0" r="1.2" fill="none" stroke="#0066ff" stroke-width="0.15"/></g>
  <g transform="translate(27.10,94)"><line x1="-1.5" y1="0" x2="1.5" y2="0" stroke="#0066ff" stroke-width="0.2"/><line x1="0" y1="-1.5" x2="0" y2="1.5" stroke="#0066ff" stroke-width="0.2"/><circle cx="0" cy="0" r="1.2" fill="none" stroke="#0066ff" stroke-width="0.15"/></g>
  <g transform="translate(40.64,94)"><line x1="-1.5" y1="0" x2="1.5" y2="0" stroke="#0066ff" stroke-width="0.2"/><line x1="0" y1="-1.5" x2="0" y2="1.5" stroke="#0066ff" stroke-width="0.2"/><circle cx="0" cy="0" r="1.2" fill="none" stroke="#0066ff" stroke-width="0.15"/></g>
  <g transform="translate(54.18,94)"><line x1="-1.5" y1="0" x2="1.5" y2="0" stroke="#0066ff" stroke-width="0.2"/><line x1="0" y1="-1.5" x2="0" y2="1.5" stroke="#0066ff" stroke-width="0.2"/><circle cx="0" cy="0" r="1.2" fill="none" stroke="#0066ff" stroke-width="0.15"/></g>
  <g transform="translate(67.73,94)"><line x1="-1.5" y1="0" x2="1.5" y2="0" stroke="#0066ff" stroke-width="0.2"/><line x1="0" y1="-1.5" x2="0" y2="1.5" stroke="#0066ff" stroke-width="0.2"/><circle cx="0" cy="0" r="1.2" fill="none" stroke="#0066ff" stroke-width="0.15"/></g>

  <!-- Vowel morph slider Y=104 (orange-brown) -->
  <text x="40.64" y="102" text-anchor="middle" font-family="sans-serif" font-size="2" fill="#808080">VOWEL MORPH</text>
  <g transform="translate(40.64,106)"><line x1="-30" y1="0" x2="30" y2="0" stroke="#cc6600" stroke-width="0.2"/><line x1="0" y1="-1" x2="0" y2="1" stroke="#cc6600" stroke-width="0.2"/><circle cx="0" cy="0" r="0.8" fill="none" stroke="#cc6600" stroke-width="0.15"/></g>

  <!-- Bottom row labels Y=113 -->
  <text x="7.62" y="113" text-anchor="middle" font-family="sans-serif" font-size="1.5" fill="#808080">VWL CV</text>
  <text x="17.78" y="113" text-anchor="middle" font-family="sans-serif" font-size="1.5" fill="#808080">SKIRT</text>
  <text x="27.94" y="113" text-anchor="middle" font-family="sans-serif" font-size="1.5" fill="#808080">SKR CV</text>
  <text x="38.10" y="113" text-anchor="middle" font-family="sans-serif" font-size="1.5" fill="#808080">MODE</text>
  <text x="48.26" y="113" text-anchor="middle" font-family="sans-serif" font-size="1.5" fill="#808080">V/OCT</text>
  <text x="58.42" y="113" text-anchor="middle" font-family="sans-serif" font-size="1.5" fill="#808080">EXC</text>
  <text x="73.66" y="113" text-anchor="middle" font-family="sans-serif" font-size="1.5" fill="#808080">OUT</text>

  <!-- Bottom row Y=118 -->
  <g transform="translate(7.62,118)"><line x1="-1.5" y1="0" x2="1.5" y2="0" stroke="#0066ff" stroke-width="0.2"/><line x1="0" y1="-1.5" x2="0" y2="1.5" stroke="#0066ff" stroke-width="0.2"/><circle cx="0" cy="0" r="1.2" fill="none" stroke="#0066ff" stroke-width="0.15"/></g>
  <g transform="translate(17.78,118)"><line x1="-2" y1="0" x2="2" y2="0" stroke="#ff0000" stroke-width="0.2"/><line x1="0" y1="-2" x2="0" y2="2" stroke="#ff0000" stroke-width="0.2"/><circle cx="0" cy="0" r="1.5" fill="none" stroke="#ff0000" stroke-width="0.15"/></g>
  <g transform="translate(27.94,118)"><line x1="-1.5" y1="0" x2="1.5" y2="0" stroke="#0066ff" stroke-width="0.2"/><line x1="0" y1="-1.5" x2="0" y2="1.5" stroke="#0066ff" stroke-width="0.2"/><circle cx="0" cy="0" r="1.2" fill="none" stroke="#0066ff" stroke-width="0.15"/></g>
  <g transform="translate(38.10,118)"><line x1="-1" y1="0" x2="1" y2="0" stroke="#00cc00" stroke-width="0.2"/><line x1="0" y1="-1" x2="0" y2="1" stroke="#00cc00" stroke-width="0.2"/><circle cx="0" cy="0" r="0.8" fill="none" stroke="#00cc00" stroke-width="0.15"/></g>
  <g transform="translate(48.26,118)"><line x1="-1.5" y1="0" x2="1.5" y2="0" stroke="#0066ff" stroke-width="0.2"/><line x1="0" y1="-1.5" x2="0" y2="1.5" stroke="#0066ff" stroke-width="0.2"/><circle cx="0" cy="0" r="1.2" fill="none" stroke="#0066ff" stroke-width="0.15"/></g>
  <g transform="translate(58.42,118)"><line x1="-1.5" y1="0" x2="1.5" y2="0" stroke="#0066ff" stroke-width="0.2"/><line x1="0" y1="-1.5" x2="0" y2="1.5" stroke="#0066ff" stroke-width="0.2"/><circle cx="0" cy="0" r="1.2" fill="none" stroke="#0066ff" stroke-width="0.15"/></g>
  <g transform="translate(73.66,118)"><line x1="-1.5" y1="0" x2="1.5" y2="0" stroke="#0066ff" stroke-width="0.2"/><line x1="0" y1="-1.5" x2="0" y2="1.5" stroke="#0066ff" stroke-width="0.2"/><circle cx="0" cy="0" r="1.2" fill="none" stroke="#0066ff" stroke-width="0.15"/></g>
</svg>
