<svg xmlns="http://www.w3.org/2000/svg" width="50.8000mm" height="128.5mm" viewBox="0 0 150.0000 379.4291">
  <g id="Background"><rect width="150.0000" height="379.4291" fill="#f0f0f0"/></g>
  <g id="Reticules">
    <rect x="12.00" y="192.00" width="126.00" height="135.00" rx="6.00" fill="#1a1a1a"/>
    <rect x="12.00" y="36.00" width="126.00" height="93.00" rx="3.00" fill="#1a1a32"/>
    <circle cx="30.00" cy="165.00" r="8.84" fill="none" stroke="#b2b2b2" stroke-width="0.50"/>
    <circle cx="60.00" cy="165.00" r="11.73" fill="none" stroke="#b2b2b2" stroke-width="0.50"/>
    <circle cx="90.00" cy="165.00" r="8.84" fill="none" stroke="#b2b2b2" stroke-width="0.50"/>
    <circle cx="120.00" cy="165.00" r="11.73" fill="none" stroke="#b2b2b2" stroke-width="0.50"/>
    <circle cx="30.00" cy="219.00" r="11.73" fill="none" stroke="#b2b2b2" stroke-width="0.50"/>
    <circle cx="30.00" cy="249.00" r="11.73" fill="none" stroke="#b2b2b2" stroke-width="0.50"/>
    <circle cx="30.00" cy="279.00" r="11.73" fill="none" stroke="#b2b2b2" stroke-width="0.50"/>
    <circle cx="30.00" cy="309.00" r="11.73" fill="none" stroke="#b2b2b2" stroke-width="0.50"/>
    <circle cx="60.00" cy="219.00" r="8.84" fill="none" stroke="#b2b2b2" stroke-width="0.50"/>
    <circle cx="60.00" cy="249.00" r="8.84" fill="none" stroke="#b2b2b2" stroke-width="0.50"/>
    <circle cx="60.00" cy="279.00" r="8.84" fill="none" stroke="#b2b2b2" stroke-width="0.50"/>
    <circle cx="60.00" cy="309.00" r="8.84" fill="none" stroke="#b2b2b2" stroke-width="0.50"/>
    <circle cx="90.00" cy="219.00" r="11.73" fill="none" stroke="#b2b2b2" stroke-width="0.50"/>
    <circle cx="90.00" cy="249.00" r="11.73" fill="none" stroke="#b2b2b2" stroke-width="0.50"/>
    <circle cx="90.00" cy="279.00" r="11.73" fill="none" stroke="#b2b2b2" stroke-width="0.50"/>
    <circle cx="90.00" cy="309.00" r="11.73" fill="none" stroke="#b2b2b2" stroke-width="0.50"/>
    <circle cx="120.00" cy="219.00" r="11.73" fill="none" stroke="#b2b2b2" stroke-width="0.50"/>
    <circle cx="120.00" cy="249.00" r="11.73" fill="none" stroke="#b2b2b2" stroke-width="0.50"/>
    <circle cx="120.00" cy="279.00" r="11.73" fill="none" stroke="#b2b2b2" stroke-width="0.50"/>
    <circle cx="120.00" cy="309.00" r="11.73" fill="none" stroke="#b2b2b2" stroke-width="0.50"/>
    <circle cx="30.00" cy="348.00" r="11.73" fill="none" stroke="#b2b2b2" stroke-width="0.50"/>
  </g>
</svg>
