<?xml version="1.0" encoding="UTF-8"?>
<svg xmlns="http://www.w3.org/2000/svg" width="91.44mm" height="128.69mm" viewBox="0 0 259.2 364.8">
  <g id="Background">
    <rect y=".55" width="259.2" height="364.25" fill="#f0f0f0"/>
  </g>
  <g id="UI">
    <g>
      <path id="path12" d="M194.4,22.8h1.7v-1.7h1.7v3.4h1.7v-5.1h1.7v6.8h1.7v-8.5h1.7v8.5h1.7v-5.1h1.7v3.4h1.7v-1.7h1.7" fill="none" stroke="#b2b2b2" stroke-linecap="round" stroke-linejoin="round" stroke-width=".85"/>
      <path id="path13" d="M213.92,26.2l5.1-8.5c0,1.86,1.43,5.1,3.4,5.1h6.8l1.7,3.4" fill="none" stroke="#b2b2b2" stroke-linecap="square" stroke-linejoin="bevel" stroke-width=".85"/>
      <path id="path17" d="M236.64,17.7h-1.7v10.2h1.7" fill="none" stroke="#b2b2b2" stroke-linecap="square" stroke-linejoin="bevel" stroke-width=".85"/>
      <path id="path18" d="M250.25,17.7h1.7v10.2h-1.7" fill="none" stroke="#b2b2b2" stroke-linecap="square" stroke-linejoin="bevel" stroke-width=".85"/>
      <path id="path21" d="M238.34,18.6l3.4,3.4" fill="none" stroke="#b2b2b2" stroke-linejoin="bevel" stroke-width=".85"/>
      <path id="path22" d="M241.75,18.6l-3.4,3.4" fill="none" stroke="#b2b2b2" stroke-linejoin="bevel" stroke-width=".85"/>
      <path id="path23-5" d="M238.34,23.7l3.4,3.4" fill="none" stroke="#b2b2b2" stroke-linejoin="bevel" stroke-width=".85"/>
      <path id="path24" d="M238.34,27.1l3.4-3.4" fill="none" stroke="#b2b2b2" stroke-linejoin="bevel" stroke-width=".85"/>
      <path id="path25-3" d="M245.15,18.6l3.4,3.4" fill="none" stroke="#b2b2b2" stroke-linejoin="bevel" stroke-width=".85"/>
      <path id="path26-7" d="M248.55,18.6l-3.4,3.4" fill="none" stroke="#b2b2b2" stroke-linejoin="bevel" stroke-width=".85"/>
      <rect id="rect26" x="245.15" y="23.7" width="3.4" height="3.4" fill="none" stroke="#b2b2b2" stroke-linejoin="bevel" stroke-width=".85"/>
    </g>
    <line x1="172.8" y1="172.8" x2="144" y2="172.8" fill="none" stroke="#b2b2b2" stroke-miterlimit="11.34" stroke-width=".5"/>
    <line x1="54.93" y1="144" x2="28.53" y2="144" fill="none" stroke="#b2b2b2" stroke-miterlimit="11.34" stroke-width=".5"/>
    <line x1="172.8" y1="201.6" x2="144" y2="201.6" fill="none" stroke="#b2b2b2" stroke-miterlimit="11.34" stroke-width=".5"/>
    <line x1="172.8" y1="230.4" x2="144" y2="230.4" fill="none" stroke="#b2b2b2" stroke-miterlimit="11.34" stroke-width=".5"/>
    <line x1="57.6" y1="345.6" x2="28.8" y2="345.6" fill="none" stroke="#b2b2b2" stroke-miterlimit="11.34" stroke-width=".5"/>
    <line x1="172.8" y1="259.2" x2="144" y2="259.2" fill="none" stroke="#b2b2b2" stroke-miterlimit="11.34" stroke-width=".5"/>
    <line x1="172.8" y1="288" x2="144" y2="288" fill="none" stroke="#b2b2b2" stroke-miterlimit="11.34" stroke-width=".5"/>
    <rect x="187.2" y="136.37" width="57.6" height="223.63" rx="2.83" ry="2.83" fill="#2a2a2a"/>
    <line x1="182.4" y1="345.6" x2="144" y2="345.6" fill="none" stroke="#b2b2b2" stroke-miterlimit="11.34" stroke-width=".5"/>
    <line x1="230.4" y1="345.6" x2="192" y2="345.6" fill="none" stroke="#b2b2b2" stroke-miterlimit="11.34" stroke-width=".5"/>
  </g>
  <g id="Text">
    <g>
      <rect x="7.25" y="16.8" width="43.2" height="12" fill="none"/>
      <path d="M7.86,25.95v-6.3h1.59l1.67,2.48,1.68-2.48h1.59v6.3h-1.45v-4.05l-1.82,2.66-1.83-2.66v4.05h-1.45Z" fill="#231f20"/>
      <path d="M15.41,25.95v-6.3h4.1v1.33h-2.66v1.15h2.22v1.29h-2.22v1.2h2.7v1.33h-4.15Z" fill="#231f20"/>
      <path d="M21.83,25.95v-4.97h-1.84v-1.33h5.11v1.33h-1.84v4.97h-1.44Z" fill="#231f20"/>
      <path d="M25.63,25.95v-6.3h4.1v1.33h-2.66v1.15h2.22v1.29h-2.22v1.2h2.7v1.33h-4.15Z" fill="#231f20"/>
      <path d="M30.69,25.95v-6.3h2.47c.46,0,.86.09,1.21.27.35.18.63.42.83.74.2.32.3.68.3,1.08s-.11.78-.32,1.1-.5.57-.85.73l1.42,2.38h-1.66l-1.21-2.12h-.77v2.12h-1.45ZM32.14,22.5h.98c.17,0,.32-.03.45-.1s.24-.16.31-.27.11-.25.11-.39c0-.22-.08-.41-.25-.55-.17-.14-.38-.22-.65-.22h-.95v1.53Z" fill="#231f20"/>
    </g>
  </g>
  <g id="Grids">
    <rect x="8.5" y="34.02" width="242.19" height="73.71" rx="2.83" ry="2.83" fill="#1a1a2e" stroke="#404060" stroke-miterlimit="11.34" stroke-width=".85"/>
    <g isolation="isolate">
      <g>
        <path d="M22.26,122.4v-4.9h1.58c.34,0,.62.05.86.15.24.1.43.25.56.46.13.2.2.45.2.74,0,.22-.05.42-.16.6-.11.18-.25.32-.44.43.24.12.43.27.56.47.13.2.19.43.19.7,0,.28-.06.53-.19.73-.13.2-.31.36-.54.46s-.51.16-.84.16h-1.78ZM22.94,119.61h1.01c.25,0,.45-.07.6-.2.15-.14.22-.32.22-.56s-.08-.44-.25-.57-.4-.2-.71-.2h-.87v1.53ZM22.94,121.78h1.06c.29,0,.51-.07.68-.21.16-.14.24-.32.24-.56,0-.26-.09-.46-.28-.61-.18-.14-.44-.21-.77-.21h-.92v1.58Z" fill="#231f20"/>
        <path d="M26.54,122.4v-4.9h1.65c.33,0,.62.07.87.2.25.13.45.32.59.56.14.24.21.51.21.82s-.07.57-.2.81c-.13.24-.31.42-.54.56-.23.14-.5.2-.79.2h-1.1v1.75h-.69ZM27.22,120.01h1.09c.25,0,.45-.09.61-.26.16-.18.24-.4.24-.68s-.09-.51-.28-.68c-.18-.18-.42-.26-.7-.26h-.96v1.88Z" fill="#231f20"/>
        <path d="M30.64,122.4v-4.9h.73l1.62,2.4,1.62-2.4h.73v4.9h-.69v-3.79l-1.67,2.46-1.66-2.45v3.79h-.69Z" fill="#231f20"/>
      </g>
    </g>
    <g>
      <line x1="20.02" y1="144" x2="37.03" y2="144" fill="none" stroke="red" stroke-miterlimit="11.34" stroke-width=".57"/>
      <line x1="28.53" y1="135.5" x2="28.53" y2="152.5" fill="none" stroke="red" stroke-miterlimit="11.34" stroke-width=".57"/>
      <circle cx="28.53" cy="144" r="7.09" fill="none" stroke="red" stroke-miterlimit="11.34" stroke-width=".43"/>
    </g>
    <g isolation="isolate">
      <g>
        <path d="M21.47,184.88c-.26,0-.5-.03-.71-.09-.21-.06-.4-.14-.55-.25-.16-.11-.29-.22-.39-.35-.1-.13-.18-.27-.22-.41l.67-.22c.07.19.2.36.4.5.2.14.44.21.72.22.35,0,.62-.07.82-.21s.3-.32.3-.55c0-.21-.09-.38-.26-.51-.17-.13-.4-.23-.69-.3l-.57-.15c-.22-.06-.43-.15-.61-.26-.18-.11-.33-.25-.44-.43s-.16-.38-.16-.62c0-.45.15-.8.44-1.05.29-.25.71-.38,1.26-.38.32,0,.59.05.83.15s.43.23.58.4c.15.16.26.34.33.54l-.67.22c-.08-.21-.21-.38-.41-.51-.19-.13-.43-.19-.71-.19s-.53.07-.7.21c-.17.14-.26.33-.26.57,0,.21.07.36.2.47.13.11.31.19.54.25l.57.14c.46.11.81.3,1.06.56.25.26.37.54.37.85,0,.27-.07.51-.2.72-.13.21-.33.38-.59.5-.26.12-.58.19-.96.19Z" fill="#231f20"/>
        <path d="M25.36,184.8v-2.05l-1.75-2.85h.79l1.3,2.14,1.3-2.14h.8l-1.75,2.84v2.06h-.69Z" fill="#231f20"/>
        <path d="M28.49,184.8v-4.9h.71l2.77,3.75v-3.75h.69v4.9h-.69l-2.79-3.79v3.79h-.69Z" fill="#231f20"/>
        <path d="M35.99,184.88c-.47,0-.88-.11-1.25-.33-.36-.22-.65-.52-.85-.9-.21-.38-.31-.82-.31-1.31s.1-.93.31-1.31c.21-.38.49-.68.85-.9s.77-.33,1.24-.33c.3,0,.59.05.87.16s.52.26.74.46.38.42.5.68l-.62.28c-.09-.19-.21-.36-.36-.5-.15-.14-.33-.25-.52-.33-.19-.08-.4-.12-.61-.12-.33,0-.62.08-.88.25-.26.16-.46.39-.6.67-.14.28-.22.61-.22.99s.07.71.22.99c.15.29.35.51.61.68.26.16.55.24.88.24.21,0,.42-.04.61-.13.19-.09.36-.21.51-.36s.27-.33.37-.52l.62.27c-.12.27-.28.5-.5.71-.21.21-.46.37-.74.48-.28.11-.57.17-.88.17Z" fill="#231f20"/>
      </g>
    </g>
    <g>
      <line x1="24.55" y1="201.6" x2="33.05" y2="201.6" fill="none" stroke="#06f" stroke-miterlimit="11.34" stroke-width=".57"/>
      <line x1="28.8" y1="197.35" x2="28.8" y2="205.85" fill="none" stroke="#06f" stroke-miterlimit="11.34" stroke-width=".57"/>
      <circle cx="28.8" cy="201.6" r="3.4" fill="none" stroke="#06f" stroke-miterlimit="11.34" stroke-width=".43"/>
    </g>
    <g>
      <line x1="53.07" y1="144" x2="61.58" y2="144" fill="none" stroke="#06f" stroke-miterlimit="11.34" stroke-width=".57"/>
      <line x1="57.33" y1="139.75" x2="57.33" y2="148.25" fill="none" stroke="#06f" stroke-miterlimit="11.34" stroke-width=".57"/>
      <circle cx="57.33" cy="144" r="3.4" fill="none" stroke="#06f" stroke-miterlimit="11.34" stroke-width=".43"/>
    </g>
    <g isolation="isolate">
      <g>
        <path d="M21.27,228v-4.9h.71l2.77,3.75v-3.75h.69v4.9h-.69l-2.79-3.79v3.79h-.69Z" fill="#231f20"/>
        <path d="M28.52,228.11c-.38,0-.71-.08-1-.23s-.51-.38-.67-.66c-.16-.28-.24-.61-.24-.98v-3.14h.69v3.14c0,.24.05.46.16.64.11.19.25.33.43.43.18.1.4.15.64.15s.46-.05.64-.15.33-.25.43-.43c.1-.19.15-.4.15-.64v-3.14h.69v3.14c0,.37-.08.69-.24.98-.16.28-.39.5-.68.66s-.63.23-1.02.23Z" fill="#231f20"/>
        <path d="M31.63,228v-4.9h.73l1.62,2.4,1.62-2.4h.73v4.9h-.69v-3.79l-1.67,2.46-1.66-2.45v3.79h-.69Z" fill="#231f20"/>
      </g>
    </g>
    <g isolation="isolate">
      <g>
        <path d="M51.03,228v-4.9h1.51c.47,0,.88.1,1.24.31.36.21.64.5.85.86.21.37.31.79.31,1.27s-.1.9-.31,1.27c-.21.37-.49.66-.85.87-.36.21-.78.31-1.24.31h-1.51ZM51.71,227.36h.83c.24,0,.46-.05.67-.14s.39-.22.54-.38c.16-.17.28-.36.36-.58.09-.22.13-.46.13-.71s-.04-.49-.13-.71c-.09-.22-.21-.41-.36-.58-.16-.17-.34-.29-.54-.38s-.43-.14-.67-.14h-.83v3.61Z" fill="#231f20"/>
        <path d="M55.86,228v-4.9h2.95v.63h-2.26v1.46h2.04v.62h-2.04v1.57h2.28v.63h-2.96Z" fill="#231f20"/>
        <path d="M60,228v-4.9h.71l2.77,3.75v-3.75h.69v4.9h-.69l-2.79-3.79v3.79h-.69Z" fill="#231f20"/>
      </g>
    </g>
    <g>
      <line x1="23.13" y1="252" x2="34.47" y2="252" fill="none" stroke="red" stroke-miterlimit="11.34" stroke-width=".57"/>
      <line x1="28.8" y1="246.33" x2="28.8" y2="257.67" fill="none" stroke="red" stroke-miterlimit="11.34" stroke-width=".57"/>
      <circle cx="28.8" cy="252" r="4.25" fill="none" stroke="red" stroke-miterlimit="11.34" stroke-width=".43"/>
    </g>
    <g>
      <line x1="51.93" y1="252" x2="63.27" y2="252" fill="none" stroke="red" stroke-miterlimit="11.34" stroke-width=".57"/>
      <line x1="57.6" y1="246.33" x2="57.6" y2="257.67" fill="none" stroke="red" stroke-miterlimit="11.34" stroke-width=".57"/>
      <circle cx="57.6" cy="252" r="4.25" fill="none" stroke="red" stroke-miterlimit="11.34" stroke-width=".43"/>
    </g>
    <g>
      <line x1="24.55" y1="288" x2="33.05" y2="288" fill="none" stroke="#06f" stroke-miterlimit="11.34" stroke-width=".57"/>
      <line x1="28.8" y1="283.75" x2="28.8" y2="292.25" fill="none" stroke="#06f" stroke-miterlimit="11.34" stroke-width=".57"/>
      <circle cx="28.8" cy="288" r="3.4" fill="none" stroke="#06f" stroke-miterlimit="11.34" stroke-width=".43"/>
    </g>
    <g>
      <line x1="53.35" y1="288" x2="61.85" y2="288" fill="none" stroke="#06f" stroke-miterlimit="11.34" stroke-width=".57"/>
      <line x1="57.6" y1="283.75" x2="57.6" y2="292.25" fill="none" stroke="#06f" stroke-miterlimit="11.34" stroke-width=".57"/>
      <circle cx="57.6" cy="288" r="3.4" fill="none" stroke="#06f" stroke-miterlimit="11.34" stroke-width=".43"/>
    </g>
    <g isolation="isolate">
      <g>
        <path d="M22.04,328.8v-4.9h1.65c.33,0,.62.06.87.19.25.13.45.31.59.53.14.23.21.49.21.79,0,.32-.09.6-.27.85-.18.24-.42.42-.71.53l1.18,2.01h-.78l-1.09-1.88h-.96v1.88h-.69ZM22.72,326.29h1.03c.17,0,.32-.04.45-.12s.24-.18.32-.31c.08-.13.12-.28.12-.45,0-.26-.09-.47-.27-.64-.18-.16-.42-.25-.71-.25h-.95v1.76Z" fill="#231f20"/>
        <path d="M28.29,328.91c-.38,0-.71-.08-1-.23s-.51-.38-.67-.66c-.16-.28-.24-.61-.24-.98v-3.14h.69v3.14c0,.24.05.46.16.64.1.19.25.33.43.43s.4.15.64.15.46-.05.64-.15c.19-.1.33-.25.43-.43s.15-.4.15-.64v-3.14h.69v3.14c0,.37-.08.69-.24.98-.16.28-.39.5-.68.66-.29.16-.63.23-1.02.23Z" fill="#231f20"/>
        <path d="M31.39,328.8v-4.9h.71l2.77,3.75v-3.75h.69v4.9h-.69l-2.79-3.79v3.79h-.69Z" fill="#231f20"/>
      </g>
    </g>
    <g>
      <line x1="25.53" y1="345.6" x2="31.2" y2="345.6" fill="none" stroke="#0c0" stroke-miterlimit="11.34" stroke-width=".57"/>
      <line x1="28.37" y1="342.77" x2="28.37" y2="348.43" fill="none" stroke="#0c0" stroke-miterlimit="11.34" stroke-width=".57"/>
      <circle cx="28.37" cy="345.6" r="2.27" fill="none" stroke="#0c0" stroke-miterlimit="11.34" stroke-width=".43"/>
    </g>
    <g>
      <line x1="141.17" y1="345.6" x2="146.83" y2="345.6" fill="none" stroke="#0c0" stroke-miterlimit="11.34" stroke-width=".57"/>
      <line x1="144" y1="342.77" x2="144" y2="348.43" fill="none" stroke="#0c0" stroke-miterlimit="11.34" stroke-width=".57"/>
      <circle cx="144" cy="345.6" r="2.27" fill="none" stroke="#0c0" stroke-miterlimit="11.34" stroke-width=".43"/>
    </g>
    <g>
      <line x1="53.35" y1="345.6" x2="61.85" y2="345.6" fill="none" stroke="#06f" stroke-miterlimit="11.34" stroke-width=".57"/>
      <line x1="57.6" y1="341.35" x2="57.6" y2="349.85" fill="none" stroke="#06f" stroke-miterlimit="11.34" stroke-width=".57"/>
      <circle cx="57.6" cy="345.6" r="3.4" fill="none" stroke="#06f" stroke-miterlimit="11.34" stroke-width=".43"/>
    </g>
    <g>
      <line x1="226.15" y1="345.6" x2="234.65" y2="345.6" fill="none" stroke="#06f" stroke-miterlimit="11.34" stroke-width=".57"/>
      <line x1="230.4" y1="341.35" x2="230.4" y2="349.85" fill="none" stroke="#06f" stroke-miterlimit="11.34" stroke-width=".57"/>
      <circle cx="230.4" cy="345.6" r="3.4" fill="none" stroke="#06f" stroke-miterlimit="11.34" stroke-width=".43"/>
    </g>
    <g isolation="isolate">
      <g>
        <path d="M191.96,153.68c-.26,0-.5-.03-.71-.09s-.4-.14-.55-.25-.29-.22-.39-.35c-.1-.13-.18-.27-.22-.41l.66-.22c.07.19.2.36.4.5.2.14.44.21.72.22.34,0,.62-.07.81-.21.2-.14.3-.32.3-.55,0-.21-.09-.38-.26-.51-.17-.13-.4-.23-.69-.3l-.57-.15c-.22-.06-.43-.15-.61-.26-.18-.11-.33-.25-.44-.43-.11-.17-.16-.38-.16-.62,0-.45.15-.8.44-1.05s.71-.38,1.26-.38c.32,0,.59.05.83.15.23.1.43.23.58.4.15.16.26.34.33.54l-.67.22c-.08-.21-.21-.38-.41-.51s-.43-.19-.71-.19-.53.07-.7.21-.25.33-.25.57c0,.21.07.36.2.47.13.11.31.19.54.25l.57.14c.46.11.81.3,1.06.56.25.26.37.54.37.85,0,.27-.07.51-.2.72s-.33.38-.59.5c-.26.12-.58.19-.96.19Z" fill="#fff"/>
        <path d="M195.58,153.6l-1.48-4.9h.7l1.15,3.84,1.12-3.84h.69l1.1,3.81,1.18-3.81h.69l-1.5,4.9h-.74l-1.08-3.79-1.1,3.79h-.74Z" fill="#fff"/>
        <path d="M201.43,153.6v-4.9h.69v4.9h-.69Z" fill="#fff"/>
        <path d="M203.36,153.6v-4.9h.71l2.77,3.75v-3.75h.69v4.9h-.69l-2.79-3.79v3.79h-.69Z" fill="#fff"/>
        <path d="M211.01,153.68c-.5,0-.94-.11-1.32-.33-.38-.22-.69-.52-.9-.9-.22-.38-.33-.82-.33-1.31s.11-.94.33-1.32c.22-.38.52-.68.9-.9.38-.22.83-.33,1.32-.33.27,0,.53.04.78.13.25.09.48.21.68.36.2.15.37.33.49.52l-.55.36c-.09-.15-.21-.27-.36-.39-.15-.11-.31-.2-.49-.26s-.36-.09-.54-.09c-.36,0-.68.08-.96.25-.28.16-.5.39-.66.67-.16.28-.24.62-.24.99s.08.7.23.98.38.51.66.67c.28.16.61.25.97.25.29,0,.55-.06.78-.18.23-.12.41-.28.54-.5.13-.21.2-.46.21-.74h-1.18v-.57h1.85v.5c0,.42-.1.8-.29,1.11s-.45.56-.78.74c-.33.18-.71.26-1.14.26Z" fill="#fff"/>
      </g>
    </g>
    <g isolation="isolate">
      <g>
        <path d="M203.12,319.2v-4.9h1.58c.34,0,.62.05.86.15.24.1.43.25.56.46.13.2.2.45.2.74,0,.22-.05.42-.16.6-.1.17-.25.32-.44.43.24.12.43.27.56.47s.19.43.19.7c0,.28-.06.53-.19.73s-.31.36-.54.46c-.23.1-.51.16-.84.16h-1.78ZM203.8,316.41h1.01c.25,0,.45-.07.6-.2.15-.13.22-.32.22-.56s-.08-.44-.25-.57-.4-.2-.71-.2h-.87v1.53ZM203.8,318.58h1.06c.29,0,.51-.07.68-.21s.24-.32.24-.56c0-.26-.09-.46-.28-.61s-.44-.21-.77-.21h-.92v1.58Z" fill="#fff"/>
        <path d="M206.84,319.2l1.97-4.9h.74l1.97,4.9h-.73l-.53-1.31h-2.16l-.53,1.31h-.73ZM208.34,317.27h1.69l-.84-2.11-.85,2.11Z" fill="#fff"/>
        <path d="M212.21,319.2v-4.9h1.65c.33,0,.62.06.87.19.25.13.45.31.59.53.14.23.21.49.21.79,0,.32-.09.6-.27.85-.18.24-.42.42-.71.53l1.18,2.01h-.78l-1.09-1.88h-.96v1.88h-.69ZM212.89,316.69h1.03c.17,0,.32-.04.45-.12s.24-.18.32-.32c.08-.13.12-.28.12-.45,0-.26-.09-.47-.27-.64-.18-.16-.42-.25-.71-.25h-.95v1.76Z" fill="#fff"/>
      </g>
    </g>
    <g isolation="isolate">
      <g>
        <path d="M225.01,153.68c-.49,0-.93-.11-1.32-.33-.38-.22-.69-.52-.9-.9-.22-.38-.33-.82-.33-1.31s.11-.94.33-1.32c.22-.38.52-.68.9-.9.38-.22.83-.33,1.32-.33.27,0,.53.04.78.13.25.09.48.21.68.36.2.15.37.33.49.52l-.55.36c-.09-.15-.21-.27-.36-.39-.15-.11-.31-.2-.49-.26s-.36-.09-.54-.09c-.36,0-.68.08-.96.25-.28.16-.5.39-.66.67-.16.28-.24.62-.24.99s.08.7.23.98.38.51.66.67c.28.16.61.25.97.25.29,0,.55-.06.78-.18.23-.12.41-.28.54-.5.13-.21.2-.46.21-.74h-1.18v-.57h1.85v.5c0,.42-.1.8-.29,1.11-.19.32-.45.56-.78.74-.33.18-.71.26-1.14.26Z" fill="#fff"/>
        <path d="M228.08,153.6v-4.9h1.65c.33,0,.62.06.87.19.25.13.45.31.59.53.14.23.21.49.21.79,0,.32-.09.6-.27.85-.18.24-.42.42-.71.53l1.18,2.01h-.78l-1.09-1.88h-.96v1.88h-.69ZM228.76,151.09h1.03c.17,0,.32-.04.45-.12s.24-.18.32-.31c.08-.13.12-.28.12-.45,0-.26-.09-.47-.27-.64-.18-.16-.42-.25-.71-.25h-.95v1.76Z" fill="#fff"/>
        <path d="M232.49,153.6v-4.9h.69v4.9h-.69Z" fill="#fff"/>
        <path d="M234.43,153.6v-4.9h1.51c.47,0,.88.1,1.24.31.36.21.65.5.85.86s.31.79.31,1.27-.1.9-.31,1.27-.49.66-.85.87c-.36.21-.78.31-1.24.31h-1.51ZM235.11,152.96h.83c.24,0,.46-.05.67-.14.21-.09.39-.22.54-.39.16-.17.28-.36.36-.58.09-.22.13-.46.13-.71s-.04-.49-.13-.71c-.09-.22-.21-.41-.36-.58-.16-.17-.34-.29-.54-.39-.21-.09-.43-.14-.67-.14h-.83v3.61Z" fill="#fff"/>
      </g>
    </g>
    <g>
      <line x1="226.15" y1="172.8" x2="234.65" y2="172.8" fill="none" stroke="#06f" stroke-miterlimit="11.34" stroke-width=".57"/>
      <line x1="230.4" y1="168.55" x2="230.4" y2="177.05" fill="none" stroke="#06f" stroke-miterlimit="11.34" stroke-width=".57"/>
      <circle cx="230.4" cy="172.8" r="3.4" fill="none" stroke="#06f" stroke-miterlimit="11.34" stroke-width=".43"/>
    </g>
    <g isolation="isolate">
      <path d="M128.83,174.93l-.59-.6c-.19.13-.4.23-.63.3s-.48.1-.74.1c-.48,0-.9-.11-1.27-.32-.37-.21-.66-.51-.86-.9-.21-.38-.31-.82-.31-1.32,0-.37.06-.71.18-1.02.12-.31.29-.57.5-.8s.47-.4.77-.52c.3-.12.62-.19.98-.19.48,0,.9.11,1.27.33.36.22.65.52.85.9.21.38.31.82.31,1.31,0,.34-.05.66-.15.95-.1.29-.24.55-.42.76l.57.57-.44.44ZM126.87,174.11c.17,0,.32-.02.47-.07.14-.05.28-.12.41-.2l-.68-.69.45-.43.7.71c.12-.16.21-.35.27-.55.06-.2.09-.43.09-.67,0-.37-.07-.7-.22-.99s-.35-.51-.61-.67c-.26-.16-.56-.25-.9-.25s-.63.08-.89.25c-.26.16-.46.39-.61.67s-.22.61-.22.99.08.7.22.99c.15.28.36.51.62.67.26.16.56.25.9.25Z" fill="#231f20"/>
    </g>
    <g isolation="isolate">
      <g>
        <path d="M118.26,204.63c-.37,0-.68-.06-.95-.17s-.47-.27-.62-.48c-.15-.2-.22-.44-.22-.71,0-.29.08-.54.23-.77s.37-.39.65-.51c-.22-.11-.39-.26-.52-.45-.12-.19-.19-.41-.19-.66,0-.26.07-.49.2-.69s.32-.36.56-.47c.24-.11.53-.17.85-.17s.61.06.85.17c.24.11.43.27.56.47.13.2.2.43.2.69,0,.25-.06.47-.18.66-.12.19-.3.34-.52.45.28.12.49.29.65.51s.23.48.23.77c0,.27-.07.51-.22.71-.15.2-.35.36-.62.48s-.58.17-.95.17ZM118.26,204.04c.32,0,.58-.08.79-.23s.3-.36.3-.61-.1-.46-.3-.62c-.2-.16-.47-.24-.79-.24-.21,0-.4.04-.56.11-.16.07-.29.17-.38.3-.09.13-.14.28-.14.45,0,.16.04.31.14.44.09.13.22.23.38.3.16.07.35.11.56.11ZM118.26,201.73c.28,0,.5-.07.67-.21s.26-.33.26-.55c0-.24-.09-.44-.26-.59-.17-.15-.4-.23-.67-.23s-.49.08-.67.23c-.17.15-.26.35-.26.59,0,.22.09.41.26.55.17.14.39.21.67.21Z" fill="#231f20"/>
        <path d="M122.03,204.55v-4.27h-1.53v-.63h3.76v.63h-1.53v4.27h-.69Z" fill="#231f20"/>
        <path d="M124.97,204.55v-4.9h.69v2.06h2.64v-2.06h.69v4.9h-.69v-2.21h-2.64v2.21h-.69Z" fill="#231f20"/>
      </g>
    </g>
    <g isolation="isolate">
      <g>
        <path d="M115,233.35v-4.01c-.17.14-.35.25-.53.33s-.37.12-.55.12v-.62c.1,0,.22-.03.36-.1s.28-.16.42-.27c.14-.11.26-.23.37-.34h.61v4.9h-.67Z" fill="#231f20"/>
        <path d="M118.52,233.43c-.34,0-.62-.06-.85-.19-.23-.13-.41-.3-.55-.51-.14-.22-.24-.47-.3-.75-.06-.29-.09-.59-.09-.91,0-.41.04-.77.13-1.11.08-.33.21-.62.37-.85.16-.24.36-.42.6-.55.24-.13.51-.19.82-.19.25,0,.49.04.74.12.24.08.46.18.65.32l-.37.5c-.15-.1-.31-.18-.48-.23-.17-.05-.33-.08-.48-.08-.44,0-.78.19-1.02.56s-.35.95-.32,1.73l-.14-.12c.11-.28.29-.5.53-.66.24-.17.52-.25.85-.25s.6.07.84.21c.24.14.43.33.57.57.13.24.2.52.2.83s-.07.57-.21.81c-.14.24-.34.42-.59.56-.25.13-.55.2-.89.2ZM118.53,232.83c.19,0,.36-.04.51-.13s.27-.2.35-.35c.09-.15.13-.32.13-.51s-.04-.37-.13-.52c-.09-.15-.2-.27-.35-.35s-.32-.13-.51-.13-.37.04-.52.13c-.15.08-.27.2-.36.35-.09.15-.13.33-.13.52s.04.36.13.51c.09.15.21.27.36.35.15.08.33.13.52.13Z" fill="#231f20"/>
        <path d="M122.03,233.35v-4.27h-1.53v-.63h3.76v.63h-1.53v4.27h-.69Z" fill="#231f20"/>
        <path d="M124.97,233.35v-4.9h.69v2.07h2.64v-2.07h.69v4.9h-.69v-2.21h-2.64v2.21h-.69Z" fill="#231f20"/>
      </g>
    </g>
    <g isolation="isolate">
      <g>
        <path d="M124.9,261.88l-.6-.6c-.19.13-.4.23-.63.3-.23.07-.48.11-.74.11-.48,0-.9-.11-1.27-.32-.37-.21-.66-.51-.86-.9-.21-.38-.31-.82-.31-1.32,0-.37.06-.71.18-1.02.12-.31.29-.57.5-.8s.47-.4.77-.53c.3-.12.62-.19.98-.19.48,0,.9.11,1.27.33.36.22.65.52.85.9s.31.82.31,1.31c0,.34-.05.66-.15.95s-.24.55-.42.76l.57.57-.44.44ZM122.94,261.05c.17,0,.32-.02.47-.07.14-.05.28-.12.41-.2l-.68-.69.45-.43.7.71c.12-.16.21-.35.27-.55.06-.2.09-.43.09-.67,0-.37-.07-.7-.22-.99-.15-.28-.35-.51-.61-.67s-.56-.25-.9-.25-.63.08-.89.25c-.26.16-.47.39-.61.67-.15.29-.22.61-.22.99s.07.7.22.99c.15.28.36.51.62.67.26.16.56.25.9.25Z" fill="#231f20"/>
        <path d="M127.29,261.6v-4.27h-1.53v-.63h3.76v.63h-1.53v4.27h-.69Z" fill="#231f20"/>
      </g>
    </g>
    <g isolation="isolate">
      <g>
        <path d="M123.52,290.48c-.36,0-.68-.06-.95-.17-.27-.11-.47-.27-.62-.48-.15-.2-.22-.44-.22-.71,0-.29.08-.54.23-.77s.37-.39.65-.51c-.22-.11-.39-.26-.52-.45s-.19-.41-.19-.66c0-.26.07-.49.2-.69.13-.2.32-.36.56-.47.24-.11.52-.17.85-.17s.61.06.85.17c.24.11.43.27.56.47.13.2.2.43.2.69,0,.25-.06.47-.19.66s-.3.34-.52.45c.28.12.49.29.65.51s.23.48.23.77c0,.27-.07.51-.22.71-.15.2-.35.36-.62.48s-.58.17-.95.17ZM123.52,289.89c.32,0,.58-.08.79-.23.2-.16.3-.36.3-.61s-.1-.46-.3-.62c-.2-.16-.47-.24-.79-.24-.21,0-.4.04-.56.11s-.29.17-.38.3c-.09.13-.14.28-.14.45s.05.31.14.44c.09.13.22.23.38.3.16.07.35.1.56.1ZM123.52,287.58c.28,0,.5-.07.68-.21.17-.14.26-.33.26-.55,0-.24-.09-.44-.26-.59s-.4-.23-.68-.23-.49.08-.67.23-.26.35-.26.59c0,.22.09.41.26.55.17.14.39.21.67.21Z" fill="#231f20"/>
        <path d="M127.29,290.4v-4.27h-1.53v-.63h3.76v.63h-1.53v4.27h-.69Z" fill="#231f20"/>
      </g>
    </g>
    <g isolation="isolate">
      <g>
        <path d="M109.32,348v-4.9h1.65c.33,0,.62.06.87.19.25.13.45.31.59.53.14.23.21.49.21.79,0,.32-.09.6-.27.85-.18.24-.42.42-.71.53l1.18,2.01h-.78l-1.09-1.88h-.96v1.88h-.69ZM110.01,345.49h1.03c.17,0,.32-.04.45-.12s.24-.18.32-.31c.08-.13.12-.28.12-.45,0-.26-.09-.47-.27-.64-.18-.16-.42-.25-.71-.25h-.95v1.76Z" fill="#231f20"/>
        <path d="M113.74,348v-4.9h2.95v.63h-2.26v1.46h2.04v.62h-2.04v1.57h2.28v.63h-2.96Z" fill="#231f20"/>
        <path d="M119.46,348.08c-.26,0-.5-.03-.71-.09-.21-.06-.4-.14-.55-.25-.16-.1-.29-.22-.39-.35s-.17-.27-.22-.41l.67-.22c.07.19.2.36.4.5.2.14.44.21.72.22.34,0,.62-.07.82-.21s.3-.32.3-.55c0-.21-.09-.38-.26-.51s-.4-.23-.69-.3l-.57-.15c-.22-.06-.43-.15-.61-.26-.18-.11-.33-.25-.44-.43-.11-.17-.16-.38-.16-.62,0-.45.15-.8.44-1.05s.71-.38,1.26-.38c.32,0,.59.05.83.15.23.1.43.23.58.4.15.16.26.34.33.54l-.67.22c-.08-.21-.21-.38-.41-.51-.19-.13-.43-.19-.71-.19-.29,0-.53.07-.7.21-.17.14-.25.33-.25.57,0,.21.07.36.2.47.13.11.31.19.54.25l.57.14c.46.11.81.3,1.06.56s.38.54.38.85c0,.27-.07.5-.2.72-.13.21-.33.38-.59.5-.26.12-.58.19-.96.19Z" fill="#231f20"/>
        <path d="M122.16,348v-4.9h2.95v.63h-2.26v1.46h2.04v.62h-2.04v1.57h2.28v.63h-2.96Z" fill="#231f20"/>
        <path d="M127.29,348v-4.27h-1.53v-.63h3.76v.63h-1.53v4.27h-.69Z" fill="#231f20"/>
      </g>
    </g>
    <g>
      <line x1="226.15" y1="316.8" x2="234.65" y2="316.8" fill="none" stroke="#06f" stroke-miterlimit="11.34" stroke-width=".57"/>
      <line x1="230.4" y1="312.55" x2="230.4" y2="321.05" fill="none" stroke="#06f" stroke-miterlimit="11.34" stroke-width=".57"/>
      <circle cx="230.4" cy="316.8" r="3.4" fill="none" stroke="#06f" stroke-miterlimit="11.34" stroke-width=".43"/>
    </g>
    <g>
      <line x1="141.6" y1="259.2" x2="147.27" y2="259.2" fill="none" stroke="red" stroke-miterlimit="11.34" stroke-width=".57"/>
      <line x1="144.43" y1="256.37" x2="144.43" y2="262.03" fill="none" stroke="red" stroke-miterlimit="11.34" stroke-width=".57"/>
      <circle cx="144.43" cy="259.2" r="2.27" fill="none" stroke="red" stroke-miterlimit="11.34" stroke-width=".43"/>
    </g>
    <g>
      <line x1="168.55" y1="259.2" x2="177.05" y2="259.2" fill="none" stroke="#06f" stroke-miterlimit="11.34" stroke-width=".57"/>
      <line x1="172.8" y1="254.95" x2="172.8" y2="263.45" fill="none" stroke="#06f" stroke-miterlimit="11.34" stroke-width=".57"/>
      <circle cx="172.8" cy="259.2" r="3.4" fill="none" stroke="#06f" stroke-miterlimit="11.34" stroke-width=".43"/>
    </g>
    <g>
      <line x1="197.35" y1="259.2" x2="205.85" y2="259.2" fill="none" stroke="#06f" stroke-miterlimit="11.34" stroke-width=".57"/>
      <line x1="201.6" y1="254.95" x2="201.6" y2="263.45" fill="none" stroke="#06f" stroke-miterlimit="11.34" stroke-width=".57"/>
      <circle cx="201.6" cy="259.2" r="3.4" fill="none" stroke="#06f" stroke-miterlimit="11.34" stroke-width=".43"/>
    </g>
    <g>
      <line x1="226.15" y1="259.2" x2="234.65" y2="259.2" fill="none" stroke="#06f" stroke-miterlimit="11.34" stroke-width=".57"/>
      <line x1="230.4" y1="254.95" x2="230.4" y2="263.45" fill="none" stroke="#06f" stroke-miterlimit="11.34" stroke-width=".57"/>
      <circle cx="230.4" cy="259.2" r="3.4" fill="none" stroke="#06f" stroke-miterlimit="11.34" stroke-width=".43"/>
    </g>
    <g>
      <line x1="141.17" y1="288" x2="146.83" y2="288" fill="none" stroke="red" stroke-miterlimit="11.34" stroke-width=".57"/>
      <line x1="144" y1="285.17" x2="144" y2="290.83" fill="none" stroke="red" stroke-miterlimit="11.34" stroke-width=".57"/>
      <circle cx="144" cy="288" r="2.27" fill="none" stroke="red" stroke-miterlimit="11.34" stroke-width=".43"/>
    </g>
    <g>
      <line x1="168.55" y1="288" x2="177.05" y2="288" fill="none" stroke="#06f" stroke-miterlimit="11.34" stroke-width=".57"/>
      <line x1="172.8" y1="283.75" x2="172.8" y2="292.25" fill="none" stroke="#06f" stroke-miterlimit="11.34" stroke-width=".57"/>
      <circle cx="172.8" cy="288" r="3.4" fill="none" stroke="#06f" stroke-miterlimit="11.34" stroke-width=".43"/>
    </g>
    <g>
      <line x1="197.35" y1="288" x2="205.85" y2="288" fill="none" stroke="#06f" stroke-miterlimit="11.34" stroke-width=".57"/>
      <line x1="201.6" y1="283.75" x2="201.6" y2="292.25" fill="none" stroke="#06f" stroke-miterlimit="11.34" stroke-width=".57"/>
      <circle cx="201.6" cy="288" r="3.4" fill="none" stroke="#06f" stroke-miterlimit="11.34" stroke-width=".43"/>
    </g>
    <g>
      <line x1="226.15" y1="288" x2="234.65" y2="288" fill="none" stroke="#06f" stroke-miterlimit="11.34" stroke-width=".57"/>
      <line x1="230.4" y1="283.75" x2="230.4" y2="292.25" fill="none" stroke="#06f" stroke-miterlimit="11.34" stroke-width=".57"/>
      <circle cx="230.4" cy="288" r="3.4" fill="none" stroke="#06f" stroke-miterlimit="11.34" stroke-width=".43"/>
    </g>
    <g>
      <line x1="141.17" y1="230.4" x2="146.83" y2="230.4" fill="none" stroke="red" stroke-miterlimit="11.34" stroke-width=".57"/>
      <line x1="144" y1="227.57" x2="144" y2="233.23" fill="none" stroke="red" stroke-miterlimit="11.34" stroke-width=".57"/>
      <circle cx="144" cy="230.4" r="2.27" fill="none" stroke="red" stroke-miterlimit="11.34" stroke-width=".43"/>
    </g>
    <g>
      <line x1="168.55" y1="230.4" x2="177.05" y2="230.4" fill="none" stroke="#06f" stroke-miterlimit="11.34" stroke-width=".57"/>
      <line x1="172.8" y1="226.15" x2="172.8" y2="234.65" fill="none" stroke="#06f" stroke-miterlimit="11.34" stroke-width=".57"/>
      <circle cx="172.8" cy="230.4" r="3.4" fill="none" stroke="#06f" stroke-miterlimit="11.34" stroke-width=".43"/>
    </g>
    <g>
      <line x1="197.35" y1="230.95" x2="205.85" y2="230.95" fill="none" stroke="#06f" stroke-miterlimit="11.34" stroke-width=".57"/>
      <line x1="201.6" y1="226.7" x2="201.6" y2="235.2" fill="none" stroke="#06f" stroke-miterlimit="11.34" stroke-width=".57"/>
      <circle cx="201.6" cy="230.95" r="3.4" fill="none" stroke="#06f" stroke-miterlimit="11.34" stroke-width=".43"/>
    </g>
    <g>
      <line x1="226.15" y1="230.4" x2="234.65" y2="230.4" fill="none" stroke="#06f" stroke-miterlimit="11.34" stroke-width=".57"/>
      <line x1="230.4" y1="226.15" x2="230.4" y2="234.65" fill="none" stroke="#06f" stroke-miterlimit="11.34" stroke-width=".57"/>
      <circle cx="230.4" cy="230.4" r="3.4" fill="none" stroke="#06f" stroke-miterlimit="11.34" stroke-width=".43"/>
    </g>
    <g>
      <line x1="141.17" y1="201.6" x2="146.83" y2="201.6" fill="none" stroke="red" stroke-miterlimit="11.34" stroke-width=".57"/>
      <line x1="144" y1="198.77" x2="144" y2="204.43" fill="none" stroke="red" stroke-miterlimit="11.34" stroke-width=".57"/>
      <circle cx="144" cy="201.6" r="2.27" fill="none" stroke="red" stroke-miterlimit="11.34" stroke-width=".43"/>
    </g>
    <g>
      <line x1="168.55" y1="201.6" x2="177.05" y2="201.6" fill="none" stroke="#06f" stroke-miterlimit="11.34" stroke-width=".57"/>
      <line x1="172.8" y1="197.35" x2="172.8" y2="205.85" fill="none" stroke="#06f" stroke-miterlimit="11.34" stroke-width=".57"/>
      <circle cx="172.8" cy="201.6" r="3.4" fill="none" stroke="#06f" stroke-miterlimit="11.34" stroke-width=".43"/>
    </g>
    <g>
      <line x1="168.55" y1="172.8" x2="177.05" y2="172.8" fill="none" stroke="#06f" stroke-miterlimit="11.34" stroke-width=".57"/>
      <line x1="172.8" y1="168.55" x2="172.8" y2="177.05" fill="none" stroke="#06f" stroke-miterlimit="11.34" stroke-width=".57"/>
      <circle cx="172.8" cy="172.8" r="3.4" fill="none" stroke="#06f" stroke-miterlimit="11.34" stroke-width=".43"/>
    </g>
    <g>
      <line x1="197.35" y1="201.6" x2="205.85" y2="201.6" fill="none" stroke="#06f" stroke-miterlimit="11.34" stroke-width=".57"/>
      <line x1="201.6" y1="197.35" x2="201.6" y2="205.85" fill="none" stroke="#06f" stroke-miterlimit="11.34" stroke-width=".57"/>
      <circle cx="201.6" cy="201.6" r="3.4" fill="none" stroke="#06f" stroke-miterlimit="11.34" stroke-width=".43"/>
    </g>
    <g>
      <line x1="141.17" y1="172.8" x2="146.83" y2="172.8" fill="none" stroke="red" stroke-miterlimit="11.34" stroke-width=".57"/>
      <line x1="144" y1="169.97" x2="144" y2="175.63" fill="none" stroke="red" stroke-miterlimit="11.34" stroke-width=".57"/>
      <circle cx="144" cy="172.8" r="2.27" fill="none" stroke="red" stroke-miterlimit="11.34" stroke-width=".43"/>
    </g>
    <g>
      <line x1="197.35" y1="172.8" x2="205.85" y2="172.8" fill="none" stroke="#06f" stroke-miterlimit="11.34" stroke-width=".57"/>
      <line x1="201.6" y1="168.55" x2="201.6" y2="177.05" fill="none" stroke="#06f" stroke-miterlimit="11.34" stroke-width=".57"/>
      <circle cx="201.6" cy="172.8" r="3.4" fill="none" stroke="#06f" stroke-miterlimit="11.34" stroke-width=".43"/>
    </g>
    <g>
      <line x1="226.15" y1="201.6" x2="234.65" y2="201.6" fill="none" stroke="#06f" stroke-miterlimit="11.34" stroke-width=".57"/>
      <line x1="230.4" y1="197.35" x2="230.4" y2="205.85" fill="none" stroke="#06f" stroke-miterlimit="11.34" stroke-width=".57"/>
      <circle cx="230.4" cy="201.6" r="3.4" fill="none" stroke="#06f" stroke-miterlimit="11.34" stroke-width=".43"/>
    </g>
    <line x1="240" y1="302.4" x2="192" y2="302.4" fill="none" stroke="#fff" stroke-miterlimit="11.34" stroke-width=".5"/>
  </g>
</svg>