<?xml version="1.0" encoding="UTF-8"?>
<svg xmlns="http://www.w3.org/2000/svg" width="91.44mm" height="128.5mm" viewBox="0 0 91.44 128.5">

  <rect width="91.44" height="128.5" fill="#f0f0f0"/>
  <text x="45.72" y="8" text-anchor="middle" font-family="sans-serif" font-size="4" fill="#231f20">METER</text>

  <!-- Display Y=12, full width -->
  <rect x="3" y="12" width="85.44" height="18" rx="1" ry="1" fill="#1a1a2e" stroke="#404060" stroke-width="0.3"/>

  <!-- LEFT COLUMN: two aligned columns at x=8, x=22 -->
  <!-- BPM huge knob Y=42 (centered between the columns) -->
  <text x="15" y="34" text-anchor="middle" font-family="sans-serif" font-size="2" fill="#808080">BPM</text>
  <g transform="translate(15,42)">
    <line x1="-3" y1="0" x2="3" y2="0" stroke="#ff0000" stroke-width="0.2"/>
    <line x1="0" y1="-3" x2="0" y2="3" stroke="#ff0000" stroke-width="0.2"/>
    <circle cx="0" cy="0" r="2.5" fill="none" stroke="#ff0000" stroke-width="0.15"/>
  </g>

  <!-- Y=58: EXT clock (left) + BPM CV (right) -->
  <text x="8" y="54" text-anchor="middle" font-family="sans-serif" font-size="1.5" fill="#808080">EXT</text>
  <text x="22" y="54" text-anchor="middle" font-family="sans-serif" font-size="1.5" fill="#808080">CV</text>
  <g transform="translate(8,58)">
    <line x1="-1.5" y1="0" x2="1.5" y2="0" stroke="#0066ff" stroke-width="0.2"/>
    <line x1="0" y1="-1.5" x2="0" y2="1.5" stroke="#0066ff" stroke-width="0.2"/>
    <circle cx="0" cy="0" r="1.2" fill="none" stroke="#0066ff" stroke-width="0.15"/>
  </g>
  <g transform="translate(22,58)">
    <line x1="-1.5" y1="0" x2="1.5" y2="0" stroke="#0066ff" stroke-width="0.2"/>
    <line x1="0" y1="-1.5" x2="0" y2="1.5" stroke="#0066ff" stroke-width="0.2"/>
    <circle cx="0" cy="0" r="1.2" fill="none" stroke="#0066ff" stroke-width="0.15"/>
  </g>

  <!-- Y=72: NUM/DEN knobs -->
  <text x="8" y="66" text-anchor="middle" font-family="sans-serif" font-size="2" fill="#808080">NUM</text>
  <text x="22" y="66" text-anchor="middle" font-family="sans-serif" font-size="2" fill="#808080">DEN</text>
  <g transform="translate(8,72)">
    <line x1="-2" y1="0" x2="2" y2="0" stroke="#ff0000" stroke-width="0.2"/>
    <line x1="0" y1="-2" x2="0" y2="2" stroke="#ff0000" stroke-width="0.2"/>
    <circle cx="0" cy="0" r="1.5" fill="none" stroke="#ff0000" stroke-width="0.15"/>
  </g>
  <g transform="translate(22,72)">
    <line x1="-2" y1="0" x2="2" y2="0" stroke="#ff0000" stroke-width="0.2"/>
    <line x1="0" y1="-2" x2="0" y2="2" stroke="#ff0000" stroke-width="0.2"/>
    <circle cx="0" cy="0" r="1.5" fill="none" stroke="#ff0000" stroke-width="0.15"/>
  </g>
  <!-- Y=84: NUM/DEN CV -->
  <g transform="translate(8,84)">
    <line x1="-1.5" y1="0" x2="1.5" y2="0" stroke="#0066ff" stroke-width="0.2"/>
    <line x1="0" y1="-1.5" x2="0" y2="1.5" stroke="#0066ff" stroke-width="0.2"/>
    <circle cx="0" cy="0" r="1.2" fill="none" stroke="#0066ff" stroke-width="0.15"/>
  </g>
  <g transform="translate(22,84)">
    <line x1="-1.5" y1="0" x2="1.5" y2="0" stroke="#0066ff" stroke-width="0.2"/>
    <line x1="0" y1="-1.5" x2="0" y2="1.5" stroke="#0066ff" stroke-width="0.2"/>
    <circle cx="0" cy="0" r="1.2" fill="none" stroke="#0066ff" stroke-width="0.15"/>
  </g>

  <!-- Y=98: RUN latch + RST button -->
  <text x="8" y="94" text-anchor="middle" font-family="sans-serif" font-size="1.3" fill="#808080">RUN</text>
  <text x="22" y="94" text-anchor="middle" font-family="sans-serif" font-size="1.3" fill="#808080">RST</text>
  <g transform="translate(8,98)">
    <line x1="-1" y1="0" x2="1" y2="0" stroke="#00cc00" stroke-width="0.2"/>
    <line x1="0" y1="-1" x2="0" y2="1" stroke="#00cc00" stroke-width="0.2"/>
    <circle cx="0" cy="0" r="0.8" fill="none" stroke="#00cc00" stroke-width="0.15"/>
  </g>
  <g transform="translate(22,98)">
    <line x1="-1" y1="0" x2="1" y2="0" stroke="#00cc00" stroke-width="0.2"/>
    <line x1="0" y1="-1" x2="0" y2="1" stroke="#00cc00" stroke-width="0.2"/>
    <circle cx="0" cy="0" r="0.8" fill="none" stroke="#00cc00" stroke-width="0.15"/>
  </g>

  <!-- Y=110: RUN gate (in) + RST trigger (out, on dark plate) -->
  <g transform="translate(8,110)">
    <line x1="-1.5" y1="0" x2="1.5" y2="0" stroke="#0066ff" stroke-width="0.2"/>
    <line x1="0" y1="-1.5" x2="0" y2="1.5" stroke="#0066ff" stroke-width="0.2"/>
    <circle cx="0" cy="0" r="1.2" fill="none" stroke="#0066ff" stroke-width="0.15"/>
  </g>
  <rect x="18" y="106" width="8" height="8" rx="1" ry="1" fill="#2a2a2a"/>
  <g transform="translate(22,110)">
    <line x1="-1.5" y1="0" x2="1.5" y2="0" stroke="#0066ff" stroke-width="0.2"/>
    <line x1="0" y1="-1.5" x2="0" y2="1.5" stroke="#0066ff" stroke-width="0.2"/>
    <circle cx="0" cy="0" r="1.2" fill="none" stroke="#0066ff" stroke-width="0.15"/>
  </g>

  <!-- RIGHT COLUMN: 6 output rows -->
  <!-- Header labels at Y=39 -->
  <text x="44" y="39" text-anchor="middle" font-family="sans-serif" font-size="1.3" fill="#808080">EN</text>
  <text x="53" y="39" text-anchor="middle" font-family="sans-serif" font-size="1.3" fill="#808080">CV</text>
  <text x="65" y="39" text-anchor="middle" font-family="sans-serif" font-size="1.3" fill="#808080">SW</text>
  <text x="74" y="39" text-anchor="middle" font-family="sans-serif" font-size="1.3" fill="#808080">CV</text>
  <text x="86" y="39" text-anchor="middle" font-family="sans-serif" font-size="1.3" fill="#808080">OUT</text>

  <!-- Row labels -->
  <text x="38" y="45" text-anchor="middle" font-family="sans-serif" font-size="1.5" fill="#606060">BAR</text>
  <text x="38" y="58" text-anchor="middle" font-family="sans-serif" font-size="1.5" fill="#606060">Q</text>
  <text x="38" y="71" text-anchor="middle" font-family="sans-serif" font-size="1.5" fill="#606060">8th</text>
  <text x="38" y="84" text-anchor="middle" font-family="sans-serif" font-size="1.5" fill="#606060">16th</text>
  <text x="38" y="97" text-anchor="middle" font-family="sans-serif" font-size="1.5" fill="#606060">QT</text>
  <text x="38" y="110" text-anchor="middle" font-family="sans-serif" font-size="1.5" fill="#606060">8T</text>

  <!-- Row 1 BAR Y=44 (no swing) -->
  <g transform="translate(44,44)"><line x1="-1" y1="0" x2="1" y2="0" stroke="#00cc00" stroke-width="0.2"/><line x1="0" y1="-1" x2="0" y2="1" stroke="#00cc00" stroke-width="0.2"/><circle cx="0" cy="0" r="0.8" fill="none" stroke="#00cc00" stroke-width="0.15"/></g>
  <g transform="translate(53,44)"><line x1="-1.5" y1="0" x2="1.5" y2="0" stroke="#0066ff" stroke-width="0.2"/><line x1="0" y1="-1.5" x2="0" y2="1.5" stroke="#0066ff" stroke-width="0.2"/><circle cx="0" cy="0" r="1.2" fill="none" stroke="#0066ff" stroke-width="0.15"/></g>
  <g transform="translate(86,44)"><line x1="-1.5" y1="0" x2="1.5" y2="0" stroke="#0066ff" stroke-width="0.2"/><line x1="0" y1="-1.5" x2="0" y2="1.5" stroke="#0066ff" stroke-width="0.2"/><circle cx="0" cy="0" r="1.2" fill="none" stroke="#0066ff" stroke-width="0.15"/></g>

  <!-- Row 2 Q Y=57 -->
  <g transform="translate(44,57)"><line x1="-1" y1="0" x2="1" y2="0" stroke="#00cc00" stroke-width="0.2"/><line x1="0" y1="-1" x2="0" y2="1" stroke="#00cc00" stroke-width="0.2"/><circle cx="0" cy="0" r="0.8" fill="none" stroke="#00cc00" stroke-width="0.15"/></g>
  <g transform="translate(53,57)"><line x1="-1.5" y1="0" x2="1.5" y2="0" stroke="#0066ff" stroke-width="0.2"/><line x1="0" y1="-1.5" x2="0" y2="1.5" stroke="#0066ff" stroke-width="0.2"/><circle cx="0" cy="0" r="1.2" fill="none" stroke="#0066ff" stroke-width="0.15"/></g>
  <g transform="translate(65,57)"><line x1="-1" y1="0" x2="1" y2="0" stroke="#ff0000" stroke-width="0.2"/><line x1="0" y1="-1" x2="0" y2="1" stroke="#ff0000" stroke-width="0.2"/><circle cx="0" cy="0" r="0.8" fill="none" stroke="#ff0000" stroke-width="0.15"/></g>
  <g transform="translate(74,57)"><line x1="-1.5" y1="0" x2="1.5" y2="0" stroke="#0066ff" stroke-width="0.2"/><line x1="0" y1="-1.5" x2="0" y2="1.5" stroke="#0066ff" stroke-width="0.2"/><circle cx="0" cy="0" r="1.2" fill="none" stroke="#0066ff" stroke-width="0.15"/></g>
  <g transform="translate(86,57)"><line x1="-1.5" y1="0" x2="1.5" y2="0" stroke="#0066ff" stroke-width="0.2"/><line x1="0" y1="-1.5" x2="0" y2="1.5" stroke="#0066ff" stroke-width="0.2"/><circle cx="0" cy="0" r="1.2" fill="none" stroke="#0066ff" stroke-width="0.15"/></g>

  <!-- Row 3 8th Y=70 -->
  <g transform="translate(44,70)"><line x1="-1" y1="0" x2="1" y2="0" stroke="#00cc00" stroke-width="0.2"/><line x1="0" y1="-1" x2="0" y2="1" stroke="#00cc00" stroke-width="0.2"/><circle cx="0" cy="0" r="0.8" fill="none" stroke="#00cc00" stroke-width="0.15"/></g>
  <g transform="translate(53,70)"><line x1="-1.5" y1="0" x2="1.5" y2="0" stroke="#0066ff" stroke-width="0.2"/><line x1="0" y1="-1.5" x2="0" y2="1.5" stroke="#0066ff" stroke-width="0.2"/><circle cx="0" cy="0" r="1.2" fill="none" stroke="#0066ff" stroke-width="0.15"/></g>
  <g transform="translate(65,70)"><line x1="-1" y1="0" x2="1" y2="0" stroke="#ff0000" stroke-width="0.2"/><line x1="0" y1="-1" x2="0" y2="1" stroke="#ff0000" stroke-width="0.2"/><circle cx="0" cy="0" r="0.8" fill="none" stroke="#ff0000" stroke-width="0.15"/></g>
  <g transform="translate(74,70)"><line x1="-1.5" y1="0" x2="1.5" y2="0" stroke="#0066ff" stroke-width="0.2"/><line x1="0" y1="-1.5" x2="0" y2="1.5" stroke="#0066ff" stroke-width="0.2"/><circle cx="0" cy="0" r="1.2" fill="none" stroke="#0066ff" stroke-width="0.15"/></g>
  <g transform="translate(86,70)"><line x1="-1.5" y1="0" x2="1.5" y2="0" stroke="#0066ff" stroke-width="0.2"/><line x1="0" y1="-1.5" x2="0" y2="1.5" stroke="#0066ff" stroke-width="0.2"/><circle cx="0" cy="0" r="1.2" fill="none" stroke="#0066ff" stroke-width="0.15"/></g>

  <!-- Row 4 16th Y=83 -->
  <g transform="translate(44,83)"><line x1="-1" y1="0" x2="1" y2="0" stroke="#00cc00" stroke-width="0.2"/><line x1="0" y1="-1" x2="0" y2="1" stroke="#00cc00" stroke-width="0.2"/><circle cx="0" cy="0" r="0.8" fill="none" stroke="#00cc00" stroke-width="0.15"/></g>
  <g transform="translate(53,83)"><line x1="-1.5" y1="0" x2="1.5" y2="0" stroke="#0066ff" stroke-width="0.2"/><line x1="0" y1="-1.5" x2="0" y2="1.5" stroke="#0066ff" stroke-width="0.2"/><circle cx="0" cy="0" r="1.2" fill="none" stroke="#0066ff" stroke-width="0.15"/></g>
  <g transform="translate(65,83)"><line x1="-1" y1="0" x2="1" y2="0" stroke="#ff0000" stroke-width="0.2"/><line x1="0" y1="-1" x2="0" y2="1" stroke="#ff0000" stroke-width="0.2"/><circle cx="0" cy="0" r="0.8" fill="none" stroke="#ff0000" stroke-width="0.15"/></g>
  <g transform="translate(74,83)"><line x1="-1.5" y1="0" x2="1.5" y2="0" stroke="#0066ff" stroke-width="0.2"/><line x1="0" y1="-1.5" x2="0" y2="1.5" stroke="#0066ff" stroke-width="0.2"/><circle cx="0" cy="0" r="1.2" fill="none" stroke="#0066ff" stroke-width="0.15"/></g>
  <g transform="translate(86,83)"><line x1="-1.5" y1="0" x2="1.5" y2="0" stroke="#0066ff" stroke-width="0.2"/><line x1="0" y1="-1.5" x2="0" y2="1.5" stroke="#0066ff" stroke-width="0.2"/><circle cx="0" cy="0" r="1.2" fill="none" stroke="#0066ff" stroke-width="0.15"/></g>

  <!-- Row 5 QT Y=96 -->
  <g transform="translate(44,96)"><line x1="-1" y1="0" x2="1" y2="0" stroke="#00cc00" stroke-width="0.2"/><line x1="0" y1="-1" x2="0" y2="1" stroke="#00cc00" stroke-width="0.2"/><circle cx="0" cy="0" r="0.8" fill="none" stroke="#00cc00" stroke-width="0.15"/></g>
  <g transform="translate(53,96)"><line x1="-1.5" y1="0" x2="1.5" y2="0" stroke="#0066ff" stroke-width="0.2"/><line x1="0" y1="-1.5" x2="0" y2="1.5" stroke="#0066ff" stroke-width="0.2"/><circle cx="0" cy="0" r="1.2" fill="none" stroke="#0066ff" stroke-width="0.15"/></g>
  <g transform="translate(65,96)"><line x1="-1" y1="0" x2="1" y2="0" stroke="#ff0000" stroke-width="0.2"/><line x1="0" y1="-1" x2="0" y2="1" stroke="#ff0000" stroke-width="0.2"/><circle cx="0" cy="0" r="0.8" fill="none" stroke="#ff0000" stroke-width="0.15"/></g>
  <g transform="translate(74,96)"><line x1="-1.5" y1="0" x2="1.5" y2="0" stroke="#0066ff" stroke-width="0.2"/><line x1="0" y1="-1.5" x2="0" y2="1.5" stroke="#0066ff" stroke-width="0.2"/><circle cx="0" cy="0" r="1.2" fill="none" stroke="#0066ff" stroke-width="0.15"/></g>
  <g transform="translate(86,96)"><line x1="-1.5" y1="0" x2="1.5" y2="0" stroke="#0066ff" stroke-width="0.2"/><line x1="0" y1="-1.5" x2="0" y2="1.5" stroke="#0066ff" stroke-width="0.2"/><circle cx="0" cy="0" r="1.2" fill="none" stroke="#0066ff" stroke-width="0.15"/></g>

  <!-- Row 6 8T Y=109 -->
  <g transform="translate(44,109)"><line x1="-1" y1="0" x2="1" y2="0" stroke="#00cc00" stroke-width="0.2"/><line x1="0" y1="-1" x2="0" y2="1" stroke="#00cc00" stroke-width="0.2"/><circle cx="0" cy="0" r="0.8" fill="none" stroke="#00cc00" stroke-width="0.15"/></g>
  <g transform="translate(53,109)"><line x1="-1.5" y1="0" x2="1.5" y2="0" stroke="#0066ff" stroke-width="0.2"/><line x1="0" y1="-1.5" x2="0" y2="1.5" stroke="#0066ff" stroke-width="0.2"/><circle cx="0" cy="0" r="1.2" fill="none" stroke="#0066ff" stroke-width="0.15"/></g>
  <g transform="translate(65,109)"><line x1="-1" y1="0" x2="1" y2="0" stroke="#ff0000" stroke-width="0.2"/><line x1="0" y1="-1" x2="0" y2="1" stroke="#ff0000" stroke-width="0.2"/><circle cx="0" cy="0" r="0.8" fill="none" stroke="#ff0000" stroke-width="0.15"/></g>
  <g transform="translate(74,109)"><line x1="-1.5" y1="0" x2="1.5" y2="0" stroke="#0066ff" stroke-width="0.2"/><line x1="0" y1="-1.5" x2="0" y2="1.5" stroke="#0066ff" stroke-width="0.2"/><circle cx="0" cy="0" r="1.2" fill="none" stroke="#0066ff" stroke-width="0.15"/></g>
  <g transform="translate(86,109)"><line x1="-1.5" y1="0" x2="1.5" y2="0" stroke="#0066ff" stroke-width="0.2"/><line x1="0" y1="-1.5" x2="0" y2="1.5" stroke="#0066ff" stroke-width="0.2"/><circle cx="0" cy="0" r="1.2" fill="none" stroke="#0066ff" stroke-width="0.15"/></g>
</svg>
