<?xml version="1.0" encoding="UTF-8"?>
<svg xmlns="http://www.w3.org/2000/svg" width="50.8mm" height="128.69mm" viewBox="0 0 144 364.8">
  <g id="Background">
    <rect width="144" height="364.25" fill="#f0f0f0"/>
  </g>
  <g id="UI">
    <g>
      <path id="path12" d="M79.23,22.8h1.7v-1.7h1.7v3.4h1.7v-5.1h1.7v6.8h1.7v-8.5h1.7v8.5h1.7v-5.1h1.7v3.4h1.7v-1.7h1.7" fill="none" stroke="#b2b2b2" stroke-linecap="round" stroke-linejoin="round" stroke-width=".85"/>
      <path id="path13" d="M98.74,26.2l5.1-8.5c0,1.86,1.43,5.1,3.4,5.1h6.8l1.7,3.4" fill="none" stroke="#b2b2b2" stroke-linecap="square" stroke-linejoin="bevel" stroke-width=".85"/>
      <path id="path17" d="M121.47,17.7h-1.7v10.2h1.7" fill="none" stroke="#b2b2b2" stroke-linecap="square" stroke-linejoin="bevel" stroke-width=".85"/>
      <path id="path18" d="M135.07,17.7h1.7v10.2h-1.7" fill="none" stroke="#b2b2b2" stroke-linecap="square" stroke-linejoin="bevel" stroke-width=".85"/>
      <path id="path21" d="M123.17,18.6l3.4,3.4" fill="none" stroke="#b2b2b2" stroke-linejoin="bevel" stroke-width=".85"/>
      <path id="path22" d="M126.57,18.6l-3.4,3.4" fill="none" stroke="#b2b2b2" stroke-linejoin="bevel" stroke-width=".85"/>
      <path id="path23-5" d="M123.17,23.7l3.4,3.4" fill="none" stroke="#b2b2b2" stroke-linejoin="bevel" stroke-width=".85"/>
      <path id="path24" d="M123.17,27.1l3.4-3.4" fill="none" stroke="#b2b2b2" stroke-linejoin="bevel" stroke-width=".85"/>
      <path id="path25-3" d="M129.97,18.6l3.4,3.4" fill="none" stroke="#b2b2b2" stroke-linejoin="bevel" stroke-width=".85"/>
      <path id="path26-7" d="M133.37,18.6l-3.4,3.4" fill="none" stroke="#b2b2b2" stroke-linejoin="bevel" stroke-width=".85"/>
      <rect id="rect26" x="129.97" y="23.7" width="3.4" height="3.4" fill="none" stroke="#b2b2b2" stroke-linejoin="bevel" stroke-width=".85"/>
    </g>
    <line x1="67.2" y1="259.2" x2="67.2" y2="230.4" fill="none" stroke="#b2b2b2" stroke-miterlimit="11.34" stroke-width=".5"/>
    <line x1="96" y1="259.2" x2="96" y2="230.4" fill="none" stroke="#b2b2b2" stroke-miterlimit="11.34" stroke-width=".5"/>
    <line x1="124.8" y1="259.2" x2="124.8" y2="230.4" fill="none" stroke="#b2b2b2" stroke-miterlimit="11.34" stroke-width=".5"/>
    <rect x="52.8" y="273.6" width="86.4" height="86.4" rx="2.83" ry="2.83" fill="#2a2a2a"/>
  </g>
  <g id="Text">
    <g>
      <rect x="7.23" y="16.8" width="43.2" height="12" fill="none"/>
      <path d="M7.84,25.95v-6.3h1.52l2.76,3.84v-3.84h1.45v6.3h-1.45l-2.84-3.95v3.95h-1.45Z" fill="#231f20"/>
      <path d="M17.54,26.06c-.65,0-1.22-.14-1.72-.42s-.89-.66-1.17-1.15c-.28-.49-.42-1.05-.42-1.68s.14-1.2.42-1.69c.28-.49.67-.87,1.17-1.15s1.06-.42,1.71-.42,1.21.14,1.71.42.88.66,1.17,1.15c.28.49.42,1.05.42,1.69s-.14,1.19-.42,1.68c-.28.49-.66.87-1.16,1.15s-1.06.42-1.7.42ZM17.54,24.73c.35,0,.67-.08.94-.24.27-.16.48-.39.63-.68.15-.29.22-.62.22-.99s-.08-.71-.23-1-.37-.52-.64-.68-.58-.25-.94-.25-.67.08-.94.25c-.27.17-.48.39-.64.68-.16.29-.23.62-.23.99s.08.71.23,1c.16.29.37.52.65.68.28.16.59.24.95.24Z" fill="#231f20"/>
      <path d="M22.62,25.95v-4.97h-1.84v-1.33h5.11v1.33h-1.84v4.97h-1.44Z" fill="#231f20"/>
      <path d="M26.41,25.95v-6.3h4.1v1.33h-2.66v1.15h2.22v1.29h-2.22v1.2h2.7v1.33h-4.15Z" fill="#231f20"/>
    </g>
    <g isolation="isolate">
      <path d="M117.49,288l1.97-4.9h.73l1.97,4.9h-.74l-.53-1.31h-2.16l-.53,1.31h-.74ZM118.98,286.08h1.69l-.84-2.11-.85,2.11Z" fill="#fff"/>
      <path d="M124.78,288.08c-.47,0-.88-.11-1.25-.33-.36-.22-.65-.52-.85-.9s-.31-.82-.31-1.31.1-.93.31-1.31.49-.68.85-.9c.36-.22.77-.33,1.24-.33.3,0,.59.05.87.17.28.11.52.26.74.46.22.19.38.42.5.67l-.62.28c-.09-.19-.21-.36-.36-.5s-.33-.25-.52-.33-.4-.12-.61-.12c-.33,0-.62.08-.88.25s-.46.39-.6.67c-.14.29-.22.61-.22.99s.07.71.22.99c.15.29.35.51.61.68.26.16.55.24.88.24.21,0,.42-.04.61-.13.19-.09.36-.21.51-.36.15-.15.27-.33.37-.52l.62.27c-.12.27-.28.5-.5.71s-.46.37-.74.48c-.28.11-.57.17-.88.17Z" fill="#fff"/>
      <path d="M129.83,288.08c-.47,0-.88-.11-1.25-.33-.36-.22-.65-.52-.85-.9-.21-.38-.31-.82-.31-1.31s.1-.93.31-1.31c.21-.38.49-.68.85-.9.36-.22.77-.33,1.24-.33.3,0,.59.05.87.17.28.11.52.26.74.46.22.19.38.42.5.67l-.62.28c-.09-.19-.21-.36-.36-.5-.15-.14-.33-.25-.52-.33-.19-.08-.4-.12-.61-.12-.33,0-.62.08-.88.25-.26.16-.46.39-.6.67-.14.29-.22.61-.22.99s.07.71.22.99c.15.29.35.51.61.68.26.16.55.24.89.24.21,0,.42-.04.61-.13.19-.09.36-.21.51-.36s.27-.33.37-.52l.62.27c-.12.27-.28.5-.5.71-.21.21-.46.37-.74.48-.28.11-.57.17-.88.17Z" fill="#fff"/>
    </g>
    <g isolation="isolate">
      <path d="M91.72,288l-2.01-4.9h.73l1.65,4.1,1.66-4.1h.74l-2.01,4.9h-.76Z" fill="#fff"/>
      <path d="M95.17,288v-4.9h2.95v.63h-2.26v1.46h2.04v.62h-2.04v1.57h2.28v.63h-2.96Z" fill="#fff"/>
      <path d="M99.31,288v-4.9h.69v4.27h2.27v.63h-2.96Z" fill="#fff"/>
    </g>
    <g isolation="isolate">
      <path d="M90.43,331.28c-.5,0-.93-.11-1.32-.33-.38-.22-.69-.52-.9-.9s-.33-.82-.33-1.31.11-.94.33-1.32.52-.68.9-.9c.38-.22.82-.33,1.32-.33.27,0,.53.04.78.13.25.09.48.21.68.36.2.15.37.33.49.52l-.55.36c-.09-.14-.21-.27-.36-.38-.15-.11-.31-.2-.49-.26-.18-.06-.36-.09-.54-.09-.36,0-.68.08-.96.25s-.5.39-.65.67c-.16.29-.24.62-.24.99s.08.7.23.98c.16.28.38.51.66.67.28.16.61.25.97.25.29,0,.55-.06.78-.18.23-.12.41-.29.54-.5s.2-.46.21-.74h-1.18v-.57h1.86v.5c0,.42-.1.8-.29,1.11-.19.32-.45.56-.78.74-.33.17-.71.26-1.14.26Z" fill="#fff"/>
      <path d="M92.86,331.2l1.97-4.9h.73l1.97,4.9h-.74l-.53-1.31h-2.16l-.53,1.31h-.73ZM94.36,329.28h1.69l-.84-2.11-.85,2.11Z" fill="#fff"/>
      <path d="M99.07,331.2v-4.27h-1.53v-.63h3.76v.63h-1.53v4.27h-.69Z" fill="#fff"/>
      <path d="M102,331.2v-4.9h2.95v.63h-2.26v1.46h2.04v.62h-2.04v1.57h2.27v.63h-2.96Z" fill="#fff"/>
    </g>
    <g isolation="isolate">
      <path d="M57.71,287.99v-4.9h1.65c.33,0,.62.06.87.19.25.13.45.31.59.53.14.23.21.49.21.79,0,.32-.09.6-.27.85-.18.24-.42.42-.71.53l1.18,2.01h-.78l-1.09-1.88h-.96v1.88h-.69ZM58.39,285.48h1.03c.17,0,.32-.04.45-.12s.24-.18.32-.32.12-.28.12-.45c0-.26-.09-.47-.27-.64-.18-.16-.42-.25-.71-.25h-.94v1.76Z" fill="#fff"/>
      <path d="M64.24,288.07c-.48,0-.9-.11-1.27-.32-.37-.21-.66-.51-.86-.9s-.31-.82-.31-1.31.1-.94.31-1.32c.21-.38.49-.68.86-.9.36-.22.78-.33,1.26-.33s.9.11,1.26.33c.36.22.65.52.85.9.21.38.31.82.31,1.31s-.1.93-.31,1.32-.49.68-.85.9c-.36.21-.78.32-1.25.32ZM64.25,287.44c.33,0,.63-.08.88-.25.26-.16.46-.39.6-.67.14-.28.22-.61.22-.99s-.07-.7-.22-.98-.35-.51-.61-.67c-.26-.16-.56-.25-.89-.25s-.63.08-.9.25c-.26.16-.46.39-.61.67s-.22.62-.22.98.08.7.22.99c.15.29.36.51.62.67.26.16.57.25.91.25Z" fill="#fff"/>
      <path d="M69.7,288.07c-.48,0-.9-.11-1.27-.32-.37-.21-.66-.51-.86-.9s-.31-.82-.31-1.31.1-.94.31-1.32c.21-.38.49-.68.86-.9.36-.22.78-.33,1.26-.33s.9.11,1.26.33c.36.22.65.52.85.9.21.38.31.82.31,1.31s-.1.93-.31,1.32-.49.68-.85.9c-.36.21-.78.32-1.25.32ZM69.7,287.44c.33,0,.63-.08.88-.25.26-.16.46-.39.6-.67.14-.28.22-.61.22-.99s-.07-.7-.22-.98-.35-.51-.61-.67c-.26-.16-.56-.25-.89-.25s-.63.08-.9.25c-.26.16-.46.39-.61.67s-.22.62-.22.98.08.7.22.99c.15.29.36.51.62.67.26.16.57.25.91.25Z" fill="#fff"/>
      <path d="M73.94,287.99v-4.27h-1.53v-.63h3.76v.63h-1.53v4.27h-.69Z" fill="#fff"/>
    </g>
    <g isolation="isolate">
      <path d="M58.44,331.27c-.26,0-.5-.03-.71-.09-.21-.06-.4-.14-.55-.25-.16-.11-.29-.22-.39-.35-.1-.13-.17-.27-.22-.41l.67-.22c.07.19.2.36.4.5.2.14.44.21.72.22.34,0,.62-.07.82-.21s.3-.32.3-.55c0-.21-.09-.38-.26-.51-.17-.13-.4-.23-.69-.3l-.57-.15c-.22-.06-.43-.15-.61-.26s-.33-.25-.44-.43-.16-.38-.16-.62c0-.45.15-.8.44-1.05s.71-.38,1.26-.38c.32,0,.59.05.83.15s.43.23.58.4.26.34.33.54l-.67.22c-.08-.21-.21-.38-.41-.51-.19-.13-.43-.19-.71-.19-.29,0-.53.07-.7.21-.17.14-.25.33-.25.57,0,.21.07.36.2.47s.31.19.54.25l.57.14c.46.11.81.3,1.06.56.25.26.38.54.38.85,0,.27-.07.51-.2.72-.13.21-.33.38-.59.5-.26.12-.58.19-.96.19Z" fill="#fff"/>
      <path d="M63.23,331.27c-.47,0-.88-.11-1.25-.33s-.65-.52-.85-.9c-.21-.38-.31-.82-.31-1.31s.1-.93.31-1.31c.21-.38.49-.68.85-.9s.77-.33,1.24-.33c.3,0,.59.05.87.16s.52.26.74.46c.22.19.38.42.5.68l-.62.28c-.09-.19-.21-.36-.36-.5-.15-.14-.33-.25-.52-.33-.19-.08-.4-.12-.61-.12-.33,0-.62.08-.88.25-.26.16-.46.39-.6.67-.14.28-.22.61-.22.99s.07.71.22.99c.15.29.35.51.61.68s.55.24.89.24c.21,0,.42-.04.61-.13.19-.09.36-.21.51-.36.15-.15.27-.33.37-.52l.62.27c-.12.27-.28.5-.5.71-.21.21-.46.37-.74.48-.28.11-.57.17-.88.17Z" fill="#fff"/>
      <path d="M65.64,331.19l1.97-4.9h.73l1.97,4.9h-.74l-.53-1.31h-2.16l-.53,1.31h-.74ZM67.14,329.26h1.69l-.84-2.11-.85,2.11Z" fill="#fff"/>
      <path d="M71.01,331.19v-4.9h.69v4.27h2.27v.63h-2.96Z" fill="#fff"/>
      <path d="M74.68,331.19v-4.9h2.95v.63h-2.26v1.46h2.04v.62h-2.04v1.57h2.27v.63h-2.96Z" fill="#fff"/>
    </g>
    <g isolation="isolate">
      <path d="M115.8,331.2l-2.01-4.9h.73l1.65,4.1,1.66-4.1h.74l-2.01,4.9h-.76Z" fill="#fff"/>
      <path d="M118.74,331.79l1.93-5.82h.67l-1.92,5.82h-.68Z" fill="#fff"/>
      <path d="M124.18,331.28c-.48,0-.9-.11-1.27-.32-.37-.21-.66-.51-.86-.9-.21-.38-.31-.82-.31-1.31s.1-.94.31-1.32c.21-.38.49-.68.86-.9.36-.22.78-.33,1.26-.33s.9.11,1.26.33c.36.22.65.52.85.9.21.38.31.82.31,1.31s-.1.93-.31,1.32c-.21.38-.49.68-.85.9-.36.21-.78.32-1.25.32ZM124.19,330.65c.33,0,.62-.08.88-.25.26-.16.46-.39.6-.67.14-.29.22-.61.22-.99s-.07-.7-.22-.98c-.15-.29-.35-.51-.61-.68-.26-.16-.56-.24-.89-.24s-.63.08-.9.24c-.26.16-.46.39-.61.68-.15.29-.22.62-.22.98s.07.7.22.99c.15.28.36.51.62.67.26.16.56.25.91.25Z" fill="#fff"/>
      <path d="M129.6,331.28c-.47,0-.88-.11-1.25-.33-.36-.22-.65-.52-.85-.9-.21-.38-.31-.82-.31-1.31s.1-.93.31-1.31c.21-.38.49-.68.85-.9.36-.22.77-.33,1.24-.33.3,0,.59.06.87.17s.52.26.74.46c.22.19.38.42.5.67l-.62.28c-.09-.19-.21-.36-.36-.5-.15-.14-.33-.25-.52-.33-.19-.08-.4-.12-.61-.12-.33,0-.62.08-.88.24-.26.16-.46.39-.6.67-.14.28-.22.61-.22.99s.07.71.22.99c.15.29.35.51.61.68s.55.24.89.24c.21,0,.42-.04.61-.13.19-.09.36-.21.51-.36.15-.15.27-.33.37-.52l.62.27c-.12.27-.28.5-.5.71-.21.21-.46.37-.74.48s-.57.17-.88.17Z" fill="#fff"/>
      <path d="M133.57,331.2v-4.27h-1.53v-.63h3.76v.63h-1.53v4.27h-.69Z" fill="#fff"/>
    </g>
  </g>
  <g id="Grids">
    <rect x="6.8" y="34.02" width="130.39" height="170.08" rx="2.83" ry="2.83" fill="#1a1a2e" stroke="#404060" stroke-miterlimit="11.34" stroke-width=".85"/>
    <g isolation="isolate">
      <g>
        <path d="M58.24,216v-4.9h1.65c.33,0,.61.06.86.19.25.13.45.3.59.53s.21.49.21.79c0,.32-.09.61-.27.85-.18.24-.42.42-.71.53l1.18,2.01h-.78l-1.09-1.88h-.96v1.88h-.69ZM58.93,213.49h1.03c.17,0,.32-.04.45-.12.13-.08.24-.18.32-.32.08-.13.12-.28.12-.45,0-.26-.09-.47-.27-.64-.18-.16-.42-.24-.71-.24h-.94v1.76Z" fill="#231f20"/>
        <path d="M64.78,216.08c-.48,0-.9-.11-1.27-.32-.37-.21-.66-.51-.87-.9-.21-.38-.31-.82-.31-1.31s.1-.94.31-1.32c.21-.38.49-.68.86-.9.36-.22.78-.33,1.26-.33s.9.11,1.26.33.65.52.85.9c.21.38.31.82.31,1.31s-.1.93-.31,1.32c-.21.38-.49.68-.85.9-.36.21-.78.32-1.25.32ZM64.79,215.45c.33,0,.63-.08.88-.25.26-.16.46-.39.6-.67s.22-.61.22-.99-.07-.7-.22-.98c-.15-.29-.35-.51-.61-.68-.26-.16-.56-.24-.89-.24s-.63.08-.9.24c-.26.16-.46.39-.61.68-.15.29-.22.62-.22.98s.08.7.22.99.36.51.62.67c.26.16.57.25.91.25Z" fill="#231f20"/>
        <path d="M70.23,216.08c-.48,0-.9-.11-1.27-.32-.37-.21-.66-.51-.87-.9-.21-.38-.31-.82-.31-1.31s.1-.94.31-1.32c.21-.38.49-.68.86-.9.36-.22.78-.33,1.26-.33s.9.11,1.26.33.65.52.85.9c.21.38.31.82.31,1.31s-.1.93-.31,1.32c-.21.38-.49.68-.85.9-.36.21-.78.32-1.25.32ZM70.24,215.45c.33,0,.63-.08.88-.25.26-.16.46-.39.6-.67s.22-.61.22-.99-.07-.7-.22-.98c-.15-.29-.35-.51-.61-.68-.26-.16-.56-.24-.89-.24s-.63.08-.9.24c-.26.16-.46.39-.61.68-.15.29-.22.62-.22.98s.08.7.22.99.36.51.62.67c.26.16.57.25.91.25Z" fill="#231f20"/>
        <path d="M74.47,216v-4.27h-1.53v-.63h3.76v.63h-1.53v4.27h-.69Z" fill="#231f20"/>
      </g>
    </g>
    <g isolation="isolate">
      <g>
        <path d="M87.23,215.52c-.26,0-.5-.03-.71-.09-.21-.06-.4-.14-.55-.25-.16-.1-.29-.22-.39-.35-.1-.13-.17-.27-.22-.41l.67-.22c.07.19.2.36.4.5.2.14.44.21.72.22.35,0,.62-.07.82-.21s.3-.32.3-.55c0-.21-.09-.38-.26-.51-.17-.13-.4-.23-.69-.3l-.57-.15c-.22-.06-.43-.15-.61-.26-.18-.11-.33-.25-.44-.43-.11-.17-.16-.38-.16-.62,0-.45.14-.8.44-1.05.29-.25.71-.38,1.26-.38.32,0,.59.05.83.15.23.1.43.23.58.4.15.16.26.34.33.54l-.67.22c-.08-.21-.21-.38-.41-.51s-.43-.19-.71-.19-.53.07-.7.21c-.17.14-.26.33-.26.57,0,.21.07.36.2.47.13.11.31.19.54.25l.57.14c.46.11.81.3,1.06.56.25.26.37.54.37.85,0,.27-.07.5-.2.72s-.33.38-.59.5c-.26.12-.58.19-.96.19Z" fill="#231f20"/>
        <path d="M92.02,215.52c-.47,0-.88-.11-1.25-.33-.36-.22-.65-.52-.85-.9-.21-.38-.31-.82-.31-1.31s.1-.93.31-1.31c.21-.38.49-.68.85-.9s.77-.33,1.24-.33c.3,0,.59.05.87.17.28.11.52.26.74.46.22.19.38.42.5.67l-.62.28c-.09-.19-.21-.36-.37-.5-.15-.14-.33-.25-.52-.33-.19-.08-.39-.12-.61-.12-.33,0-.62.08-.88.24-.26.16-.46.39-.6.67-.14.29-.22.61-.22.99s.07.71.22.99c.15.29.35.51.61.68.26.16.55.24.88.24.21,0,.42-.04.61-.13.19-.09.36-.21.51-.36.15-.15.28-.33.37-.52l.62.27c-.12.27-.28.5-.5.71-.21.21-.46.37-.74.48-.28.12-.57.17-.88.17Z" fill="#231f20"/>
        <path d="M94.42,215.43l1.97-4.9h.73l1.97,4.9h-.73l-.53-1.31h-2.16l-.53,1.31h-.74ZM95.92,213.51h1.69l-.84-2.11-.85,2.11Z" fill="#231f20"/>
        <path d="M99.79,215.43v-4.9h.69v4.27h2.27v.63h-2.96Z" fill="#231f20"/>
        <path d="M103.46,215.43v-4.9h2.95v.63h-2.26v1.46h2.04v.62h-2.04v1.57h2.27v.63h-2.96Z" fill="#231f20"/>
      </g>
    </g>
    <g isolation="isolate">
      <g>
        <path d="M120.33,215.52c-.48,0-.9-.11-1.27-.32s-.66-.51-.86-.9c-.21-.38-.31-.82-.31-1.31s.1-.94.31-1.32c.21-.38.49-.68.86-.9.36-.22.78-.33,1.26-.33s.9.11,1.26.33c.36.22.65.52.85.9.21.38.31.82.31,1.31s-.1.93-.31,1.32c-.21.38-.49.68-.85.9s-.78.32-1.25.32ZM120.33,214.89c.33,0,.62-.08.88-.25.26-.16.46-.39.6-.67s.22-.61.22-.99-.07-.7-.22-.98c-.15-.29-.35-.51-.61-.68-.26-.16-.56-.24-.89-.24s-.63.08-.9.24c-.26.16-.46.39-.61.68-.15.29-.22.62-.22.98s.07.7.22.99.36.51.62.67c.26.16.56.25.91.25Z" fill="#231f20"/>
        <path d="M125.74,215.52c-.47,0-.88-.11-1.25-.33-.36-.22-.65-.52-.85-.9s-.31-.82-.31-1.31.1-.93.31-1.31.49-.68.85-.9.77-.33,1.24-.33c.3,0,.59.05.87.17.28.11.52.26.74.46.22.19.38.42.5.67l-.62.28c-.09-.19-.21-.36-.36-.5-.15-.14-.33-.25-.52-.33-.19-.08-.4-.12-.61-.12-.33,0-.62.08-.88.24-.26.16-.46.39-.6.67-.14.29-.22.61-.22.99s.07.71.22.99c.15.29.35.51.61.68s.55.24.89.24c.21,0,.42-.04.61-.13.19-.09.36-.21.51-.36s.27-.33.37-.52l.62.27c-.12.27-.28.5-.5.71-.21.21-.46.37-.74.48-.28.12-.57.17-.88.17Z" fill="#231f20"/>
        <path d="M129.71,215.43v-4.27h-1.53v-.63h3.76v.63h-1.53v4.27h-.69Z" fill="#231f20"/>
      </g>
    </g>
    <g>
      <line x1="64.37" y1="230.4" x2="70.03" y2="230.4" fill="none" stroke="red" stroke-miterlimit="11.34" stroke-width=".57"/>
      <line x1="67.2" y1="227.57" x2="67.2" y2="233.23" fill="none" stroke="red" stroke-miterlimit="11.34" stroke-width=".57"/>
      <circle cx="67.2" cy="230.4" r="2.27" fill="none" stroke="red" stroke-miterlimit="11.34" stroke-width=".43"/>
    </g>
    <g>
      <line x1="93.17" y1="230.4" x2="98.83" y2="230.4" fill="none" stroke="red" stroke-miterlimit="11.34" stroke-width=".57"/>
      <line x1="96" y1="227.57" x2="96" y2="233.23" fill="none" stroke="red" stroke-miterlimit="11.34" stroke-width=".57"/>
      <circle cx="96" cy="230.4" r="2.27" fill="none" stroke="red" stroke-miterlimit="11.34" stroke-width=".43"/>
    </g>
    <g>
      <line x1="121.97" y1="230.4" x2="127.63" y2="230.4" fill="none" stroke="red" stroke-miterlimit="11.34" stroke-width=".57"/>
      <line x1="124.8" y1="227.57" x2="124.8" y2="233.23" fill="none" stroke="red" stroke-miterlimit="11.34" stroke-width=".57"/>
      <circle cx="124.8" cy="230.4" r="2.27" fill="none" stroke="red" stroke-miterlimit="11.34" stroke-width=".43"/>
    </g>
    <g>
      <line x1="14.95" y1="345.6" x2="23.45" y2="345.6" fill="none" stroke="#06f" stroke-miterlimit="11.34" stroke-width=".57"/>
      <line x1="19.2" y1="341.35" x2="19.2" y2="349.85" fill="none" stroke="#06f" stroke-miterlimit="11.34" stroke-width=".57"/>
      <circle cx="19.2" cy="345.6" r="3.4" fill="none" stroke="#06f" stroke-miterlimit="11.34" stroke-width=".43"/>
    </g>
    <g>
      <line x1="62.95" y1="259.2" x2="71.45" y2="259.2" fill="none" stroke="#06f" stroke-miterlimit="11.34" stroke-width=".57"/>
      <line x1="67.2" y1="254.95" x2="67.2" y2="263.45" fill="none" stroke="#06f" stroke-miterlimit="11.34" stroke-width=".57"/>
      <circle cx="67.2" cy="259.2" r="3.4" fill="none" stroke="#06f" stroke-miterlimit="11.34" stroke-width=".43"/>
    </g>
    <g>
      <line x1="91.75" y1="259.2" x2="100.25" y2="259.2" fill="none" stroke="#06f" stroke-miterlimit="11.34" stroke-width=".57"/>
      <line x1="96" y1="254.95" x2="96" y2="263.45" fill="none" stroke="#06f" stroke-miterlimit="11.34" stroke-width=".57"/>
      <circle cx="96" cy="259.2" r="3.4" fill="none" stroke="#06f" stroke-miterlimit="11.34" stroke-width=".43"/>
    </g>
    <g>
      <line x1="120.55" y1="259.2" x2="129.05" y2="259.2" fill="none" stroke="#06f" stroke-miterlimit="11.34" stroke-width=".57"/>
      <line x1="124.8" y1="254.95" x2="124.8" y2="263.45" fill="none" stroke="#06f" stroke-miterlimit="11.34" stroke-width=".57"/>
      <circle cx="124.8" cy="259.2" r="3.4" fill="none" stroke="#06f" stroke-miterlimit="11.34" stroke-width=".43"/>
    </g>
    <g isolation="isolate">
      <g>
        <path d="M10.17,331.28c-.47,0-.88-.11-1.25-.33-.36-.22-.65-.52-.85-.9s-.31-.82-.31-1.31.1-.93.31-1.31.49-.68.85-.9c.36-.22.77-.33,1.24-.33.3,0,.59.05.87.17.28.11.52.26.74.46.22.19.38.42.5.67l-.62.28c-.09-.19-.21-.36-.36-.5s-.33-.25-.52-.33-.4-.12-.61-.12c-.33,0-.62.08-.88.25s-.46.39-.6.67c-.14.29-.22.61-.22.99s.07.71.22.99c.15.29.35.51.61.68.26.16.55.24.88.24.21,0,.42-.04.61-.13.19-.09.36-.21.51-.36.15-.15.27-.33.37-.52l.62.27c-.12.27-.28.5-.5.71s-.46.37-.74.48c-.28.11-.57.17-.88.17Z" fill="#231f20"/>
        <path d="M13.13,331.2v-4.9h.69v4.27h2.27v.63h-2.96Z" fill="#231f20"/>
        <path d="M18.81,331.28c-.48,0-.9-.11-1.27-.32-.37-.21-.66-.51-.86-.9-.21-.38-.31-.82-.31-1.31s.1-.94.31-1.32.49-.68.86-.9c.36-.22.78-.33,1.26-.33s.9.11,1.26.33c.36.22.65.52.85.9s.31.82.31,1.31-.1.93-.31,1.32c-.21.38-.49.68-.85.9s-.78.32-1.25.32ZM18.81,330.65c.33,0,.62-.08.88-.25s.46-.39.6-.67c.14-.29.22-.61.22-.99s-.07-.7-.22-.98c-.15-.29-.35-.51-.61-.68s-.56-.25-.89-.25-.63.08-.9.25c-.26.16-.47.39-.61.68-.15.29-.22.62-.22.98s.07.7.22.99c.15.28.36.51.62.67.26.16.57.25.91.25Z" fill="#231f20"/>
        <path d="M24.22,331.28c-.47,0-.88-.11-1.25-.33-.36-.22-.65-.52-.85-.9s-.31-.82-.31-1.31.1-.93.31-1.31.49-.68.85-.9c.36-.22.77-.33,1.24-.33.3,0,.59.05.87.17.28.11.52.26.74.46.22.19.38.42.5.67l-.62.28c-.09-.19-.21-.36-.36-.5s-.33-.25-.52-.33-.4-.12-.61-.12c-.33,0-.62.08-.88.25s-.46.39-.6.67c-.14.29-.22.61-.22.99s.07.71.22.99c.15.29.35.51.61.68.26.16.55.24.88.24.21,0,.42-.04.61-.13.19-.09.36-.21.51-.36.15-.15.27-.33.37-.52l.62.27c-.12.27-.28.5-.5.71s-.46.37-.74.48c-.28.11-.57.17-.88.17Z" fill="#231f20"/>
        <path d="M27.19,331.2v-4.9h.67v2.17l2.08-2.17h.88l-2.09,2.21,2.18,2.7h-.85l-1.79-2.22-.41.43v1.79h-.67Z" fill="#231f20"/>
      </g>
    </g>
    <g isolation="isolate">
      <g>
        <path d="M13.07,288v-4.9h1.58c.34,0,.62.05.86.15s.43.25.56.46c.13.2.2.45.2.74,0,.22-.05.42-.16.6-.1.18-.25.32-.44.43.24.12.43.27.56.47.13.2.19.43.19.7,0,.29-.06.53-.19.73-.13.2-.31.36-.54.46-.23.11-.51.16-.84.16h-1.78ZM13.75,285.21h1.01c.25,0,.45-.07.6-.2s.22-.32.22-.56-.08-.44-.25-.57-.4-.2-.71-.2h-.87v1.53ZM13.75,287.38h1.06c.29,0,.51-.07.68-.21.16-.14.24-.32.24-.56,0-.26-.09-.46-.28-.61-.18-.14-.44-.21-.77-.21h-.92v1.58Z" fill="#231f20"/>
        <path d="M16.79,288l1.97-4.9h.73l1.97,4.9h-.73l-.53-1.31h-2.16l-.53,1.31h-.74ZM18.29,286.08h1.69l-.84-2.11-.85,2.11Z" fill="#231f20"/>
        <path d="M22.16,288v-4.9h1.65c.33,0,.62.06.87.19.25.13.45.31.59.53.14.23.21.49.21.79,0,.32-.09.6-.27.85-.18.24-.42.42-.71.53l1.18,2.01h-.78l-1.09-1.88h-.96v1.88h-.69ZM22.84,285.49h1.03c.17,0,.32-.04.45-.12s.24-.18.32-.31c.08-.13.12-.28.12-.45,0-.26-.09-.47-.27-.64-.18-.16-.42-.25-.71-.25h-.94v1.76Z" fill="#231f20"/>
      </g>
    </g>
    <g isolation="isolate">
      <g>
        <path d="M9.37,244.8v-4.9h1.65c.33,0,.62.06.87.19.25.13.45.31.59.53.14.23.21.49.21.79,0,.32-.09.6-.27.85-.18.24-.42.42-.71.53l1.18,2.01h-.78l-1.09-1.88h-.96v1.88h-.69ZM10.06,242.29h1.03c.17,0,.32-.04.45-.12s.24-.18.32-.32.12-.28.12-.45c0-.26-.09-.47-.27-.64-.18-.16-.42-.25-.71-.25h-.94v1.76Z" fill="#231f20"/>
        <path d="M13.79,244.8v-4.9h2.95v.63h-2.26v1.46h2.04v.62h-2.04v1.57h2.28v.63h-2.96Z" fill="#231f20"/>
        <path d="M19.51,244.88c-.26,0-.5-.03-.71-.09-.21-.06-.4-.14-.55-.25-.16-.11-.29-.22-.39-.35-.1-.13-.17-.27-.22-.41l.67-.22c.07.19.2.36.4.5.2.14.44.21.72.22.35,0,.62-.07.82-.21s.3-.32.3-.55c0-.21-.09-.38-.26-.51-.17-.13-.4-.23-.69-.3l-.57-.15c-.22-.06-.43-.15-.61-.26-.18-.11-.33-.25-.44-.43s-.16-.38-.16-.62c0-.45.14-.8.44-1.05.29-.25.71-.38,1.26-.38.32,0,.59.05.83.15s.43.23.58.4c.15.16.26.34.33.54l-.67.22c-.08-.21-.21-.38-.41-.51-.19-.13-.43-.19-.71-.19s-.53.07-.7.21c-.17.14-.26.33-.26.57,0,.21.07.36.2.47s.31.19.54.25l.57.14c.46.11.81.3,1.06.56.25.26.37.54.37.85,0,.27-.07.51-.2.72-.13.21-.33.38-.59.5-.26.12-.58.19-.96.19Z" fill="#231f20"/>
        <path d="M22.21,244.8v-4.9h2.95v.63h-2.26v1.46h2.04v.62h-2.04v1.57h2.27v.63h-2.96Z" fill="#231f20"/>
        <path d="M27.34,244.8v-4.27h-1.53v-.63h3.76v.63h-1.53v4.27h-.69Z" fill="#231f20"/>
      </g>
    </g>
    <g>
      <line x1="14.95" y1="259.2" x2="23.45" y2="259.2" fill="none" stroke="#06f" stroke-miterlimit="11.34" stroke-width=".57"/>
      <line x1="19.2" y1="254.95" x2="19.2" y2="263.45" fill="none" stroke="#06f" stroke-miterlimit="11.34" stroke-width=".57"/>
      <circle cx="19.2" cy="259.2" r="3.4" fill="none" stroke="#06f" stroke-miterlimit="11.34" stroke-width=".43"/>
    </g>
    <g>
      <line x1="14.95" y1="302.4" x2="23.45" y2="302.4" fill="none" stroke="#06f" stroke-miterlimit="11.34" stroke-width=".57"/>
      <line x1="19.2" y1="298.15" x2="19.2" y2="306.65" fill="none" stroke="#06f" stroke-miterlimit="11.34" stroke-width=".57"/>
      <circle cx="19.2" cy="302.4" r="3.4" fill="none" stroke="#06f" stroke-miterlimit="11.34" stroke-width=".43"/>
    </g>
    <g>
      <line x1="91.75" y1="345.6" x2="100.25" y2="345.6" fill="none" stroke="#06f" stroke-miterlimit="11.34" stroke-width=".57"/>
      <line x1="96" y1="341.35" x2="96" y2="349.85" fill="none" stroke="#06f" stroke-miterlimit="11.34" stroke-width=".57"/>
      <circle cx="96" cy="345.6" r="3.4" fill="none" stroke="#06f" stroke-miterlimit="11.34" stroke-width=".43"/>
    </g>
    <g>
      <line x1="120.55" y1="302.4" x2="129.05" y2="302.4" fill="none" stroke="#06f" stroke-miterlimit="11.34" stroke-width=".57"/>
      <line x1="124.8" y1="298.15" x2="124.8" y2="306.65" fill="none" stroke="#06f" stroke-miterlimit="11.34" stroke-width=".57"/>
      <circle cx="124.8" cy="302.4" r="3.4" fill="none" stroke="#06f" stroke-miterlimit="11.34" stroke-width=".43"/>
    </g>
    <g>
      <line x1="91.75" y1="302.4" x2="100.25" y2="302.4" fill="none" stroke="#06f" stroke-miterlimit="11.34" stroke-width=".57"/>
      <line x1="96" y1="298.15" x2="96" y2="306.65" fill="none" stroke="#06f" stroke-miterlimit="11.34" stroke-width=".57"/>
      <circle cx="96" cy="302.4" r="3.4" fill="none" stroke="#06f" stroke-miterlimit="11.34" stroke-width=".43"/>
    </g>
    <g>
      <line x1="62.95" y1="345.61" x2="71.45" y2="345.61" fill="none" stroke="#06f" stroke-miterlimit="11.34" stroke-width=".57"/>
      <line x1="67.21" y1="341.35" x2="67.21" y2="349.85" fill="none" stroke="#06f" stroke-miterlimit="11.34" stroke-width=".57"/>
      <circle cx="67.21" cy="345.6" r="3.4" fill="none" stroke="#06f" stroke-miterlimit="11.34" stroke-width=".43"/>
    </g>
    <g>
      <line x1="62.95" y1="302.4" x2="71.45" y2="302.4" fill="none" stroke="#06f" stroke-miterlimit="11.34" stroke-width=".57"/>
      <line x1="67.2" y1="298.15" x2="67.2" y2="306.65" fill="none" stroke="#06f" stroke-miterlimit="11.34" stroke-width=".57"/>
      <circle cx="67.2" cy="302.4" r="3.4" fill="none" stroke="#06f" stroke-miterlimit="11.34" stroke-width=".43"/>
    </g>
    <g>
      <line x1="120.55" y1="345.6" x2="129.05" y2="345.6" fill="none" stroke="#06f" stroke-miterlimit="11.34" stroke-width=".57"/>
      <line x1="124.8" y1="341.35" x2="124.8" y2="349.85" fill="none" stroke="#06f" stroke-miterlimit="11.34" stroke-width=".57"/>
      <circle cx="124.8" cy="345.6" r="3.4" fill="none" stroke="#06f" stroke-miterlimit="11.34" stroke-width=".43"/>
    </g>
  </g>
</svg>