<?xml version="1.0" encoding="UTF-8"?>
<svg xmlns="http://www.w3.org/2000/svg" width="50.8mm" height="128.5mm" viewBox="0 0 144 364.25">
  <g id="Layer_3" data-name="Layer 3">
    <rect x="0" width="144" height="364.25" fill="#f0f0f0"/>
  </g>
  <g id="Background">
    <rect x="0" y="0" width="144" height="364.25" fill="#f4f4f4"/>
  </g>
  <g id="UI">
    <g>
      <path id="path12" d="M72,22.8h1.7v-1.7h1.7v3.4h1.7v-5.1h1.7v6.8h1.7v-8.5h1.7v8.5h1.7v-5.1h1.7v3.4h1.7v-1.7h1.7" fill="none" stroke="#b2b2b2" stroke-linecap="round" stroke-linejoin="round" stroke-width=".85"/>
      <path id="path13" d="M91.52,26.2l5.1-8.5c0,1.86,1.43,5.1,3.4,5.1h6.8l1.7,3.4" fill="none" stroke="#b2b2b2" stroke-linecap="square" stroke-linejoin="bevel" stroke-width=".85"/>
      <path id="path17" d="M114.24,17.7h-1.7v10.2h1.7" fill="none" stroke="#b2b2b2" stroke-linecap="square" stroke-linejoin="bevel" stroke-width=".85"/>
      <path id="path18" d="M127.85,17.7h1.7v10.2h-1.7" fill="none" stroke="#b2b2b2" stroke-linecap="square" stroke-linejoin="bevel" stroke-width=".85"/>
      <path id="path21" d="M115.94,18.6l3.4,3.4" fill="none" stroke="#b2b2b2" stroke-linejoin="bevel" stroke-width=".85"/>
      <path id="path22" d="M119.35,18.6l-3.4,3.4" fill="none" stroke="#b2b2b2" stroke-linejoin="bevel" stroke-width=".85"/>
      <path id="path23-5" d="M115.94,23.7l3.4,3.4" fill="none" stroke="#b2b2b2" stroke-linejoin="bevel" stroke-width=".85"/>
      <path id="path24" d="M115.94,27.1l3.4-3.4" fill="none" stroke="#b2b2b2" stroke-linejoin="bevel" stroke-width=".85"/>
      <path id="path25-3" d="M122.75,18.6l3.4,3.4" fill="none" stroke="#b2b2b2" stroke-linejoin="bevel" stroke-width=".85"/>
      <path id="path26-7" d="M126.15,18.6l-3.4,3.4" fill="none" stroke="#b2b2b2" stroke-linejoin="bevel" stroke-width=".85"/>
      <rect id="rect26" x="122.75" y="23.7" width="3.4" height="3.4" fill="none" stroke="#b2b2b2" stroke-linejoin="bevel" stroke-width=".85"/>
    </g>
    <rect x="108" y="307.2" width="28.8" height="38.4" rx="2.37" ry="2.37"/>
    <rect x="16.44" y="39.69" width="111.12" height="68.03" rx="2.83" ry="2.83" fill="#1a1a2e" stroke="#404060" stroke-miterlimit="11.34" stroke-width=".85"/>
    <line x1="28.8" y1="218.4" x2="43.2" y2="218.4" fill="none" stroke="#b2b2b2" stroke-miterlimit="10" stroke-width=".5"/>
    <rect x="117.6" y="158.4" width="9.6" height="9.6" fill="none" stroke="#b2b2b2" stroke-miterlimit="10" stroke-width=".5"/>
    <rect x="88.8" y="158.4" width="9.6" height="9.6" fill="none" stroke="#b2b2b2" stroke-miterlimit="10" stroke-width=".5"/>
    <rect x="60" y="158.4" width="9.6" height="9.6" fill="none" stroke="#b2b2b2" stroke-miterlimit="10" stroke-width=".5"/>
    <rect x="31.2" y="158.4" width="9.6" height="9.6" fill="none" stroke="#b2b2b2" stroke-miterlimit="10" stroke-width=".5"/>
    <rect x="117.6" y="170.4" width="9.6" height="9.6" fill="none" stroke="#b2b2b2" stroke-miterlimit="10" stroke-width=".5"/>
    <rect x="103.2" y="170.4" width="9.6" height="9.6" fill="none" stroke="#b2b2b2" stroke-miterlimit="10" stroke-width=".5"/>
    <rect x="88.8" y="170.4" width="9.6" height="9.6" fill="none" stroke="#b2b2b2" stroke-miterlimit="10" stroke-width=".5"/>
    <rect x="74.4" y="170.4" width="9.6" height="9.6" fill="none" stroke="#b2b2b2" stroke-miterlimit="10" stroke-width=".5"/>
    <rect x="60" y="170.4" width="9.6" height="9.6" fill="none" stroke="#b2b2b2" stroke-miterlimit="10" stroke-width=".5"/>
    <rect x="45.6" y="170.4" width="9.6" height="9.6" fill="none" stroke="#b2b2b2" stroke-miterlimit="10" stroke-width=".5"/>
    <rect x="31.2" y="170.4" width="9.6" height="9.6" fill="none" stroke="#b2b2b2" stroke-miterlimit="10" stroke-width=".5"/>
    <rect x="16.8" y="170.4" width="9.6" height="9.6" fill="none" stroke="#b2b2b2" stroke-miterlimit="10" stroke-width=".5"/>
    <rect x="103.2" y="146.4" width="9.6" height="9.6" fill="none" stroke="#b2b2b2" stroke-miterlimit="10" stroke-width=".5"/>
    <rect x="74.4" y="146.4" width="9.6" height="9.6" fill="none" stroke="#b2b2b2" stroke-miterlimit="10" stroke-width=".5"/>
    <rect x="45.6" y="146.4" width="9.6" height="9.6" fill="none" stroke="#b2b2b2" stroke-miterlimit="10" stroke-width=".5"/>
    <rect x="16.8" y="146.4" width="9.6" height="9.6" fill="none" stroke="#b2b2b2" stroke-miterlimit="10" stroke-width=".5"/>
    <polyline points="127.2 115.2 132 115.2 132 187.2 122.4 187.2 122.4 194.4" fill="none" stroke="#b2b2b2" stroke-miterlimit="10" stroke-width=".5"/>
    <polyline points="16.8 151.2 12 151.2 12 187.2 21.6 187.2 21.6 194.4" fill="none" stroke="#b2b2b2" stroke-miterlimit="10" stroke-width=".5"/>
    <line x1="117.6" y1="115.2" x2="112.8" y2="115.2" fill="none" stroke="#b2b2b2" stroke-miterlimit="10" stroke-width=".5"/>
    <line x1="103.2" y1="115.2" x2="98.4" y2="115.2" fill="none" stroke="#b2b2b2" stroke-miterlimit="10" stroke-width=".5"/>
    <line x1="88.8" y1="115.2" x2="84" y2="115.2" fill="none" stroke="#b2b2b2" stroke-miterlimit="10" stroke-width=".5"/>
    <line x1="74.4" y1="115.2" x2="69.6" y2="115.2" fill="none" stroke="#b2b2b2" stroke-miterlimit="10" stroke-width=".5"/>
    <line x1="60" y1="115.2" x2="55.2" y2="115.2" fill="none" stroke="#b2b2b2" stroke-miterlimit="10" stroke-width=".5"/>
    <line x1="45.6" y1="115.2" x2="40.8" y2="115.2" fill="none" stroke="#b2b2b2" stroke-miterlimit="10" stroke-width=".5"/>
    <line x1="31.2" y1="115.2" x2="26.4" y2="115.2" fill="none" stroke="#b2b2b2" stroke-miterlimit="10" stroke-width=".5"/>
    <line x1="31.2" y1="163.2" x2="12" y2="163.2" fill="none" stroke="#b2b2b2" stroke-miterlimit="10" stroke-width=".5"/>
    <line x1="60" y1="163.2" x2="40.8" y2="163.2" fill="none" stroke="#b2b2b2" stroke-miterlimit="10" stroke-width=".5"/>
    <line x1="88.8" y1="163.2" x2="69.6" y2="163.2" fill="none" stroke="#b2b2b2" stroke-miterlimit="10" stroke-width=".5"/>
    <line x1="117.6" y1="163.2" x2="98.4" y2="163.2" fill="none" stroke="#b2b2b2" stroke-miterlimit="10" stroke-width=".5"/>
    <line x1="103.2" y1="151.2" x2="84" y2="151.2" fill="none" stroke="#b2b2b2" stroke-miterlimit="10" stroke-width=".5"/>
    <line x1="132" y1="151.2" x2="112.8" y2="151.2" fill="none" stroke="#b2b2b2" stroke-miterlimit="10" stroke-width=".5"/>
    <line x1="132" y1="163.2" x2="127.2" y2="163.2" fill="none" stroke="#b2b2b2" stroke-miterlimit="10" stroke-width=".5"/>
    <line x1="132" y1="175.2" x2="127.2" y2="175.2" fill="none" stroke="#b2b2b2" stroke-miterlimit="10" stroke-width=".5"/>
    <line x1="74.4" y1="151.2" x2="55.2" y2="151.2" fill="none" stroke="#b2b2b2" stroke-miterlimit="10" stroke-width=".5"/>
    <line x1="45.6" y1="151.2" x2="26.4" y2="151.2" fill="none" stroke="#b2b2b2" stroke-miterlimit="10" stroke-width=".5"/>
    <line x1="12" y1="175.2" x2="16.8" y2="175.2" fill="none" stroke="#b2b2b2" stroke-miterlimit="10" stroke-width=".5"/>
    <line x1="26.4" y1="175.2" x2="31.2" y2="175.2" fill="none" stroke="#b2b2b2" stroke-miterlimit="10" stroke-width=".5"/>
    <line x1="40.8" y1="175.2" x2="45.6" y2="175.2" fill="none" stroke="#b2b2b2" stroke-miterlimit="10" stroke-width=".5"/>
    <line x1="55.2" y1="175.2" x2="60" y2="175.2" fill="none" stroke="#b2b2b2" stroke-miterlimit="10" stroke-width=".5"/>
    <line x1="69.6" y1="175.2" x2="74.4" y2="175.2" fill="none" stroke="#b2b2b2" stroke-miterlimit="10" stroke-width=".5"/>
    <line x1="84" y1="175.2" x2="88.8" y2="175.2" fill="none" stroke="#b2b2b2" stroke-miterlimit="10" stroke-width=".5"/>
    <line x1="98.4" y1="175.2" x2="103.2" y2="175.2" fill="none" stroke="#b2b2b2" stroke-miterlimit="10" stroke-width=".5"/>
    <line x1="112.8" y1="175.2" x2="117.6" y2="175.2" fill="none" stroke="#b2b2b2" stroke-miterlimit="10" stroke-width=".5"/>
    <line x1="21.6" y1="230.4" x2="21.6" y2="259.2" fill="none" stroke="#b2b2b2" stroke-miterlimit="10" stroke-width=".5"/>
  </g>
  <g id="Text">
    <g>
      <rect x="7.29" y="194.4" width="28.8" height="9.6" fill="none"/>
      <path d="M12.07,201.65v-4.9h2.97v.63h-2.28v1.54h1.99v.63h-1.99v2.1h-.69Z" fill="#231f20"/>
      <path d="M15.72,201.65v-4.9h.69v4.9h-.69Z" fill="#231f20"/>
      <path d="M17.48,201.65v-4.9h.69v4.27h2.28v.63h-2.96Z" fill="#231f20"/>
      <path d="M21.41,201.65v-4.27h-1.53v-.63h3.76v.63h-1.53v4.27h-.69Z" fill="#231f20"/>
      <path d="M24.17,201.65v-4.9h2.95v.63h-2.26v1.46h2.04v.62h-2.04v1.57h2.28v.63h-2.96Z" fill="#231f20"/>
      <path d="M28.13,201.65v-4.9h1.65c.33,0,.61.06.86.19.25.13.45.31.59.53.14.23.21.49.21.79,0,.32-.09.6-.27.85-.18.24-.42.42-.71.53l1.18,2.01h-.78l-1.09-1.88h-.96v1.88h-.69ZM28.82,199.14h1.03c.17,0,.32-.04.45-.12.13-.08.24-.18.32-.32.08-.13.12-.28.12-.45,0-.26-.09-.47-.27-.64-.18-.16-.42-.24-.71-.24h-.95v1.76Z" fill="#231f20"/>
    </g>
    <g>
      <rect x="14.4" y="16.8" width="57.6" height="12" fill="none"/>
      <path d="M17.98,26.06c-.65,0-1.22-.14-1.72-.42s-.89-.66-1.17-1.15c-.28-.49-.42-1.05-.42-1.68s.14-1.2.42-1.69c.28-.49.67-.87,1.17-1.15s1.06-.42,1.71-.42,1.21.14,1.71.42.88.66,1.17,1.15c.28.49.42,1.05.42,1.69s-.14,1.19-.42,1.68c-.28.49-.66.87-1.16,1.15s-1.06.42-1.7.42ZM17.98,24.73c.35,0,.67-.08.94-.24.27-.16.48-.39.63-.68.15-.29.22-.62.22-.99s-.08-.71-.23-1-.37-.52-.64-.68-.58-.25-.94-.25-.67.08-.94.25c-.27.17-.48.39-.64.68-.16.29-.23.62-.23.99s.08.71.23,1c.16.29.37.52.65.68.28.16.59.24.95.24Z" fill="#231f20"/>
      <path d="M23.62,25.95l-2.47-6.3h1.56l1.69,4.56,1.67-4.56h1.57l-2.46,6.3h-1.57Z" fill="#231f20"/>
      <path d="M28.09,25.95v-6.3h4.1v1.33h-2.66v1.15h2.22v1.29h-2.22v1.2h2.7v1.33h-4.15Z" fill="#231f20"/>
      <path d="M33.15,25.95v-6.3h2.47c.46,0,.86.09,1.21.27.35.18.63.42.83.74.2.32.3.68.3,1.08s-.11.78-.32,1.1-.5.57-.85.73l1.42,2.38h-1.66l-1.21-2.12h-.77v2.12h-1.45ZM34.6,22.5h.98c.17,0,.32-.03.45-.1s.24-.16.31-.27.11-.25.11-.39c0-.22-.08-.41-.25-.55-.17-.14-.38-.22-.65-.22h-.95v1.53Z" fill="#231f20"/>
      <path d="M40.03,25.95v-4.97h-1.84v-1.33h5.11v1.33h-1.84v4.97h-1.44Z" fill="#231f20"/>
      <path d="M46.8,26.06c-.65,0-1.22-.14-1.72-.42s-.89-.66-1.17-1.15c-.28-.49-.42-1.05-.42-1.68s.14-1.2.42-1.69c.28-.49.67-.87,1.17-1.15s1.06-.42,1.71-.42,1.21.14,1.71.42.88.66,1.17,1.15c.28.49.42,1.05.42,1.69s-.14,1.19-.42,1.68c-.28.49-.66.87-1.16,1.15s-1.06.42-1.7.42ZM46.8,24.73c.35,0,.67-.08.94-.24.27-.16.48-.39.63-.68.15-.29.22-.62.22-.99s-.08-.71-.23-1-.37-.52-.64-.68-.58-.25-.94-.25-.67.08-.94.25c-.27.17-.48.39-.64.68-.16.29-.23.62-.23.99s.08.71.23,1c.16.29.37.52.65.68.28.16.59.24.95.24Z" fill="#231f20"/>
      <path d="M50.73,25.95v-6.3h1.52l2.76,3.84v-3.84h1.45v6.3h-1.45l-2.84-3.95v3.95h-1.45Z" fill="#231f20"/>
      <path d="M57.46,25.95v-6.3h4.1v1.33h-2.66v1.15h2.22v1.29h-2.22v1.2h2.7v1.33h-4.15Z" fill="#231f20"/>
    </g>
    <g>
      <rect x="110.4" y="309.6" width="24" height="9.6" fill="none"/>
      <path d="M118.03,316.93c-.48,0-.9-.11-1.27-.32-.37-.21-.66-.51-.86-.9-.21-.38-.31-.82-.31-1.31s.1-.94.31-1.32c.21-.38.49-.68.86-.9.36-.22.78-.33,1.26-.33s.9.11,1.26.33c.36.22.65.52.85.9.21.38.31.82.31,1.31s-.1.93-.31,1.32-.49.68-.85.9c-.36.21-.78.32-1.25.32ZM118.03,316.3c.33,0,.62-.08.88-.25s.46-.39.6-.67c.14-.29.22-.61.22-.99s-.07-.7-.22-.98c-.15-.29-.35-.51-.61-.68-.26-.16-.56-.24-.89-.24s-.63.08-.9.24c-.26.16-.47.39-.61.68-.15.29-.22.62-.22.98s.07.7.22.99c.15.28.36.51.62.67s.57.25.91.25Z" fill="#fff"/>
      <path d="M123.19,316.96c-.38,0-.71-.08-1-.24-.29-.16-.51-.38-.67-.66-.16-.28-.24-.61-.24-.98v-3.14h.69v3.14c0,.24.05.46.16.64s.25.33.43.43c.18.1.4.15.64.15s.46-.05.64-.15c.19-.1.33-.25.43-.43s.15-.4.15-.64v-3.14h.69v3.14c0,.37-.08.69-.24.98s-.39.5-.68.66-.63.24-1.02.24Z" fill="#fff"/>
      <path d="M127.21,316.85v-4.27h-1.53v-.63h3.76v.63h-1.53v4.27h-.69Z" fill="#fff"/>
    </g>
    <g>
      <rect x="7.2" y="309.6" width="28.8" height="9.6" fill="none"/>
      <path d="M13.21,316.85l-2.01-4.9h.73l1.65,4.1,1.66-4.1h.73l-2.01,4.9h-.76Z" fill="#231f20"/>
      <path d="M15.45,317.44l1.93-5.82h.67l-1.92,5.82h-.68Z" fill="#231f20"/>
      <path d="M20.72,316.93c-.48,0-.9-.11-1.27-.32-.37-.21-.66-.51-.86-.9-.21-.38-.31-.82-.31-1.31s.1-.94.31-1.32c.21-.38.49-.68.86-.9.36-.22.78-.33,1.26-.33s.9.11,1.26.33c.36.22.65.52.85.9.21.38.31.82.31,1.31s-.1.93-.31,1.32-.49.68-.85.9c-.36.21-.78.32-1.25.32ZM20.73,316.3c.33,0,.62-.08.88-.25s.46-.39.6-.67c.14-.29.22-.61.22-.99s-.07-.7-.22-.98c-.15-.29-.35-.51-.61-.68-.26-.16-.56-.24-.89-.24s-.63.08-.9.24c-.26.16-.47.39-.61.68-.15.29-.22.62-.22.98s.07.7.22.99c.15.28.36.51.62.67s.57.25.91.25Z" fill="#231f20"/>
      <path d="M25.96,316.93c-.47,0-.88-.11-1.25-.33-.36-.22-.65-.52-.85-.9-.21-.38-.31-.82-.31-1.31s.1-.93.31-1.31c.21-.38.49-.68.85-.9.36-.22.77-.33,1.24-.33.3,0,.59.06.87.17.27.11.52.26.74.46s.38.42.5.67l-.62.28c-.09-.19-.21-.36-.36-.5-.15-.14-.33-.25-.52-.33-.19-.08-.4-.12-.61-.12-.33,0-.62.08-.88.24-.26.16-.46.39-.6.67-.14.28-.22.61-.22.99s.07.71.22.99c.15.29.35.51.61.68.26.16.55.24.89.24.21,0,.42-.04.61-.13.19-.09.36-.21.51-.36.15-.15.27-.33.37-.52l.62.27c-.12.27-.28.5-.5.71-.21.21-.46.37-.74.48-.28.11-.57.17-.88.17Z" fill="#231f20"/>
      <path d="M29.75,316.85v-4.27h-1.53v-.63h3.76v.63h-1.53v4.27h-.69Z" fill="#231f20"/>
    </g>
    <g>
      <rect x="7.2" y="261.6" width="28.8" height="9.6" fill="none"/>
      <path d="M14.35,268.85v-4.9h2.97v.63h-2.28v1.54h1.99v.63h-1.99v2.1h-.69Z" fill="#231f20"/>
      <path d="M17.47,268.85v-4.9h1.65c.33,0,.61.06.86.19.25.13.45.31.59.53.14.23.21.49.21.79,0,.32-.09.6-.27.85-.18.24-.42.42-.71.53l1.18,2.01h-.78l-1.09-1.88h-.96v1.88h-.69ZM18.16,266.34h1.03c.17,0,.32-.04.45-.12.13-.08.24-.18.32-.32.08-.13.12-.28.12-.45,0-.26-.09-.47-.27-.64-.18-.16-.42-.24-.71-.24h-.95v1.76Z" fill="#231f20"/>
      <path d="M21.19,268.85v-4.9h2.95v.63h-2.26v1.46h2.04v.62h-2.04v1.57h2.28v.63h-2.96Z" fill="#231f20"/>
      <path d="M28.71,269.13l-.59-.6c-.19.13-.4.23-.63.3-.23.07-.48.11-.74.11-.48,0-.9-.11-1.27-.32-.37-.21-.66-.51-.86-.9-.21-.38-.31-.82-.31-1.32,0-.37.06-.71.18-1.02.12-.31.29-.58.5-.8.21-.23.47-.4.77-.53.3-.12.62-.19.98-.19.48,0,.9.11,1.27.33.36.22.65.52.85.9.21.38.31.82.31,1.31,0,.34-.05.66-.15.95-.1.29-.24.55-.42.76l.57.57-.44.44ZM26.75,268.3c.17,0,.32-.02.47-.07.14-.05.28-.12.41-.2l-.68-.69.45-.43.7.71c.12-.16.21-.35.27-.55.06-.2.09-.43.09-.67,0-.37-.07-.7-.22-.99-.15-.29-.35-.51-.61-.67-.26-.16-.56-.24-.9-.24s-.63.08-.89.24c-.26.16-.47.39-.61.67-.15.28-.22.61-.22.99s.07.7.22.99c.15.28.36.51.62.67s.56.25.9.25Z" fill="#231f20"/>
    </g>
    <g>
      <rect x="28.8" y="160.8" width="14.4" height="4.8" fill="none"/>
      <path d="M35.99,165.01c-.18,0-.34-.03-.49-.08-.15-.05-.27-.13-.37-.22-.1-.09-.18-.19-.23-.3l.43-.2s.07.1.12.16c.05.06.12.11.2.15.08.04.19.06.31.06.21,0,.38-.06.5-.18s.19-.27.19-.46c0-.14-.04-.25-.11-.35s-.18-.17-.32-.22c-.14-.05-.31-.08-.52-.08h-.12v-.42h.12c.27,0,.49-.05.64-.14.15-.09.23-.22.23-.39,0-.1-.03-.18-.08-.26s-.12-.14-.21-.19c-.09-.05-.2-.07-.33-.07-.08,0-.16.01-.23.04-.08.03-.14.06-.21.11-.06.05-.12.11-.17.19l-.41-.18c.06-.12.14-.23.24-.32s.22-.15.36-.2.28-.07.43-.07c.21,0,.4.04.56.12.16.08.29.19.39.33.1.14.14.3.14.48s-.05.33-.15.46c-.1.13-.24.23-.41.31.2.09.36.21.47.36.11.15.17.33.17.54s-.05.39-.16.54c-.1.16-.25.27-.42.36-.17.08-.37.12-.58.12Z" fill="#231f20"/>
    </g>
    <g>
      <rect x="57.6" y="160.8" width="14.4" height="4.8" fill="none"/>
      <path d="M64.81,165.01c-.15,0-.3-.02-.45-.07-.15-.04-.29-.11-.42-.21-.13-.09-.23-.21-.31-.35l.42-.19c.11.13.22.23.35.29.13.06.26.09.39.09.22,0,.39-.06.53-.2.13-.13.2-.3.2-.52s-.07-.38-.2-.51c-.13-.13-.3-.2-.51-.2-.12,0-.24.03-.34.08-.11.05-.2.12-.25.19l-.45-.1.18-1.87h1.9v.45h-1.47l-.1,1.04c.09-.05.2-.1.31-.13.11-.03.23-.05.35-.05.21,0,.4.05.56.14.16.09.29.22.39.39.09.17.14.35.14.57,0,.23-.05.43-.16.6-.1.17-.25.31-.42.41-.18.1-.39.15-.62.15Z" fill="#231f20"/>
    </g>
    <g>
      <rect x="86.4" y="160.8" width="14.4" height="4.8" fill="none"/>
      <path d="M92.67,164.95l1.59-3.05h-1.82v-.45h2.36v.39l-1.59,3.11h-.54Z" fill="#231f20"/>
    </g>
    <g>
      <rect x="115.2" y="160.8" width="14.4" height="4.8" fill="none"/>
      <path d="M122.33,161.39c.24,0,.45.04.61.13.16.09.29.21.39.37.1.16.17.33.21.54.04.2.06.42.06.65,0,.29-.03.55-.09.79-.06.24-.15.44-.27.61-.12.17-.26.3-.43.39-.17.09-.37.14-.59.14-.18,0-.35-.03-.52-.08-.17-.05-.33-.13-.46-.23l.26-.36c.1.07.22.13.34.17s.24.06.35.06c.32,0,.56-.13.73-.41.17-.27.25-.68.22-1.24l.11.08c-.08.2-.21.35-.38.47-.17.12-.38.18-.61.18-.22,0-.42-.05-.59-.15-.17-.1-.31-.24-.41-.41-.1-.17-.15-.37-.15-.59s.05-.42.15-.59c.1-.17.24-.3.42-.4s.39-.14.63-.14ZM122.33,161.82c-.14,0-.26.03-.37.09s-.19.14-.25.25-.09.23-.09.37.03.26.09.37.15.19.25.25c.11.06.23.09.37.09s.26-.03.37-.09c.11-.06.19-.15.25-.25s.09-.23.09-.37-.03-.26-.09-.37-.15-.19-.25-.25-.23-.09-.37-.09Z" fill="#231f20"/>
    </g>
    <g>
      <rect x="14.4" y="172.8" width="14.4" height="4.8" fill="none"/>
      <path d="M20.47,176.95v-.39c0-.1.02-.21.07-.32.05-.11.12-.22.21-.33.09-.11.2-.21.33-.31l.68-.5c.08-.06.15-.12.22-.2.07-.08.12-.15.16-.23.04-.08.06-.16.06-.24,0-.11-.03-.2-.08-.29-.05-.09-.13-.16-.22-.21s-.21-.08-.35-.08c-.13,0-.24.02-.33.07-.09.05-.17.11-.24.19-.06.08-.11.17-.14.25l-.5-.09c.04-.15.11-.3.21-.43.11-.13.24-.24.41-.32.17-.08.36-.12.57-.12.24,0,.45.04.62.13.17.09.31.21.41.37.1.16.14.33.14.53s-.05.37-.16.54c-.11.16-.26.32-.45.48l-.62.47c-.12.09-.22.19-.29.29-.07.1-.12.21-.13.32h1.71v.44h-2.26Z" fill="#231f20"/>
    </g>
    <g>
      <rect x="28.8" y="172.8" width="14.4" height="4.8" fill="none"/>
      <path d="M35.99,177.01c-.18,0-.34-.03-.49-.08-.15-.05-.27-.13-.37-.22-.1-.09-.18-.19-.23-.3l.43-.2s.07.1.12.16c.05.06.12.11.2.15.08.04.19.06.31.06.21,0,.38-.06.5-.18s.19-.27.19-.46c0-.14-.04-.25-.11-.35s-.18-.17-.32-.22c-.14-.05-.31-.08-.52-.08h-.12v-.42h.12c.27,0,.49-.05.64-.14.15-.09.23-.22.23-.39,0-.1-.03-.18-.08-.26s-.12-.14-.21-.19c-.09-.05-.2-.07-.33-.07-.08,0-.16.01-.23.04-.08.03-.14.06-.21.11-.06.05-.12.11-.17.19l-.41-.18c.06-.12.14-.23.24-.32s.22-.15.36-.2.28-.07.43-.07c.21,0,.4.04.56.12.16.08.29.19.39.33.1.14.14.3.14.48s-.05.33-.15.46c-.1.13-.24.23-.41.31.2.09.36.21.47.36.11.15.17.33.17.54s-.05.39-.16.54c-.1.16-.25.27-.42.36-.17.08-.37.12-.58.12Z" fill="#231f20"/>
    </g>
    <g>
      <rect x="43.2" y="172.8" width="14.4" height="4.8" fill="none"/>
      <path d="M50.65,176.95v-.8h-1.61v-.39l1.58-2.31h.51v2.26h.68v.44h-.68v.8h-.48ZM49.58,175.71h1.07v-1.58l-1.07,1.58Z" fill="#231f20"/>
    </g>
    <g>
      <rect x="57.6" y="172.8" width="14.4" height="4.8" fill="none"/>
      <path d="M64.81,177.01c-.15,0-.3-.02-.45-.07-.15-.04-.29-.11-.42-.21-.13-.09-.23-.21-.31-.35l.42-.19c.11.13.22.23.35.29.13.06.26.09.39.09.22,0,.39-.06.53-.2.13-.13.2-.3.2-.52s-.07-.38-.2-.51c-.13-.13-.3-.2-.51-.2-.12,0-.24.03-.34.08-.11.05-.2.12-.25.19l-.45-.1.18-1.87h1.9v.45h-1.47l-.1,1.04c.09-.05.2-.1.31-.13.11-.03.23-.05.35-.05.21,0,.4.05.56.14.16.09.29.22.39.39.09.17.14.35.14.57,0,.23-.05.43-.16.6-.1.17-.25.31-.42.41-.18.1-.39.15-.62.15Z" fill="#231f20"/>
    </g>
    <g>
      <rect x="72" y="172.8" width="14.4" height="4.8" fill="none"/>
      <path d="M79.27,177.01c-.24,0-.44-.04-.61-.13s-.29-.21-.39-.37c-.1-.16-.17-.33-.21-.54-.04-.2-.07-.42-.07-.65,0-.29.03-.55.09-.79.06-.24.15-.44.27-.61.12-.17.26-.3.43-.39.17-.09.37-.14.58-.14.18,0,.35.03.53.08.17.05.33.13.46.23l-.27.36c-.11-.07-.22-.13-.34-.17s-.24-.06-.34-.06c-.32,0-.56.13-.73.4-.17.27-.25.68-.23,1.24l-.1-.08c.08-.2.21-.35.38-.47.17-.12.37-.18.61-.18s.43.05.6.15c.17.1.31.24.41.41s.15.37.15.59-.05.41-.15.58-.24.3-.42.4-.39.14-.63.14ZM79.27,176.58c.14,0,.26-.03.37-.09.11-.06.19-.14.25-.25.06-.11.09-.23.09-.37s-.03-.26-.09-.37-.15-.19-.25-.25c-.11-.06-.23-.09-.37-.09s-.26.03-.37.09c-.11.06-.19.14-.25.25s-.09.23-.09.37.03.26.09.37c.06.11.15.19.25.25s.23.09.37.09Z" fill="#231f20"/>
    </g>
    <g>
      <rect x="86.4" y="172.8" width="14.4" height="4.8" fill="none"/>
      <path d="M92.67,176.95l1.59-3.05h-1.82v-.45h2.36v.39l-1.59,3.11h-.54Z" fill="#231f20"/>
    </g>
    <g>
      <rect x="100.8" y="172.8" width="14.4" height="4.8" fill="none"/>
      <path d="M107.99,177.01c-.26,0-.49-.04-.67-.12-.19-.08-.34-.2-.44-.34-.1-.15-.16-.31-.16-.51,0-.21.06-.39.17-.55.11-.16.27-.28.46-.36-.16-.08-.28-.18-.37-.32-.09-.14-.13-.29-.13-.47,0-.19.05-.35.14-.5.09-.14.23-.25.4-.33.17-.08.38-.12.61-.12s.44.04.61.12c.17.08.31.19.4.33.09.14.14.31.14.5,0,.18-.04.33-.13.47-.09.14-.21.24-.37.32.2.08.35.2.46.36.11.16.17.34.17.55,0,.19-.05.36-.16.51-.1.14-.25.26-.44.34s-.42.12-.68.12ZM107.99,176.58c.23,0,.42-.06.56-.17.14-.11.22-.26.22-.43s-.07-.33-.22-.45c-.15-.11-.33-.17-.56-.17-.15,0-.28.03-.4.08-.12.05-.21.12-.27.22-.07.09-.1.2-.1.32,0,.12.03.22.1.31.07.09.16.16.27.21.12.05.25.08.4.08ZM107.99,174.94c.2,0,.36-.05.48-.15.12-.1.19-.23.19-.39,0-.17-.06-.31-.19-.42s-.29-.16-.48-.16-.35.05-.48.16c-.12.11-.18.25-.18.42,0,.16.06.29.18.39.12.1.28.15.48.15Z" fill="#231f20"/>
    </g>
    <g>
      <rect x="115.2" y="172.8" width="14.4" height="4.8" fill="none"/>
      <path d="M122.33,173.39c.24,0,.45.04.61.13.16.09.29.21.39.37.1.16.17.33.21.54.04.2.06.42.06.65,0,.29-.03.55-.09.79-.06.24-.15.44-.27.61-.12.17-.26.3-.43.39-.17.09-.37.14-.59.14-.18,0-.35-.03-.52-.08-.17-.05-.33-.13-.46-.23l.26-.36c.1.07.22.13.34.17s.24.06.35.06c.32,0,.56-.13.73-.41.17-.27.25-.68.22-1.24l.11.08c-.08.2-.21.35-.38.47-.17.12-.38.18-.61.18-.22,0-.42-.05-.59-.15-.17-.1-.31-.24-.41-.41-.1-.17-.15-.37-.15-.59s.05-.42.15-.59c.1-.17.24-.3.42-.4s.39-.14.63-.14ZM122.33,173.82c-.14,0-.26.03-.37.09s-.19.14-.25.25-.09.23-.09.37.03.26.09.37.15.19.25.25c.11.06.23.09.37.09s.26-.03.37-.09c.11-.06.19-.15.25-.25s.09-.23.09-.37-.03-.26-.09-.37-.15-.19-.25-.25-.23-.09-.37-.09Z" fill="#231f20"/>
    </g>
    <g>
      <rect x="14.4" y="148.8" width="14.4" height="4.8" fill="none"/>
      <path d="M20.47,152.95v-.39c0-.1.02-.21.07-.32.05-.11.12-.22.21-.33.09-.11.2-.21.33-.31l.68-.5c.08-.06.15-.12.22-.2.07-.08.12-.15.16-.23.04-.08.06-.16.06-.24,0-.11-.03-.2-.08-.29-.05-.09-.13-.16-.22-.21s-.21-.08-.35-.08c-.13,0-.24.02-.33.07-.09.05-.17.11-.24.19-.06.08-.11.17-.14.25l-.5-.09c.04-.15.11-.3.21-.43.11-.13.24-.24.41-.32.17-.08.36-.12.57-.12.24,0,.45.04.62.13.17.09.31.21.41.37.1.16.14.33.14.53s-.05.37-.16.54c-.11.16-.26.32-.45.48l-.62.47c-.12.09-.22.19-.29.29-.07.1-.12.21-.13.32h1.71v.44h-2.26Z" fill="#231f20"/>
    </g>
    <g>
      <rect x="43.2" y="148.8" width="14.4" height="4.8" fill="none"/>
      <path d="M50.65,152.95v-.8h-1.61v-.39l1.58-2.31h.51v2.26h.68v.44h-.68v.8h-.48ZM49.58,151.71h1.07v-1.58l-1.07,1.58Z" fill="#231f20"/>
    </g>
    <g>
      <rect x="72" y="148.8" width="14.4" height="4.8" fill="none"/>
      <path d="M79.27,153.01c-.24,0-.44-.04-.61-.13s-.29-.21-.39-.37c-.1-.16-.17-.33-.21-.54-.04-.2-.07-.42-.07-.65,0-.29.03-.55.09-.79.06-.24.15-.44.27-.61.12-.17.26-.3.43-.39.17-.09.37-.14.58-.14.18,0,.35.03.53.08.17.05.33.13.46.23l-.27.36c-.11-.07-.22-.13-.34-.17s-.24-.06-.34-.06c-.32,0-.56.13-.73.4-.17.27-.25.68-.23,1.24l-.1-.08c.08-.2.21-.35.38-.47.17-.12.37-.18.61-.18s.43.05.6.15c.17.1.31.24.41.41s.15.37.15.59-.05.41-.15.58-.24.3-.42.4-.39.14-.63.14ZM79.27,152.58c.14,0,.26-.03.37-.09.11-.06.19-.14.25-.25.06-.11.09-.23.09-.37s-.03-.26-.09-.37-.15-.19-.25-.25c-.11-.06-.23-.09-.37-.09s-.26.03-.37.09c-.11.06-.19.14-.25.25s-.09.23-.09.37.03.26.09.37c.06.11.15.19.25.25s.23.09.37.09Z" fill="#231f20"/>
    </g>
    <g>
      <rect x="100.8" y="148.8" width="14.4" height="4.8" fill="none"/>
      <path d="M107.99,153.01c-.26,0-.49-.04-.67-.12-.19-.08-.34-.2-.44-.34-.1-.15-.16-.31-.16-.51,0-.21.06-.39.17-.55.11-.16.27-.28.46-.36-.16-.08-.28-.18-.37-.32-.09-.14-.13-.29-.13-.47,0-.19.05-.35.14-.5.09-.14.23-.25.4-.33.17-.08.38-.12.61-.12s.44.04.61.12c.17.08.31.19.4.33.09.14.14.31.14.5,0,.18-.04.33-.13.47-.09.14-.21.24-.37.32.2.08.35.2.46.36.11.16.17.34.17.55,0,.19-.05.36-.16.51-.1.14-.25.26-.44.34s-.42.12-.68.12ZM107.99,152.58c.23,0,.42-.06.56-.17.14-.11.22-.26.22-.43s-.07-.33-.22-.45c-.15-.11-.33-.17-.56-.17-.15,0-.28.03-.4.08-.12.05-.21.12-.27.22-.07.09-.1.2-.1.32,0,.12.03.22.1.31.07.09.16.16.27.21.12.05.25.08.4.08ZM107.99,150.94c.2,0,.36-.05.48-.15.12-.1.19-.23.19-.39,0-.17-.06-.31-.19-.42s-.29-.16-.48-.16-.35.05-.48.16c-.12.11-.18.25-.18.42,0,.16.06.29.18.39.12.1.28.15.48.15Z" fill="#231f20"/>
    </g>
    <g>
      <rect x="45.6" y="225.6" width="16.8" height="4.8" fill="none"/>
      <path d="M52.45,230.1l1.71-4.2h.53l1.71,4.2h-.53l-.49-1.19h-1.9l-.49,1.19h-.54ZM53.65,228.45h1.55l-.77-1.91-.77,1.91Z" fill="#231f20"/>
      <path d="M56.87,230.1v-4.2h.51v3.74h1.98v.46h-2.49Z" fill="#231f20"/>
      <path d="M59.84,230.1v-4.2h.51v3.74h1.98v.46h-2.49Z" fill="#231f20"/>
    </g>
    <g>
      <rect x="45.6" y="216" width="16.8" height="4.8" fill="none"/>
      <path d="M52.13,220.57c-.4,0-.76-.09-1.07-.28-.31-.18-.56-.44-.73-.77s-.26-.7-.26-1.13.09-.81.26-1.13c.17-.33.42-.58.72-.76.31-.18.66-.28,1.07-.28s.76.09,1.07.28c.31.19.55.44.72.77.17.33.26.7.26,1.12s-.09.8-.26,1.13-.41.58-.72.77c-.31.18-.66.28-1.06.28ZM52.13,220.11c.3,0,.56-.07.79-.22.23-.15.41-.35.54-.6s.2-.55.2-.89-.07-.63-.2-.89c-.13-.26-.31-.46-.55-.61-.23-.15-.5-.22-.8-.22s-.57.07-.8.22c-.23.15-.41.35-.55.61-.13.26-.2.55-.2.89s.07.63.2.89c.13.26.32.46.55.6.24.15.51.22.81.22Z" fill="#231f20"/>
      <path d="M54.85,220.5v-4.2h1.28c.4,0,.75.09,1.05.27.3.18.54.42.71.74.17.32.26.68.26,1.09s-.09.77-.26,1.09c-.17.32-.41.56-.71.74-.3.18-.65.27-1.05.27h-1.28ZM55.36,220.03h.77c.21,0,.41-.04.59-.12s.34-.2.48-.35c.14-.15.25-.33.32-.52.08-.2.12-.41.12-.63s-.04-.44-.12-.63c-.08-.2-.19-.37-.32-.52-.14-.15-.3-.27-.48-.35s-.38-.12-.59-.12h-.77v3.26Z" fill="#231f20"/>
      <path d="M58.83,220.5v-4.2h1.28c.4,0,.75.09,1.05.27.3.18.54.42.71.74.17.32.26.68.26,1.09s-.09.77-.26,1.09c-.17.32-.41.56-.71.74-.3.18-.65.27-1.05.27h-1.28ZM59.34,220.03h.77c.21,0,.41-.04.59-.12s.34-.2.48-.35c.14-.15.25-.33.32-.52.08-.2.12-.41.12-.63s-.04-.44-.12-.63c-.08-.2-.19-.37-.32-.52-.14-.15-.3-.27-.48-.35s-.38-.12-.59-.12h-.77v3.26Z" fill="#231f20"/>
    </g>
    <g>
      <rect x="45.6" y="206.4" width="16.8" height="4.8" fill="none"/>
      <path d="M47.5,210.9v-4.2h2.48v.46h-1.97v1.36h1.8v.46h-1.8v1.46h1.99v.46h-2.5Z" fill="#231f20"/>
      <path d="M52.14,210.9l-1.74-4.2h.53l1.49,3.62,1.49-3.62h.53l-1.74,4.2h-.56Z" fill="#231f20"/>
      <path d="M54.91,210.9v-4.2h2.48v.46h-1.97v1.36h1.8v.46h-1.8v1.46h1.99v.46h-2.5Z" fill="#231f20"/>
      <path d="M58.31,210.9v-4.2h.52l2.5,3.37v-3.37h.51v4.2h-.51l-2.51-3.39v3.39h-.51Z" fill="#231f20"/>
    </g>
    <g>
      <rect x="108.09" y="194.4" width="28.8" height="9.6" fill="none"/>
      <path d="M113.67,201.65v-4.9h.73l1.62,2.4,1.62-2.4h.73v4.9h-.69v-3.79l-1.67,2.46-1.66-2.45v3.79h-.69Z" fill="#231f20"/>
      <path d="M118.87,201.65l1.97-4.9h.74l1.97,4.9h-.74l-.52-1.31h-2.16l-.53,1.31h-.73ZM120.37,199.72h1.69l-.84-2.11-.85,2.11Z" fill="#231f20"/>
      <path d="M125.65,201.73c-.26,0-.5-.03-.71-.09-.21-.06-.4-.14-.55-.25-.16-.1-.29-.22-.39-.35-.1-.13-.17-.27-.22-.41l.67-.22c.07.19.2.36.4.5.2.14.44.21.72.22.34,0,.62-.07.82-.21s.3-.32.3-.55c0-.21-.09-.38-.26-.51-.17-.13-.4-.23-.69-.3l-.57-.15c-.22-.06-.43-.15-.61-.26s-.33-.25-.44-.43c-.11-.17-.16-.38-.16-.62,0-.45.15-.8.44-1.05.29-.25.71-.38,1.26-.38.32,0,.59.05.83.15.23.1.43.23.58.4.15.16.26.34.33.54l-.67.22c-.08-.21-.21-.38-.41-.51-.19-.13-.43-.19-.71-.19s-.53.07-.7.21c-.17.14-.26.33-.26.57,0,.21.07.36.2.47.13.11.31.19.54.25l.57.14c.46.11.81.3,1.06.56.25.26.38.54.38.85,0,.27-.07.51-.2.72-.13.21-.33.38-.59.5-.26.12-.58.19-.96.19Z" fill="#231f20"/>
      <path d="M128.18,201.65v-4.9h.67v2.17l2.08-2.17h.88l-2.09,2.21,2.18,2.7h-.85l-1.79-2.22-.41.43v1.79h-.67Z" fill="#231f20"/>
    </g>
  </g>
  <g id="Templates">
    <g>
      <line x1="19.9" y1="115.2" x2="23.3" y2="115.2" fill="none" stroke="#f60" stroke-miterlimit="11.34" stroke-width=".43"/>
      <line x1="21.6" y1="113.5" x2="21.6" y2="116.9" fill="none" stroke="#f60" stroke-miterlimit="11.34" stroke-width=".43"/>
      <circle cx="21.6" cy="115.2" r="1.42" fill="none" stroke="#f60" stroke-miterlimit="11.34" stroke-width=".43"/>
    </g>
    <g>
      <line x1="34.3" y1="115.2" x2="37.7" y2="115.2" fill="none" stroke="#f60" stroke-miterlimit="11.34" stroke-width=".43"/>
      <line x1="36" y1="113.5" x2="36" y2="116.9" fill="none" stroke="#f60" stroke-miterlimit="11.34" stroke-width=".43"/>
      <circle cx="36" cy="115.2" r="1.42" fill="none" stroke="#f60" stroke-miterlimit="11.34" stroke-width=".43"/>
    </g>
    <g>
      <line x1="48.7" y1="115.2" x2="52.1" y2="115.2" fill="none" stroke="#f60" stroke-miterlimit="11.34" stroke-width=".43"/>
      <line x1="50.4" y1="113.5" x2="50.4" y2="116.9" fill="none" stroke="#f60" stroke-miterlimit="11.34" stroke-width=".43"/>
      <circle cx="50.4" cy="115.2" r="1.42" fill="none" stroke="#f60" stroke-miterlimit="11.34" stroke-width=".43"/>
    </g>
    <g>
      <line x1="63.1" y1="115.2" x2="66.5" y2="115.2" fill="none" stroke="#f60" stroke-miterlimit="11.34" stroke-width=".43"/>
      <line x1="64.8" y1="113.5" x2="64.8" y2="116.9" fill="none" stroke="#f60" stroke-miterlimit="11.34" stroke-width=".43"/>
      <circle cx="64.8" cy="115.2" r="1.42" fill="none" stroke="#f60" stroke-miterlimit="11.34" stroke-width=".43"/>
    </g>
    <g>
      <line x1="77.5" y1="115.2" x2="80.9" y2="115.2" fill="none" stroke="#f60" stroke-miterlimit="11.34" stroke-width=".43"/>
      <line x1="79.2" y1="113.5" x2="79.2" y2="116.9" fill="none" stroke="#f60" stroke-miterlimit="11.34" stroke-width=".43"/>
      <circle cx="79.2" cy="115.2" r="1.42" fill="none" stroke="#f60" stroke-miterlimit="11.34" stroke-width=".43"/>
    </g>
    <g>
      <line x1="91.9" y1="115.2" x2="95.3" y2="115.2" fill="none" stroke="#f60" stroke-miterlimit="11.34" stroke-width=".43"/>
      <line x1="93.6" y1="113.5" x2="93.6" y2="116.9" fill="none" stroke="#f60" stroke-miterlimit="11.34" stroke-width=".43"/>
      <circle cx="93.6" cy="115.2" r="1.42" fill="none" stroke="#f60" stroke-miterlimit="11.34" stroke-width=".43"/>
    </g>
    <g>
      <line x1="106.3" y1="115.2" x2="109.7" y2="115.2" fill="none" stroke="#f60" stroke-miterlimit="11.34" stroke-width=".43"/>
      <line x1="108" y1="113.5" x2="108" y2="116.9" fill="none" stroke="#f60" stroke-miterlimit="11.34" stroke-width=".43"/>
      <circle cx="108" cy="115.2" r="1.42" fill="none" stroke="#f60" stroke-miterlimit="11.34" stroke-width=".43"/>
    </g>
    <g>
      <line x1="120.7" y1="115.2" x2="124.1" y2="115.2" fill="none" stroke="#f60" stroke-miterlimit="11.34" stroke-width=".43"/>
      <line x1="122.4" y1="113.5" x2="122.4" y2="116.9" fill="none" stroke="#f60" stroke-miterlimit="11.34" stroke-width=".43"/>
      <circle cx="122.4" cy="115.2" r="1.42" fill="none" stroke="#f60" stroke-miterlimit="11.34" stroke-width=".43"/>
    </g>
    <g>
      <line x1="18.77" y1="133.17" x2="24.43" y2="133.17" fill="none" stroke="#0c0" stroke-miterlimit="11.34" stroke-width=".57"/>
      <line x1="21.6" y1="130.34" x2="21.6" y2="136.01" fill="none" stroke="#0c0" stroke-miterlimit="11.34" stroke-width=".57"/>
      <circle cx="21.6" cy="133.17" r="2.27" fill="none" stroke="#0c0" stroke-miterlimit="11.34" stroke-width=".43"/>
    </g>
    <g>
      <line x1="33.17" y1="133.17" x2="38.83" y2="133.17" fill="none" stroke="#0c0" stroke-miterlimit="11.34" stroke-width=".57"/>
      <line x1="36" y1="130.34" x2="36" y2="136.01" fill="none" stroke="#0c0" stroke-miterlimit="11.34" stroke-width=".57"/>
      <circle cx="36" cy="133.17" r="2.27" fill="none" stroke="#0c0" stroke-miterlimit="11.34" stroke-width=".43"/>
    </g>
    <g>
      <line x1="47.57" y1="133.61" x2="53.23" y2="133.61" fill="none" stroke="#0c0" stroke-miterlimit="11.34" stroke-width=".57"/>
      <line x1="50.4" y1="130.77" x2="50.4" y2="136.44" fill="none" stroke="#0c0" stroke-miterlimit="11.34" stroke-width=".57"/>
      <circle cx="50.4" cy="133.61" r="2.27" fill="none" stroke="#0c0" stroke-miterlimit="11.34" stroke-width=".43"/>
    </g>
    <g>
      <line x1="62.22" y1="133.97" x2="67.89" y2="133.97" fill="none" stroke="#0c0" stroke-miterlimit="11.34" stroke-width=".57"/>
      <line x1="65.05" y1="131.13" x2="65.05" y2="136.8" fill="none" stroke="#0c0" stroke-miterlimit="11.34" stroke-width=".57"/>
      <circle cx="65.05" cy="133.97" r="2.27" fill="none" stroke="#0c0" stroke-miterlimit="11.34" stroke-width=".43"/>
    </g>
    <g>
      <line x1="76.37" y1="133.17" x2="82.03" y2="133.17" fill="none" stroke="#0c0" stroke-miterlimit="11.34" stroke-width=".57"/>
      <line x1="79.2" y1="130.34" x2="79.2" y2="136.01" fill="none" stroke="#0c0" stroke-miterlimit="11.34" stroke-width=".57"/>
      <circle cx="79.2" cy="133.17" r="2.27" fill="none" stroke="#0c0" stroke-miterlimit="11.34" stroke-width=".43"/>
    </g>
    <g>
      <line x1="90.77" y1="133.17" x2="96.43" y2="133.17" fill="none" stroke="#0c0" stroke-miterlimit="11.34" stroke-width=".57"/>
      <line x1="93.6" y1="130.34" x2="93.6" y2="136.01" fill="none" stroke="#0c0" stroke-miterlimit="11.34" stroke-width=".57"/>
      <circle cx="93.6" cy="133.17" r="2.27" fill="none" stroke="#0c0" stroke-miterlimit="11.34" stroke-width=".43"/>
    </g>
    <g>
      <line x1="105.17" y1="133.17" x2="110.83" y2="133.17" fill="none" stroke="#0c0" stroke-miterlimit="11.34" stroke-width=".57"/>
      <line x1="108" y1="130.34" x2="108" y2="136.01" fill="none" stroke="#0c0" stroke-miterlimit="11.34" stroke-width=".57"/>
      <circle cx="108" cy="133.17" r="2.27" fill="none" stroke="#0c0" stroke-miterlimit="11.34" stroke-width=".43"/>
    </g>
    <g>
      <line x1="119.57" y1="133.17" x2="125.23" y2="133.17" fill="none" stroke="#0c0" stroke-miterlimit="11.34" stroke-width=".57"/>
      <line x1="122.4" y1="130.34" x2="122.4" y2="136.01" fill="none" stroke="#0c0" stroke-miterlimit="11.34" stroke-width=".57"/>
      <circle cx="122.4" cy="133.17" r="2.27" fill="none" stroke="#0c0" stroke-miterlimit="11.34" stroke-width=".43"/>
    </g>
    <g>
      <line x1="69.25" y1="218.4" x2="74.92" y2="218.4" fill="none" stroke="#0c0" stroke-miterlimit="11.34" stroke-width=".57"/>
      <line x1="72.09" y1="215.57" x2="72.09" y2="221.23" fill="none" stroke="#0c0" stroke-miterlimit="11.34" stroke-width=".57"/>
      <circle cx="72.09" cy="218.4" r="2.27" fill="none" stroke="#0c0" stroke-miterlimit="11.34" stroke-width=".43"/>
    </g>
    <g>
      <line x1="118.23" y1="218.4" x2="126.74" y2="218.4" fill="none" stroke="#06f" stroke-miterlimit="11.34" stroke-width=".57"/>
      <line x1="122.49" y1="214.15" x2="122.49" y2="222.65" fill="none" stroke="#06f" stroke-miterlimit="11.34" stroke-width=".57"/>
      <circle cx="122.49" cy="218.4" r="3.4" fill="none" stroke="#06f" stroke-miterlimit="11.34" stroke-width=".43"/>
    </g>
    <g>
      <line x1="15.93" y1="288" x2="27.27" y2="288" fill="none" stroke="red" stroke-miterlimit="11.34" stroke-width=".57"/>
      <line x1="21.6" y1="282.33" x2="21.6" y2="293.67" fill="none" stroke="red" stroke-miterlimit="11.34" stroke-width=".57"/>
      <circle cx="21.6" cy="288" r="4.25" fill="none" stroke="red" stroke-miterlimit="11.34" stroke-width=".43"/>
    </g>
    <g>
      <line x1="17.35" y1="331.2" x2="25.85" y2="331.2" fill="none" stroke="#06f" stroke-miterlimit="11.34" stroke-width=".57"/>
      <line x1="21.6" y1="326.95" x2="21.6" y2="335.45" fill="none" stroke="#06f" stroke-miterlimit="11.34" stroke-width=".57"/>
      <circle cx="21.6" cy="331.2" r="3.4" fill="none" stroke="#06f" stroke-miterlimit="11.34" stroke-width=".43"/>
    </g>
    <g>
      <line x1="17.35" y1="218.4" x2="25.85" y2="218.4" fill="none" stroke="#06f" stroke-miterlimit="11.34" stroke-width=".57"/>
      <line x1="21.6" y1="214.15" x2="21.6" y2="222.65" fill="none" stroke="#06f" stroke-miterlimit="11.34" stroke-width=".57"/>
      <circle cx="21.6" cy="218.4" r="3.4" fill="none" stroke="#06f" stroke-miterlimit="11.34" stroke-width=".43"/>
    </g>
    <g>
      <line x1="118.15" y1="331.2" x2="126.65" y2="331.2" fill="none" stroke="#06f" stroke-miterlimit="11.34" stroke-width=".57"/>
      <line x1="122.4" y1="326.95" x2="122.4" y2="335.45" fill="none" stroke="#06f" stroke-miterlimit="11.34" stroke-width=".57"/>
      <circle cx="122.4" cy="331.2" r="3.4" fill="none" stroke="#06f" stroke-miterlimit="11.34" stroke-width=".43"/>
    </g>
  </g>
</svg>