<?xml version="1.0" encoding="UTF-8" standalone="no"?>
<svg
   version="1.1"
   viewBox="0 0 191.99999 485.6693"
   id="svg31"
   sodipodi:docname="quadlfo.svg"
   inkscape:version="1.4.2 (ebf0e940, 2025-05-08)"
   width="50.799999mm"
   height="128.5mm"
   xmlns:inkscape="http://www.inkscape.org/namespaces/inkscape"
   xmlns:sodipodi="http://sodipodi.sourceforge.net/DTD/sodipodi-0.dtd"
   xmlns="http://www.w3.org/2000/svg"
   xmlns:svg="http://www.w3.org/2000/svg">
  <sodipodi:namedview
     id="namedview31"
     pagecolor="#ffffff"
     bordercolor="#000000"
     borderopacity="0.25"
     inkscape:showpageshadow="2"
     inkscape:pageopacity="0.0"
     inkscape:pagecheckerboard="0"
     inkscape:deskcolor="#d1d1d1"
     showgrid="true"
     inkscape:zoom="2.5881338"
     inkscape:cx="107.99287"
     inkscape:cy="305.43243"
     inkscape:window-width="1528"
     inkscape:window-height="1044"
     inkscape:window-x="95"
     inkscape:window-y="31"
     inkscape:window-maximized="0"
     inkscape:current-layer="layer1"
     inkscape:document-units="mm"
     showguides="false">
    <inkscape:grid
       id="grid22"
       units="mm"
       originx="0"
       originy="0"
       spacingx="2.4"
       spacingy="1.8897638"
       empcolor="#0099e5"
       empopacity="0.30196078"
       color="#0099e5"
       opacity="0.14902"
       empspacing="5"
       enabled="true"
       visible="true" />
    <sodipodi:guide
       position="48.000002,249.44883"
       orientation="1,0"
       id="guide71"
       inkscape:locked="false" />
    <sodipodi:guide
       position="144.00001,208.9193"
       orientation="1,0"
       id="guide72"
       inkscape:locked="false" />
  </sodipodi:namedview>
  <!-- Generator: Adobe Illustrator 29.7.1, SVG Export Plug-In . SVG Version: 2.1.1 Build 8)  -->
  <defs
     id="defs1">
    <rect
       x="66.46804"
       y="468.81182"
       width="77.531973"
       height="13.077942"
       id="rect92" />
    <inkscape:path-effect
       effect="fillet_chamfer"
       id="path-effect55"
       is_visible="true"
       lpeversion="1"
       nodesatellites_param="F,0,0,1,0,0,0,1 @ F,0,0,1,0,2.4999999,0,1 @ F,0,0,1,0,2.4999999,0,1 @ F,0,0,1,0,2.4999999,0,1 @ F,0,0,1,0,2.4999999,0,1 @ F,0,0,1,0,2.4999999,0,1"
       radius="2.5"
       unit="px"
       method="auto"
       mode="F"
       chamfer_steps="1"
       flexible="false"
       use_knot_distance="true"
       apply_no_radius="true"
       apply_with_radius="true"
       only_selected="false"
       hide_knots="false" />
    <inkscape:path-effect
       effect="fillet_chamfer"
       id="path-effect54"
       is_visible="true"
       lpeversion="1"
       nodesatellites_param="F,0,0,1,0,0,0,1 @ F,0,0,1,0,1.1999999,0,1 @ F,0,0,1,0,1.8810729,0,1 @ F,0,0,1,0,1.1999999,0,1"
       radius="1.2"
       unit="px"
       method="auto"
       mode="F"
       chamfer_steps="1"
       flexible="false"
       use_knot_distance="true"
       apply_no_radius="true"
       apply_with_radius="true"
       only_selected="false"
       hide_knots="false" />
    <inkscape:path-effect
       effect="fillet_chamfer"
       id="path-effect52"
       is_visible="true"
       lpeversion="1"
       nodesatellites_param="F,0,0,1,0,0,0,1 @ F,0,0,1,0,1.1999999,0,1 @ F,0,0,1,0,1.1999999,0,1 @ F,0,0,1,0,1.1999999,0,1 @ F,0,0,1,0,1.1999999,0,1 @ F,0,0,1,0,1.1999999,0,1 | F,0,0,1,0,1.1999999,0,1 @ F,0,0,1,0,1.1999999,0,1 @ F,0,0,1,0,1.1999999,0,1 @ F,0,0,1,0,1.1999999,0,1 @ F,0,0,1,0,1.1999999,0,1 @ F,0,0,1,0,1.1999999,0,1"
       radius="1.2"
       unit="px"
       method="auto"
       mode="F"
       chamfer_steps="1"
       flexible="false"
       use_knot_distance="true"
       apply_no_radius="true"
       apply_with_radius="true"
       only_selected="false"
       hide_knots="false" />
    <inkscape:path-effect
       effect="fillet_chamfer"
       id="path-effect50"
       is_visible="true"
       lpeversion="1"
       nodesatellites_param="F,0,0,1,0,0,0,1 @ F,0,0,1,0,1.1999999,0,1 @ F,0,0,1,0,1.1999999,0,1 @ F,0,0,1,0,1.1999999,0,1 @ F,0,0,1,0,1.1999999,0,1 @ F,0,0,1,0,1.1999999,0,1"
       radius="1.2"
       unit="px"
       method="auto"
       mode="F"
       chamfer_steps="1"
       flexible="false"
       use_knot_distance="true"
       apply_no_radius="true"
       apply_with_radius="true"
       only_selected="false"
       hide_knots="false" />
    <inkscape:path-effect
       effect="fillet_chamfer"
       id="path-effect27"
       is_visible="true"
       lpeversion="1"
       nodesatellites_param="F,0,0,1,0,0,0,1 @ F,0,0,1,0,0.49999997,0,1 @ F,0,0,1,0,0.49999997,0,1 @ F,0,0,1,0,0.49999997,0,1 @ F,0,0,1,0,0.49999997,0,1 @ F,0,0,1,0,0.49999997,0,1"
       radius="0.5"
       unit="px"
       method="auto"
       mode="F"
       chamfer_steps="1"
       flexible="false"
       use_knot_distance="true"
       apply_no_radius="true"
       apply_with_radius="true"
       only_selected="false"
       hide_knots="false" />
    <inkscape:path-effect
       effect="fillet_chamfer"
       id="path-effect26"
       is_visible="true"
       lpeversion="1"
       nodesatellites_param="F,0,0,1,0,0,0,1 @ F,0,0,1,0,1.1999999,0,1 @ F,0,0,1,0,1.1999999,0,1 @ F,0,0,1,0,1.1999999,0,1 @ F,0,0,1,0,1.1999999,0,1 @ F,0,0,1,0,1.1999999,0,1"
       radius="1.2"
       unit="px"
       method="auto"
       mode="F"
       chamfer_steps="1"
       flexible="false"
       use_knot_distance="true"
       apply_no_radius="true"
       apply_with_radius="true"
       only_selected="false"
       hide_knots="false" />
    <rect
       x="-241.00514"
       y="111.3117"
       width="115.90713"
       height="30.636247"
       id="rect6" />
    <style
       id="style1">
      .st0 {
        fill: none;
      }

      .st0, .st1, .st2, .st3 {
        stroke: #231f20;
        stroke-miterlimit: 10;
      }

      .st4, .st5 {
        font-family: AvantGarde-Demi, 'ITC Avant Garde Gothic Demi';
        font-size: 6px;
        font-weight: 300;
      }

      .st4, .st1 {
        fill: #fff;
      }

      .st5, .st3 {
        fill: #231f20;
      }

      .st2 {
        fill: #b9d532;
      }
    </style>
    <rect
       x="-241.00514"
       y="111.3117"
       width="115.90713"
       height="30.636247"
       id="rect7" />
    <rect
       x="-241.00514"
       y="111.3117"
       width="115.90713"
       height="30.636247"
       id="rect9" />
    <rect
       x="-241.00514"
       y="111.3117"
       width="115.90713"
       height="30.636247"
       id="rect10" />
    <rect
       x="-241.00514"
       y="111.3117"
       width="115.90713"
       height="30.636247"
       id="rect11" />
    <rect
       x="-241.00514"
       y="111.3117"
       width="115.90713"
       height="30.636247"
       id="rect12" />
    <rect
       x="-241.00514"
       y="111.3117"
       width="115.90713"
       height="30.636247"
       id="rect14" />
    <rect
       x="-241.00514"
       y="111.3117"
       width="115.90713"
       height="30.636248"
       id="rect14-6" />
    <rect
       x="-241.00514"
       y="111.3117"
       width="115.90713"
       height="30.636248"
       id="rect14-3" />
    <rect
       x="-241.00514"
       y="111.3117"
       width="115.90713"
       height="30.636248"
       id="rect14-8" />
    <rect
       x="-241.00514"
       y="111.3117"
       width="115.90713"
       height="30.636248"
       id="rect14-4" />
    <rect
       x="-241.00514"
       y="111.3117"
       width="115.90713"
       height="30.636248"
       id="rect14-2" />
    <rect
       x="-241.00514"
       y="111.3117"
       width="115.90713"
       height="30.636248"
       id="rect14-1" />
    <rect
       x="-241.00514"
       y="111.3117"
       width="115.90713"
       height="30.636248"
       id="rect14-5" />
    <rect
       x="-241.00514"
       y="111.3117"
       width="115.90713"
       height="30.636248"
       id="rect14-80" />
    <rect
       x="-241.00514"
       y="111.3117"
       width="115.90713"
       height="30.636248"
       id="rect14-9" />
    <rect
       x="-241.00514"
       y="111.3117"
       width="115.90713"
       height="30.636248"
       id="rect14-40" />
    <rect
       x="-241.00514"
       y="111.3117"
       width="115.90713"
       height="30.636248"
       id="rect14-0" />
    <rect
       x="-241.00514"
       y="111.3117"
       width="115.90713"
       height="30.636248"
       id="rect14-36" />
    <rect
       x="-241.00514"
       y="111.3117"
       width="115.90713"
       height="30.636248"
       id="rect14-9-1" />
    <rect
       x="-241.00514"
       y="111.3117"
       width="115.90713"
       height="30.636248"
       id="rect14-9-6" />
    <rect
       x="-241.00514"
       y="111.3117"
       width="115.90713"
       height="30.636248"
       id="rect14-9-17" />
    <rect
       x="-241.00514"
       y="111.3117"
       width="115.90713"
       height="30.636247"
       id="rect47" />
    <rect
       x="-241.00514"
       y="111.3117"
       width="115.90713"
       height="30.636247"
       id="rect48" />
    <rect
       x="-241.00514"
       y="111.3117"
       width="115.90713"
       height="30.636247"
       id="rect49" />
    <rect
       x="-241.00514"
       y="111.3117"
       width="115.90713"
       height="30.636247"
       id="rect64" />
    <rect
       x="-241.00514"
       y="111.3117"
       width="115.90713"
       height="30.636247"
       id="rect65" />
    <rect
       x="-241.00514"
       y="111.3117"
       width="115.90713"
       height="30.636247"
       id="rect66" />
    <rect
       x="-241.00514"
       y="111.3117"
       width="115.90713"
       height="30.636247"
       id="rect80" />
    <rect
       x="-241.00514"
       y="111.3117"
       width="115.90713"
       height="30.636247"
       id="rect81" />
    <rect
       x="-241.00514"
       y="111.3117"
       width="115.90713"
       height="30.636247"
       id="rect82" />
    <rect
       x="-241.00514"
       y="111.3117"
       width="115.90713"
       height="30.636247"
       id="rect15" />
    <rect
       x="-241.00514"
       y="111.3117"
       width="115.90713"
       height="30.636247"
       id="rect50" />
    <rect
       x="-241.00514"
       y="111.3117"
       width="115.90713"
       height="30.636247"
       id="rect67" />
    <rect
       x="-241.00514"
       y="111.3117"
       width="115.90713"
       height="30.636247"
       id="rect69" />
    <rect
       x="-241.00514"
       y="111.3117"
       width="115.90713"
       height="30.636247"
       id="rect71" />
    <rect
       x="-241.00514"
       y="111.3117"
       width="115.90713"
       height="30.636247"
       id="rect73" />
    <rect
       x="-241.00514"
       y="111.3117"
       width="115.90713"
       height="30.636247"
       id="rect75" />
  </defs>
  <g
     inkscape:groupmode="layer"
     id="layer3"
     inkscape:label="design">
    <path
       id="rect13"
       style="display:inline;fill:#e6e6e6;stroke-width:0.999998"
       d="M -0.00411003,0.00178039 H 192.00413 V 485.3455 H -0.00411003 Z"
       sodipodi:nodetypes="ccccc" />
    <path
       id="rect2"
       class="st3"
       style="fill:#26292e;stroke:none;stroke-width:0.999999;stroke-miterlimit:10;fill-opacity:1"
       d="m 60.723069,412.15186 h 21.571173 c 3.024492,0 5.459371,2.44049 5.459371,5.47196 v 36.83564 c 0,3.03146 -2.434879,5.47196 -5.459371,5.47196 H 60.723069 c -3.024492,0 -5.459371,-2.4405 -5.459371,-5.47196 v -36.83564 c 0,-3.03147 2.434879,-5.47196 5.459371,-5.47196 z" />
    <path
       id="rect3"
       class="st3"
       style="fill:#26292e;stroke:none;stroke-width:0.999999;stroke-miterlimit:10;fill-opacity:1"
       d="m 108.65901,412.15186 h 21.57118 c 3.02449,0 5.45936,2.44049 5.45936,5.47196 v 36.83564 c 0,3.03146 -2.43487,5.47196 -5.45936,5.47196 h -21.57118 c -3.02449,0 -5.45937,-2.4405 -5.45937,-5.47196 v -36.83564 c 0,-3.03147 2.43488,-5.47196 5.45937,-5.47196 z" />
    <g
       id="g15" />
    <path
       id="rect5"
       style="fill:#26292e;fill-opacity:1;stroke:#26292e;stroke-width:0.999999;stroke-miterlimit:10;stroke-opacity:1"
       class="st3"
       d="m 12.787109,351.02539 c -3.0244909,0 -5.458984,2.44119 -5.458984,5.47265 v 36.83594 c 0,2.33744 -0.024865,15.60484 0,23.9043 0.00738,2.46427 -0.030574,6.40589 0,7.09765 v 30.50977 c 0,3.09491 2.4344931,5.58594 5.458984,5.58594 h 1.191407 20.378906 122.238278 19.30664 2.26367 c 3.0245,0 5.45899,-2.49103 5.45899,-5.58594 v -6.23828 c 3.3e-4,-0.12361 0,-0.25291 0,-0.38477 v -30.98437 -60.74024 c 0,-3.03146 -2.43449,-5.47265 -5.45899,-5.47265 H 156.5957 c -3.02449,0 -5.46094,2.44119 -5.46094,5.47265 v 55.1543 H 39.671875 c 0.131786,-9.21022 0.146484,-17.10853 0.146484,-18.31836 v -36.83594 c 0,-3.03146 -2.436445,-5.47265 -5.460937,-5.47265 z"
       sodipodi:nodetypes="sssscssccccsscscssssccssss" />
    <path
       style="font-weight:500;font-stretch:condensed;font-family:'Akzidenz-Grotesk BQ Condensed A';-inkscape-font-specification:'Akzidenz-Grotesk BQ Condensed A Medium Condensed';white-space:pre"
       d="m 104.27056,296.02192 v -1.044 h -2.904 v 8.472 h 1.128 v -3.936 h 1.608 v -1.032 h -1.62 v -2.46 z m 4.104,7.428 c -0.192,-0.528 -0.216,-0.708 -0.216,-1.668 v -0.924 c 0,-0.696 -0.012,-1.044 -0.204,-1.344 -0.24,-0.372 -0.588,-0.324 -0.768,-0.36 0.18,-0.024 0.66,-0.012 0.864,-0.456 0.084,-0.192 0.12,-0.456 0.132,-0.672 0.024,-0.336 0.024,-0.672 0.024,-0.996 0,-0.576 -0.024,-0.996 -0.072,-1.212 -0.168,-0.768 -0.732,-0.804 -1.032,-0.828 -0.132,-0.012 -0.276,-0.012 -0.42,-0.012 h -1.824 v 8.472 h 1.116 v -3.9 h 0.456 c 0.132,0 0.252,0.024 0.36,0.108 0.144,0.132 0.18,0.336 0.204,0.54 0.036,0.288 0.048,0.588 0.048,0.876 v 0.6 c 0,0.804 0.024,0.984 0.168,1.776 z m -1.272,-6.504 c 0,0.588 -0.012,1.092 -0.06,1.296 -0.072,0.3 -0.24,0.372 -0.528,0.372 h -0.528 v -2.616 h 0.564 c 0.216,0 0.336,0 0.408,0.072 0.072,0.06 0.108,0.156 0.12,0.336 0.012,0.18 0.024,0.36 0.024,0.54 z m 4.812,6.504 v -1.068 h -1.656 v -2.808 h 1.476 v -1.056 h -1.488 v -2.484 h 1.668 v -1.056 h -2.796 v 8.472 z m 4.236,-2.184 v -3.984 c 0,-0.612 0.012,-1.308 -0.42,-1.812 -0.456,-0.54 -1.032,-0.552 -1.284,-0.552 -0.216,0 -0.768,0 -1.248,0.42 -0.432,0.36 -0.516,0.804 -0.552,1.008 -0.072,0.408 -0.06,1.032 -0.06,1.08 v 4.212 c 0,0.18 -0.048,1.104 0.612,1.572 0.144,0.096 0.276,0.168 0.612,0.264 0.036,0.756 0.12,1.44 0.984,1.62 0.312,0.072 0.756,0.048 1.08,0.036 v -1.032 c -0.18,0.024 -0.36,0.036 -0.54,0.036 -0.312,0 -0.54,-0.084 -0.54,-0.42 v -0.228 c 0.156,-0.024 0.228,-0.036 0.384,-0.096 0.096,-0.036 0.3,-0.12 0.504,-0.312 0.456,-0.444 0.444,-1.116 0.456,-1.296 0,-0.18 0.012,-0.348 0.012,-0.516 z m -1.104,0.168 c 0,0.552 -0.024,0.888 -0.252,1.068 -0.132,0.096 -0.288,0.12 -0.432,0.12 -0.408,-0.012 -0.564,-0.228 -0.612,-0.396 -0.036,-0.096 -0.048,-0.3 -0.048,-0.564 v -5.004 c 0,-0.024 0,-0.216 0.06,-0.36 0.096,-0.276 0.336,-0.408 0.624,-0.408 0.636,0 0.636,0.552 0.648,0.732 0,0.096 0.012,0.192 0.012,0.288 z m 5.604,-0.036 v -6.42 h -1.104 v 6.48 c 0,0.564 -0.012,0.864 -0.252,1.068 -0.156,0.132 -0.36,0.132 -0.432,0.132 -0.684,0 -0.672,-0.648 -0.672,-1.128 v -6.552 h -1.092 v 6.612 c 0,0.516 0.048,0.756 0.144,0.996 0.348,0.936 1.284,0.996 1.584,0.996 0.336,0 1.404,-0.06 1.716,-1.176 0.108,-0.396 0.108,-0.936 0.108,-1.008 z m 3.768,2.052 v -1.068 h -1.656 v -2.808 h 1.476 v -1.056 h -1.488 v -2.484 h 1.668 v -1.056 h -2.796 v 8.472 z m 4.236,0 v -8.472 h -1.056 l 0.048,5.772 -1.332,-5.772 h -1.2 v 8.472 h 1.044 l -0.096,-6.216 1.356,6.216 z m 4.596,-1.92 v -1.584 h -1.128 v 1.644 c 0,0.312 0.012,0.672 -0.276,0.876 -0.168,0.132 -0.36,0.12 -0.432,0.12 -0.624,0 -0.66,-0.456 -0.672,-0.684 -0.012,-0.096 -0.012,-0.192 -0.012,-0.288 v -4.68 c 0,-0.324 -0.024,-0.684 0.252,-0.924 0.096,-0.072 0.216,-0.144 0.456,-0.144 0.744,0 0.684,0.696 0.684,0.876 v 1.308 h 1.128 v -1.08 c 0,-0.408 -0.012,-0.792 -0.18,-1.176 -0.084,-0.204 -0.216,-0.384 -0.396,-0.528 -0.216,-0.18 -0.552,-0.372 -1.176,-0.372 -0.264,0 -0.468,0.024 -0.708,0.108 -1.08,0.348 -1.14,1.416 -1.164,1.74 -0.012,0.192 -0.024,0.384 -0.024,0.576 v 4.092 c 0,0.492 0,1.02 0.3,1.452 0.204,0.3 0.636,0.696 1.5,0.696 0.9,0 1.332,-0.444 1.536,-0.744 0.276,-0.408 0.312,-0.816 0.312,-1.284 z m 4.32,-6.552 h -1.128 l -0.852,3.384 -0.78,-3.384 h -1.14 l 1.284,4.932 v 3.54 h 1.212 v -3.552 z"
       id="text13-11"
       aria-label="FREQUENCY" />
    <path
       style="font-weight:500;font-stretch:condensed;font-family:'Akzidenz-Grotesk BQ Condensed A';-inkscape-font-specification:'Akzidenz-Grotesk BQ Condensed A Medium Condensed';white-space:pre"
       d="m 59.10537,301.68921 c 0,-0.492 -0.072,-1.128 -0.66,-2.052 -0.12,-0.192 -0.24,-0.372 -0.372,-0.552 -0.168,-0.252 -0.336,-0.492 -0.492,-0.744 -0.372,-0.588 -0.564,-0.984 -0.564,-1.692 0,-0.396 0.012,-0.864 0.552,-0.864 0.468,0 0.432,0.48 0.444,0.576 v 1.5 h 1.02 v -1.5 c 0,-0.336 -0.036,-0.48 -0.084,-0.636 -0.264,-0.828 -1.116,-0.816 -1.344,-0.816 -0.48,0 -0.78,0.12 -0.96,0.228 -0.348,0.204 -0.756,0.696 -0.756,1.632 0,0.984 0.468,1.704 0.648,1.992 0.324,0.54 0.708,1.032 1.02,1.584 0.312,0.528 0.408,0.864 0.408,1.476 0,0.384 0.012,0.984 -0.54,0.996 -0.18,0 -0.288,-0.072 -0.336,-0.108 -0.18,-0.12 -0.24,-0.3 -0.24,-0.708 v -1.548 h -1.032 v 1.404 c 0,0.492 0.024,0.948 0.372,1.344 0.18,0.216 0.552,0.504 1.236,0.504 0.372,0 0.6,-0.072 0.744,-0.132 0.948,-0.432 0.936,-1.704 0.936,-1.884 z m 4.2,-5.616 v -0.996 h -3.744 v 0.996 h 1.284 v 7.476 h 1.14 v -7.476 z m 4.05601,7.476 -1.308,-8.472 h -1.356 l -1.2,8.472 h 1.092 l 0.192,-1.56 h 1.272 l 0.216,1.56 z m -1.452,-2.592 h -1.008 l 0.468,-4.404 z m 5.316,0.312 c 0,-0.228 -0.012,-0.444 -0.012,-0.66 -0.012,-0.588 0.012,-0.912 -0.12,-1.152 -0.156,-0.276 -0.504,-0.36 -0.804,-0.384 0,0 0.228,-0.036 0.348,-0.072 0.18,-0.048 0.372,-0.168 0.456,-0.348 0.12,-0.24 0.108,-0.612 0.108,-0.66 0.012,-0.264 0.024,-0.528 0.024,-0.792 0,-0.144 -0.012,-0.288 -0.012,-0.432 -0.012,-0.756 -0.012,-1.152 -0.312,-1.44 -0.276,-0.252 -0.648,-0.252 -0.996,-0.252 h -1.98 v 8.472 h 1.704 c 0.396,0 0.876,0.012 1.212,-0.264 0.36,-0.312 0.348,-0.888 0.36,-0.984 0.024,-0.348 0.024,-0.684 0.024,-1.032 z m -1.104,-3.924 c 0,0.408 -0.012,0.684 -0.036,0.852 -0.048,0.42 -0.3,0.432 -0.648,0.432 h -0.432 v -2.544 h 0.552 c 0.204,0 0.324,0 0.408,0.072 0.072,0.06 0.108,0.168 0.12,0.396 0.024,0.264 0.036,0.528 0.036,0.792 z m 0.024,3.684 c 0,0.492 -0.024,1.056 -0.036,1.188 -0.048,0.312 -0.276,0.288 -0.528,0.288 h -0.576 v -2.952 h 0.624 c 0.108,0 0.252,0.012 0.348,0.096 0.12,0.12 0.132,0.372 0.144,0.528 0.012,0.288 0.024,0.564 0.024,0.852 z m 3.072,2.52 v -8.472 h -1.104 v 8.472 z m 3.936,0 v -1.044 h -1.848 v -7.428 h -1.116 v 8.472 z m 1.57199,0 v -8.472 h -1.104 v 8.472 z m 4.332,-7.476 v -0.996 h -3.744 v 0.996 h 1.284 v 7.476 h 1.14 v -7.476 z m 4.068,-0.996 h -1.128 l -0.852,3.384 -0.78,-3.384 h -1.14 l 1.284,4.932 v 3.54 h 1.212 v -3.552 z"
       id="text13-0"
       aria-label="STABILITY" />
    <path
       style="font-weight:500;font-stretch:condensed;font-family:'Akzidenz-Grotesk BQ Condensed A';-inkscape-font-specification:'Akzidenz-Grotesk BQ Condensed A Medium Condensed';white-space:pre"
       d="m 63.52139,365.27241 v -1.584 h -1.128 v 1.644 c 0,0.312 0.012,0.672 -0.276,0.876 -0.168,0.132 -0.36,0.12 -0.432,0.12 -0.624,0 -0.66,-0.456 -0.672,-0.684 -0.012,-0.096 -0.012,-0.192 -0.012,-0.288 v -4.68 c 0,-0.324 -0.024,-0.684 0.252,-0.924 0.096,-0.072 0.216,-0.144 0.456,-0.144 0.744,0 0.684,0.696 0.684,0.876 v 1.308 h 1.128 v -1.08 c 0,-0.408 -0.012,-0.792 -0.18,-1.176 -0.084,-0.204 -0.216,-0.384 -0.396,-0.528 -0.216,-0.18 -0.552,-0.372 -1.176,-0.372 -0.264,0 -0.468,0.024 -0.708,0.108 -1.08,0.348 -1.14,1.416 -1.164,1.74 -0.012,0.192 -0.024,0.384 -0.024,0.576 v 4.092 c 0,0.492 0,1.02 0.3,1.452 0.204,0.3 0.636,0.696 1.5,0.696 0.9,0 1.332,-0.444 1.536,-0.744 0.276,-0.408 0.312,-0.816 0.312,-1.284 z m 3.672,1.92 v -1.068 h -1.656 v -2.808 h 1.476 v -1.056 h -1.488 v -2.484 h 1.668 v -1.056 h -2.796 v 8.472 z m 4.236,0 v -8.472 h -1.056 l 0.048,5.772 -1.332,-5.772 h -1.2 v 8.472 h 1.044 l -0.096,-6.216 1.356,6.216 z m 4.344,-7.476 v -0.996 h -3.744 v 0.996 h 1.284 v 7.476 h 1.14 v -7.476 z m 3.42,7.476 v -1.068 h -1.656 v -2.808 h 1.476 v -1.056 h -1.488 v -2.484 h 1.668 v -1.056 h -2.796 v 8.472 z m 4.212,0 c -0.192,-0.528 -0.216,-0.708 -0.216,-1.668 v -0.924 c 0,-0.696 -0.012,-1.044 -0.204,-1.344 -0.24,-0.372 -0.588,-0.324 -0.768,-0.36 0.18,-0.024 0.66,-0.012 0.864,-0.456 0.084,-0.192 0.12,-0.456 0.132,-0.672 0.024,-0.336 0.024,-0.672 0.024,-0.996 0,-0.576 -0.024,-0.996 -0.072,-1.212 -0.168,-0.768 -0.732,-0.804 -1.032,-0.828 -0.132,-0.012 -0.276,-0.012 -0.42,-0.012 h -1.824 v 8.472 h 1.116 v -3.9 h 0.456 c 0.132,0 0.252,0.024 0.36,0.108 0.144,0.132 0.18,0.336 0.204,0.54 0.036,0.288 0.048,0.588 0.048,0.876 v 0.6 c 0,0.804 0.024,0.984 0.168,1.776 z m -1.272,-6.504 c 0,0.588 -0.012,1.092 -0.06,1.296 -0.072,0.3 -0.24,0.372 -0.528,0.372 h -0.528 v -2.616 h 0.564 c 0.216,0 0.336,0 0.408,0.072 0.072,0.06 0.108,0.156 0.12,0.336 0.012,0.18 0.024,0.36 0.024,0.54 z"
       id="text13-6"
       aria-label="CENTER" />
    <path
       style="font-weight:500;font-stretch:condensed;font-family:'Akzidenz-Grotesk BQ Condensed A';-inkscape-font-specification:'Akzidenz-Grotesk BQ Condensed A Medium Condensed';white-space:pre"
       d="m 160.80167,298.86592 v -1.608 c 0,-0.36 0.024,-0.828 -0.216,-1.128 -0.288,-0.372 -0.852,-0.324 -0.936,-0.324 h -2.184 v 8.472 h 1.092 v -3.84 h 1.116 c 0.444,0 0.66,-0.036 0.84,-0.204 0.276,-0.252 0.288,-0.66 0.288,-1.368 z m -1.128,0.192 c 0,0.288 -0.096,0.372 -0.396,0.372 h -0.708 v -2.592 h 0.684 c 0.348,0 0.42,0.108 0.42,0.42 z m 5.028,5.22 v -8.472 h -1.116 v 3.444 h -1.032 v -3.444 h -1.116 v 8.472 h 1.116 v -3.936 h 1.032 v 3.936 z m 4.452,0 -1.308,-8.472 h -1.356 l -1.2,8.472 h 1.092 l 0.192,-1.56 h 1.272 l 0.216,1.56 z m -1.452,-2.592 h -1.008 l 0.468,-4.404 z m 5.18401,0.732 c 0,-0.492 -0.072,-1.128 -0.66,-2.052 -0.12,-0.192 -0.24,-0.372 -0.372,-0.552 -0.168,-0.252 -0.336,-0.492 -0.492,-0.744 -0.372,-0.588 -0.564,-0.984 -0.564,-1.692 0,-0.396 0.012,-0.864 0.552,-0.864 0.468,0 0.432,0.48 0.444,0.576 v 1.5 h 1.02 v -1.5 c 0,-0.336 -0.036,-0.48 -0.084,-0.636 -0.264,-0.828 -1.116,-0.816 -1.344,-0.816 -0.48,0 -0.78,0.12 -0.96,0.228 -0.348,0.204 -0.756,0.696 -0.756,1.632 0,0.984 0.468,1.704 0.648,1.992 0.324,0.54 0.708,1.032 1.02,1.584 0.312,0.528 0.408,0.864 0.408,1.476 0,0.384 0.012,0.984 -0.54,0.996 -0.18,0 -0.288,-0.072 -0.336,-0.108 -0.18,-0.12 -0.24,-0.3 -0.24,-0.708 v -1.548 h -1.032 v 1.404 c 0,0.492 0.024,0.948 0.372,1.344 0.18,0.216 0.552,0.504 1.236,0.504 0.372,0 0.6,-0.072 0.744,-0.132 0.948,-0.432 0.936,-1.704 0.936,-1.884 z m 3.624,1.86 v -1.068 h -1.656 v -2.808 h 1.476 v -1.056 h -1.488 v -2.484 h 1.668 v -1.056 h -2.796 v 8.472 z"
       id="text13-69"
       aria-label="PHASE" />
    <path
       style="font-weight:500;font-stretch:condensed;font-family:'Akzidenz-Grotesk BQ Condensed A';-inkscape-font-specification:'Akzidenz-Grotesk BQ Condensed A Medium Condensed';white-space:pre;fill:#f9f9f9"
       d="m 25.52735,425.24295 -1.308,-8.472 h -1.356 l -1.2,8.472 h 1.092 l 0.192,-1.56 h 1.272 l 0.216,1.56 z m -1.452,-2.592 h -1.008 l 0.468,-4.404 z"
       id="text13-9"
       aria-label="A" />
    <path
       style="font-weight:500;font-stretch:condensed;font-family:'Akzidenz-Grotesk BQ Condensed A';-inkscape-font-specification:'Akzidenz-Grotesk BQ Condensed A Medium Condensed';white-space:pre;fill:#f9f9f9"
       d="m 73.37569,422.95696 c 0,-0.228 -0.012,-0.444 -0.012,-0.66 -0.012,-0.588 0.012,-0.912 -0.12,-1.152 -0.156,-0.276 -0.504,-0.36 -0.804,-0.384 0,0 0.228,-0.036 0.348,-0.072 0.18,-0.048 0.372,-0.168 0.456,-0.348 0.12,-0.24 0.108,-0.612 0.108,-0.66 0.012,-0.264 0.024,-0.528 0.024,-0.792 0,-0.144 -0.012,-0.288 -0.012,-0.432 -0.012,-0.756 -0.012,-1.152 -0.312,-1.44 -0.276,-0.252 -0.648,-0.252 -0.996,-0.252 h -1.98 v 8.472 h 1.704 c 0.396,0 0.876,0.012 1.212,-0.264 0.36,-0.312 0.348,-0.888 0.36,-0.984 0.024,-0.348 0.024,-0.684 0.024,-1.032 z m -1.104,-3.924 c 0,0.408 -0.012,0.684 -0.036,0.852 -0.048,0.42 -0.3,0.432 -0.648,0.432 h -0.432 v -2.544 h 0.552 c 0.204,0 0.324,0 0.408,0.072 0.072,0.06 0.108,0.168 0.12,0.396 0.024,0.264 0.036,0.528 0.036,0.792 z m 0.024,3.684 c 0,0.492 -0.024,1.056 -0.036,1.188 -0.048,0.312 -0.276,0.288 -0.528,0.288 h -0.576 v -2.952 h 0.624 c 0.108,0 0.252,0.012 0.348,0.096 0.12,0.12 0.132,0.372 0.144,0.528 0.012,0.288 0.024,0.564 0.024,0.852 z"
       id="text13-9-4"
       aria-label="B" />
    <path
       style="font-weight:500;font-stretch:condensed;font-family:'Akzidenz-Grotesk BQ Condensed A';-inkscape-font-specification:'Akzidenz-Grotesk BQ Condensed A Medium Condensed';white-space:pre;fill:#f9f9f9"
       d="m 169.13444,423.77296 v -5.64 c 0,-0.408 -0.012,-0.816 -0.36,-1.116 -0.336,-0.288 -0.828,-0.252 -0.936,-0.252 h -2.052 v 8.472 h 2.148 c 0.252,0 0.96,0.048 1.14,-0.768 0.036,-0.156 0.06,-0.348 0.06,-0.696 z m -1.128,-0.048 c 0,0.396 -0.108,0.468 -0.36,0.468 h -0.744 v -6.396 h 0.648 c 0.096,0 0.396,-0.012 0.444,0.336 0.012,0.084 0.012,0.168 0.012,0.252 z"
       id="text13-9-8"
       aria-label="D" />
    <path
       style="font-weight:500;font-stretch:condensed;font-family:'Akzidenz-Grotesk BQ Condensed A';-inkscape-font-specification:'Akzidenz-Grotesk BQ Condensed A Medium Condensed';white-space:pre;fill:#f9f9f9"
       d="m 121.40174,423.31096 v -1.584 h -1.128 v 1.644 c 0,0.312 0.012,0.672 -0.276,0.876 -0.168,0.132 -0.36,0.12 -0.432,0.12 -0.624,0 -0.66,-0.456 -0.672,-0.684 -0.012,-0.096 -0.012,-0.192 -0.012,-0.288 v -4.68 c 0,-0.324 -0.024,-0.684 0.252,-0.924 0.096,-0.072 0.216,-0.144 0.456,-0.144 0.744,0 0.684,0.696 0.684,0.876 v 1.308 h 1.128 v -1.08 c 0,-0.408 -0.012,-0.792 -0.18,-1.176 -0.084,-0.204 -0.216,-0.384 -0.396,-0.528 -0.216,-0.18 -0.552,-0.372 -1.176,-0.372 -0.264,0 -0.468,0.024 -0.708,0.108 -1.08,0.348 -1.14,1.416 -1.164,1.74 -0.012,0.192 -0.024,0.384 -0.024,0.576 v 4.092 c 0,0.492 0,1.02 0.3,1.452 0.204,0.3 0.636,0.696 1.5,0.696 0.9,0 1.332,-0.444 1.536,-0.744 0.276,-0.408 0.312,-0.816 0.312,-1.284 z"
       id="text13-9-46"
       aria-label="C" />
    <path
       style="font-weight:500;font-stretch:condensed;font-family:'Akzidenz-Grotesk BQ Condensed A';-inkscape-font-specification:'Akzidenz-Grotesk BQ Condensed A Medium Condensed';white-space:pre;fill:#ffffff"
       d="m 165.80495,367.26446 v -8.472 h -1.644 l -0.804,5.628 -0.912,-5.628 h -1.596 v 8.472 h 1.044 v -6.816 l 0.96,6.816 h 0.948 l 0.972,-6.816 v 6.816 z m 4.476,0 -1.308,-8.472 h -1.356 l -1.2,8.472 h 1.092 l 0.192,-1.56 h 1.272 l 0.216,1.56 z m -1.452,-2.592 h -1.008 l 0.468,-4.404 z m 5.448,2.592 -1.368,-4.38 1.248,-4.092 h -1.116 l -0.732,2.58 -0.78,-2.58 h -1.116 l 1.284,4.104 -1.296,4.368 h 1.104 l 0.804,-2.952 0.84,2.952 z"
       id="text13-08"
       aria-label="MAX" />
    <path
       style="font-weight:500;font-stretch:condensed;font-family:'Akzidenz-Grotesk BQ Condensed A';-inkscape-font-specification:'Akzidenz-Grotesk BQ Condensed A Medium Condensed';white-space:pre;fill:#ffffff"
       d="m 22.82929,367.19239 v -8.472 h -1.644 l -0.804,5.628 -0.912,-5.628 h -1.596 v 8.472 h 1.044 v -6.816 l 0.96,6.816 h 0.948 l 0.972,-6.816 v 6.816 z m 2.088,0 v -8.472 h -1.104 v 8.472 z m 4.488,0 v -8.472 h -1.056 l 0.048,5.772 -1.332,-5.772 h -1.2 v 8.472 h 1.044 l -0.096,-6.216 1.356,6.216 z"
       id="text13-3"
       aria-label="MIN" />
    <path
       style="font-weight:500;font-stretch:condensed;font-family:'Akzidenz-Grotesk BQ Condensed A';-inkscape-font-specification:'Akzidenz-Grotesk BQ Condensed A Medium Condensed';white-space:pre"
       d="m 111.01552,366.02506 c 0,-0.492 -0.072,-1.128 -0.66,-2.052 -0.12,-0.192 -0.24,-0.372 -0.372,-0.552 -0.168,-0.252 -0.336,-0.492 -0.492,-0.744 -0.372,-0.588 -0.564,-0.984 -0.564,-1.692 0,-0.396 0.012,-0.864 0.552,-0.864 0.468,0 0.432,0.48 0.444,0.576 v 1.5 h 1.02 v -1.5 c 0,-0.336 -0.036,-0.48 -0.084,-0.636 -0.264,-0.828 -1.116,-0.816 -1.344,-0.816 -0.48,0 -0.78,0.12 -0.96,0.228 -0.348,0.204 -0.756,0.696 -0.756,1.632 0,0.984 0.468,1.704 0.648,1.992 0.324,0.54 0.708,1.032 1.02,1.584 0.312,0.528 0.408,0.864 0.408,1.476 0,0.384 0.012,0.984 -0.54,0.996 -0.18,0 -0.288,-0.072 -0.336,-0.108 -0.18,-0.12 -0.24,-0.3 -0.24,-0.708 v -1.548 h -1.032 v 1.404 c 0,0.492 0.024,0.948 0.372,1.344 0.18,0.216 0.552,0.504 1.236,0.504 0.372,0 0.6,-0.072 0.744,-0.132 0.948,-0.432 0.936,-1.704 0.936,-1.884 z m 4.152,-3.552 v -1.608 c 0,-0.36 0.024,-0.828 -0.216,-1.128 -0.288,-0.372 -0.852,-0.324 -0.936,-0.324 h -2.184 v 8.472 h 1.092 v -3.84 h 1.116 c 0.444,0 0.66,-0.036 0.84,-0.204 0.276,-0.252 0.288,-0.66 0.288,-1.368 z m -1.128,0.192 c 0,0.288 -0.096,0.372 -0.396,0.372 h -0.708 v -2.592 h 0.684 c 0.348,0 0.42,0.108 0.42,0.42 z m 5.30401,5.22 c -0.192,-0.528 -0.216,-0.708 -0.216,-1.668 v -0.924 c 0,-0.696 -0.012,-1.044 -0.204,-1.344 -0.24,-0.372 -0.588,-0.324 -0.768,-0.36 0.18,-0.024 0.66,-0.012 0.864,-0.456 0.084,-0.192 0.12,-0.456 0.132,-0.672 0.024,-0.336 0.024,-0.672 0.024,-0.996 0,-0.576 -0.024,-0.996 -0.072,-1.212 -0.168,-0.768 -0.732,-0.804 -1.032,-0.828 -0.132,-0.012 -0.276,-0.012 -0.42,-0.012 h -1.824 v 8.472 h 1.116 v -3.9 h 0.456 c 0.132,0 0.252,0.024 0.36,0.108 0.144,0.132 0.18,0.336 0.204,0.54 0.036,0.288 0.048,0.588 0.048,0.876 v 0.6 c 0,0.804 0.024,0.984 0.168,1.776 z m -1.272,-6.504 c 0,0.588 -0.012,1.092 -0.06,1.296 -0.072,0.3 -0.24,0.372 -0.528,0.372 h -0.528 v -2.616 h 0.564 c 0.216,0 0.336,0 0.408,0.072 0.072,0.06 0.108,0.156 0.12,0.336 0.012,0.18 0.024,0.36 0.024,0.54 z m 4.812,6.504 v -1.068 h -1.656 v -2.808 h 1.476 v -1.056 h -1.488 v -2.484 h 1.668 v -1.056 h -2.796 v 8.472 z m 4.13999,0 -1.308,-8.472 h -1.356 l -1.2,8.472 h 1.092 l 0.192,-1.56 h 1.272 l 0.216,1.56 z m -1.452,-2.592 h -1.008 l 0.468,-4.404 z m 5.32801,1.128 v -5.64 c 0,-0.408 -0.012,-0.816 -0.36,-1.116 -0.336,-0.288 -0.828,-0.252 -0.936,-0.252 h -2.052 v 8.472 h 2.148 c 0.252,0 0.96,0.048 1.14,-0.768 0.036,-0.156 0.06,-0.348 0.06,-0.696 z m -1.128,-0.048 c 0,0.396 -0.108,0.468 -0.36,0.468 h -0.744 v -6.396 h 0.648 c 0.096,0 0.396,-0.012 0.444,0.336 0.012,0.084 0.012,0.168 0.012,0.252 z"
       id="text13-04"
       aria-label="SPREAD" />
    <path
       style="font-weight:500;font-stretch:condensed;font-family:'Akzidenz-Grotesk BQ Condensed A';-inkscape-font-specification:'Akzidenz-Grotesk BQ Condensed A Medium Condensed';white-space:pre"
       d="m 41.43172,22.44663 c 0,-0.492 -0.072,-1.128 -0.66,-2.052 -0.12,-0.192 -0.24,-0.372 -0.372,-0.552 -0.168,-0.252 -0.336,-0.492 -0.492,-0.744 -0.372,-0.588 -0.564,-0.984 -0.564,-1.692 0,-0.396 0.012,-0.864 0.552,-0.864 0.468,0 0.432,0.48 0.444,0.576 v 1.5 h 1.02 v -1.5 c 0,-0.336 -0.036,-0.48 -0.084,-0.636 -0.264,-0.828 -1.116,-0.816 -1.344,-0.816 -0.48,0 -0.78,0.12 -0.96,0.228 -0.348,0.204 -0.756,0.696 -0.756,1.632 0,0.984 0.468,1.704 0.648,1.992 0.324,0.54 0.708,1.032 1.02,1.584 0.312,0.528 0.408,0.864 0.408,1.476 0,0.384 0.012,0.984 -0.54,0.996 -0.18,0 -0.288,-0.072 -0.336,-0.108 -0.18,-0.12 -0.24,-0.3 -0.24,-0.708 v -1.548 h -1.032 v 1.404 c 0,0.492 0.024,0.948 0.372,1.344 0.18,0.216 0.552,0.504 1.236,0.504 0.372,0 0.6,-0.072 0.744,-0.132 0.948,-0.432 0.936,-1.704 0.936,-1.884 z m 4.056,1.86 v -8.472 h -1.116 v 3.444 h -1.032 v -3.444 h -1.116 v 8.472 h 1.116 v -3.936 h 1.032 v 3.936 z m 4.452,0 -1.308,-8.472 h -1.356 l -1.2,8.472 h 1.092 l 0.192,-1.56 h 1.272 l 0.216,1.56 z m -1.452,-2.592 h -1.008 l 0.468,-4.404 z m 5.34001,-2.82 v -1.608 c 0,-0.36 0.024,-0.828 -0.216,-1.128 -0.288,-0.372 -0.852,-0.324 -0.936,-0.324 h -2.184 v 8.472 h 1.092 v -3.84 h 1.116 c 0.444,0 0.66,-0.036 0.84,-0.204 0.276,-0.252 0.288,-0.66 0.288,-1.368 z m -1.128,0.192 c 0,0.288 -0.096,0.372 -0.396,0.372 h -0.708 v -2.592 h 0.684 c 0.348,0 0.42,0.108 0.42,0.42 z m 4.596,5.22 v -1.068 h -1.656 v -2.808 h 1.476 v -1.056 h -1.488 v -2.484 h 1.668 v -1.056 h -2.796 v 8.472 z"
       id="text7"
       aria-label="SHAPE" />
    <path
       style="fill:none;fill-opacity:1;stroke:#666666;stroke-width:1.32283;stroke-linecap:round;stroke-linejoin:round;stroke-dasharray:none;stroke-opacity:1"
       d="m 44.069297,32.125976 v 3.165328 l 7.861415,-6.33064 v 3.165328"
       id="path23"
       sodipodi:nodetypes="cccc" />
    <path
       style="fill:none;fill-opacity:1;stroke:#666666;stroke-width:1.32283;stroke-linecap:round;stroke-linejoin:round;stroke-dasharray:none;stroke-opacity:1"
       d="m 68.069299,51.637802 -2e-6,-3.165364 h 3.930709 v 6.330711 h 3.930708 v -3.165347"
       id="path25"
       sodipodi:nodetypes="cccccc" />
    <path
       style="fill:none;fill-opacity:1;stroke:#666666;stroke-width:1.32283;stroke-linecap:round;stroke-linejoin:round;stroke-dasharray:none;stroke-opacity:1"
       d="m 25.736433,74.336021 v -1.155364 a 1.9653526,2.009998 0 0 1 1.965352,-2.009999 h 2e-6 a 1.9653536,2.009999 0 0 1 1.965354,2.009999 v 2.310712 a 1.9653536,2.009999 0 0 0 1.965353,2.009999 v 0 a 1.9653536,2.009999 0 0 0 1.965354,-2.009999 v -1.155348"
       id="path26"
       sodipodi:nodetypes="cccccc" />
    <path
       style="fill:none;fill-opacity:1;stroke:#666666;stroke-width:1.32283;stroke-linecap:round;stroke-linejoin:round;stroke-dasharray:none;stroke-opacity:1"
       d="m 62.210739,78.138564 1.325025,-2.43364 a 0.94564313,0.96712456 0 0 1 1.163439,-0.433021 l 0.677193,0.264366 a 0.8423321,0.8614667 0 0 0 1.07856,-0.475013 l 0.422831,-1.043475 A 0.57952168,0.59268622 0 0 1 67.800459,73.8038 l 0.663582,0.6097 a 0.5312996,0.54336872 0 0 0 0.860689,-0.237297 l 0.747424,-2.368349"
       id="path27"
       sodipodi:nodetypes="cccccc" />
    <g
       id="g67"
       transform="translate(0.19768934,-90.506869)"
       style="display:inline">
      <path
         style="font-weight:500;font-stretch:condensed;font-family:'Akzidenz-Grotesk BQ Condensed A';-inkscape-font-specification:'Akzidenz-Grotesk BQ Condensed A Medium Condensed';white-space:pre"
         d="m -236.87786,120.84785 v -1.584 h -1.128 v 1.644 c 0,0.312 0.012,0.672 -0.276,0.876 -0.168,0.132 -0.36,0.12 -0.432,0.12 -0.624,0 -0.66,-0.456 -0.672,-0.684 -0.012,-0.096 -0.012,-0.192 -0.012,-0.288 v -4.68 c 0,-0.324 -0.024,-0.684 0.252,-0.924 0.096,-0.072 0.216,-0.144 0.456,-0.144 0.744,0 0.684,0.696 0.684,0.876 v 1.308 h 1.128 v -1.08 c 0,-0.408 -0.012,-0.792 -0.18,-1.176 -0.084,-0.204 -0.216,-0.384 -0.396,-0.528 -0.216,-0.18 -0.552,-0.372 -1.176,-0.372 -0.264,0 -0.468,0.024 -0.708,0.108 -1.08,0.348 -1.14,1.416 -1.164,1.74 -0.012,0.192 -0.024,0.384 -0.024,0.576 v 4.092 c 0,0.492 0,1.02 0.3,1.452 0.204,0.3 0.636,0.696 1.5,0.696 0.9,0 1.332,-0.444 1.536,-0.744 0.276,-0.408 0.312,-0.816 0.312,-1.284 z m 3.672,1.92 v -1.068 h -1.656 v -2.808 h 1.476 v -1.056 h -1.488 v -2.484 h 1.668 v -1.056 h -2.796 v 8.472 z m 4.236,0 v -8.472 h -1.056 l 0.048,5.772 -1.332,-5.772 h -1.2 v 8.472 h 1.044 l -0.096,-6.216 1.356,6.216 z m 4.344,-7.476 v -0.996 h -3.744 v 0.996 h 1.284 v 7.476 h 1.14 v -7.476 z m 3.42,7.476 v -1.068 h -1.656 v -2.808 h 1.476 v -1.056 h -1.488 v -2.484 h 1.668 v -1.056 h -2.796 v 8.472 z m 4.212,0 c -0.192,-0.528 -0.216,-0.708 -0.216,-1.668 v -0.924 c 0,-0.696 -0.012,-1.044 -0.204,-1.344 -0.24,-0.372 -0.588,-0.324 -0.768,-0.36 0.18,-0.024 0.66,-0.012 0.864,-0.456 0.084,-0.192 0.12,-0.456 0.132,-0.672 0.024,-0.336 0.024,-0.672 0.024,-0.996 0,-0.576 -0.024,-0.996 -0.072,-1.212 -0.168,-0.768 -0.732,-0.804 -1.032,-0.828 -0.132,-0.012 -0.276,-0.012 -0.42,-0.012 h -1.824 v 8.472 h 1.116 v -3.9 h 0.456 c 0.132,0 0.252,0.024 0.36,0.108 0.144,0.132 0.18,0.336 0.204,0.54 0.036,0.288 0.048,0.588 0.048,0.876 v 0.6 c 0,0.804 0.024,0.984 0.168,1.776 z m -1.272,-6.504 c 0,0.588 -0.012,1.092 -0.06,1.296 -0.072,0.3 -0.24,0.372 -0.528,0.372 h -0.528 v -2.616 h 0.564 c 0.216,0 0.336,0 0.408,0.072 0.072,0.06 0.108,0.156 0.12,0.336 0.012,0.18 0.024,0.36 0.024,0.54 z"
         id="text13"
         transform="translate(276.56217,78.138037)"
         aria-label="CENTER"
         sodipodi:nodetypes="sccscscsscssccsccsccsscscscccccccccccccccccccccccccccccccccccccccccccccccssccccsccsccccsccssccscsccscss" />
    </g>
    <path
       style="font-weight:500;font-stretch:condensed;font-family:'Akzidenz-Grotesk BQ Condensed A';-inkscape-font-specification:'Akzidenz-Grotesk BQ Condensed A Medium Condensed';white-space:pre"
       d="m 135.70201,108.37695 c 0,-0.492 -0.072,-1.128 -0.66,-2.052 -0.12,-0.192 -0.24,-0.372 -0.372,-0.552 -0.168,-0.252 -0.336,-0.492 -0.492,-0.744 -0.372,-0.588 -0.564,-0.984 -0.564,-1.692 0,-0.396 0.012,-0.864 0.552,-0.864 0.468,0 0.432,0.48 0.444,0.576 v 1.5 h 1.02 v -1.5 c 0,-0.336 -0.036,-0.48 -0.084,-0.636 -0.264,-0.828 -1.116,-0.816 -1.344,-0.816 -0.48,0 -0.78,0.12 -0.96,0.228 -0.348,0.204 -0.756,0.696 -0.756,1.632 0,0.984 0.468,1.704 0.648,1.992 0.324,0.54 0.708,1.032 1.02,1.584 0.312,0.528 0.408,0.864 0.408,1.476 0,0.384 0.012,0.984 -0.54,0.996 -0.18,0 -0.288,-0.072 -0.336,-0.108 -0.18,-0.12 -0.24,-0.3 -0.24,-0.708 v -1.548 h -1.032 v 1.404 c 0,0.492 0.024,0.948 0.372,1.344 0.18,0.216 0.552,0.504 1.236,0.504 0.372,0 0.6,-0.072 0.744,-0.132 0.948,-0.432 0.936,-1.704 0.936,-1.884 z m 4.152,-3.552 v -1.608 c 0,-0.36 0.024,-0.828 -0.216,-1.128 -0.288,-0.372 -0.852,-0.324 -0.936,-0.324 h -2.184 v 8.472 h 1.092 v -3.84 h 1.116 c 0.444,0 0.66,-0.036 0.84,-0.204 0.276,-0.252 0.288,-0.66 0.288,-1.368 z m -1.128,0.192 c 0,0.288 -0.096,0.372 -0.396,0.372 h -0.708 v -2.592 h 0.684 c 0.348,0 0.42,0.108 0.42,0.42 z m 5.30401,5.22 c -0.192,-0.528 -0.216,-0.708 -0.216,-1.668 v -0.924 c 0,-0.696 -0.012,-1.044 -0.204,-1.344 -0.24,-0.372 -0.588,-0.324 -0.768,-0.36 0.18,-0.024 0.66,-0.012 0.864,-0.456 0.084,-0.192 0.12,-0.456 0.132,-0.672 0.024,-0.336 0.024,-0.672 0.024,-0.996 0,-0.576 -0.024,-0.996 -0.072,-1.212 -0.168,-0.768 -0.732,-0.804 -1.032,-0.828 -0.132,-0.012 -0.276,-0.012 -0.42,-0.012 h -1.824 v 8.472 h 1.116 v -3.9 h 0.456 c 0.132,0 0.252,0.024 0.36,0.108 0.144,0.132 0.18,0.336 0.204,0.54 0.036,0.288 0.048,0.588 0.048,0.876 v 0.6 c 0,0.804 0.024,0.984 0.168,1.776 z m -1.272,-6.504 c 0,0.588 -0.012,1.092 -0.06,1.296 -0.072,0.3 -0.24,0.372 -0.528,0.372 h -0.528 v -2.616 h 0.564 c 0.216,0 0.336,0 0.408,0.072 0.072,0.06 0.108,0.156 0.12,0.336 0.012,0.18 0.024,0.36 0.024,0.54 z m 4.812,6.504 v -1.068 h -1.656 v -2.808 h 1.476 v -1.056 h -1.488 v -2.484 h 1.668 v -1.056 h -2.796 v 8.472 z m 4.13999,0 -1.308,-8.472 h -1.356 l -1.2,8.472 h 1.092 l 0.192,-1.56 h 1.272 l 0.216,1.56 z m -1.452,-2.592 h -1.008 l 0.468,-4.404 z m 5.32801,1.128 v -5.64 c 0,-0.408 -0.012,-0.816 -0.36,-1.116 -0.336,-0.288 -0.828,-0.252 -0.936,-0.252 h -2.052 v 8.472 h 2.148 c 0.252,0 0.96,0.048 1.14,-0.768 0.036,-0.156 0.06,-0.348 0.06,-0.696 z m -1.128,-0.048 c 0,0.396 -0.108,0.468 -0.36,0.468 h -0.744 v -6.396 h 0.648 c 0.096,0 0.396,-0.012 0.444,0.336 0.012,0.084 0.012,0.168 0.012,0.252 z"
       id="text9"
       aria-label="SPREAD" />
    <path
       style="font-weight:500;font-stretch:condensed;font-size:5.33333px;font-family:'Akzidenz-Grotesk BQ Condensed A';-inkscape-font-specification:'Akzidenz-Grotesk BQ Condensed A Medium Condensed';white-space:pre;fill:#666666;stroke-width:1;fill-opacity:1"
       d="m 125.27157,166.8427 v -4.95601 c 0,-0.432 -0.036,-0.58799 -0.096,-0.80399 -0.144,-0.468 -0.54,-0.99601 -1.62,-0.99601 -1.09203,0 -1.52402,0.54 -1.68002,1.008 -0.0479,0.16807 -0.0838,0.36 -0.0838,0.732 v 4.896 c 0,0.51601 0,0.756 0.0838,1.02001 0.3,0.99599 1.368,1.008 1.632,1.008 0.456,0 0.936,-0.0961 1.296,-0.40801 0.348,-0.31199 0.468,-0.648 0.468,-1.49999 z m -1.03199,0.26399 c 0,0.0962 0.036,0.49201 -0.30003,0.684 -0.13215,0.072 -0.252,0.084 -0.40798,0.084 -0.768,0 -0.72,-0.58799 -0.72,-0.828 v -5.38799 c 0,-0.468 0.20407,-0.756 0.72,-0.756 0.636,0 0.70801,0.408 0.70801,0.9 z m 4.59599,-4.87199 h -0.984 l -0.564,5.01599 -0.564,-5.01599 h -0.98402 l 0.94802,6.43199 h 1.152 z"
       id="text64"
       aria-label="0v" />
    <path
       style="font-weight:500;font-stretch:condensed;font-size:5.33333px;font-family:'Akzidenz-Grotesk BQ Condensed A';-inkscape-font-specification:'Akzidenz-Grotesk BQ Condensed A Medium Condensed';white-space:pre;fill:#666666;stroke-width:1;fill-opacity:1"
       d="m 162.54845,167.09267 v -3.132 c 0,-0.324 -0.0241,-0.44398 -0.084,-0.612 -0.18,-0.56398 -0.69599,-0.756 -1.248,-0.756 -0.54,0 -0.828,0.20408 -0.99599,0.34802 v -1.82402 h 2.088 v -0.972 h -3.024 v 4.26002 h 0.88799 v -0.18 c 0,-0.22802 0.036,-0.348 0.0839,-0.44402 0.072,-0.144 0.23998,-0.29998 0.612,-0.29998 0.63598,0 0.648,0.47998 0.648,0.708 v 2.72398 c 0,0.26402 0.0241,0.612 -0.24002,0.792 -0.11985,0.0839 -0.288,0.11985 -0.432,0.11985 -0.132,0 -0.276,-0.036 -0.384,-0.11985 -0.19192,-0.13215 -0.228,-0.34798 -0.228,-0.56398 v -1.176 h -1.008 v 1.248 c 0,0.252 0,0.468 0.108,0.70798 0.228,0.52802 0.828,0.67202 0.972,0.70802 0.252,0.0478 0.49202,0.0478 0.588,0.0478 0.216,0 1.27202,0.036 1.572,-0.912 0.0961,-0.288 0.0838,-0.564 0.0838,-0.672 z m 3.6,-4.95598 h -0.98399 l -0.56401,5.016 -0.56399,-5.016 h -0.98401 l 0.94801,6.43198 h 1.152 z"
       id="text66"
       aria-label="5v" />
    <path
       style="font-weight:500;font-stretch:condensed;font-family:'Akzidenz-Grotesk BQ Condensed A';-inkscape-font-specification:'Akzidenz-Grotesk BQ Condensed A Medium Condensed';white-space:pre"
       d="m 32.68951,196.52919 v -1.044 h -2.904 v 8.472 h 1.128 v -3.936 h 1.608 v -1.032 h -1.62 v -2.46 z m 4.104,7.428 c -0.192,-0.528 -0.216,-0.708 -0.216,-1.668 v -0.924 c 0,-0.696 -0.012,-1.044 -0.204,-1.344 -0.24,-0.372 -0.588,-0.324 -0.768,-0.36 0.18,-0.024 0.66,-0.012 0.864,-0.456 0.084,-0.192 0.12,-0.456 0.132,-0.672 0.024,-0.336 0.024,-0.672 0.024,-0.996 0,-0.576 -0.024,-0.996 -0.072,-1.212 -0.168,-0.768 -0.732,-0.804 -1.032,-0.828 -0.132,-0.012 -0.276,-0.012 -0.42,-0.012 h -1.824 v 8.472 h 1.116 v -3.9 h 0.456 c 0.132,0 0.252,0.024 0.36,0.108 0.144,0.132 0.18,0.336 0.204,0.54 0.036,0.288 0.048,0.588 0.048,0.876 v 0.6 c 0,0.804 0.024,0.984 0.168,1.776 z m -1.272,-6.504 c 0,0.588 -0.012,1.092 -0.06,1.296 -0.072,0.3 -0.24,0.372 -0.528,0.372 h -0.528 v -2.616 h 0.564 c 0.216,0 0.336,0 0.408,0.072 0.072,0.06 0.108,0.156 0.12,0.336 0.012,0.18 0.024,0.36 0.024,0.54 z m 4.812,6.504 v -1.068 h -1.656 v -2.808 h 1.476 v -1.056 h -1.488 v -2.484 h 1.668 v -1.056 h -2.796 v 8.472 z m 4.236,-2.184 v -3.984 c 0,-0.612 0.012,-1.308 -0.42,-1.812 -0.456,-0.54 -1.032,-0.552 -1.284,-0.552 -0.216,0 -0.768,0 -1.248,0.42 -0.432,0.36 -0.516,0.804 -0.552,1.008 -0.072,0.408 -0.06,1.032 -0.06,1.08 v 4.212 c 0,0.18 -0.048,1.104 0.612,1.572 0.144,0.096 0.276,0.168 0.612,0.264 0.036,0.756 0.12,1.44 0.984,1.62 0.312,0.072 0.756,0.048 1.08,0.036 v -1.032 c -0.18,0.024 -0.36,0.036 -0.54,0.036 -0.312,0 -0.54,-0.084 -0.54,-0.42 v -0.228 c 0.156,-0.024 0.228,-0.036 0.384,-0.096 0.096,-0.036 0.3,-0.12 0.504,-0.312 0.456,-0.444 0.444,-1.116 0.456,-1.296 0,-0.18 0.012,-0.348 0.012,-0.516 z m -1.104,0.168 c 0,0.552 -0.024,0.888 -0.252,1.068 -0.132,0.096 -0.288,0.12 -0.432,0.12 -0.408,-0.012 -0.564,-0.228 -0.612,-0.396 -0.036,-0.096 -0.048,-0.3 -0.048,-0.564 v -5.004 c 0,-0.024 0,-0.216 0.06,-0.36 0.096,-0.276 0.336,-0.408 0.624,-0.408 0.636,0 0.636,0.552 0.648,0.732 0,0.096 0.012,0.192 0.012,0.288 z m 5.604,-0.036 v -6.42 h -1.104 v 6.48 c 0,0.564 -0.012,0.864 -0.252,1.068 -0.156,0.132 -0.36,0.132 -0.432,0.132 -0.684,0 -0.672,-0.648 -0.672,-1.128 v -6.552 h -1.092 v 6.612 c 0,0.516 0.048,0.756 0.144,0.996 0.348,0.936 1.284,0.996 1.584,0.996 0.336,0 1.404,-0.06 1.716,-1.176 0.108,-0.396 0.108,-0.936 0.108,-1.008 z m 3.768,2.052 v -1.068 h -1.656 v -2.808 h 1.476 v -1.056 h -1.488 v -2.484 h 1.668 v -1.056 h -2.796 v 8.472 z m 4.236,0 v -8.472 h -1.056 l 0.048,5.772 -1.332,-5.772 h -1.2 v 8.472 h 1.044 l -0.096,-6.216 1.356,6.216 z m 4.596,-1.92 v -1.584 h -1.128 v 1.644 c 0,0.312 0.012,0.672 -0.276,0.876 -0.168,0.132 -0.36,0.12 -0.432,0.12 -0.624,0 -0.66,-0.456 -0.672,-0.684 -0.012,-0.096 -0.012,-0.192 -0.012,-0.288 v -4.68 c 0,-0.324 -0.024,-0.684 0.252,-0.924 0.096,-0.072 0.216,-0.144 0.456,-0.144 0.744,0 0.684,0.696 0.684,0.876 v 1.308 h 1.128 v -1.08 c 0,-0.408 -0.012,-0.792 -0.18,-1.176 -0.084,-0.204 -0.216,-0.384 -0.396,-0.528 -0.216,-0.18 -0.552,-0.372 -1.176,-0.372 -0.264,0 -0.468,0.024 -0.708,0.108 -1.08,0.348 -1.14,1.416 -1.164,1.74 -0.012,0.192 -0.024,0.384 -0.024,0.576 v 4.092 c 0,0.492 0,1.02 0.3,1.452 0.204,0.3 0.636,0.696 1.5,0.696 0.9,0 1.332,-0.444 1.536,-0.744 0.276,-0.408 0.312,-0.816 0.312,-1.284 z m 4.32,-6.552 h -1.128 l -0.852,3.384 -0.78,-3.384 h -1.14 l 1.284,4.932 v 3.54 h 1.212 v -3.552 z"
       id="text8"
       aria-label="FREQUENCY" />
    <path
       style="font-weight:500;font-stretch:condensed;font-family:'Akzidenz-Grotesk BQ Condensed A';-inkscape-font-specification:'Akzidenz-Grotesk BQ Condensed A Medium Condensed';white-space:pre"
       d="m 17.26606,302.35786 c 0,-0.492 -0.072,-1.128 -0.66,-2.052 -0.12,-0.192 -0.24,-0.372 -0.372,-0.552 -0.168,-0.252 -0.336,-0.492 -0.492,-0.744 -0.372,-0.588 -0.564,-0.984 -0.564,-1.692 0,-0.396 0.012,-0.864 0.552,-0.864 0.468,0 0.432,0.48 0.444,0.576 v 1.5 h 1.02 v -1.5 c 0,-0.336 -0.036,-0.48 -0.084,-0.636 -0.264,-0.828 -1.116,-0.816 -1.344,-0.816 -0.48,0 -0.78,0.12 -0.96,0.228 -0.348,0.204 -0.756,0.696 -0.756,1.632 0,0.984 0.468,1.704 0.648,1.992 0.324,0.54 0.708,1.032 1.02,1.584 0.312,0.528 0.408,0.864 0.408,1.476 0,0.384 0.012,0.984 -0.54,0.996 -0.18,0 -0.288,-0.072 -0.336,-0.108 -0.18,-0.12 -0.24,-0.3 -0.24,-0.708 v -1.548 h -1.032 v 1.404 c 0,0.492 0.024,0.948 0.372,1.344 0.18,0.216 0.552,0.504 1.236,0.504 0.372,0 0.6,-0.072 0.744,-0.132 0.948,-0.432 0.936,-1.704 0.936,-1.884 z m 4.056,1.86 v -8.472 h -1.116 v 3.444 h -1.032 v -3.444 h -1.116 v 8.472 h 1.116 v -3.936 h 1.032 v 3.936 z m 4.452,0 -1.308,-8.472 h -1.356 l -1.2,8.472 h 1.092 l 0.192,-1.56 h 1.272 l 0.216,1.56 z m -1.452,-2.592 h -1.008 l 0.468,-4.404 z m 5.34001,-2.82 v -1.608 c 0,-0.36 0.024,-0.828 -0.216,-1.128 -0.288,-0.372 -0.852,-0.324 -0.936,-0.324 h -2.184 v 8.472 h 1.092 v -3.84 h 1.116 c 0.444,0 0.66,-0.036 0.84,-0.204 0.276,-0.252 0.288,-0.66 0.288,-1.368 z m -1.128,0.192 c 0,0.288 -0.096,0.372 -0.396,0.372 h -0.708 v -2.592 h 0.684 c 0.348,0 0.42,0.108 0.42,0.42 z m 4.596,5.22 v -1.068 h -1.656 v -2.808 h 1.476 v -1.056 h -1.488 v -2.484 h 1.668 v -1.056 h -2.796 v 8.472 z"
       id="text13-1"
       aria-label="SHAPE" />
    <path
       style="font-weight:500;font-stretch:condensed;font-family:'Akzidenz-Grotesk BQ Condensed A';-inkscape-font-specification:'Akzidenz-Grotesk BQ Condensed A Medium Condensed';white-space:pre"
       d="m 137.81401,200.33243 v -1.608 c 0,-0.36 0.024,-0.828 -0.216,-1.128 -0.288,-0.372 -0.852,-0.324 -0.936,-0.324 h -2.184 v 8.472 h 1.092 v -3.84 h 1.116 c 0.444,0 0.66,-0.036 0.84,-0.204 0.276,-0.252 0.288,-0.66 0.288,-1.368 z m -1.128,0.192 c 0,0.288 -0.096,0.372 -0.396,0.372 h -0.708 v -2.592 h 0.684 c 0.348,0 0.42,0.108 0.42,0.42 z m 5.028,5.22 v -8.472 h -1.116 v 3.444 h -1.032 v -3.444 h -1.116 v 8.472 h 1.116 v -3.936 h 1.032 v 3.936 z m 4.452,0 -1.308,-8.472 h -1.356 l -1.2,8.472 h 1.092 l 0.192,-1.56 h 1.272 l 0.216,1.56 z m -1.452,-2.592 h -1.008 l 0.468,-4.404 z m 5.18401,0.732 c 0,-0.492 -0.072,-1.128 -0.66,-2.052 -0.12,-0.192 -0.24,-0.372 -0.372,-0.552 -0.168,-0.252 -0.336,-0.492 -0.492,-0.744 -0.372,-0.588 -0.564,-0.984 -0.564,-1.692 0,-0.396 0.012,-0.864 0.552,-0.864 0.468,0 0.432,0.48 0.444,0.576 v 1.5 h 1.02 v -1.5 c 0,-0.336 -0.036,-0.48 -0.084,-0.636 -0.264,-0.828 -1.116,-0.816 -1.344,-0.816 -0.48,0 -0.78,0.12 -0.96,0.228 -0.348,0.204 -0.756,0.696 -0.756,1.632 0,0.984 0.468,1.704 0.648,1.992 0.324,0.54 0.708,1.032 1.02,1.584 0.312,0.528 0.408,0.864 0.408,1.476 0,0.384 0.012,0.984 -0.54,0.996 -0.18,0 -0.288,-0.072 -0.336,-0.108 -0.18,-0.12 -0.24,-0.3 -0.24,-0.708 v -1.548 h -1.032 v 1.404 c 0,0.492 0.024,0.948 0.372,1.344 0.18,0.216 0.552,0.504 1.236,0.504 0.372,0 0.6,-0.072 0.744,-0.132 0.948,-0.432 0.936,-1.704 0.936,-1.884 z m 3.624,1.86 v -1.068 h -1.656 v -2.808 h 1.476 v -1.056 h -1.488 v -2.484 h 1.668 v -1.056 h -2.796 v 8.472 z"
       id="text11"
       aria-label="PHASE" />
    <path
       style="font-weight:500;font-stretch:condensed;font-size:5.33333px;font-family:'Akzidenz-Grotesk BQ Condensed A';-inkscape-font-specification:'Akzidenz-Grotesk BQ Condensed A Medium Condensed';white-space:pre;fill:#666666;stroke-width:1;fill-opacity:1"
       d="m 155.33609,83.60932 v -8.435993 h -0.73199 c -0.0241,0.144 -0.048,0.252 -0.108,0.384008 -0.072,0.191925 -0.20407,0.335992 -0.252,0.396 -0.33603,0.383985 -0.70801,0.407992 -0.90001,0.432 l -0.0105,0.828 h 0.93598 v 6.395985 z m 5.30398,-1.823985 v -4.956008 c 0,-0.432 -0.036,-0.587992 -0.096,-0.803992 -0.144,-0.468001 -0.54,-0.996008 -1.61998,-0.996008 -1.09202,0 -1.52402,0.54 -1.68002,1.008 -0.0478,0.168075 -0.0838,0.36 -0.0838,0.731992 v 4.896 c 0,0.516015 0,0.756 0.0838,1.020015 0.3,0.995985 1.368,1.008 1.632,1.008 0.456,0 0.936,-0.09607 1.296,-0.408015 0.348,-0.311985 0.468,-0.648 0.468,-1.499984 z m -1.03198,0.263992 c 0,0.09607 0.036,0.492008 -0.30002,0.684 -0.132,0.072 -0.25198,0.08392 -0.40798,0.08392 -0.76799,0 -0.72,-0.587992 -0.72,-0.828 v -5.387985 c 0,-0.468 0.20407,-0.756 0.72,-0.756 0.636,0 0.708,0.407993 0.708,0.9 z m 5.27998,-0.263992 v -4.956008 c 0,-0.432 -0.036,-0.587992 -0.096,-0.803992 -0.144,-0.468001 -0.54,-0.996008 -1.62,-0.996008 -1.09201,0 -1.524,0.54 -1.68,1.008 -0.0479,0.168075 -0.0839,0.36 -0.0839,0.731992 v 4.896 c 0,0.516015 0,0.756 0.0839,1.020015 0.3,0.995985 1.368,1.008 1.63199,1.008 0.45601,0 0.93601,-0.09607 1.296,-0.408015 0.34801,-0.311985 0.468,-0.648 0.468,-1.499985 z m -1.03198,0.263992 c 0,0.09607 0.036,0.492008 -0.30002,0.684 -0.13215,0.072 -0.252,0.08392 -0.40798,0.08392 -0.768,0 -0.72,-0.587992 -0.72,-0.828 v -5.387985 c 0,-0.468 0.20407,-0.756 0.72,-0.756 0.636,0 0.708,0.407993 0.708,0.9 z m 8.184,0.216 v -2.808 c 0,-0.227992 -0.0105,-0.407992 -0.0838,-0.623992 -0.228,-0.612 -0.864,-0.612 -1.044,-0.612 -0.59999,0 -0.88799,0.299992 -0.99599,0.54 -0.0961,0.204075 -0.0961,0.396 -0.0961,0.612 v 3.047985 c 0,0.420007 0.0105,0.804015 0.40799,1.068007 0.20407,0.132075 0.44401,0.18 0.684,0.18 0.144,0 0.78001,0 1.02001,-0.54 0.0962,-0.204075 0.108,-0.420007 0.108,-0.864 z m -1.10402,-7.188007 -0.58798,-0.239985 -3.708,8.831992 0.58798,0.252 z m -3.17998,4.020007 v -2.808 c 0,-0.384008 -0.0241,-1.224 -1.128,-1.224 -0.612,0 -0.9,0.299992 -0.996,0.528007 -0.0961,0.216001 -0.0961,0.407993 -0.0961,0.623993 v 3.048007 c 0,0.407993 0.012,0.803993 0.40801,1.067985 0.20408,0.132076 0.432,0.18 0.684,0.18 0.144,0 0.77999,0 1.01999,-0.551992 0.096,-0.204075 0.108,-0.407992 0.108,-0.864 z m 3.6,3.528 c 0,0.132075 -0.0105,0.456008 -0.42002,0.456008 -0.492,0 -0.432,-0.444015 -0.432,-0.564008 v -3.204 c 0,-0.132075 -0.0479,-0.515992 0.408,-0.528007 0.384,0 0.44402,0.300015 0.44402,0.444014 z m -4.29602,-3.156007 c 0,0.132074 0,0.444014 -0.408,0.444014 -0.49198,0 -0.432,-0.431999 -0.432,-0.552014 v -3.204001 c 0,-0.132074 -0.0478,-0.515992 0.40802,-0.527985 0.38398,0 0.43198,0.252001 0.43198,0.396001 z"
       id="text47"
       aria-label="100%" />
    <path
       style="font-weight:500;font-stretch:condensed;font-family:'Akzidenz-Grotesk BQ Condensed A';-inkscape-font-specification:'Akzidenz-Grotesk BQ Condensed A Medium Condensed';white-space:pre"
       d="m 131.93458,22.44663 c 0,-0.492 -0.072,-1.128 -0.66,-2.052 -0.12,-0.192 -0.24,-0.372 -0.372,-0.552 -0.168,-0.252 -0.336,-0.492 -0.492,-0.744 -0.372,-0.588 -0.564,-0.984 -0.564,-1.692 0,-0.396 0.012,-0.864 0.552,-0.864 0.468,0 0.432,0.48 0.444,0.576 v 1.5 h 1.02 v -1.5 c 0,-0.336 -0.036,-0.48 -0.084,-0.636 -0.264,-0.828 -1.116,-0.816 -1.344,-0.816 -0.48,0 -0.78,0.12 -0.96,0.228 -0.348,0.204 -0.756,0.696 -0.756,1.632 0,0.984 0.468,1.704 0.648,1.992 0.324,0.54 0.708,1.032 1.02,1.584 0.312,0.528 0.408,0.864 0.408,1.476 0,0.384 0.012,0.984 -0.54,0.996 -0.18,0 -0.288,-0.072 -0.336,-0.108 -0.18,-0.12 -0.24,-0.3 -0.24,-0.708 v -1.548 h -1.032 v 1.404 c 0,0.492 0.024,0.948 0.372,1.344 0.18,0.216 0.552,0.504 1.236,0.504 0.372,0 0.6,-0.072 0.744,-0.132 0.948,-0.432 0.936,-1.704 0.936,-1.884 z m 4.2,-5.616 v -0.996 h -3.744 v 0.996 h 1.284 v 7.476 h 1.14 v -7.476 z m 4.05601,7.476 -1.308,-8.472 h -1.356 l -1.2,8.472 h 1.092 l 0.192,-1.56 h 1.272 l 0.216,1.56 z m -1.452,-2.592 h -1.008 l 0.468,-4.404 z m 5.316,0.312 c 0,-0.228 -0.012,-0.444 -0.012,-0.66 -0.012,-0.588 0.012,-0.912 -0.12,-1.152 -0.156,-0.276 -0.504,-0.36 -0.804,-0.384 0,0 0.228,-0.036 0.348,-0.072 0.18,-0.048 0.372,-0.168 0.456,-0.348 0.12,-0.24 0.108,-0.612 0.108,-0.66 0.012,-0.264 0.024,-0.528 0.024,-0.792 0,-0.144 -0.012,-0.288 -0.012,-0.432 -0.012,-0.756 -0.012,-1.152 -0.312,-1.44 -0.276,-0.252 -0.648,-0.252 -0.996,-0.252 h -1.98 v 8.472 h 1.704 c 0.396,0 0.876,0.012 1.212,-0.264 0.36,-0.312 0.348,-0.888 0.36,-0.984 0.024,-0.348 0.024,-0.684 0.024,-1.032 z m -1.104,-3.924 c 0,0.408 -0.012,0.684 -0.036,0.852 -0.048,0.42 -0.3,0.432 -0.648,0.432 h -0.432 v -2.544 h 0.552 c 0.204,0 0.324,0 0.408,0.072 0.072,0.06 0.108,0.168 0.12,0.396 0.024,0.264 0.036,0.528 0.036,0.792 z m 0.024,3.684 c 0,0.492 -0.024,1.056 -0.036,1.188 -0.048,0.312 -0.276,0.288 -0.528,0.288 h -0.576 v -2.952 h 0.624 c 0.108,0 0.252,0.012 0.348,0.096 0.12,0.12 0.132,0.372 0.144,0.528 0.012,0.288 0.024,0.564 0.024,0.852 z m 3.072,2.52 v -8.472 h -1.104 v 8.472 z m 3.936,0 v -1.044 h -1.848 v -7.428 h -1.116 v 8.472 z m 1.57199,0 v -8.472 h -1.104 v 8.472 z m 4.332,-7.476 v -0.996 h -3.744 v 0.996 h 1.284 v 7.476 h 1.14 v -7.476 z m 4.068,-0.996 h -1.128 l -0.852,3.384 -0.78,-3.384 h -1.14 l 1.284,4.932 v 3.54 h 1.212 v -3.552 z"
       id="text1"
       aria-label="STABILITY"
       sodipodi:nodetypes="scccsscccscscsccsccsccscscsccccccccccccccccccccccsccccccsccsccsccsscsccsccsscsccsccscccccccccccccccccccccccccccccccccccc" />
    <g
       id="g73"
       transform="matrix(1.5,0,0,1.5,102.52718,10.87539)"
       style="display:inline;stroke:#666666;stroke-width:1.25984;stroke-dasharray:none;stroke-opacity:1">
      <path
         style="fill:none;fill-opacity:1;stroke:#666666;stroke-width:1.25984;stroke-linecap:round;stroke-linejoin:round;stroke-dasharray:none;stroke-opacity:1"
         d="m 14.400001,164.40945 v 1.88976"
         id="path72" />
    </g>
    <path
       style="font-weight:500;font-stretch:condensed;font-size:5.33333px;font-family:'Akzidenz-Grotesk BQ Condensed A';-inkscape-font-specification:'Akzidenz-Grotesk BQ Condensed A Medium Condensed';white-space:pre;fill:#666666;stroke-width:1;fill-opacity:1"
       d="m 123.47756,81.785335 v -4.956008 c 0,-0.432 -0.036,-0.587992 -0.0961,-0.803992 -0.144,-0.468001 -0.54,-0.996008 -1.61998,-0.996008 -1.09203,0 -1.52402,0.54 -1.68002,1.008 -0.0479,0.168075 -0.0839,0.36 -0.0839,0.731992 v 4.896 c 0,0.516015 0,0.756 0.0839,1.020015 0.3,0.995985 1.368,1.008 1.632,1.008 0.456,0 0.936,-0.09607 1.296,-0.408015 0.348,-0.311985 0.46799,-0.648 0.46799,-1.499985 z m -1.032,0.263992 c 0,0.09607 0.036,0.492008 -0.30001,0.684 -0.13215,0.072 -0.25201,0.08392 -0.40799,0.08392 -0.768,0 -0.72,-0.587992 -0.72,-0.828 v -5.387985 c 0,-0.468 0.20407,-0.756 0.72,-0.756 0.636,0 0.708,0.407993 0.708,0.9 z m 8.184,0.216 v -2.808 c 0,-0.227992 -0.0105,-0.407992 -0.0838,-0.623992 -0.228,-0.612 -0.86399,-0.612 -1.04399,-0.612 -0.6,0 -0.888,0.299992 -0.996,0.54 -0.096,0.204075 -0.096,0.396 -0.096,0.612 v 3.047985 c 0,0.420007 0.0105,0.804015 0.40802,1.068007 0.20407,0.132075 0.444,0.18 0.684,0.18 0.144,0 0.77998,0 1.02,-0.54 0.096,-0.204075 0.108,-0.420007 0.108,-0.864 z m -1.10402,-7.188007 -0.58798,-0.239985 -3.708,8.831992 0.588,0.252 z m -3.17998,4.020007 v -2.808 c 0,-0.384008 -0.024,-1.224 -1.12799,-1.224 -0.61201,0 -0.90001,0.299992 -0.99601,0.528007 -0.096,0.216001 -0.096,0.407993 -0.096,0.623993 v 3.048007 c 0,0.407993 0.0105,0.803993 0.40801,1.067985 0.20408,0.132076 0.432,0.18 0.684,0.18 0.144,0 0.77999,0 1.01999,-0.551992 0.096,-0.204075 0.108,-0.407992 0.108,-0.864 z m 3.6,3.528 c 0,0.132075 -0.0105,0.456008 -0.42002,0.456008 -0.49198,0 -0.432,-0.444015 -0.432,-0.564008 v -3.204 c 0,-0.132075 -0.0478,-0.515992 0.40802,-0.528007 0.38398,0 0.444,0.300015 0.444,0.444014 z m -4.296,-3.156007 c 0,0.132074 0,0.444014 -0.40801,0.444014 -0.49199,0 -0.432,-0.431999 -0.432,-0.552014 v -3.204001 c 0,-0.132074 -0.048,-0.515992 0.40801,-0.527985 0.38398,0 0.432,0.252001 0.432,0.396001 z"
       id="text48"
       aria-label="0%" />
    <g
       id="g77"
       transform="matrix(1.598425,0,0,2,132.01025,-94.478935)"
       style="display:inline;stroke:#666666;stroke-width:1.05693;stroke-dasharray:none;stroke-opacity:1">
      <path
         style="fill:none;fill-opacity:1;stroke:#666666;stroke-width:1.05693;stroke-linecap:round;stroke-linejoin:round;stroke-dasharray:none;stroke-opacity:1"
         d="m 14.400001,175.74803 v 1.88976"
         id="path76" />
      <path
         style="fill:none;fill-opacity:1;stroke:#666666;stroke-width:1.05693;stroke-linecap:round;stroke-linejoin:round;stroke-dasharray:none;stroke-opacity:1"
         d="m 24.000002,175.74803 v 1.88976"
         id="path77" />
    </g>
    <path
       style="font-weight:500;font-stretch:condensed;font-size:10px;font-family:'Akzidenz-Grotesk BQ Condensed A';-inkscape-font-specification:'Akzidenz-Grotesk BQ Condensed A Medium Condensed';white-space:pre;fill:#666666;stroke-width:1;fill-opacity:1"
       d="m 26.505595,165.58067 v -1.008 h -2.123999 v 1.008 z m 4.14,1.512 v -3.132 c 0,-0.324 -0.02407,-0.44398 -0.08393,-0.612 -0.18,-0.56398 -0.695992,-0.756 -1.247985,-0.756 -0.54,0 -0.827999,0.20408 -0.996007,0.34802 v -1.82402 h 2.088 v -0.972 h -3.024 v 4.26002 h 0.888008 v -0.18 c 0,-0.22802 0.036,-0.348 0.08393,-0.44402 0.072,-0.144 0.240007,-0.29998 0.612,-0.29998 0.636007,0 0.647999,0.47998 0.647999,0.708 v 2.72398 c 0,0.26402 0.02408,0.61202 -0.240007,0.792 -0.119925,0.084 -0.288,0.11985 -0.432,0.11985 -0.132075,0 -0.275985,-0.036 -0.383985,-0.11985 -0.191925,-0.132 -0.228015,-0.34798 -0.228015,-0.56397 v -1.17601 h -1.008 v 1.248 c 0,0.252 0,0.468 0.108,0.70798 0.228015,0.52802 0.828,0.67202 0.972,0.70802 0.252,0.0478 0.492007,0.0478 0.588015,0.0478 0.216,0 1.271992,0.036 1.571985,-0.912 0.09607,-0.288 0.08392,-0.564 0.08392,-0.672 z m 3.6,-4.95597 H 33.26158 l -0.563985,5.01599 -0.564007,-5.01599 h -0.983993 l 0.947993,6.43197 h 1.152 z"
       id="text78"
       aria-label="-5v" />
    <path
       style="font-weight:500;font-stretch:condensed;font-size:5.33333px;font-family:'Akzidenz-Grotesk BQ Condensed A';-inkscape-font-specification:'Akzidenz-Grotesk BQ Condensed A Medium Condensed';white-space:pre;fill:#666666;stroke-width:1;fill-opacity:1"
       d="m 66.557748,167.09267 v -3.132 c 0,-0.324 -0.02408,-0.44398 -0.08393,-0.612 -0.18,-0.56398 -0.695993,-0.756 -1.248008,-0.756 -0.54,0 -0.828,0.20408 -0.995985,0.34802 v -1.82402 h 2.088 v -0.972 h -3.024 v 4.26002 h 0.887985 v -0.18 c 0,-0.22802 0.036,-0.348 0.08392,-0.44402 0.072,-0.144 0.239985,-0.29998 0.612,-0.29998 0.635985,0 0.648,0.47998 0.648,0.708 v 2.72398 c 0,0.26402 0.02407,0.612 -0.240008,0.792 -0.119925,0.0839 -0.287999,0.11985 -0.431999,0.11985 -0.132075,0 -0.276008,-0.036 -0.384008,-0.11985 -0.191925,-0.13215 -0.227992,-0.34798 -0.227992,-0.56398 v -1.176 h -1.008 v 1.248 c 0,0.252 0,0.468 0.108,0.70798 0.227992,0.52802 0.828,0.67202 0.972,0.70802 0.252,0.0478 0.492007,0.0478 0.587992,0.0478 0.216,0 1.272015,0.036 1.572008,-0.912 0.09607,-0.288 0.08393,-0.564 0.08393,-0.672 z m 3.6,-4.95598 h -0.983993 l -0.564008,5.016 -0.563985,-5.016 h -0.984015 l 0.948015,6.43198 h 1.152 z"
       id="text80"
       aria-label="5v" />
    <path
       style="font-weight:500;font-stretch:condensed;font-size:5.33333px;font-family:'Akzidenz-Grotesk BQ Condensed A';-inkscape-font-specification:'Akzidenz-Grotesk BQ Condensed A Medium Condensed';white-space:pre;fill:#ababab;fill-opacity:1;stroke-width:1"
       d="m 111.48401,89.018491 v -2.088 c 0,-0.216 -0.016,-0.295995 -0.0559,-0.408 -0.12,-0.37599 -0.464,-0.504 -0.83201,-0.504 -0.36,0 -0.552,0.13605 -0.66399,0.232005 v -1.216005 h 1.392 v -0.648 h -2.016 v 2.84001 h 0.59199 v -0.12 c 0,-0.15201 0.024,-0.232005 0.056,-0.29601 0.048,-0.096 0.15999,-0.199995 0.408,-0.199995 0.42399,0 0.432,0.319995 0.432,0.472005 v 1.81599 c 0,0.17601 0.016,0.408 -0.16,0.528 -0.0799,0.05595 -0.192,0.07995 -0.288,0.07995 -0.088,0 -0.18401,-0.024 -0.25601,-0.07995 -0.12795,-0.08805 -0.15199,-0.23199 -0.15199,-0.37599 v -0.784005 h -0.672 v 0.832005 c 0,0.168 0,0.312 0.072,0.47199 0.15199,0.352005 0.552,0.448005 0.648,0.472005 0.168,0.03195 0.328,0.03195 0.39199,0.03195 0.144,0 0.84801,0.024 1.048,-0.607995 0.0641,-0.192 0.056,-0.376005 0.056,-0.448005 z m 2.4,-3.30399 h -0.656 l -0.376,3.343995 -0.376,-3.343995 H 111.82 l 0.63201,4.28799 h 0.768 z"
       id="text50"
       aria-label="5v" />
    <path
       style="font-weight:500;font-stretch:condensed;font-size:5.33333px;font-family:'Akzidenz-Grotesk BQ Condensed A';-inkscape-font-specification:'Akzidenz-Grotesk BQ Condensed A Medium Condensed';white-space:pre;fill:#ababab;fill-opacity:1;stroke-width:1"
       d="m 111.44668,126.71063 v -2.088 c 0,-0.216 -0.0161,-0.29599 -0.0559,-0.408 -0.12,-0.37599 -0.464,-0.504 -0.83201,-0.504 -0.36,0 -0.552,0.13605 -0.66399,0.23201 v -1.21601 h 1.392 v -0.648 h -2.016 v 2.84001 h 0.59199 v -0.12 c 0,-0.15201 0.024,-0.232 0.056,-0.29601 0.048,-0.096 0.15999,-0.19999 0.408,-0.19999 0.42399,0 0.432,0.31999 0.432,0.472 v 1.81599 c 0,0.17601 0.0161,0.408 -0.16,0.528 -0.0799,0.056 -0.192,0.08 -0.288,0.08 -0.088,0 -0.18401,-0.024 -0.25601,-0.08 -0.12795,-0.088 -0.15199,-0.23199 -0.15199,-0.37599 v -0.784 h -0.672 v 0.832 c 0,0.168 0,0.312 0.072,0.47199 0.15199,0.35201 0.552,0.44801 0.648,0.47201 0.168,0.0319 0.328,0.0319 0.39199,0.0319 0.144,0 0.84801,0.024 1.048,-0.608 0.0641,-0.192 0.056,-0.376 0.056,-0.448 z m 2.4,-3.30399 h -0.656 l -0.376,3.344 -0.376,-3.344 h -0.65601 l 0.63201,4.28799 h 0.768 z"
       id="text69"
       aria-label="5v" />
    <path
       style="fill:none;stroke:#231f20;stroke-linecap:round;stroke-linejoin:round"
       d="M 95.600008,87.149606 V 124.94488"
       id="path2" />
    <path
       style="fill:none;stroke:#231f20;stroke-linecap:round;stroke-linejoin:round"
       d="M 114.80001,106.04725 H 76.400007"
       id="path3" />
    <path
       style="font-weight:500;font-stretch:condensed;font-size:5.33333px;font-family:'Akzidenz-Grotesk BQ Condensed A';-inkscape-font-specification:'Akzidenz-Grotesk BQ Condensed A Medium Condensed';white-space:pre;fill:#ababab;stroke-width:1;fill-opacity:1"
       d="m 81.169335,84.943824 v -2.088 c 0,-0.216 -0.01605,-0.295995 -0.05595,-0.408 -0.12,-0.37599 -0.463995,-0.504 -0.832005,-0.504 -0.36,0 -0.552,0.13605 -0.66399,0.232005 v -1.216005 h 1.392 v -0.648 h -2.016 v 2.84001 h 0.59199 v -0.12 c 0,-0.15201 0.024,-0.232005 0.05595,-0.29601 0.048,-0.096 0.15999,-0.199995 0.408,-0.199995 0.42399,0 0.432,0.319995 0.432,0.472005 v 1.81599 c 0,0.17601 0.01605,0.408 -0.160005,0.528 -0.07995,0.05595 -0.192,0.07995 -0.288,0.07995 -0.08805,0 -0.184005,-0.024 -0.256005,-0.07995 -0.12795,-0.08805 -0.151995,-0.23199 -0.151995,-0.37599 v -0.784005 h -0.672 v 0.832005 c 0,0.168 0,0.312 0.072,0.47199 0.151995,0.352005 0.552,0.448005 0.648,0.472005 0.168,0.03195 0.328005,0.03195 0.391995,0.03195 0.144,0 0.84801,0.024 1.048005,-0.607995 0.06405,-0.192 0.05595,-0.376005 0.05595,-0.448005 z m 2.4,-3.30399 H 82.91334 l -0.376005,3.343995 -0.37599,-3.343995 h -0.65601 l 0.63201,4.28799 h 0.768 z"
       id="text71"
       aria-label="5v" />
    <path
       style="font-weight:500;font-stretch:condensed;font-size:5.33333px;font-family:'Akzidenz-Grotesk BQ Condensed A';-inkscape-font-specification:'Akzidenz-Grotesk BQ Condensed A Medium Condensed';white-space:pre;fill:#ababab;fill-opacity:1;stroke-width:1"
       d="m 78.735995,125.70263 v -0.672 h -1.416 v 0.672 z m 2.76,1.008 v -2.088 c 0,-0.216 -0.01605,-0.29599 -0.05595,-0.408 -0.12,-0.37599 -0.463995,-0.504 -0.83199,-0.504 -0.36,0 -0.552,0.13605 -0.664005,0.23201 v -1.21601 h 1.392 v -0.648 h -2.016 v 2.84001 h 0.592005 v -0.12 c 0,-0.15201 0.024,-0.232 0.05595,-0.29601 0.048,-0.096 0.160005,-0.19999 0.408,-0.19999 0.424005,0 0.432,0.31999 0.432,0.472 v 1.81599 c 0,0.17601 0.01605,0.408 -0.160005,0.528 -0.07995,0.056 -0.192,0.08 -0.288,0.08 -0.08805,0 -0.18399,-0.024 -0.25599,-0.08 -0.12795,-0.088 -0.15201,-0.23199 -0.15201,-0.37599 v -0.784 H 79.28 v 0.832 c 0,0.168 0,0.312 0.072,0.47199 0.15201,0.35201 0.552,0.44801 0.648,0.47201 0.168,0.0319 0.328005,0.0319 0.39201,0.0319 0.144,0 0.847995,0.024 1.04799,-0.608 0.06405,-0.192 0.05595,-0.376 0.05595,-0.448 z m 2.4,-3.30399 h -0.65601 l -0.37599,3.344 -0.376005,-3.344 h -0.655995 l 0.631995,4.28799 h 0.768 z"
       id="text75"
       aria-label="-5v" />
    <path
       style="fill:none;fill-opacity:1;stroke:#666666;stroke-linecap:round;stroke-linejoin:round;stroke-opacity:1"
       d="m 115.20001,87.149606 h 4.8 v 37.795274 h -4.8"
       id="path79" />
    <path
       style="fill:#e6e6e6;fill-opacity:1;stroke:#666666;stroke-linecap:round;stroke-linejoin:round;stroke-opacity:1"
       d="m 76.800007,87.149604 h -4.8"
       id="path80" />
    <path
       style="fill:#e6e6e6;fill-opacity:1;stroke:#666666;stroke-linecap:round;stroke-linejoin:round;stroke-opacity:1"
       d="m 76.800006,124.94488 h -4.8"
       id="path81" />
    <path
       style="fill:#e6e6e6;fill-opacity:1;stroke:#666666;stroke-width:0.999997;stroke-linecap:round;stroke-linejoin:round;stroke-opacity:1"
       d="m 74.400006,96.59842 h -2.4"
       id="path82" />
    <path
       style="fill:#e6e6e6;fill-opacity:1;stroke:#666666;stroke-width:0.999997;stroke-linecap:round;stroke-linejoin:round;stroke-opacity:1"
       d="m 74.400006,115.49606 h -2.4"
       id="path83" />
    <path
       style="fill:#e6e6e6;fill-opacity:1;stroke:#666666;stroke-width:1;stroke-linecap:round;stroke-linejoin:round;stroke-opacity:1"
       d="M 74.150007,106.04724 H 71.750006"
       id="path84" />
    <path
       style="fill:#e6e6e6;fill-opacity:1;stroke:#666666;stroke-width:1;stroke-linecap:round;stroke-linejoin:round;stroke-opacity:1"
       d="M 68.936211,106.04724 H 62.563797"
       id="path85" />
    <path
       style="fill:#e6e6e6;fill-opacity:1;stroke:#666666;stroke-width:1;stroke-linecap:round;stroke-linejoin:round;stroke-opacity:1"
       d="m 128.77243,106.04724 h -6.37242"
       id="path86" />
    <path
       style="fill:none;fill-opacity:1;stroke:#666666;stroke-width:1.32283;stroke-linecap:round;stroke-linejoin:round;stroke-dasharray:none;stroke-opacity:1"
       d="m 60.000005,260.7874 v -3.77953 h 2.399999 v 3.77953 h 2.400002 v -3.77953 h 2.399999 v 3.77953 h 2.4 v -3.77953 h 2.400001 v 3.77953"
       id="path91" />
    <path
       style="fill:none;fill-opacity:1;stroke:#666666;stroke-width:1.32284;stroke-linecap:round;stroke-linejoin:round;stroke-dasharray:none;stroke-opacity:1"
       d="m 24.000007,261.00788 v -3.77953 h 6.000001 v 3.77953 h 6 v -3.77953"
       id="path92" />
    <text
       xml:space="preserve"
       id="text92"
       style="font-weight:500;font-stretch:condensed;font-size:16px;font-family:'Akzidenz-Grotesk BQ Condensed A';-inkscape-font-specification:'Akzidenz-Grotesk BQ Condensed A Medium Condensed';text-align:start;writing-mode:lr-tb;direction:ltr;white-space:pre;shape-inside:url(#rect92);fill:#666666;fill-opacity:1;stroke:#666666;stroke-width:1.32283;stroke-linecap:round;stroke-linejoin:round;stroke-dasharray:none;stroke-opacity:1"><tspan
         x="66.46875"
         y="496.44863"
         id="tspan2"><tspan
           dx="0 7.29599 3.776001 8.2720032 8.2720032 7.5679932 3.7600098 3.29599 6.9599915 8.2720032 8.2720032 6.4159851 4.9760132 3.776001 8.0639954 8.2720032 3.29599 7.29599 7.5679932"
           style="fill:none"
           id="tspan1">Signal Function Set</tspan></tspan></text>
    <path
       style="fill:none;fill-opacity:1;stroke:#666666;stroke-width:1.32283;stroke-linecap:round;stroke-linejoin:round;stroke-dasharray:none;stroke-opacity:1"
       d="m 19.841567,51.354304 2.4,-3.165328 3.516871,5.669291 1.944544,-2.503979"
       id="path5"
       sodipodi:nodetypes="cccc" />
    <g
       id="g26"
       transform="matrix(2.2677166,0,0,2.2677166,-74.078739,236.22048)">
      <path
         style="fill:none;stroke:#000000;stroke-width:0.499999;stroke-linecap:round;stroke-linejoin:round;stroke-opacity:1"
         d="M 54.999999,105 H 56 v -0.99999 h 1.000001 V 106 h 0.999998 v -2.99999 h 1 v 4 H 60 V 102 h 1.000001 v 5.00001 h 0.999998 v -3 h 1 V 106 H 64 v -1 h 1"
         id="path12" />
      <path
         style="fill:none;stroke:#000000;stroke-width:0.499999;stroke-linecap:square;stroke-linejoin:bevel;stroke-opacity:1"
         d="m 70.000002,107 3,-5 c 0,1.09352 0.83821,2.99999 1.999999,2.99999 0,0 2,0 4.000001,1e-5 l 1,2"
         id="path13"
         sodipodi:nodetypes="ccscc" />
      <path
         style="fill:none;stroke:#000000;stroke-width:0.499999;stroke-linecap:square;stroke-linejoin:bevel;stroke-opacity:1"
         d="m 86.000002,102 h -1.000001 v 5.99999 h 1.000001"
         id="path17" />
      <path
         style="fill:none;stroke:#000000;stroke-width:0.499999;stroke-linecap:square;stroke-linejoin:bevel;stroke-opacity:1"
         d="m 94.000002,102 h 1 v 5.99999 l -1,1e-5"
         id="path18"
         sodipodi:nodetypes="cccc" />
      <path
         style="fill:none;stroke:#000000;stroke-width:0.499999;stroke-linecap:butt;stroke-linejoin:bevel;stroke-opacity:1"
         d="m 87.000002,102.52917 1.999999,2"
         id="path21" />
      <path
         style="fill:none;stroke:#000000;stroke-width:0.499999;stroke-linecap:butt;stroke-linejoin:bevel;stroke-opacity:1"
         d="m 89.000001,102.52917 -1.999999,2"
         id="path22" />
      <path
         style="fill:none;stroke:#000000;stroke-width:0.499999;stroke-linecap:butt;stroke-linejoin:bevel;stroke-opacity:1"
         d="m 87.000003,105.52917 1.999999,1.99999"
         id="path23-5" />
      <path
         style="fill:none;stroke:#000000;stroke-width:0.499999;stroke-linecap:butt;stroke-linejoin:bevel;stroke-opacity:1"
         d="m 87.000003,107.52916 1.999999,-1.99999"
         id="path24" />
      <path
         style="fill:none;stroke:#000000;stroke-width:0.499999;stroke-linecap:butt;stroke-linejoin:bevel;stroke-opacity:1"
         d="m 91.000002,102.52917 1.999999,2"
         id="path25-3" />
      <path
         style="fill:none;stroke:#000000;stroke-width:0.499999;stroke-linecap:butt;stroke-linejoin:bevel;stroke-opacity:1"
         d="m 93.000001,102.52917 -1.999999,2"
         id="path26-7" />
      <rect
         style="fill:none;stroke:#000000;stroke-width:0.499999;stroke-linecap:butt;stroke-linejoin:bevel;stroke-opacity:1"
         id="rect26"
         width="2"
         height="1.9999999"
         x="91"
         y="105.52919" />
    </g>
  </g>
  <g
     inkscape:groupmode="layer"
     id="layer1"
     inkscape:label="components"
     style="display:inline">
    <circle
       style="fill:#ff0000;stroke:none"
       id="circle10"
       cx="48.000004"
       cy="236.22047"
       r="13.020405"
       inkscape:label="ParamFrequency" />
    <circle
       style="display:inline;fill:#ff0000;stroke:none"
       id="path1"
       cx="47.802315"
       cy="58.344349"
       r="13.020405"
       inkscape:label="ParamShape"
       transform="translate(0.1976891,-1.6514366)" />
    <circle
       style="display:inline;fill:#ff0000;stroke:none"
       id="circle8"
       cx="47.802315"
       cy="236.07457"
       r="13.020405"
       inkscape:label="ParamCenter"
       transform="translate(0.19768934,-94.50687)" />
    <circle
       style="fill:#ff0000;stroke:none"
       id="circle9"
       cx="144.00002"
       cy="141.73228"
       r="13.020405"
       inkscape:label="ParamXSpread" />
    <circle
       style="fill:#ff0000;stroke:none"
       id="circle11"
       cx="144.00002"
       cy="56.692913"
       r="13.020405"
       inkscape:label="ParamStability" />
    <circle
       style="fill:#ff0000;stroke:none"
       id="circle12"
       cx="144.00002"
       cy="236.22047"
       r="13.020405"
       inkscape:label="ParamYSpread" />
    <circle
       style="fill:#00ff00;stroke:none;stroke-width:1"
       id="circle13"
       cx="23.832815"
       cy="322.64069"
       r="4.3401351"
       inkscape:label="InShape" />
    <circle
       style="fill:#0000ff;fill-opacity:1;stroke:none;stroke-width:1"
       id="circle15"
       cx="23.832815"
       cy="443.5784"
       r="4.3401351"
       inkscape:label="OutA" />
    <circle
       style="fill:#0000ff;fill-opacity:1;stroke:none;stroke-width:1"
       id="circle16"
       cx="71.639389"
       r="4.3401351"
       inkscape:label="OutB"
       cy="443.5784" />
    <circle
       style="fill:#0000ff;fill-opacity:1;stroke:none;stroke-width:1"
       id="circle17"
       cx="119.31353"
       cy="443.5784"
       r="4.3401351"
       inkscape:label="OutC" />
    <circle
       style="fill:#0000ff;fill-opacity:1;stroke:none;stroke-width:1"
       id="circle18"
       cx="166.98767"
       cy="443.5784"
       r="4.3401351"
       inkscape:label="OutD" />
    <circle
       style="fill:#0000ff;fill-opacity:1;stroke:none;stroke-width:1"
       id="circle19"
       cx="166.98767"
       cy="385.63715"
       r="4.3401351"
       inkscape:label="OutMax" />
    <circle
       style="fill:#00ff00;stroke:none;stroke-width:1"
       id="circle20"
       cx="119.31353"
       cy="385.63715"
       r="4.3401351"
       inkscape:label="InYSpread" />
    <circle
       style="fill:#00ff00;stroke:none;stroke-width:1"
       id="circle21"
       cx="71.639389"
       cy="385.63715"
       r="4.3401351"
       inkscape:label="InCenter" />
    <circle
       style="fill:#0000ff;fill-opacity:1;stroke:none;stroke-width:1"
       id="circle22"
       cx="23.639292"
       cy="387.22815"
       r="4.3401351"
       inkscape:label="OutMin" />
    <circle
       style="fill:#00ff00;stroke:none;stroke-width:1"
       id="circle23"
       cx="166.98767"
       cy="322.64069"
       r="4.3401351"
       inkscape:label="InSpread" />
    <circle
       style="fill:#00ff00;stroke:none;stroke-width:1"
       id="circle24"
       cx="119.31353"
       cy="322.64069"
       r="4.3401351"
       inkscape:label="InFrequency" />
    <circle
       style="fill:#00ff00;stroke:none;stroke-width:1"
       id="circle25"
       cx="71.639389"
       cy="322.64069"
       r="4.3401351"
       inkscape:label="InStability" />
  </g>
</svg>
