<?xml version="1.0" encoding="UTF-8" standalone="no"?>
<svg
   version="1.1"
   viewBox="0 0 191.99999 485.6693"
   id="svg31"
   sodipodi:docname="quadlfo.svg"
   inkscape:version="1.4.2 (ebf0e940, 2025-05-08)"
   width="50.799999mm"
   height="128.5mm"
   xmlns:inkscape="http://www.inkscape.org/namespaces/inkscape"
   xmlns:sodipodi="http://sodipodi.sourceforge.net/DTD/sodipodi-0.dtd"
   xmlns="http://www.w3.org/2000/svg"
   xmlns:svg="http://www.w3.org/2000/svg">
  <sodipodi:namedview
     id="namedview31"
     pagecolor="#ffffff"
     bordercolor="#000000"
     borderopacity="0.25"
     inkscape:showpageshadow="2"
     inkscape:pageopacity="0.0"
     inkscape:pagecheckerboard="0"
     inkscape:deskcolor="#d1d1d1"
     showgrid="false"
     inkscape:zoom="1.9999999"
     inkscape:cx="84.750004"
     inkscape:cy="212.00001"
     inkscape:window-width="1152"
     inkscape:window-height="1387"
     inkscape:window-x="0"
     inkscape:window-y="25"
     inkscape:window-maximized="0"
     inkscape:current-layer="svg31"
     inkscape:document-units="mm"
     showguides="false">
    <inkscape:grid
       id="grid22"
       units="mm"
       originx="0"
       originy="0"
       spacingx="2.4"
       spacingy="1.8897638"
       empcolor="#0099e5"
       empopacity="0.30196078"
       color="#0099e5"
       opacity="0.14902"
       empspacing="5"
       enabled="true"
       visible="false" />
    <sodipodi:guide
       position="48.000002,249.44883"
       orientation="1,0"
       id="guide71"
       inkscape:locked="false" />
    <sodipodi:guide
       position="144.00001,208.9193"
       orientation="1,0"
       id="guide72"
       inkscape:locked="false" />
  </sodipodi:namedview>
  <!-- Generator: Adobe Illustrator 29.7.1, SVG Export Plug-In . SVG Version: 2.1.1 Build 8)  -->
  <defs
     id="defs1">
    <inkscape:path-effect
       effect="fillet_chamfer"
       id="path-effect55"
       is_visible="true"
       lpeversion="1"
       nodesatellites_param="F,0,0,1,0,0,0,1 @ F,0,0,1,0,2.4999999,0,1 @ F,0,0,1,0,2.4999999,0,1 @ F,0,0,1,0,2.4999999,0,1 @ F,0,0,1,0,2.4999999,0,1 @ F,0,0,1,0,2.4999999,0,1"
       radius="2.5"
       unit="px"
       method="auto"
       mode="F"
       chamfer_steps="1"
       flexible="false"
       use_knot_distance="true"
       apply_no_radius="true"
       apply_with_radius="true"
       only_selected="false"
       hide_knots="false" />
    <inkscape:path-effect
       effect="fillet_chamfer"
       id="path-effect54"
       is_visible="true"
       lpeversion="1"
       nodesatellites_param="F,0,0,1,0,0,0,1 @ F,0,0,1,0,1.1999999,0,1 @ F,0,0,1,0,1.8810729,0,1 @ F,0,0,1,0,1.1999999,0,1"
       radius="1.2"
       unit="px"
       method="auto"
       mode="F"
       chamfer_steps="1"
       flexible="false"
       use_knot_distance="true"
       apply_no_radius="true"
       apply_with_radius="true"
       only_selected="false"
       hide_knots="false" />
    <inkscape:path-effect
       effect="fillet_chamfer"
       id="path-effect52"
       is_visible="true"
       lpeversion="1"
       nodesatellites_param="F,0,0,1,0,0,0,1 @ F,0,0,1,0,1.1999999,0,1 @ F,0,0,1,0,1.1999999,0,1 @ F,0,0,1,0,1.1999999,0,1 @ F,0,0,1,0,1.1999999,0,1 @ F,0,0,1,0,1.1999999,0,1 | F,0,0,1,0,1.1999999,0,1 @ F,0,0,1,0,1.1999999,0,1 @ F,0,0,1,0,1.1999999,0,1 @ F,0,0,1,0,1.1999999,0,1 @ F,0,0,1,0,1.1999999,0,1 @ F,0,0,1,0,1.1999999,0,1"
       radius="1.2"
       unit="px"
       method="auto"
       mode="F"
       chamfer_steps="1"
       flexible="false"
       use_knot_distance="true"
       apply_no_radius="true"
       apply_with_radius="true"
       only_selected="false"
       hide_knots="false" />
    <inkscape:path-effect
       effect="fillet_chamfer"
       id="path-effect50"
       is_visible="true"
       lpeversion="1"
       nodesatellites_param="F,0,0,1,0,0,0,1 @ F,0,0,1,0,1.1999999,0,1 @ F,0,0,1,0,1.1999999,0,1 @ F,0,0,1,0,1.1999999,0,1 @ F,0,0,1,0,1.1999999,0,1 @ F,0,0,1,0,1.1999999,0,1"
       radius="1.2"
       unit="px"
       method="auto"
       mode="F"
       chamfer_steps="1"
       flexible="false"
       use_knot_distance="true"
       apply_no_radius="true"
       apply_with_radius="true"
       only_selected="false"
       hide_knots="false" />
    <inkscape:path-effect
       effect="fillet_chamfer"
       id="path-effect27"
       is_visible="true"
       lpeversion="1"
       nodesatellites_param="F,0,0,1,0,0,0,1 @ F,0,0,1,0,0.49999997,0,1 @ F,0,0,1,0,0.49999997,0,1 @ F,0,0,1,0,0.49999997,0,1 @ F,0,0,1,0,0.49999997,0,1 @ F,0,0,1,0,0.49999997,0,1"
       radius="0.5"
       unit="px"
       method="auto"
       mode="F"
       chamfer_steps="1"
       flexible="false"
       use_knot_distance="true"
       apply_no_radius="true"
       apply_with_radius="true"
       only_selected="false"
       hide_knots="false" />
    <inkscape:path-effect
       effect="fillet_chamfer"
       id="path-effect26"
       is_visible="true"
       lpeversion="1"
       nodesatellites_param="F,0,0,1,0,0,0,1 @ F,0,0,1,0,1.1999999,0,1 @ F,0,0,1,0,1.1999999,0,1 @ F,0,0,1,0,1.1999999,0,1 @ F,0,0,1,0,1.1999999,0,1 @ F,0,0,1,0,1.1999999,0,1"
       radius="1.2"
       unit="px"
       method="auto"
       mode="F"
       chamfer_steps="1"
       flexible="false"
       use_knot_distance="true"
       apply_no_radius="true"
       apply_with_radius="true"
       only_selected="false"
       hide_knots="false" />
    <rect
       x="-241.00514"
       y="111.3117"
       width="115.90713"
       height="30.636247"
       id="rect6" />
    <style
       id="style1">
      .st0 {
        fill: none;
      }

      .st0, .st1, .st2, .st3 {
        stroke: #231f20;
        stroke-miterlimit: 10;
      }

      .st4, .st5 {
        font-family: AvantGarde-Demi, 'ITC Avant Garde Gothic Demi';
        font-size: 6px;
        font-weight: 300;
      }

      .st4, .st1 {
        fill: #fff;
      }

      .st5, .st3 {
        fill: #231f20;
      }

      .st2 {
        fill: #b9d532;
      }
    </style>
    <rect
       x="-241.00514"
       y="111.3117"
       width="115.90713"
       height="30.636247"
       id="rect7" />
    <rect
       x="-241.00514"
       y="111.3117"
       width="115.90713"
       height="30.636247"
       id="rect9" />
    <rect
       x="-241.00514"
       y="111.3117"
       width="115.90713"
       height="30.636247"
       id="rect10" />
    <rect
       x="-241.00514"
       y="111.3117"
       width="115.90713"
       height="30.636247"
       id="rect11" />
    <rect
       x="-241.00514"
       y="111.3117"
       width="115.90713"
       height="30.636247"
       id="rect12" />
    <rect
       x="-241.00514"
       y="111.3117"
       width="115.90713"
       height="30.636247"
       id="rect14" />
    <rect
       x="-241.00514"
       y="111.3117"
       width="115.90713"
       height="30.636248"
       id="rect14-6" />
    <rect
       x="-241.00514"
       y="111.3117"
       width="115.90713"
       height="30.636248"
       id="rect14-3" />
    <rect
       x="-241.00514"
       y="111.3117"
       width="115.90713"
       height="30.636248"
       id="rect14-8" />
    <rect
       x="-241.00514"
       y="111.3117"
       width="115.90713"
       height="30.636248"
       id="rect14-4" />
    <rect
       x="-241.00514"
       y="111.3117"
       width="115.90713"
       height="30.636248"
       id="rect14-2" />
    <rect
       x="-241.00514"
       y="111.3117"
       width="115.90713"
       height="30.636248"
       id="rect14-1" />
    <rect
       x="-241.00514"
       y="111.3117"
       width="115.90713"
       height="30.636248"
       id="rect14-5" />
    <rect
       x="-241.00514"
       y="111.3117"
       width="115.90713"
       height="30.636248"
       id="rect14-80" />
    <rect
       x="-241.00514"
       y="111.3117"
       width="115.90713"
       height="30.636248"
       id="rect14-9" />
    <rect
       x="-241.00514"
       y="111.3117"
       width="115.90713"
       height="30.636248"
       id="rect14-40" />
    <rect
       x="-241.00514"
       y="111.3117"
       width="115.90713"
       height="30.636248"
       id="rect14-0" />
    <rect
       x="-241.00514"
       y="111.3117"
       width="115.90713"
       height="30.636248"
       id="rect14-36" />
    <rect
       x="-241.00514"
       y="111.3117"
       width="115.90713"
       height="30.636248"
       id="rect14-9-1" />
    <rect
       x="-241.00514"
       y="111.3117"
       width="115.90713"
       height="30.636248"
       id="rect14-9-6" />
    <rect
       x="-241.00514"
       y="111.3117"
       width="115.90713"
       height="30.636248"
       id="rect14-9-17" />
    <rect
       x="-241.00514"
       y="111.3117"
       width="115.90713"
       height="30.636247"
       id="rect47" />
    <rect
       x="-241.00514"
       y="111.3117"
       width="115.90713"
       height="30.636247"
       id="rect48" />
    <rect
       x="-241.00514"
       y="111.3117"
       width="115.90713"
       height="30.636247"
       id="rect49" />
    <rect
       x="-241.00514"
       y="111.3117"
       width="115.90713"
       height="30.636247"
       id="rect64" />
    <rect
       x="-241.00514"
       y="111.3117"
       width="115.90713"
       height="30.636247"
       id="rect65" />
    <rect
       x="-241.00514"
       y="111.3117"
       width="115.90713"
       height="30.636247"
       id="rect66" />
    <rect
       x="-241.00514"
       y="111.3117"
       width="115.90713"
       height="30.636247"
       id="rect80" />
    <rect
       x="-241.00514"
       y="111.3117"
       width="115.90713"
       height="30.636247"
       id="rect81" />
    <rect
       x="-241.00514"
       y="111.3117"
       width="115.90713"
       height="30.636247"
       id="rect82" />
    <rect
       x="-241.00514"
       y="111.3117"
       width="115.90713"
       height="30.636247"
       id="rect15" />
    <rect
       x="-241.00514"
       y="111.3117"
       width="115.90713"
       height="30.636247"
       id="rect50" />
    <rect
       x="-241.00514"
       y="111.3117"
       width="115.90713"
       height="30.636247"
       id="rect67" />
    <rect
       x="-241.00514"
       y="111.3117"
       width="115.90713"
       height="30.636247"
       id="rect69" />
    <rect
       x="-241.00514"
       y="111.3117"
       width="115.90713"
       height="30.636247"
       id="rect71" />
    <rect
       x="-241.00514"
       y="111.3117"
       width="115.90713"
       height="30.636247"
       id="rect73" />
    <rect
       x="-241.00514"
       y="111.3117"
       width="115.90713"
       height="30.636247"
       id="rect75" />
  </defs>
  <g
     inkscape:groupmode="layer"
     id="layer3"
     inkscape:label="design">
    <path
       id="rect13"
       style="display:inline;fill:#e6e6e6;stroke-width:0.999998"
       d="M -0.00411003,0.00178039 H 192.00413 V 485.3455 H -0.00411003 Z" />
    <path
       id="rect2"
       class="st3"
       style="fill:#26292e;stroke:none;stroke-width:0.999999;stroke-miterlimit:10;fill-opacity:1"
       d="m 60.723069,412.15186 h 21.571173 c 3.024492,0 5.459371,2.44049 5.459371,5.47196 v 36.83564 c 0,3.03146 -2.434879,5.47196 -5.459371,5.47196 H 60.723069 c -3.024492,0 -5.459371,-2.4405 -5.459371,-5.47196 v -36.83564 c 0,-3.03147 2.434879,-5.47196 5.459371,-5.47196 z" />
    <path
       id="rect3"
       class="st3"
       style="fill:#26292e;stroke:none;stroke-width:0.999999;stroke-miterlimit:10;fill-opacity:1"
       d="m 108.65901,412.15186 h 21.57118 c 3.02449,0 5.45936,2.44049 5.45936,5.47196 v 36.83564 c 0,3.03146 -2.43487,5.47196 -5.45936,5.47196 h -21.57118 c -3.02449,0 -5.45937,-2.4405 -5.45937,-5.47196 v -36.83564 c 0,-3.03147 2.43488,-5.47196 5.45937,-5.47196 z" />
    <g
       id="g15" />
    <path
       id="rect5"
       style="fill:#26292e;fill-opacity:1;stroke:#26292e;stroke-width:0.999999;stroke-miterlimit:10;stroke-opacity:1"
       class="st3"
       d="m 12.787109,351.02539 c -3.0244909,0 -5.458984,2.44119 -5.458984,5.47265 v 36.83594 c 0,2.33744 -0.024865,15.60484 0,23.9043 0.00738,2.46427 -0.030574,6.40589 0,7.09765 v 30.50977 c 0,3.09491 2.4344931,5.58594 5.458984,5.58594 h 1.191407 20.378906 122.238278 19.30664 2.26367 c 3.0245,0 5.45899,-2.49103 5.45899,-5.58594 v -6.23828 c 3.3e-4,-0.12361 0,-0.25291 0,-0.38477 v -30.98437 -60.74024 c 0,-3.03146 -2.43449,-5.47265 -5.45899,-5.47265 H 156.5957 c -3.02449,0 -5.46094,2.44119 -5.46094,5.47265 v 55.1543 H 39.671875 c 0.131786,-9.21022 0.146484,-17.10853 0.146484,-18.31836 v -36.83594 c 0,-3.03146 -2.436445,-5.47265 -5.460937,-5.47265 z"
       sodipodi:nodetypes="sssscssccccsscscssssccssss" />
    <path
       style="font-weight:500;font-stretch:condensed;font-family:'Akzidenz-Grotesk BQ Condensed A';-inkscape-font-specification:'Akzidenz-Grotesk BQ Condensed A Medium Condensed';white-space:pre"
       d="m -237.59786,115.33985 v -1.044 h -2.904 v 8.472 h 1.128 v -3.936 h 1.608 v -1.032 h -1.62 v -2.46 z m 4.104,7.428 c -0.192,-0.528 -0.216,-0.708 -0.216,-1.668 v -0.924 c 0,-0.696 -0.012,-1.044 -0.204,-1.344 -0.24,-0.372 -0.588,-0.324 -0.768,-0.36 0.18,-0.024 0.66,-0.012 0.864,-0.456 0.084,-0.192 0.12,-0.456 0.132,-0.672 0.024,-0.336 0.024,-0.672 0.024,-0.996 0,-0.576 -0.024,-0.996 -0.072,-1.212 -0.168,-0.768 -0.732,-0.804 -1.032,-0.828 -0.132,-0.012 -0.276,-0.012 -0.42,-0.012 h -1.824 v 8.472 h 1.116 v -3.9 h 0.456 c 0.132,0 0.252,0.024 0.36,0.108 0.144,0.132 0.18,0.336 0.204,0.54 0.036,0.288 0.048,0.588 0.048,0.876 v 0.6 c 0,0.804 0.024,0.984 0.168,1.776 z m -1.272,-6.504 c 0,0.588 -0.012,1.092 -0.06,1.296 -0.072,0.3 -0.24,0.372 -0.528,0.372 h -0.528 v -2.616 h 0.564 c 0.216,0 0.336,0 0.408,0.072 0.072,0.06 0.108,0.156 0.12,0.336 0.012,0.18 0.024,0.36 0.024,0.54 z m 4.812,6.504 v -1.068 h -1.656 v -2.808 h 1.476 v -1.056 h -1.488 v -2.484 h 1.668 v -1.056 h -2.796 v 8.472 z m 4.236,-2.184 v -3.984 c 0,-0.612 0.012,-1.308 -0.42,-1.812 -0.456,-0.54 -1.032,-0.552 -1.284,-0.552 -0.216,0 -0.768,0 -1.248,0.42 -0.432,0.36 -0.516,0.804 -0.552,1.008 -0.072,0.408 -0.06,1.032 -0.06,1.08 v 4.212 c 0,0.18 -0.048,1.104 0.612,1.572 0.144,0.096 0.276,0.168 0.612,0.264 0.036,0.756 0.12,1.44 0.984,1.62 0.312,0.072 0.756,0.048 1.08,0.036 v -1.032 c -0.18,0.024 -0.36,0.036 -0.54,0.036 -0.312,0 -0.54,-0.084 -0.54,-0.42 v -0.228 c 0.156,-0.024 0.228,-0.036 0.384,-0.096 0.096,-0.036 0.3,-0.12 0.504,-0.312 0.456,-0.444 0.444,-1.116 0.456,-1.296 0,-0.18 0.012,-0.348 0.012,-0.516 z m -1.104,0.168 c 0,0.552 -0.024,0.888 -0.252,1.068 -0.132,0.096 -0.288,0.12 -0.432,0.12 -0.408,-0.012 -0.564,-0.228 -0.612,-0.396 -0.036,-0.096 -0.048,-0.3 -0.048,-0.564 v -5.004 c 0,-0.024 0,-0.216 0.06,-0.36 0.096,-0.276 0.336,-0.408 0.624,-0.408 0.636,0 0.636,0.552 0.648,0.732 0,0.096 0.012,0.192 0.012,0.288 z m 5.604,-0.036 v -6.42 h -1.104 v 6.48 c 0,0.564 -0.012,0.864 -0.252,1.068 -0.156,0.132 -0.36,0.132 -0.432,0.132 -0.684,0 -0.672,-0.648 -0.672,-1.128 v -6.552 h -1.092 v 6.612 c 0,0.516 0.048,0.756 0.144,0.996 0.348,0.936 1.284,0.996 1.584,0.996 0.336,0 1.404,-0.06 1.716,-1.176 0.108,-0.396 0.108,-0.936 0.108,-1.008 z m 3.768,2.052 v -1.068 h -1.656 v -2.808 h 1.476 v -1.056 h -1.488 v -2.484 h 1.668 v -1.056 h -2.796 v 8.472 z m 4.236,0 v -8.472 h -1.056 l 0.048,5.772 -1.332,-5.772 h -1.2 v 8.472 h 1.044 l -0.096,-6.216 1.356,6.216 z m 4.596,-1.92 v -1.584 h -1.128 v 1.644 c 0,0.312 0.012,0.672 -0.276,0.876 -0.168,0.132 -0.36,0.12 -0.432,0.12 -0.624,0 -0.66,-0.456 -0.672,-0.684 -0.012,-0.096 -0.012,-0.192 -0.012,-0.288 v -4.68 c 0,-0.324 -0.024,-0.684 0.252,-0.924 0.096,-0.072 0.216,-0.144 0.456,-0.144 0.744,0 0.684,0.696 0.684,0.876 v 1.308 h 1.128 v -1.08 c 0,-0.408 -0.012,-0.792 -0.18,-1.176 -0.084,-0.204 -0.216,-0.384 -0.396,-0.528 -0.216,-0.18 -0.552,-0.372 -1.176,-0.372 -0.264,0 -0.468,0.024 -0.708,0.108 -1.08,0.348 -1.14,1.416 -1.164,1.74 -0.012,0.192 -0.024,0.384 -0.024,0.576 v 4.092 c 0,0.492 0,1.02 0.3,1.452 0.204,0.3 0.636,0.696 1.5,0.696 0.9,0 1.332,-0.444 1.536,-0.744 0.276,-0.408 0.312,-0.816 0.312,-1.284 z m 4.32,-6.552 h -1.128 l -0.852,3.384 -0.78,-3.384 h -1.14 l 1.284,4.932 v 3.54 h 1.212 v -3.552 z"
       id="text13-11"
       transform="translate(341.86842,182.68207)"
       aria-label="FREQUENCY" />
    <path
       style="font-weight:500;font-stretch:condensed;font-family:'Akzidenz-Grotesk BQ Condensed A';-inkscape-font-specification:'Akzidenz-Grotesk BQ Condensed A Medium Condensed';white-space:pre"
       d="m -237.33386,120.90785 c 0,-0.492 -0.072,-1.128 -0.66,-2.052 -0.12,-0.192 -0.24,-0.372 -0.372,-0.552 -0.168,-0.252 -0.336,-0.492 -0.492,-0.744 -0.372,-0.588 -0.564,-0.984 -0.564,-1.692 0,-0.396 0.012,-0.864 0.552,-0.864 0.468,0 0.432,0.48 0.444,0.576 v 1.5 h 1.02 v -1.5 c 0,-0.336 -0.036,-0.48 -0.084,-0.636 -0.264,-0.828 -1.116,-0.816 -1.344,-0.816 -0.48,0 -0.78,0.12 -0.96,0.228 -0.348,0.204 -0.756,0.696 -0.756,1.632 0,0.984 0.468,1.704 0.648,1.992 0.324,0.54 0.708,1.032 1.02,1.584 0.312,0.528 0.408,0.864 0.408,1.476 0,0.384 0.012,0.984 -0.54,0.996 -0.18,0 -0.288,-0.072 -0.336,-0.108 -0.18,-0.12 -0.24,-0.3 -0.24,-0.708 v -1.548 h -1.032 v 1.404 c 0,0.492 0.024,0.948 0.372,1.344 0.18,0.216 0.552,0.504 1.236,0.504 0.372,0 0.6,-0.072 0.744,-0.132 0.948,-0.432 0.936,-1.704 0.936,-1.884 z m 4.2,-5.616 v -0.996 h -3.744 v 0.996 h 1.284 v 7.476 h 1.14 v -7.476 z m 4.05601,7.476 -1.308,-8.472 h -1.356 l -1.2,8.472 h 1.092 l 0.192,-1.56 h 1.272 l 0.216,1.56 z m -1.452,-2.592 h -1.008 l 0.468,-4.404 z m 5.316,0.312 c 0,-0.228 -0.012,-0.444 -0.012,-0.66 -0.012,-0.588 0.012,-0.912 -0.12,-1.152 -0.156,-0.276 -0.504,-0.36 -0.804,-0.384 0,0 0.228,-0.036 0.348,-0.072 0.18,-0.048 0.372,-0.168 0.456,-0.348 0.12,-0.24 0.108,-0.612 0.108,-0.66 0.012,-0.264 0.024,-0.528 0.024,-0.792 0,-0.144 -0.012,-0.288 -0.012,-0.432 -0.012,-0.756 -0.012,-1.152 -0.312,-1.44 -0.276,-0.252 -0.648,-0.252 -0.996,-0.252 h -1.98 v 8.472 h 1.704 c 0.396,0 0.876,0.012 1.212,-0.264 0.36,-0.312 0.348,-0.888 0.36,-0.984 0.024,-0.348 0.024,-0.684 0.024,-1.032 z m -1.104,-3.924 c 0,0.408 -0.012,0.684 -0.036,0.852 -0.048,0.42 -0.3,0.432 -0.648,0.432 h -0.432 v -2.544 h 0.552 c 0.204,0 0.324,0 0.408,0.072 0.072,0.06 0.108,0.168 0.12,0.396 0.024,0.264 0.036,0.528 0.036,0.792 z m 0.024,3.684 c 0,0.492 -0.024,1.056 -0.036,1.188 -0.048,0.312 -0.276,0.288 -0.528,0.288 h -0.576 v -2.952 h 0.624 c 0.108,0 0.252,0.012 0.348,0.096 0.12,0.12 0.132,0.372 0.144,0.528 0.012,0.288 0.024,0.564 0.024,0.852 z m 3.072,2.52 v -8.472 h -1.104 v 8.472 z m 3.936,0 v -1.044 h -1.848 v -7.428 h -1.116 v 8.472 z m 1.57199,0 v -8.472 h -1.104 v 8.472 z m 4.332,-7.476 v -0.996 h -3.744 v 0.996 h 1.284 v 7.476 h 1.14 v -7.476 z m 4.068,-0.996 h -1.128 l -0.852,3.384 -0.78,-3.384 h -1.14 l 1.284,4.932 v 3.54 h 1.212 v -3.552 z"
       id="text13-0"
       transform="translate(296.43923,182.78136)"
       aria-label="STABILITY" />
    <path
       style="font-weight:500;font-stretch:condensed;font-family:'Akzidenz-Grotesk BQ Condensed A';-inkscape-font-specification:'Akzidenz-Grotesk BQ Condensed A Medium Condensed';white-space:pre"
       d="m -236.87786,120.84785 v -1.584 h -1.128 v 1.644 c 0,0.312 0.012,0.672 -0.276,0.876 -0.168,0.132 -0.36,0.12 -0.432,0.12 -0.624,0 -0.66,-0.456 -0.672,-0.684 -0.012,-0.096 -0.012,-0.192 -0.012,-0.288 v -4.68 c 0,-0.324 -0.024,-0.684 0.252,-0.924 0.096,-0.072 0.216,-0.144 0.456,-0.144 0.744,0 0.684,0.696 0.684,0.876 v 1.308 h 1.128 v -1.08 c 0,-0.408 -0.012,-0.792 -0.18,-1.176 -0.084,-0.204 -0.216,-0.384 -0.396,-0.528 -0.216,-0.18 -0.552,-0.372 -1.176,-0.372 -0.264,0 -0.468,0.024 -0.708,0.108 -1.08,0.348 -1.14,1.416 -1.164,1.74 -0.012,0.192 -0.024,0.384 -0.024,0.576 v 4.092 c 0,0.492 0,1.02 0.3,1.452 0.204,0.3 0.636,0.696 1.5,0.696 0.9,0 1.332,-0.444 1.536,-0.744 0.276,-0.408 0.312,-0.816 0.312,-1.284 z m 3.672,1.92 v -1.068 h -1.656 v -2.808 h 1.476 v -1.056 h -1.488 v -2.484 h 1.668 v -1.056 h -2.796 v 8.472 z m 4.236,0 v -8.472 h -1.056 l 0.048,5.772 -1.332,-5.772 h -1.2 v 8.472 h 1.044 l -0.096,-6.216 1.356,6.216 z m 4.344,-7.476 v -0.996 h -3.744 v 0.996 h 1.284 v 7.476 h 1.14 v -7.476 z m 3.42,7.476 v -1.068 h -1.656 v -2.808 h 1.476 v -1.056 h -1.488 v -2.484 h 1.668 v -1.056 h -2.796 v 8.472 z m 4.212,0 c -0.192,-0.528 -0.216,-0.708 -0.216,-1.668 v -0.924 c 0,-0.696 -0.012,-1.044 -0.204,-1.344 -0.24,-0.372 -0.588,-0.324 -0.768,-0.36 0.18,-0.024 0.66,-0.012 0.864,-0.456 0.084,-0.192 0.12,-0.456 0.132,-0.672 0.024,-0.336 0.024,-0.672 0.024,-0.996 0,-0.576 -0.024,-0.996 -0.072,-1.212 -0.168,-0.768 -0.732,-0.804 -1.032,-0.828 -0.132,-0.012 -0.276,-0.012 -0.42,-0.012 h -1.824 v 8.472 h 1.116 v -3.9 h 0.456 c 0.132,0 0.252,0.024 0.36,0.108 0.144,0.132 0.18,0.336 0.204,0.54 0.036,0.288 0.048,0.588 0.048,0.876 v 0.6 c 0,0.804 0.024,0.984 0.168,1.776 z m -1.272,-6.504 c 0,0.588 -0.012,1.092 -0.06,1.296 -0.072,0.3 -0.24,0.372 -0.528,0.372 h -0.528 v -2.616 h 0.564 c 0.216,0 0.336,0 0.408,0.072 0.072,0.06 0.108,0.156 0.12,0.336 0.012,0.18 0.024,0.36 0.024,0.54 z"
       id="text13-6"
       transform="translate(300.39925,246.42456)"
       aria-label="CENTER" />
    <path
       style="font-weight:500;font-stretch:condensed;font-family:'Akzidenz-Grotesk BQ Condensed A';-inkscape-font-specification:'Akzidenz-Grotesk BQ Condensed A Medium Condensed';white-space:pre"
       d="m -237.17786,117.35585 v -1.608 c 0,-0.36 0.024,-0.828 -0.216,-1.128 -0.288,-0.372 -0.852,-0.324 -0.936,-0.324 h -2.184 v 8.472 h 1.092 v -3.84 h 1.116 c 0.444,0 0.66,-0.036 0.84,-0.204 0.276,-0.252 0.288,-0.66 0.288,-1.368 z m -1.128,0.192 c 0,0.288 -0.096,0.372 -0.396,0.372 h -0.708 v -2.592 h 0.684 c 0.348,0 0.42,0.108 0.42,0.42 z m 5.028,5.22 v -8.472 h -1.116 v 3.444 h -1.032 v -3.444 h -1.116 v 8.472 h 1.116 v -3.936 h 1.032 v 3.936 z m 4.452,0 -1.308,-8.472 h -1.356 l -1.2,8.472 h 1.092 l 0.192,-1.56 h 1.272 l 0.216,1.56 z m -1.452,-2.592 h -1.008 l 0.468,-4.404 z m 5.18401,0.732 c 0,-0.492 -0.072,-1.128 -0.66,-2.052 -0.12,-0.192 -0.24,-0.372 -0.372,-0.552 -0.168,-0.252 -0.336,-0.492 -0.492,-0.744 -0.372,-0.588 -0.564,-0.984 -0.564,-1.692 0,-0.396 0.012,-0.864 0.552,-0.864 0.468,0 0.432,0.48 0.444,0.576 v 1.5 h 1.02 v -1.5 c 0,-0.336 -0.036,-0.48 -0.084,-0.636 -0.264,-0.828 -1.116,-0.816 -1.344,-0.816 -0.48,0 -0.78,0.12 -0.96,0.228 -0.348,0.204 -0.756,0.696 -0.756,1.632 0,0.984 0.468,1.704 0.648,1.992 0.324,0.54 0.708,1.032 1.02,1.584 0.312,0.528 0.408,0.864 0.408,1.476 0,0.384 0.012,0.984 -0.54,0.996 -0.18,0 -0.288,-0.072 -0.336,-0.108 -0.18,-0.12 -0.24,-0.3 -0.24,-0.708 v -1.548 h -1.032 v 1.404 c 0,0.492 0.024,0.948 0.372,1.344 0.18,0.216 0.552,0.504 1.236,0.504 0.372,0 0.6,-0.072 0.744,-0.132 0.948,-0.432 0.936,-1.704 0.936,-1.884 z m 3.624,1.86 v -1.068 h -1.656 v -2.808 h 1.476 v -1.056 h -1.488 v -2.484 h 1.668 v -1.056 h -2.796 v 8.472 z"
       id="text13-69"
       transform="translate(397.97953,183.51007)"
       aria-label="PHASE" />
    <path
       style="font-weight:500;font-stretch:condensed;font-family:'Akzidenz-Grotesk BQ Condensed A';-inkscape-font-specification:'Akzidenz-Grotesk BQ Condensed A Medium Condensed';white-space:pre;fill:#f9f9f9"
       d="m -237.06986,122.76785 -1.308,-8.472 h -1.356 l -1.2,8.472 h 1.092 l 0.192,-1.56 h 1.272 l 0.216,1.56 z m -1.452,-2.592 h -1.008 l 0.468,-4.404 z"
       id="text13-9"
       transform="translate(262.59721,304.4751)"
       aria-label="A" />
    <path
       style="font-weight:500;font-stretch:condensed;font-family:'Akzidenz-Grotesk BQ Condensed A';-inkscape-font-specification:'Akzidenz-Grotesk BQ Condensed A Medium Condensed';white-space:pre;fill:#f9f9f9"
       d="m -237.20186,120.48785 c 0,-0.228 -0.012,-0.444 -0.012,-0.66 -0.012,-0.588 0.012,-0.912 -0.12,-1.152 -0.156,-0.276 -0.504,-0.36 -0.804,-0.384 0,0 0.228,-0.036 0.348,-0.072 0.18,-0.048 0.372,-0.168 0.456,-0.348 0.12,-0.24 0.108,-0.612 0.108,-0.66 0.012,-0.264 0.024,-0.528 0.024,-0.792 0,-0.144 -0.012,-0.288 -0.012,-0.432 -0.012,-0.756 -0.012,-1.152 -0.312,-1.44 -0.276,-0.252 -0.648,-0.252 -0.996,-0.252 h -1.98 v 8.472 h 1.704 c 0.396,0 0.876,0.012 1.212,-0.264 0.36,-0.312 0.348,-0.888 0.36,-0.984 0.024,-0.348 0.024,-0.684 0.024,-1.032 z m -1.104,-3.924 c 0,0.408 -0.012,0.684 -0.036,0.852 -0.048,0.42 -0.3,0.432 -0.648,0.432 h -0.432 v -2.544 h 0.552 c 0.204,0 0.324,0 0.408,0.072 0.072,0.06 0.108,0.168 0.12,0.396 0.024,0.264 0.036,0.528 0.036,0.792 z m 0.024,3.684 c 0,0.492 -0.024,1.056 -0.036,1.188 -0.048,0.312 -0.276,0.288 -0.528,0.288 h -0.576 v -2.952 h 0.624 c 0.108,0 0.252,0.012 0.348,0.096 0.12,0.12 0.132,0.372 0.144,0.528 0.012,0.288 0.024,0.564 0.024,0.852 z"
       id="text13-9-4"
       transform="translate(310.57755,304.46911)"
       aria-label="B" />
    <path
       style="font-weight:500;font-stretch:condensed;font-family:'Akzidenz-Grotesk BQ Condensed A';-inkscape-font-specification:'Akzidenz-Grotesk BQ Condensed A Medium Condensed';white-space:pre;fill:#f9f9f9"
       d="m -237.18986,121.30385 v -5.64 c 0,-0.408 -0.012,-0.816 -0.36,-1.116 -0.336,-0.288 -0.828,-0.252 -0.936,-0.252 h -2.052 v 8.472 h 2.148 c 0.252,0 0.96,0.048 1.14,-0.768 0.036,-0.156 0.06,-0.348 0.06,-0.696 z m -1.128,-0.048 c 0,0.396 -0.108,0.468 -0.36,0.468 h -0.744 v -6.396 h 0.648 c 0.096,0 0.396,-0.012 0.444,0.336 0.012,0.084 0.012,0.168 0.012,0.252 z"
       id="text13-9-8"
       transform="translate(406.3243,304.46911)"
       aria-label="D" />
    <path
       style="font-weight:500;font-stretch:condensed;font-family:'Akzidenz-Grotesk BQ Condensed A';-inkscape-font-specification:'Akzidenz-Grotesk BQ Condensed A Medium Condensed';white-space:pre;fill:#f9f9f9"
       d="m -236.87786,120.84785 v -1.584 h -1.128 v 1.644 c 0,0.312 0.012,0.672 -0.276,0.876 -0.168,0.132 -0.36,0.12 -0.432,0.12 -0.624,0 -0.66,-0.456 -0.672,-0.684 -0.012,-0.096 -0.012,-0.192 -0.012,-0.288 v -4.68 c 0,-0.324 -0.024,-0.684 0.252,-0.924 0.096,-0.072 0.216,-0.144 0.456,-0.144 0.744,0 0.684,0.696 0.684,0.876 v 1.308 h 1.128 v -1.08 c 0,-0.408 -0.012,-0.792 -0.18,-1.176 -0.084,-0.204 -0.216,-0.384 -0.396,-0.528 -0.216,-0.18 -0.552,-0.372 -1.176,-0.372 -0.264,0 -0.468,0.024 -0.708,0.108 -1.08,0.348 -1.14,1.416 -1.164,1.74 -0.012,0.192 -0.024,0.384 -0.024,0.576 v 4.092 c 0,0.492 0,1.02 0.3,1.452 0.204,0.3 0.636,0.696 1.5,0.696 0.9,0 1.332,-0.444 1.536,-0.744 0.276,-0.408 0.312,-0.816 0.312,-1.284 z"
       id="text13-9-46"
       transform="translate(358.2796,304.46311)"
       aria-label="C" />
    <path
       style="font-weight:500;font-stretch:condensed;font-family:'Akzidenz-Grotesk BQ Condensed A';-inkscape-font-specification:'Akzidenz-Grotesk BQ Condensed A Medium Condensed';white-space:pre;fill:#ffffff"
       d="m -235.54586,122.76785 v -8.472 h -1.644 l -0.804,5.628 -0.912,-5.628 h -1.596 v 8.472 h 1.044 v -6.816 l 0.96,6.816 h 0.948 l 0.972,-6.816 v 6.816 z m 4.476,0 -1.308,-8.472 h -1.356 l -1.2,8.472 h 1.092 l 0.192,-1.56 h 1.272 l 0.216,1.56 z m -1.452,-2.592 h -1.008 l 0.468,-4.404 z m 5.448,2.592 -1.368,-4.38 1.248,-4.092 h -1.116 l -0.732,2.58 -0.78,-2.58 h -1.116 l 1.284,4.104 -1.296,4.368 h 1.104 l 0.804,-2.952 0.84,2.952 z"
       id="text13-08"
       transform="translate(401.35081,246.49661)"
       aria-label="MAX" />
    <path
       style="font-weight:500;font-stretch:condensed;font-family:'Akzidenz-Grotesk BQ Condensed A';-inkscape-font-specification:'Akzidenz-Grotesk BQ Condensed A Medium Condensed';white-space:pre;fill:#ffffff"
       d="m -235.54586,122.76785 v -8.472 h -1.644 l -0.804,5.628 -0.912,-5.628 h -1.596 v 8.472 h 1.044 v -6.816 l 0.96,6.816 h 0.948 l 0.972,-6.816 v 6.816 z m 2.088,0 v -8.472 h -1.104 v 8.472 z m 4.488,0 v -8.472 h -1.056 l 0.048,5.772 -1.332,-5.772 h -1.2 v 8.472 h 1.044 l -0.096,-6.216 1.356,6.216 z"
       id="text13-3"
       transform="translate(258.37515,246.42454)"
       aria-label="MIN" />
    <path
       style="font-weight:500;font-stretch:condensed;font-family:'Akzidenz-Grotesk BQ Condensed A';-inkscape-font-specification:'Akzidenz-Grotesk BQ Condensed A Medium Condensed';white-space:pre"
       d="m -237.33386,120.90785 c 0,-0.492 -0.072,-1.128 -0.66,-2.052 -0.12,-0.192 -0.24,-0.372 -0.372,-0.552 -0.168,-0.252 -0.336,-0.492 -0.492,-0.744 -0.372,-0.588 -0.564,-0.984 -0.564,-1.692 0,-0.396 0.012,-0.864 0.552,-0.864 0.468,0 0.432,0.48 0.444,0.576 v 1.5 h 1.02 v -1.5 c 0,-0.336 -0.036,-0.48 -0.084,-0.636 -0.264,-0.828 -1.116,-0.816 -1.344,-0.816 -0.48,0 -0.78,0.12 -0.96,0.228 -0.348,0.204 -0.756,0.696 -0.756,1.632 0,0.984 0.468,1.704 0.648,1.992 0.324,0.54 0.708,1.032 1.02,1.584 0.312,0.528 0.408,0.864 0.408,1.476 0,0.384 0.012,0.984 -0.54,0.996 -0.18,0 -0.288,-0.072 -0.336,-0.108 -0.18,-0.12 -0.24,-0.3 -0.24,-0.708 v -1.548 h -1.032 v 1.404 c 0,0.492 0.024,0.948 0.372,1.344 0.18,0.216 0.552,0.504 1.236,0.504 0.372,0 0.6,-0.072 0.744,-0.132 0.948,-0.432 0.936,-1.704 0.936,-1.884 z m 4.152,-3.552 v -1.608 c 0,-0.36 0.024,-0.828 -0.216,-1.128 -0.288,-0.372 -0.852,-0.324 -0.936,-0.324 h -2.184 v 8.472 h 1.092 v -3.84 h 1.116 c 0.444,0 0.66,-0.036 0.84,-0.204 0.276,-0.252 0.288,-0.66 0.288,-1.368 z m -1.128,0.192 c 0,0.288 -0.096,0.372 -0.396,0.372 h -0.708 v -2.592 h 0.684 c 0.348,0 0.42,0.108 0.42,0.42 z m 5.30401,5.22 c -0.192,-0.528 -0.216,-0.708 -0.216,-1.668 v -0.924 c 0,-0.696 -0.012,-1.044 -0.204,-1.344 -0.24,-0.372 -0.588,-0.324 -0.768,-0.36 0.18,-0.024 0.66,-0.012 0.864,-0.456 0.084,-0.192 0.12,-0.456 0.132,-0.672 0.024,-0.336 0.024,-0.672 0.024,-0.996 0,-0.576 -0.024,-0.996 -0.072,-1.212 -0.168,-0.768 -0.732,-0.804 -1.032,-0.828 -0.132,-0.012 -0.276,-0.012 -0.42,-0.012 h -1.824 v 8.472 h 1.116 v -3.9 h 0.456 c 0.132,0 0.252,0.024 0.36,0.108 0.144,0.132 0.18,0.336 0.204,0.54 0.036,0.288 0.048,0.588 0.048,0.876 v 0.6 c 0,0.804 0.024,0.984 0.168,1.776 z m -1.272,-6.504 c 0,0.588 -0.012,1.092 -0.06,1.296 -0.072,0.3 -0.24,0.372 -0.528,0.372 h -0.528 v -2.616 h 0.564 c 0.216,0 0.336,0 0.408,0.072 0.072,0.06 0.108,0.156 0.12,0.336 0.012,0.18 0.024,0.36 0.024,0.54 z m 4.812,6.504 v -1.068 h -1.656 v -2.808 h 1.476 v -1.056 h -1.488 v -2.484 h 1.668 v -1.056 h -2.796 v 8.472 z m 4.13999,0 -1.308,-8.472 h -1.356 l -1.2,8.472 h 1.092 l 0.192,-1.56 h 1.272 l 0.216,1.56 z m -1.452,-2.592 h -1.008 l 0.468,-4.404 z m 5.32801,1.128 v -5.64 c 0,-0.408 -0.012,-0.816 -0.36,-1.116 -0.336,-0.288 -0.828,-0.252 -0.936,-0.252 h -2.052 v 8.472 h 2.148 c 0.252,0 0.96,0.048 1.14,-0.768 0.036,-0.156 0.06,-0.348 0.06,-0.696 z m -1.128,-0.048 c 0,0.396 -0.108,0.468 -0.36,0.468 h -0.744 v -6.396 h 0.648 c 0.096,0 0.396,-0.012 0.444,0.336 0.012,0.084 0.012,0.168 0.012,0.252 z"
       id="text13-04"
       transform="translate(348.34938,247.11721)"
       aria-label="SPREAD" />
    <g
       id="g68"
       transform="translate(0.1976891,-1.6514366)"
       style="display:inline">
      <path
         style="font-weight:500;font-stretch:condensed;font-family:'Akzidenz-Grotesk BQ Condensed A';-inkscape-font-specification:'Akzidenz-Grotesk BQ Condensed A Medium Condensed';white-space:pre"
         d="m -237.33386,120.90785 c 0,-0.492 -0.072,-1.128 -0.66,-2.052 -0.12,-0.192 -0.24,-0.372 -0.372,-0.552 -0.168,-0.252 -0.336,-0.492 -0.492,-0.744 -0.372,-0.588 -0.564,-0.984 -0.564,-1.692 0,-0.396 0.012,-0.864 0.552,-0.864 0.468,0 0.432,0.48 0.444,0.576 v 1.5 h 1.02 v -1.5 c 0,-0.336 -0.036,-0.48 -0.084,-0.636 -0.264,-0.828 -1.116,-0.816 -1.344,-0.816 -0.48,0 -0.78,0.12 -0.96,0.228 -0.348,0.204 -0.756,0.696 -0.756,1.632 0,0.984 0.468,1.704 0.648,1.992 0.324,0.54 0.708,1.032 1.02,1.584 0.312,0.528 0.408,0.864 0.408,1.476 0,0.384 0.012,0.984 -0.54,0.996 -0.18,0 -0.288,-0.072 -0.336,-0.108 -0.18,-0.12 -0.24,-0.3 -0.24,-0.708 v -1.548 h -1.032 v 1.404 c 0,0.492 0.024,0.948 0.372,1.344 0.18,0.216 0.552,0.504 1.236,0.504 0.372,0 0.6,-0.072 0.744,-0.132 0.948,-0.432 0.936,-1.704 0.936,-1.884 z m 4.056,1.86 v -8.472 h -1.116 v 3.444 h -1.032 v -3.444 h -1.116 v 8.472 h 1.116 v -3.936 h 1.032 v 3.936 z m 4.452,0 -1.308,-8.472 h -1.356 l -1.2,8.472 h 1.092 l 0.192,-1.56 h 1.272 l 0.216,1.56 z m -1.452,-2.592 h -1.008 l 0.468,-4.404 z m 5.34001,-2.82 v -1.608 c 0,-0.36 0.024,-0.828 -0.216,-1.128 -0.288,-0.372 -0.852,-0.324 -0.936,-0.324 h -2.184 v 8.472 h 1.092 v -3.84 h 1.116 c 0.444,0 0.66,-0.036 0.84,-0.204 0.276,-0.252 0.288,-0.66 0.288,-1.368 z m -1.128,0.192 c 0,0.288 -0.096,0.372 -0.396,0.372 h -0.708 v -2.592 h 0.684 c 0.348,0 0.42,0.108 0.42,0.42 z m 4.596,5.22 v -1.068 h -1.656 v -2.808 h 1.476 v -1.056 h -1.488 v -2.484 h 1.668 v -1.056 h -2.796 v 8.472 z"
         id="text7"
         transform="translate(278.56789,-100.80978)"
         aria-label="SHAPE" />
      <path
         style="fill:none;fill-opacity:1;stroke:#231f20;stroke-linecap:round;stroke-linejoin:round;stroke-opacity:1"
         d="m 27.069451,40.01148 v 1.88977 l 4.8,-3.77953 v 1.88977"
         id="path23"
         sodipodi:nodetypes="cccc" />
      <path
         style="fill:none;fill-opacity:1;stroke:#231f20;stroke-linecap:round;stroke-linejoin:round;stroke-opacity:1"
         d="m 63.735179,40.01149 -1e-6,-1.88977 h 2.400001 v 3.77953 h 2.4 v -1.88976"
         id="path25"
         sodipodi:nodetypes="cccccc" />
      <path
         style="fill:none;fill-opacity:1;stroke:#231f20;stroke-linecap:round;stroke-linejoin:round;stroke-opacity:1"
         d="m -21.600002,154.96063 0,-0.68977 a 1.1999993,1.1999993 134.99998 0 1 1.199999,-1.2 h 1e-6 a 1.1999999,1.1999999 45 0 1 1.2,1.2 v 1.37953 a 1.1999999,1.1999999 45 0 0 1.2,1.2 l 0,0 a 1.1999999,1.1999999 135 0 0 1.2,-1.2 v -0.68976"
         id="path26"
         sodipodi:nodetypes="cccccc"
         transform="translate(48.669453,-78.973178)" />
      <path
         style="fill:none;fill-opacity:1;stroke:#231f20;stroke-linecap:round;stroke-linejoin:round;stroke-opacity:1"
         d="m -45.600004,156.85039 0.80903,-1.45292 a 0.57738804,0.57738804 160.00196 0 1 0.710369,-0.25852 l 0.413479,0.15783 a 0.51430869,0.51430869 156.7017 0 0 0.658544,-0.28359 l 0.258171,-0.62297 a 0.35384267,0.35384267 167.22343 0 1 0.563362,-0.12775 l 0.405168,0.364 a 0.32439937,0.32439937 164.9124 0 0 0.525517,-0.14167 l 0.45636,-1.41394"
         id="path27"
         sodipodi:nodetypes="cccccc"
         transform="translate(109.14376,-78.335981)" />
    </g>
    <g
       id="g67"
       transform="translate(0.19768934,-94.506869)"
       style="display:inline">
      <path
         style="font-weight:500;font-stretch:condensed;font-family:'Akzidenz-Grotesk BQ Condensed A';-inkscape-font-specification:'Akzidenz-Grotesk BQ Condensed A Medium Condensed';white-space:pre"
         d="m -236.87786,120.84785 v -1.584 h -1.128 v 1.644 c 0,0.312 0.012,0.672 -0.276,0.876 -0.168,0.132 -0.36,0.12 -0.432,0.12 -0.624,0 -0.66,-0.456 -0.672,-0.684 -0.012,-0.096 -0.012,-0.192 -0.012,-0.288 v -4.68 c 0,-0.324 -0.024,-0.684 0.252,-0.924 0.096,-0.072 0.216,-0.144 0.456,-0.144 0.744,0 0.684,0.696 0.684,0.876 v 1.308 h 1.128 v -1.08 c 0,-0.408 -0.012,-0.792 -0.18,-1.176 -0.084,-0.204 -0.216,-0.384 -0.396,-0.528 -0.216,-0.18 -0.552,-0.372 -1.176,-0.372 -0.264,0 -0.468,0.024 -0.708,0.108 -1.08,0.348 -1.14,1.416 -1.164,1.74 -0.012,0.192 -0.024,0.384 -0.024,0.576 v 4.092 c 0,0.492 0,1.02 0.3,1.452 0.204,0.3 0.636,0.696 1.5,0.696 0.9,0 1.332,-0.444 1.536,-0.744 0.276,-0.408 0.312,-0.816 0.312,-1.284 z m 3.672,1.92 v -1.068 h -1.656 v -2.808 h 1.476 v -1.056 h -1.488 v -2.484 h 1.668 v -1.056 h -2.796 v 8.472 z m 4.236,0 v -8.472 h -1.056 l 0.048,5.772 -1.332,-5.772 h -1.2 v 8.472 h 1.044 l -0.096,-6.216 1.356,6.216 z m 4.344,-7.476 v -0.996 h -3.744 v 0.996 h 1.284 v 7.476 h 1.14 v -7.476 z m 3.42,7.476 v -1.068 h -1.656 v -2.808 h 1.476 v -1.056 h -1.488 v -2.484 h 1.668 v -1.056 h -2.796 v 8.472 z m 4.212,0 c -0.192,-0.528 -0.216,-0.708 -0.216,-1.668 v -0.924 c 0,-0.696 -0.012,-1.044 -0.204,-1.344 -0.24,-0.372 -0.588,-0.324 -0.768,-0.36 0.18,-0.024 0.66,-0.012 0.864,-0.456 0.084,-0.192 0.12,-0.456 0.132,-0.672 0.024,-0.336 0.024,-0.672 0.024,-0.996 0,-0.576 -0.024,-0.996 -0.072,-1.212 -0.168,-0.768 -0.732,-0.804 -1.032,-0.828 -0.132,-0.012 -0.276,-0.012 -0.42,-0.012 h -1.824 v 8.472 h 1.116 v -3.9 h 0.456 c 0.132,0 0.252,0.024 0.36,0.108 0.144,0.132 0.18,0.336 0.204,0.54 0.036,0.288 0.048,0.588 0.048,0.876 v 0.6 c 0,0.804 0.024,0.984 0.168,1.776 z m -1.272,-6.504 c 0,0.588 -0.012,1.092 -0.06,1.296 -0.072,0.3 -0.24,0.372 -0.528,0.372 h -0.528 v -2.616 h 0.564 c 0.216,0 0.336,0 0.408,0.072 0.072,0.06 0.108,0.156 0.12,0.336 0.012,0.18 0.024,0.36 0.024,0.54 z"
         id="text13"
         transform="translate(276.56217,78.138037)"
         aria-label="CENTER" />
    </g>
    <path
       style="font-weight:500;font-stretch:condensed;font-family:'Akzidenz-Grotesk BQ Condensed A';-inkscape-font-specification:'Akzidenz-Grotesk BQ Condensed A Medium Condensed';white-space:pre"
       d="m -237.33386,120.90785 c 0,-0.492 -0.072,-1.128 -0.66,-2.052 -0.12,-0.192 -0.24,-0.372 -0.372,-0.552 -0.168,-0.252 -0.336,-0.492 -0.492,-0.744 -0.372,-0.588 -0.564,-0.984 -0.564,-1.692 0,-0.396 0.012,-0.864 0.552,-0.864 0.468,0 0.432,0.48 0.444,0.576 v 1.5 h 1.02 v -1.5 c 0,-0.336 -0.036,-0.48 -0.084,-0.636 -0.264,-0.828 -1.116,-0.816 -1.344,-0.816 -0.48,0 -0.78,0.12 -0.96,0.228 -0.348,0.204 -0.756,0.696 -0.756,1.632 0,0.984 0.468,1.704 0.648,1.992 0.324,0.54 0.708,1.032 1.02,1.584 0.312,0.528 0.408,0.864 0.408,1.476 0,0.384 0.012,0.984 -0.54,0.996 -0.18,0 -0.288,-0.072 -0.336,-0.108 -0.18,-0.12 -0.24,-0.3 -0.24,-0.708 v -1.548 h -1.032 v 1.404 c 0,0.492 0.024,0.948 0.372,1.344 0.18,0.216 0.552,0.504 1.236,0.504 0.372,0 0.6,-0.072 0.744,-0.132 0.948,-0.432 0.936,-1.704 0.936,-1.884 z m 4.152,-3.552 v -1.608 c 0,-0.36 0.024,-0.828 -0.216,-1.128 -0.288,-0.372 -0.852,-0.324 -0.936,-0.324 h -2.184 v 8.472 h 1.092 v -3.84 h 1.116 c 0.444,0 0.66,-0.036 0.84,-0.204 0.276,-0.252 0.288,-0.66 0.288,-1.368 z m -1.128,0.192 c 0,0.288 -0.096,0.372 -0.396,0.372 h -0.708 v -2.592 h 0.684 c 0.348,0 0.42,0.108 0.42,0.42 z m 5.30401,5.22 c -0.192,-0.528 -0.216,-0.708 -0.216,-1.668 v -0.924 c 0,-0.696 -0.012,-1.044 -0.204,-1.344 -0.24,-0.372 -0.588,-0.324 -0.768,-0.36 0.18,-0.024 0.66,-0.012 0.864,-0.456 0.084,-0.192 0.12,-0.456 0.132,-0.672 0.024,-0.336 0.024,-0.672 0.024,-0.996 0,-0.576 -0.024,-0.996 -0.072,-1.212 -0.168,-0.768 -0.732,-0.804 -1.032,-0.828 -0.132,-0.012 -0.276,-0.012 -0.42,-0.012 h -1.824 v 8.472 h 1.116 v -3.9 h 0.456 c 0.132,0 0.252,0.024 0.36,0.108 0.144,0.132 0.18,0.336 0.204,0.54 0.036,0.288 0.048,0.588 0.048,0.876 v 0.6 c 0,0.804 0.024,0.984 0.168,1.776 z m -1.272,-6.504 c 0,0.588 -0.012,1.092 -0.06,1.296 -0.072,0.3 -0.24,0.372 -0.528,0.372 h -0.528 v -2.616 h 0.564 c 0.216,0 0.336,0 0.408,0.072 0.072,0.06 0.108,0.156 0.12,0.336 0.012,0.18 0.024,0.36 0.024,0.54 z m 4.812,6.504 v -1.068 h -1.656 v -2.808 h 1.476 v -1.056 h -1.488 v -2.484 h 1.668 v -1.056 h -2.796 v 8.472 z m 4.13999,0 -1.308,-8.472 h -1.356 l -1.2,8.472 h 1.092 l 0.192,-1.56 h 1.272 l 0.216,1.56 z m -1.452,-2.592 h -1.008 l 0.468,-4.404 z m 5.32801,1.128 v -5.64 c 0,-0.408 -0.012,-0.816 -0.36,-1.116 -0.336,-0.288 -0.828,-0.252 -0.936,-0.252 h -2.052 v 8.472 h 2.148 c 0.252,0 0.96,0.048 1.14,-0.768 0.036,-0.156 0.06,-0.348 0.06,-0.696 z m -1.128,-0.048 c 0,0.396 -0.108,0.468 -0.36,0.468 h -0.744 v -6.396 h 0.648 c 0.096,0 0.396,-0.012 0.444,0.336 0.012,0.084 0.012,0.168 0.012,0.252 z"
       id="text9"
       transform="translate(373.03587,-16.530902)"
       aria-label="SPREAD" />
    <path
       style="font-weight:500;font-stretch:condensed;font-size:5.33333px;font-family:'Akzidenz-Grotesk BQ Condensed A';-inkscape-font-specification:'Akzidenz-Grotesk BQ Condensed A Medium Condensed';white-space:pre"
       d="m -239.28853,115.5931 v -2.20267 c 0,-0.192 -0.016,-0.26133 -0.0427,-0.35733 -0.064,-0.208 -0.24,-0.44267 -0.72,-0.44267 -0.48534,0 -0.67734,0.24 -0.74667,0.448 -0.0213,0.0747 -0.0373,0.16 -0.0373,0.32533 v 2.176 c 0,0.22934 0,0.336 0.0373,0.45334 0.13333,0.44266 0.608,0.448 0.72533,0.448 0.20267,0 0.416,-0.0427 0.576,-0.18134 0.15467,-0.13866 0.208,-0.288 0.208,-0.66666 z m -0.45866,0.11733 c 0,0.0427 0.016,0.21867 -0.13334,0.304 -0.0587,0.032 -0.112,0.0373 -0.18133,0.0373 -0.34133,0 -0.32,-0.26133 -0.32,-0.368 v -2.39466 c 0,-0.208 0.0907,-0.336 0.32,-0.336 0.28267,0 0.31467,0.18133 0.31467,0.4 z m 2.04266,-2.16533 h -0.43733 l -0.25067,2.22933 -0.25066,-2.22933 h -0.43734 l 0.42134,2.85866 h 0.512 z"
       id="text64"
       transform="translate(364.58345,45.90293)"
       aria-label="0v" />
    <path
       style="font-weight:500;font-stretch:condensed;font-size:5.33333px;font-family:'Akzidenz-Grotesk BQ Condensed A';-inkscape-font-specification:'Akzidenz-Grotesk BQ Condensed A Medium Condensed';white-space:pre"
       d="m -239.29386,116.40376 v -0.42133 h -1.01333 c 0.005,-0.0533 0.016,-0.10133 0.0267,-0.14933 0.10667,-0.416 0.42134,-0.82134 0.48,-0.90667 0.21867,-0.31467 0.352,-0.528 0.41067,-0.68267 0.064,-0.176 0.0747,-0.32 0.0747,-0.67733 0,-0.128 0,-0.256 -0.0107,-0.384 -0.005,-0.0747 -0.016,-0.26667 -0.176,-0.41067 -0.15467,-0.144 -0.368,-0.16533 -0.57067,-0.16533 -0.096,0 -0.60266,-0.0213 -0.72,0.43733 -0.0267,0.112 -0.0213,0.23467 -0.0213,0.272 v 0.57067 h 0.45867 v -0.60267 c 0,-0.112 0.0107,-0.21333 0.12266,-0.272 0.0267,-0.016 0.0853,-0.0373 0.16534,-0.0373 0.30933,0 0.28266,0.29867 0.28266,0.37333 v 0.37334 c 0,0.224 -0.016,0.31466 -0.0587,0.42666 -0.0693,0.18134 -0.15467,0.272 -0.36267,0.56534 -0.30933,0.43733 -0.43733,0.69866 -0.50667,0.944 -0.096,0.33066 -0.0853,0.61866 -0.0853,0.74666 z m 0.77333,0 v -0.704 h -0.43733 v 0.704 z m 1.88267,-0.656 v -1.392 c 0,-0.144 -0.0107,-0.19733 -0.0373,-0.272 -0.08,-0.25066 -0.30933,-0.336 -0.55466,-0.336 -0.24,0 -0.368,0.0907 -0.44267,0.15467 v -0.81067 h 0.928 v -0.432 h -1.344 v 1.89334 h 0.39467 v -0.08 c 0,-0.10134 0.016,-0.15467 0.0373,-0.19734 0.032,-0.064 0.10667,-0.13333 0.272,-0.13333 0.28267,0 0.288,0.21333 0.288,0.31467 v 1.21066 c 0,0.11734 0.0107,0.272 -0.10666,0.352 -0.0533,0.0373 -0.128,0.0533 -0.192,0.0533 -0.0587,0 -0.12267,-0.016 -0.17067,-0.0533 -0.0853,-0.0587 -0.10133,-0.15466 -0.10133,-0.25066 v -0.52267 h -0.448 v 0.55467 c 0,0.112 0,0.208 0.048,0.31466 0.10133,0.23467 0.368,0.29867 0.432,0.31467 0.112,0.0213 0.21866,0.0213 0.26133,0.0213 0.096,0 0.56533,0.016 0.69866,-0.40533 0.0427,-0.128 0.0373,-0.25067 0.0373,-0.29867 z m 1.6,-2.20266 h -0.43734 l -0.25066,2.22933 -0.25067,-2.22933 h -0.43733 l 0.42133,2.85866 h 0.512 z"
       id="text65"
       transform="translate(381.92854,0.9512686)"
       aria-label="2.5v" />
    <path
       style="font-weight:500;font-stretch:condensed;font-size:5.33333px;font-family:'Akzidenz-Grotesk BQ Condensed A';-inkscape-font-specification:'Akzidenz-Grotesk BQ Condensed A Medium Condensed';white-space:pre"
       d="m -239.30453,115.74776 v -1.392 c 0,-0.144 -0.0107,-0.19733 -0.0373,-0.272 -0.08,-0.25066 -0.30933,-0.336 -0.55467,-0.336 -0.24,0 -0.368,0.0907 -0.44266,0.15467 v -0.81067 h 0.928 v -0.432 h -1.344 v 1.89334 h 0.39466 v -0.08 c 0,-0.10134 0.016,-0.15467 0.0373,-0.19734 0.032,-0.064 0.10666,-0.13333 0.272,-0.13333 0.28266,0 0.288,0.21333 0.288,0.31467 v 1.21066 c 0,0.11734 0.0107,0.272 -0.10667,0.352 -0.0533,0.0373 -0.128,0.0533 -0.192,0.0533 -0.0587,0 -0.12267,-0.016 -0.17067,-0.0533 -0.0853,-0.0587 -0.10133,-0.15466 -0.10133,-0.25066 v -0.52267 h -0.448 v 0.55467 c 0,0.112 0,0.208 0.048,0.31466 0.10133,0.23467 0.368,0.29867 0.432,0.31467 0.112,0.0213 0.21867,0.0213 0.26133,0.0213 0.096,0 0.56534,0.016 0.69867,-0.40533 0.0427,-0.128 0.0373,-0.25067 0.0373,-0.29867 z m 1.6,-2.20266 h -0.43733 l -0.25067,2.22933 -0.25066,-2.22933 h -0.43734 l 0.42134,2.85866 h 0.512 z"
       id="text66"
       transform="translate(401.92962,45.854936)"
       aria-label="5v" />
    <path
       style="font-weight:500;font-stretch:condensed;font-family:'Akzidenz-Grotesk BQ Condensed A';-inkscape-font-specification:'Akzidenz-Grotesk BQ Condensed A Medium Condensed';white-space:pre"
       d="m -237.59786,115.33985 v -1.044 h -2.904 v 8.472 h 1.128 v -3.936 h 1.608 v -1.032 h -1.62 v -2.46 z m 4.104,7.428 c -0.192,-0.528 -0.216,-0.708 -0.216,-1.668 v -0.924 c 0,-0.696 -0.012,-1.044 -0.204,-1.344 -0.24,-0.372 -0.588,-0.324 -0.768,-0.36 0.18,-0.024 0.66,-0.012 0.864,-0.456 0.084,-0.192 0.12,-0.456 0.132,-0.672 0.024,-0.336 0.024,-0.672 0.024,-0.996 0,-0.576 -0.024,-0.996 -0.072,-1.212 -0.168,-0.768 -0.732,-0.804 -1.032,-0.828 -0.132,-0.012 -0.276,-0.012 -0.42,-0.012 h -1.824 v 8.472 h 1.116 v -3.9 h 0.456 c 0.132,0 0.252,0.024 0.36,0.108 0.144,0.132 0.18,0.336 0.204,0.54 0.036,0.288 0.048,0.588 0.048,0.876 v 0.6 c 0,0.804 0.024,0.984 0.168,1.776 z m -1.272,-6.504 c 0,0.588 -0.012,1.092 -0.06,1.296 -0.072,0.3 -0.24,0.372 -0.528,0.372 h -0.528 v -2.616 h 0.564 c 0.216,0 0.336,0 0.408,0.072 0.072,0.06 0.108,0.156 0.12,0.336 0.012,0.18 0.024,0.36 0.024,0.54 z m 4.812,6.504 v -1.068 h -1.656 v -2.808 h 1.476 v -1.056 h -1.488 v -2.484 h 1.668 v -1.056 h -2.796 v 8.472 z m 4.236,-2.184 v -3.984 c 0,-0.612 0.012,-1.308 -0.42,-1.812 -0.456,-0.54 -1.032,-0.552 -1.284,-0.552 -0.216,0 -0.768,0 -1.248,0.42 -0.432,0.36 -0.516,0.804 -0.552,1.008 -0.072,0.408 -0.06,1.032 -0.06,1.08 v 4.212 c 0,0.18 -0.048,1.104 0.612,1.572 0.144,0.096 0.276,0.168 0.612,0.264 0.036,0.756 0.12,1.44 0.984,1.62 0.312,0.072 0.756,0.048 1.08,0.036 v -1.032 c -0.18,0.024 -0.36,0.036 -0.54,0.036 -0.312,0 -0.54,-0.084 -0.54,-0.42 v -0.228 c 0.156,-0.024 0.228,-0.036 0.384,-0.096 0.096,-0.036 0.3,-0.12 0.504,-0.312 0.456,-0.444 0.444,-1.116 0.456,-1.296 0,-0.18 0.012,-0.348 0.012,-0.516 z m -1.104,0.168 c 0,0.552 -0.024,0.888 -0.252,1.068 -0.132,0.096 -0.288,0.12 -0.432,0.12 -0.408,-0.012 -0.564,-0.228 -0.612,-0.396 -0.036,-0.096 -0.048,-0.3 -0.048,-0.564 v -5.004 c 0,-0.024 0,-0.216 0.06,-0.36 0.096,-0.276 0.336,-0.408 0.624,-0.408 0.636,0 0.636,0.552 0.648,0.732 0,0.096 0.012,0.192 0.012,0.288 z m 5.604,-0.036 v -6.42 h -1.104 v 6.48 c 0,0.564 -0.012,0.864 -0.252,1.068 -0.156,0.132 -0.36,0.132 -0.432,0.132 -0.684,0 -0.672,-0.648 -0.672,-1.128 v -6.552 h -1.092 v 6.612 c 0,0.516 0.048,0.756 0.144,0.996 0.348,0.936 1.284,0.996 1.584,0.996 0.336,0 1.404,-0.06 1.716,-1.176 0.108,-0.396 0.108,-0.936 0.108,-1.008 z m 3.768,2.052 v -1.068 h -1.656 v -2.808 h 1.476 v -1.056 h -1.488 v -2.484 h 1.668 v -1.056 h -2.796 v 8.472 z m 4.236,0 v -8.472 h -1.056 l 0.048,5.772 -1.332,-5.772 h -1.2 v 8.472 h 1.044 l -0.096,-6.216 1.356,6.216 z m 4.596,-1.92 v -1.584 h -1.128 v 1.644 c 0,0.312 0.012,0.672 -0.276,0.876 -0.168,0.132 -0.36,0.12 -0.432,0.12 -0.624,0 -0.66,-0.456 -0.672,-0.684 -0.012,-0.096 -0.012,-0.192 -0.012,-0.288 v -4.68 c 0,-0.324 -0.024,-0.684 0.252,-0.924 0.096,-0.072 0.216,-0.144 0.456,-0.144 0.744,0 0.684,0.696 0.684,0.876 v 1.308 h 1.128 v -1.08 c 0,-0.408 -0.012,-0.792 -0.18,-1.176 -0.084,-0.204 -0.216,-0.384 -0.396,-0.528 -0.216,-0.18 -0.552,-0.372 -1.176,-0.372 -0.264,0 -0.468,0.024 -0.708,0.108 -1.08,0.348 -1.14,1.416 -1.164,1.74 -0.012,0.192 -0.024,0.384 -0.024,0.576 v 4.092 c 0,0.492 0,1.02 0.3,1.452 0.204,0.3 0.636,0.696 1.5,0.696 0.9,0 1.332,-0.444 1.536,-0.744 0.276,-0.408 0.312,-0.816 0.312,-1.284 z m 4.32,-6.552 h -1.128 l -0.852,3.384 -0.78,-3.384 h -1.14 l 1.284,4.932 v 3.54 h 1.212 v -3.552 z"
       id="text8"
       transform="translate(270.28737,77.189344)"
       aria-label="FREQUENCY" />
    <g
       id="g60"
       transform="translate(13.713585,89.552555)"
       style="display:inline">
      <path
         style="fill:none;fill-opacity:1;stroke:#231f20;stroke-linecap:round;stroke-linejoin:round;stroke-opacity:1"
         d="m 14.400001,164.40945 v 1.88976"
         id="path59" />
      <path
         style="fill:none;fill-opacity:1;stroke:#231f20;stroke-linecap:round;stroke-linejoin:round;stroke-opacity:1"
         d="m 16.800001,164.40945 v 1.88976"
         id="path60" />
    </g>
    <g
       id="g62"
       transform="translate(31.200001,39.270262)"
       style="display:inline">
      <path
         style="fill:none;fill-opacity:1;stroke:#231f20;stroke-linecap:round;stroke-linejoin:round;stroke-opacity:1"
         d="m 14.400002,170.07874 v 1.88976"
         id="path61" />
      <path
         style="fill:none;fill-opacity:1;stroke:#231f20;stroke-linecap:round;stroke-linejoin:round;stroke-opacity:1"
         d="m 19.200003,170.07874 v 1.88976"
         id="path62" />
    </g>
    <g
       id="g64"
       transform="translate(47.48642,78.213975)"
       style="display:inline">
      <path
         style="fill:none;fill-opacity:1;stroke:#231f20;stroke-linecap:round;stroke-linejoin:round;stroke-opacity:1"
         d="m 14.400001,175.74803 v 1.88976"
         id="path63" />
      <path
         style="fill:none;fill-opacity:1;stroke:#231f20;stroke-linecap:round;stroke-linejoin:round;stroke-opacity:1"
         d="m 24.000002,175.74803 v 1.88976"
         id="path64" />
    </g>
    <path
       style="font-weight:500;font-stretch:condensed;font-family:'Akzidenz-Grotesk BQ Condensed A';-inkscape-font-specification:'Akzidenz-Grotesk BQ Condensed A Medium Condensed';white-space:pre"
       d="m -237.33386,120.90785 c 0,-0.492 -0.072,-1.128 -0.66,-2.052 -0.12,-0.192 -0.24,-0.372 -0.372,-0.552 -0.168,-0.252 -0.336,-0.492 -0.492,-0.744 -0.372,-0.588 -0.564,-0.984 -0.564,-1.692 0,-0.396 0.012,-0.864 0.552,-0.864 0.468,0 0.432,0.48 0.444,0.576 v 1.5 h 1.02 v -1.5 c 0,-0.336 -0.036,-0.48 -0.084,-0.636 -0.264,-0.828 -1.116,-0.816 -1.344,-0.816 -0.48,0 -0.78,0.12 -0.96,0.228 -0.348,0.204 -0.756,0.696 -0.756,1.632 0,0.984 0.468,1.704 0.648,1.992 0.324,0.54 0.708,1.032 1.02,1.584 0.312,0.528 0.408,0.864 0.408,1.476 0,0.384 0.012,0.984 -0.54,0.996 -0.18,0 -0.288,-0.072 -0.336,-0.108 -0.18,-0.12 -0.24,-0.3 -0.24,-0.708 v -1.548 h -1.032 v 1.404 c 0,0.492 0.024,0.948 0.372,1.344 0.18,0.216 0.552,0.504 1.236,0.504 0.372,0 0.6,-0.072 0.744,-0.132 0.948,-0.432 0.936,-1.704 0.936,-1.884 z m 4.056,1.86 v -8.472 h -1.116 v 3.444 h -1.032 v -3.444 h -1.116 v 8.472 h 1.116 v -3.936 h 1.032 v 3.936 z m 4.452,0 -1.308,-8.472 h -1.356 l -1.2,8.472 h 1.092 l 0.192,-1.56 h 1.272 l 0.216,1.56 z m -1.452,-2.592 h -1.008 l 0.468,-4.404 z m 5.34001,-2.82 v -1.608 c 0,-0.36 0.024,-0.828 -0.216,-1.128 -0.288,-0.372 -0.852,-0.324 -0.936,-0.324 h -2.184 v 8.472 h 1.092 v -3.84 h 1.116 c 0.444,0 0.66,-0.036 0.84,-0.204 0.276,-0.252 0.288,-0.66 0.288,-1.368 z m -1.128,0.192 c 0,0.288 -0.096,0.372 -0.396,0.372 h -0.708 v -2.592 h 0.684 c 0.348,0 0.42,0.108 0.42,0.42 z m 4.596,5.22 v -1.068 h -1.656 v -2.808 h 1.476 v -1.056 h -1.488 v -2.484 h 1.668 v -1.056 h -2.796 v 8.472 z"
       id="text13-1"
       transform="translate(254.59992,183.45001)"
       aria-label="SHAPE" />
    <path
       style="font-weight:500;font-stretch:condensed;font-family:'Akzidenz-Grotesk BQ Condensed A';-inkscape-font-specification:'Akzidenz-Grotesk BQ Condensed A Medium Condensed';white-space:pre"
       d="m -237.17786,117.35585 v -1.608 c 0,-0.36 0.024,-0.828 -0.216,-1.128 -0.288,-0.372 -0.852,-0.324 -0.936,-0.324 h -2.184 v 8.472 h 1.092 v -3.84 h 1.116 c 0.444,0 0.66,-0.036 0.84,-0.204 0.276,-0.252 0.288,-0.66 0.288,-1.368 z m -1.128,0.192 c 0,0.288 -0.096,0.372 -0.396,0.372 h -0.708 v -2.592 h 0.684 c 0.348,0 0.42,0.108 0.42,0.42 z m 5.028,5.22 v -8.472 h -1.116 v 3.444 h -1.032 v -3.444 h -1.116 v 8.472 h 1.116 v -3.936 h 1.032 v 3.936 z m 4.452,0 -1.308,-8.472 h -1.356 l -1.2,8.472 h 1.092 l 0.192,-1.56 h 1.272 l 0.216,1.56 z m -1.452,-2.592 h -1.008 l 0.468,-4.404 z m 5.18401,0.732 c 0,-0.492 -0.072,-1.128 -0.66,-2.052 -0.12,-0.192 -0.24,-0.372 -0.372,-0.552 -0.168,-0.252 -0.336,-0.492 -0.492,-0.744 -0.372,-0.588 -0.564,-0.984 -0.564,-1.692 0,-0.396 0.012,-0.864 0.552,-0.864 0.468,0 0.432,0.48 0.444,0.576 v 1.5 h 1.02 v -1.5 c 0,-0.336 -0.036,-0.48 -0.084,-0.636 -0.264,-0.828 -1.116,-0.816 -1.344,-0.816 -0.48,0 -0.78,0.12 -0.96,0.228 -0.348,0.204 -0.756,0.696 -0.756,1.632 0,0.984 0.468,1.704 0.648,1.992 0.324,0.54 0.708,1.032 1.02,1.584 0.312,0.528 0.408,0.864 0.408,1.476 0,0.384 0.012,0.984 -0.54,0.996 -0.18,0 -0.288,-0.072 -0.336,-0.108 -0.18,-0.12 -0.24,-0.3 -0.24,-0.708 v -1.548 h -1.032 v 1.404 c 0,0.492 0.024,0.948 0.372,1.344 0.18,0.216 0.552,0.504 1.236,0.504 0.372,0 0.6,-0.072 0.744,-0.132 0.948,-0.432 0.936,-1.704 0.936,-1.884 z m 3.624,1.86 v -1.068 h -1.656 v -2.808 h 1.476 v -1.056 h -1.488 v -2.484 h 1.668 v -1.056 h -2.796 v 8.472 z"
       id="text11"
       transform="translate(374.99187,78.976585)"
       aria-label="PHASE" />
    <path
       style="font-weight:500;font-stretch:condensed;font-size:5.33333px;font-family:'Akzidenz-Grotesk BQ Condensed A';-inkscape-font-specification:'Akzidenz-Grotesk BQ Condensed A Medium Condensed';white-space:pre"
       d="m -239.75786,116.40376 v -3.74933 h -0.32533 c -0.0107,0.064 -0.0213,0.112 -0.048,0.17067 -0.032,0.0853 -0.0907,0.14933 -0.112,0.176 -0.14934,0.17066 -0.31467,0.18133 -0.4,0.192 l -0.005,0.368 h 0.416 v 2.84266 z m 2.35733,-0.81066 v -2.20267 c 0,-0.192 -0.016,-0.26133 -0.0427,-0.35733 -0.064,-0.208 -0.24,-0.44267 -0.72,-0.44267 -0.48534,0 -0.67734,0.24 -0.74667,0.448 -0.0213,0.0747 -0.0373,0.16 -0.0373,0.32533 v 2.176 c 0,0.22934 0,0.336 0.0373,0.45334 0.13333,0.44266 0.608,0.448 0.72533,0.448 0.20267,0 0.416,-0.0427 0.576,-0.18134 0.15467,-0.13866 0.208,-0.288 0.208,-0.66666 z m -0.45866,0.11733 c 0,0.0427 0.016,0.21867 -0.13334,0.304 -0.0587,0.032 -0.112,0.0373 -0.18133,0.0373 -0.34133,0 -0.32,-0.26133 -0.32,-0.368 v -2.39466 c 0,-0.208 0.0907,-0.336 0.32,-0.336 0.28267,0 0.31467,0.18133 0.31467,0.4 z m 2.34666,-0.11733 v -2.20267 c 0,-0.192 -0.016,-0.26133 -0.0427,-0.35733 -0.064,-0.208 -0.24,-0.44267 -0.72,-0.44267 -0.48534,0 -0.67734,0.24 -0.74667,0.448 -0.0213,0.0747 -0.0373,0.16 -0.0373,0.32533 v 2.176 c 0,0.22934 0,0.336 0.0373,0.45334 0.13333,0.44266 0.608,0.448 0.72533,0.448 0.20267,0 0.416,-0.0427 0.576,-0.18134 0.15467,-0.13866 0.208,-0.288 0.208,-0.66666 z m -0.45866,0.11733 c 0,0.0427 0.016,0.21867 -0.13334,0.304 -0.0587,0.032 -0.112,0.0373 -0.18133,0.0373 -0.34133,0 -0.32,-0.26133 -0.32,-0.368 v -2.39466 c 0,-0.208 0.0907,-0.336 0.32,-0.336 0.28267,0 0.31467,0.18133 0.31467,0.4 z m 3.63733,0.096 v -1.248 c 0,-0.10133 -0.005,-0.18133 -0.0373,-0.27733 -0.10133,-0.272 -0.384,-0.272 -0.464,-0.272 -0.26666,0 -0.39466,0.13333 -0.44266,0.24 -0.0427,0.0907 -0.0427,0.176 -0.0427,0.272 v 1.35466 c 0,0.18667 0.005,0.35734 0.18133,0.47467 0.0907,0.0587 0.19734,0.08 0.304,0.08 0.064,0 0.34667,0 0.45334,-0.24 0.0427,-0.0907 0.048,-0.18667 0.048,-0.384 z m -0.49067,-3.19467 -0.26133,-0.10666 -1.648,3.92533 0.26133,0.112 z m -1.41333,1.78667 v -1.248 c 0,-0.17067 -0.0107,-0.544 -0.50133,-0.544 -0.272,0 -0.4,0.13333 -0.44267,0.23467 -0.0427,0.096 -0.0427,0.18133 -0.0427,0.27733 v 1.35467 c 0,0.18133 0.005,0.35733 0.18134,0.47466 0.0907,0.0587 0.192,0.08 0.304,0.08 0.064,0 0.34666,0 0.45333,-0.24533 0.0427,-0.0907 0.048,-0.18133 0.048,-0.384 z m 1.6,1.568 c 0,0.0587 -0.005,0.20267 -0.18667,0.20267 -0.21867,0 -0.192,-0.19734 -0.192,-0.25067 v -1.424 c 0,-0.0587 -0.0213,-0.22933 0.18133,-0.23467 0.17067,0 0.19734,0.13334 0.19734,0.19734 z m -1.90934,-1.40267 c 0,0.0587 0,0.19734 -0.18133,0.19734 -0.21866,0 -0.192,-0.192 -0.192,-0.24534 v -1.424 c 0,-0.0587 -0.0213,-0.22933 0.18134,-0.23466 0.17066,0 0.19199,0.112 0.19199,0.176 z"
       id="text47"
       transform="translate(399.17762,-39.144434)"
       aria-label="100%" />
    <path
       style="font-weight:500;font-stretch:condensed;font-family:'Akzidenz-Grotesk BQ Condensed A';-inkscape-font-specification:'Akzidenz-Grotesk BQ Condensed A Medium Condensed';white-space:pre"
       d="m -237.33386,120.90785 c 0,-0.492 -0.072,-1.128 -0.66,-2.052 -0.12,-0.192 -0.24,-0.372 -0.372,-0.552 -0.168,-0.252 -0.336,-0.492 -0.492,-0.744 -0.372,-0.588 -0.564,-0.984 -0.564,-1.692 0,-0.396 0.012,-0.864 0.552,-0.864 0.468,0 0.432,0.48 0.444,0.576 v 1.5 h 1.02 v -1.5 c 0,-0.336 -0.036,-0.48 -0.084,-0.636 -0.264,-0.828 -1.116,-0.816 -1.344,-0.816 -0.48,0 -0.78,0.12 -0.96,0.228 -0.348,0.204 -0.756,0.696 -0.756,1.632 0,0.984 0.468,1.704 0.648,1.992 0.324,0.54 0.708,1.032 1.02,1.584 0.312,0.528 0.408,0.864 0.408,1.476 0,0.384 0.012,0.984 -0.54,0.996 -0.18,0 -0.288,-0.072 -0.336,-0.108 -0.18,-0.12 -0.24,-0.3 -0.24,-0.708 v -1.548 h -1.032 v 1.404 c 0,0.492 0.024,0.948 0.372,1.344 0.18,0.216 0.552,0.504 1.236,0.504 0.372,0 0.6,-0.072 0.744,-0.132 0.948,-0.432 0.936,-1.704 0.936,-1.884 z m 4.2,-5.616 v -0.996 h -3.744 v 0.996 h 1.284 v 7.476 h 1.14 v -7.476 z m 4.05601,7.476 -1.308,-8.472 h -1.356 l -1.2,8.472 h 1.092 l 0.192,-1.56 h 1.272 l 0.216,1.56 z m -1.452,-2.592 h -1.008 l 0.468,-4.404 z m 5.316,0.312 c 0,-0.228 -0.012,-0.444 -0.012,-0.66 -0.012,-0.588 0.012,-0.912 -0.12,-1.152 -0.156,-0.276 -0.504,-0.36 -0.804,-0.384 0,0 0.228,-0.036 0.348,-0.072 0.18,-0.048 0.372,-0.168 0.456,-0.348 0.12,-0.24 0.108,-0.612 0.108,-0.66 0.012,-0.264 0.024,-0.528 0.024,-0.792 0,-0.144 -0.012,-0.288 -0.012,-0.432 -0.012,-0.756 -0.012,-1.152 -0.312,-1.44 -0.276,-0.252 -0.648,-0.252 -0.996,-0.252 h -1.98 v 8.472 h 1.704 c 0.396,0 0.876,0.012 1.212,-0.264 0.36,-0.312 0.348,-0.888 0.36,-0.984 0.024,-0.348 0.024,-0.684 0.024,-1.032 z m -1.104,-3.924 c 0,0.408 -0.012,0.684 -0.036,0.852 -0.048,0.42 -0.3,0.432 -0.648,0.432 h -0.432 v -2.544 h 0.552 c 0.204,0 0.324,0 0.408,0.072 0.072,0.06 0.108,0.168 0.12,0.396 0.024,0.264 0.036,0.528 0.036,0.792 z m 0.024,3.684 c 0,0.492 -0.024,1.056 -0.036,1.188 -0.048,0.312 -0.276,0.288 -0.528,0.288 h -0.576 v -2.952 h 0.624 c 0.108,0 0.252,0.012 0.348,0.096 0.12,0.12 0.132,0.372 0.144,0.528 0.012,0.288 0.024,0.564 0.024,0.852 z m 3.072,2.52 v -8.472 h -1.104 v 8.472 z m 3.936,0 v -1.044 h -1.848 v -7.428 h -1.116 v 8.472 z m 1.57199,0 v -8.472 h -1.104 v 8.472 z m 4.332,-7.476 v -0.996 h -3.744 v 0.996 h 1.284 v 7.476 h 1.14 v -7.476 z m 4.068,-0.996 h -1.128 l -0.852,3.384 -0.78,-3.384 h -1.14 l 1.284,4.932 v 3.54 h 1.212 v -3.552 z"
       id="text1"
       transform="translate(369.26844,-102.46122)"
       aria-label="STABILITY" />
    <g
       id="g73"
       transform="translate(109.72718,89.552555)"
       style="display:inline">
      <path
         style="fill:none;fill-opacity:1;stroke:#231f20;stroke-linecap:round;stroke-linejoin:round;stroke-opacity:1"
         d="m 14.400001,164.40945 v 1.88976"
         id="path72" />
      <path
         style="fill:none;fill-opacity:1;stroke:#231f20;stroke-linecap:round;stroke-linejoin:round;stroke-opacity:1"
         d="m 16.800001,164.40945 v 1.88976"
         id="path73" />
    </g>
    <g
       id="g75"
       transform="translate(127.21359,39.270262)"
       style="display:inline">
      <path
         style="fill:none;fill-opacity:1;stroke:#231f20;stroke-linecap:round;stroke-linejoin:round;stroke-opacity:1"
         d="m 14.400002,170.07874 v 1.88976"
         id="path74" />
      <path
         style="fill:none;fill-opacity:1;stroke:#231f20;stroke-linecap:round;stroke-linejoin:round;stroke-opacity:1"
         d="m 19.200003,170.07874 v 1.88976"
         id="path75" />
    </g>
    <g
       id="use78"
       transform="translate(143.50001,78.213975)"
       style="display:inline">
      <path
         style="fill:none;fill-opacity:1;stroke:#231f20;stroke-linecap:round;stroke-linejoin:round;stroke-opacity:1"
         d="m 14.400001,175.74803 v 1.88976"
         id="path87" />
      <path
         style="fill:none;fill-opacity:1;stroke:#231f20;stroke-linecap:round;stroke-linejoin:round;stroke-opacity:1"
         d="m 24.000002,175.74803 v 1.88976"
         id="path88" />
    </g>
    <path
       style="font-weight:500;font-stretch:condensed;font-size:5.33333px;font-family:'Akzidenz-Grotesk BQ Condensed A';-inkscape-font-specification:'Akzidenz-Grotesk BQ Condensed A Medium Condensed';white-space:pre"
       d="m -239.30453,115.74776 v -1.392 c 0,-0.144 -0.0107,-0.19733 -0.0373,-0.272 -0.08,-0.25066 -0.30933,-0.336 -0.55467,-0.336 -0.24,0 -0.368,0.0907 -0.44266,0.15467 v -0.81067 h 0.928 v -0.432 h -1.344 v 1.89334 h 0.39466 v -0.08 c 0,-0.10134 0.016,-0.15467 0.0373,-0.19734 0.032,-0.064 0.10666,-0.13333 0.272,-0.13333 0.28266,0 0.288,0.21333 0.288,0.31467 v 1.21066 c 0,0.11734 0.0107,0.272 -0.10667,0.352 -0.0533,0.0373 -0.128,0.0533 -0.192,0.0533 -0.0587,0 -0.12267,-0.016 -0.17067,-0.0533 -0.0853,-0.0587 -0.10133,-0.15466 -0.10133,-0.25066 v -0.52267 h -0.448 v 0.55467 c 0,0.112 0,0.208 0.048,0.31466 0.10133,0.23467 0.368,0.29867 0.432,0.31467 0.112,0.0213 0.21867,0.0213 0.26133,0.0213 0.096,0 0.56534,0.016 0.69867,-0.40533 0.0427,-0.128 0.0373,-0.25067 0.0373,-0.29867 z m 1.904,-0.15466 v -2.20267 c 0,-0.192 -0.016,-0.26133 -0.0427,-0.35733 -0.064,-0.208 -0.24,-0.44267 -0.72,-0.44267 -0.48534,0 -0.67734,0.24 -0.74667,0.448 -0.0213,0.0747 -0.0373,0.16 -0.0373,0.32533 v 2.176 c 0,0.22934 0,0.336 0.0373,0.45334 0.13333,0.44266 0.608,0.448 0.72533,0.448 0.20267,0 0.416,-0.0427 0.576,-0.18134 0.15467,-0.13866 0.208,-0.288 0.208,-0.66666 z m -0.45866,0.11733 c 0,0.0427 0.016,0.21867 -0.13334,0.304 -0.0587,0.032 -0.112,0.0373 -0.18133,0.0373 -0.34133,0 -0.32,-0.26133 -0.32,-0.368 v -2.39466 c 0,-0.208 0.0907,-0.336 0.32,-0.336 0.28267,0 0.31467,0.18133 0.31467,0.4 z m 3.63733,0.096 v -1.248 c 0,-0.10133 -0.005,-0.18133 -0.0373,-0.27733 -0.10133,-0.272 -0.384,-0.272 -0.464,-0.272 -0.26666,0 -0.39466,0.13333 -0.44266,0.24 -0.0427,0.0907 -0.0427,0.176 -0.0427,0.272 v 1.35466 c 0,0.18667 0.005,0.35734 0.18133,0.47467 0.0907,0.0587 0.19734,0.08 0.304,0.08 0.064,0 0.34667,0 0.45334,-0.24 0.0427,-0.0907 0.048,-0.18667 0.048,-0.384 z m -0.49067,-3.19467 -0.26133,-0.10666 -1.648,3.92533 0.26133,0.112 z m -1.41333,1.78667 v -1.248 c 0,-0.17067 -0.0107,-0.544 -0.50133,-0.544 -0.272,0 -0.4,0.13333 -0.44267,0.23467 -0.0427,0.096 -0.0427,0.18133 -0.0427,0.27733 v 1.35467 c 0,0.18133 0.005,0.35733 0.18134,0.47466 0.0907,0.0587 0.192,0.08 0.304,0.08 0.064,0 0.34666,0 0.45333,-0.24533 0.0427,-0.0907 0.048,-0.18133 0.048,-0.384 z m 1.6,1.568 c 0,0.0587 -0.005,0.20267 -0.18667,0.20267 -0.21867,0 -0.192,-0.19734 -0.192,-0.25067 v -1.424 c 0,-0.0587 -0.0213,-0.22933 0.18133,-0.23467 0.17067,0 0.19734,0.13334 0.19734,0.19734 z m -1.90933,-1.40267 c 0,0.0587 0,0.19734 -0.18134,0.19734 -0.21866,0 -0.192,-0.192 -0.192,-0.24534 v -1.424 c 0,-0.0587 -0.0213,-0.22933 0.18134,-0.23466 0.17066,0 0.192,0.112 0.192,0.176 z"
       id="text49"
       transform="translate(381.50187,-83.757439)"
       aria-label="50%" />
    <path
       style="font-weight:500;font-stretch:condensed;font-size:5.33333px;font-family:'Akzidenz-Grotesk BQ Condensed A';-inkscape-font-specification:'Akzidenz-Grotesk BQ Condensed A Medium Condensed';white-space:pre"
       d="m -239.28853,115.5931 v -2.20267 c 0,-0.192 -0.016,-0.26133 -0.0427,-0.35733 -0.064,-0.208 -0.24,-0.44267 -0.72,-0.44267 -0.48534,0 -0.67734,0.24 -0.74667,0.448 -0.0213,0.0747 -0.0373,0.16 -0.0373,0.32533 v 2.176 c 0,0.22934 0,0.336 0.0373,0.45334 0.13333,0.44266 0.608,0.448 0.72533,0.448 0.20267,0 0.416,-0.0427 0.576,-0.18134 0.15467,-0.13866 0.208,-0.288 0.208,-0.66666 z m -0.45866,0.11733 c 0,0.0427 0.016,0.21867 -0.13334,0.304 -0.0587,0.032 -0.112,0.0373 -0.18133,0.0373 -0.34133,0 -0.32,-0.26133 -0.32,-0.368 v -2.39466 c 0,-0.208 0.0907,-0.336 0.32,-0.336 0.28267,0 0.31467,0.18133 0.31467,0.4 z m 3.63733,0.096 v -1.248 c 0,-0.10133 -0.005,-0.18133 -0.0373,-0.27733 -0.10133,-0.272 -0.38399,-0.272 -0.46399,-0.272 -0.26667,0 -0.39467,0.13333 -0.44267,0.24 -0.0427,0.0907 -0.0427,0.176 -0.0427,0.272 v 1.35466 c 0,0.18667 0.005,0.35734 0.18134,0.47467 0.0907,0.0587 0.19733,0.08 0.304,0.08 0.064,0 0.34666,0 0.45333,-0.24 0.0427,-0.0907 0.048,-0.18667 0.048,-0.384 z m -0.49067,-3.19467 -0.26133,-0.10666 -1.648,3.92533 0.26133,0.112 z m -1.41333,1.78667 v -1.248 c 0,-0.17067 -0.0107,-0.544 -0.50133,-0.544 -0.272,0 -0.4,0.13333 -0.44267,0.23467 -0.0427,0.096 -0.0427,0.18133 -0.0427,0.27733 v 1.35467 c 0,0.18133 0.005,0.35733 0.18134,0.47466 0.0907,0.0587 0.192,0.08 0.304,0.08 0.064,0 0.34666,0 0.45333,-0.24533 0.0427,-0.0907 0.048,-0.18133 0.048,-0.384 z m 1.6,1.568 c 0,0.0587 -0.005,0.20267 -0.18667,0.20267 -0.21866,0 -0.192,-0.19734 -0.192,-0.25067 v -1.424 c 0,-0.0587 -0.0213,-0.22933 0.18134,-0.23467 0.17066,0 0.19733,0.13334 0.19733,0.19734 z m -1.90933,-1.40267 c 0,0.0587 0,0.19734 -0.18134,0.19734 -0.21866,0 -0.192,-0.192 -0.192,-0.24534 v -1.424 c 0,-0.0587 -0.0213,-0.22933 0.18134,-0.23466 0.17066,0 0.192,0.112 0.192,0.176 z"
       id="text48"
       transform="translate(363.78612,-39.144434)"
       aria-label="0%" />
    <g
       id="g77"
       transform="translate(143.50001,78.213976)"
       style="display:inline">
      <path
         style="fill:none;fill-opacity:1;stroke:#231f20;stroke-linecap:round;stroke-linejoin:round;stroke-opacity:1"
         d="m 14.400001,175.74803 v 1.88976"
         id="path76" />
      <path
         style="fill:none;fill-opacity:1;stroke:#231f20;stroke-linecap:round;stroke-linejoin:round;stroke-opacity:1"
         d="m 24.000002,175.74803 v 1.88976"
         id="path77" />
    </g>
    <path
       style="font-weight:500;font-stretch:condensed;font-size:5.33333px;font-family:'Akzidenz-Grotesk BQ Condensed A';-inkscape-font-specification:'Akzidenz-Grotesk BQ Condensed A Medium Condensed';white-space:pre"
       d="m -239.92319,115.07576 v -0.448 h -0.944 v 0.448 z m 1.84,0.672 v -1.392 c 0,-0.144 -0.0107,-0.19733 -0.0373,-0.272 -0.08,-0.25066 -0.30933,-0.336 -0.55466,-0.336 -0.24,0 -0.368,0.0907 -0.44267,0.15467 v -0.81067 h 0.928 v -0.432 h -1.344 v 1.89334 h 0.39467 v -0.08 c 0,-0.10134 0.016,-0.15467 0.0373,-0.19734 0.032,-0.064 0.10667,-0.13333 0.272,-0.13333 0.28267,0 0.288,0.21333 0.288,0.31467 v 1.21066 c 0,0.11734 0.0107,0.272 -0.10667,0.352 -0.0533,0.0373 -0.128,0.0533 -0.192,0.0533 -0.0587,0 -0.12266,-0.016 -0.17066,-0.0533 -0.0853,-0.0587 -0.10134,-0.15466 -0.10134,-0.25066 v -0.52267 h -0.448 v 0.55467 c 0,0.112 0,0.208 0.048,0.31466 0.10134,0.23467 0.368,0.29867 0.432,0.31467 0.112,0.0213 0.21867,0.0213 0.26134,0.0213 0.096,0 0.56533,0.016 0.69866,-0.40533 0.0427,-0.128 0.0373,-0.25067 0.0373,-0.29867 z m 1.6,-2.20266 h -0.43734 l -0.25066,2.22933 -0.25067,-2.22933 h -0.43733 l 0.42133,2.85866 h 0.512 z"
       id="text78"
       transform="translate(267.98878,45.854937)"
       aria-label="-5v" />
    <path
       style="font-weight:500;font-stretch:condensed;font-size:5.33333px;font-family:'Akzidenz-Grotesk BQ Condensed A';-inkscape-font-specification:'Akzidenz-Grotesk BQ Condensed A Medium Condensed';white-space:pre"
       d="m -239.28853,115.5931 v -2.20267 c 0,-0.192 -0.016,-0.26133 -0.0427,-0.35733 -0.064,-0.208 -0.24,-0.44267 -0.72,-0.44267 -0.48534,0 -0.67734,0.24 -0.74667,0.448 -0.0213,0.0747 -0.0373,0.16 -0.0373,0.32533 v 2.176 c 0,0.22934 0,0.336 0.0373,0.45334 0.13333,0.44266 0.608,0.448 0.72533,0.448 0.20267,0 0.416,-0.0427 0.576,-0.18134 0.15467,-0.13866 0.208,-0.288 0.208,-0.66666 z m -0.45866,0.11733 c 0,0.0427 0.016,0.21867 -0.13334,0.304 -0.0587,0.032 -0.112,0.0373 -0.18133,0.0373 -0.34133,0 -0.32,-0.26133 -0.32,-0.368 v -2.39466 c 0,-0.208 0.0907,-0.336 0.32,-0.336 0.28267,0 0.31467,0.18133 0.31467,0.4 z m 2.04266,-2.16533 h -0.43733 l -0.25067,2.22933 -0.25066,-2.22933 h -0.43734 l 0.42134,2.85866 h 0.512 z"
       id="text79"
       transform="translate(287.26986,1.2899281)"
       aria-label="0v" />
    <path
       style="font-weight:500;font-stretch:condensed;font-size:5.33333px;font-family:'Akzidenz-Grotesk BQ Condensed A';-inkscape-font-specification:'Akzidenz-Grotesk BQ Condensed A Medium Condensed';white-space:pre"
       d="m -239.30453,115.74776 v -1.392 c 0,-0.144 -0.0107,-0.19733 -0.0373,-0.272 -0.08,-0.25066 -0.30933,-0.336 -0.55467,-0.336 -0.24,0 -0.368,0.0907 -0.44266,0.15467 v -0.81067 h 0.928 v -0.432 h -1.344 v 1.89334 h 0.39466 v -0.08 c 0,-0.10134 0.016,-0.15467 0.0373,-0.19734 0.032,-0.064 0.10666,-0.13333 0.272,-0.13333 0.28266,0 0.288,0.21333 0.288,0.31467 v 1.21066 c 0,0.11734 0.0107,0.272 -0.10667,0.352 -0.0533,0.0373 -0.128,0.0533 -0.192,0.0533 -0.0587,0 -0.12267,-0.016 -0.17067,-0.0533 -0.0853,-0.0587 -0.10133,-0.15466 -0.10133,-0.25066 v -0.52267 h -0.448 v 0.55467 c 0,0.112 0,0.208 0.048,0.31466 0.10133,0.23467 0.368,0.29867 0.432,0.31467 0.112,0.0213 0.21867,0.0213 0.26133,0.0213 0.096,0 0.56534,0.016 0.69867,-0.40533 0.0427,-0.128 0.0373,-0.25067 0.0373,-0.29867 z m 1.6,-2.20266 h -0.43733 l -0.25067,2.22933 -0.25066,-2.22933 h -0.43734 l 0.42134,2.85866 h 0.512 z"
       id="text80"
       transform="translate(305.93894,45.854936)"
       aria-label="5v" />
    <path
       id="rect4"
       style="fill:#0038ff;fill-opacity:0.238095;stroke-linecap:round;stroke-linejoin:round"
       d="M 89.600006,92.598427 H 101.60001 V 111.49607 H 89.600006 Z" />
    <path
       id="rect8"
       style="fill:#0038ff;fill-opacity:0.238095;stroke-linecap:round;stroke-linejoin:round"
       d="M 89.600006,83.149605 H 101.60001 V 120.94487 H 89.600006 Z" />
    <path
       style="font-weight:500;font-stretch:condensed;font-size:5.33333px;font-family:'Akzidenz-Grotesk BQ Condensed A';-inkscape-font-specification:'Akzidenz-Grotesk BQ Condensed A Medium Condensed';white-space:pre;fill:#666666"
       d="m -239.29386,116.40376 v -0.42133 h -1.01333 c 0.005,-0.0533 0.016,-0.10133 0.0267,-0.14933 0.10667,-0.416 0.42134,-0.82134 0.48,-0.90667 0.21867,-0.31467 0.352,-0.528 0.41067,-0.68267 0.064,-0.176 0.0747,-0.32 0.0747,-0.67733 0,-0.128 0,-0.256 -0.0107,-0.384 -0.005,-0.0747 -0.016,-0.26667 -0.176,-0.41067 -0.15467,-0.144 -0.368,-0.16533 -0.57067,-0.16533 -0.096,0 -0.60266,-0.0213 -0.72,0.43733 -0.0267,0.112 -0.0213,0.23467 -0.0213,0.272 v 0.57067 h 0.45867 v -0.60267 c 0,-0.112 0.0107,-0.21333 0.12266,-0.272 0.0267,-0.016 0.0853,-0.0373 0.16534,-0.0373 0.30933,0 0.28266,0.29867 0.28266,0.37333 v 0.37334 c 0,0.224 -0.016,0.31466 -0.0587,0.42666 -0.0693,0.18134 -0.15467,0.272 -0.36267,0.56534 -0.30933,0.43733 -0.43733,0.69866 -0.50667,0.944 -0.096,0.33066 -0.0853,0.61866 -0.0853,0.74666 z m 0.77333,0 v -0.704 h -0.43733 v 0.704 z m 1.88267,-0.656 v -1.392 c 0,-0.144 -0.0107,-0.19733 -0.0373,-0.272 -0.08,-0.25066 -0.30933,-0.336 -0.55466,-0.336 -0.24,0 -0.368,0.0907 -0.44267,0.15467 v -0.81067 h 0.928 v -0.432 h -1.344 v 1.89334 h 0.39467 v -0.08 c 0,-0.10134 0.016,-0.15467 0.0373,-0.19734 0.032,-0.064 0.10667,-0.13333 0.272,-0.13333 0.28267,0 0.288,0.21333 0.288,0.31467 v 1.21066 c 0,0.11734 0.0107,0.272 -0.10666,0.352 -0.0533,0.0373 -0.128,0.0533 -0.192,0.0533 -0.0587,0 -0.12267,-0.016 -0.17067,-0.0533 -0.0853,-0.0587 -0.10133,-0.15466 -0.10133,-0.25066 v -0.52267 h -0.448 v 0.55467 c 0,0.112 0,0.208 0.048,0.31466 0.10133,0.23467 0.368,0.29867 0.432,0.31467 0.112,0.0213 0.21866,0.0213 0.26133,0.0213 0.096,0 0.56533,0.016 0.69866,-0.40533 0.0427,-0.128 0.0373,-0.25067 0.0373,-0.29867 z m 1.6,-2.20266 h -0.43734 l -0.25066,2.22933 -0.25067,-2.22933 h -0.43733 l 0.42133,2.85866 h 0.512 z"
       id="text10"
       transform="translate(348.8192,-21.979569)"
       aria-label="2.5v" />
    <path
       style="font-weight:500;font-stretch:condensed;font-size:5.33333px;font-family:'Akzidenz-Grotesk BQ Condensed A';-inkscape-font-specification:'Akzidenz-Grotesk BQ Condensed A Medium Condensed';white-space:pre;fill:#666666"
       d="m -239.30453,115.74776 v -1.392 c 0,-0.144 -0.0107,-0.19733 -0.0373,-0.272 -0.08,-0.25066 -0.30933,-0.336 -0.55467,-0.336 -0.24,0 -0.368,0.0907 -0.44266,0.15467 v -0.81067 h 0.928 v -0.432 h -1.344 v 1.89334 h 0.39466 v -0.08 c 0,-0.10134 0.016,-0.15467 0.0373,-0.19734 0.032,-0.064 0.10666,-0.13333 0.272,-0.13333 0.28266,0 0.288,0.21333 0.288,0.31467 v 1.21066 c 0,0.11734 0.0107,0.272 -0.10667,0.352 -0.0533,0.0373 -0.128,0.0533 -0.192,0.0533 -0.0587,0 -0.12267,-0.016 -0.17067,-0.0533 -0.0853,-0.0587 -0.10133,-0.15466 -0.10133,-0.25066 v -0.52267 h -0.448 v 0.55467 c 0,0.112 0,0.208 0.048,0.31466 0.10133,0.23467 0.368,0.29867 0.432,0.31467 0.112,0.0213 0.21867,0.0213 0.26133,0.0213 0.096,0 0.56534,0.016 0.69867,-0.40533 0.0427,-0.128 0.0373,-0.25067 0.0373,-0.29867 z m 1.6,-2.20266 h -0.43733 l -0.25067,2.22933 -0.25066,-2.22933 h -0.43734 l 0.42134,2.85866 h 0.512 z"
       id="text50"
       transform="translate(350.8192,-31.325257)"
       aria-label="5v" />
    <path
       style="font-weight:500;font-stretch:condensed;font-size:5.33333px;font-family:'Akzidenz-Grotesk BQ Condensed A';-inkscape-font-specification:'Akzidenz-Grotesk BQ Condensed A Medium Condensed';white-space:pre;fill:#666666"
       d="m -239.29386,116.40376 v -0.42133 h -1.01333 c 0.005,-0.0533 0.016,-0.10133 0.0267,-0.14933 0.10667,-0.416 0.42134,-0.82134 0.48,-0.90667 0.21867,-0.31467 0.352,-0.528 0.41067,-0.68267 0.064,-0.176 0.0747,-0.32 0.0747,-0.67733 0,-0.128 0,-0.256 -0.0107,-0.384 -0.005,-0.0747 -0.016,-0.26667 -0.176,-0.41067 -0.15467,-0.144 -0.368,-0.16533 -0.57067,-0.16533 -0.096,0 -0.60266,-0.0213 -0.72,0.43733 -0.0267,0.112 -0.0213,0.23467 -0.0213,0.272 v 0.57067 h 0.45867 v -0.60267 c 0,-0.112 0.0107,-0.21333 0.12266,-0.272 0.0267,-0.016 0.0853,-0.0373 0.16534,-0.0373 0.30933,0 0.28266,0.29867 0.28266,0.37333 v 0.37334 c 0,0.224 -0.016,0.31466 -0.0587,0.42666 -0.0693,0.18134 -0.15467,0.272 -0.36267,0.56534 -0.30933,0.43733 -0.43733,0.69866 -0.50667,0.944 -0.096,0.33066 -0.0853,0.61866 -0.0853,0.74666 z m 0.77333,0 v -0.704 h -0.43733 v 0.704 z m 1.88267,-0.656 v -1.392 c 0,-0.144 -0.0107,-0.19733 -0.0373,-0.272 -0.08,-0.25066 -0.30933,-0.336 -0.55466,-0.336 -0.24,0 -0.368,0.0907 -0.44267,0.15467 v -0.81067 h 0.928 v -0.432 h -1.344 v 1.89334 h 0.39467 v -0.08 c 0,-0.10134 0.016,-0.15467 0.0373,-0.19734 0.032,-0.064 0.10667,-0.13333 0.272,-0.13333 0.28267,0 0.288,0.21333 0.288,0.31467 v 1.21066 c 0,0.11734 0.0107,0.272 -0.10666,0.352 -0.0533,0.0373 -0.128,0.0533 -0.192,0.0533 -0.0587,0 -0.12267,-0.016 -0.17067,-0.0533 -0.0853,-0.0587 -0.10133,-0.15466 -0.10133,-0.25066 v -0.52267 h -0.448 v 0.55467 c 0,0.112 0,0.208 0.048,0.31466 0.10133,0.23467 0.368,0.29867 0.432,0.31467 0.112,0.0213 0.21866,0.0213 0.26133,0.0213 0.096,0 0.56533,0.016 0.69866,-0.40533 0.0427,-0.128 0.0373,-0.25067 0.0373,-0.29867 z m 1.6,-2.20266 h -0.43734 l -0.25066,2.22933 -0.25067,-2.22933 h -0.43733 l 0.42133,2.85866 h 0.512 z"
       id="text67"
       transform="translate(347.83787,-3.0819314)"
       aria-label="2.5v" />
    <path
       style="font-weight:500;font-stretch:condensed;font-size:5.33333px;font-family:'Akzidenz-Grotesk BQ Condensed A';-inkscape-font-specification:'Akzidenz-Grotesk BQ Condensed A Medium Condensed';white-space:pre;fill:#666666"
       d="m -239.30453,115.74776 v -1.392 c 0,-0.144 -0.0107,-0.19733 -0.0373,-0.272 -0.08,-0.25066 -0.30933,-0.336 -0.55467,-0.336 -0.24,0 -0.368,0.0907 -0.44266,0.15467 v -0.81067 h 0.928 v -0.432 h -1.344 v 1.89334 h 0.39466 v -0.08 c 0,-0.10134 0.016,-0.15467 0.0373,-0.19734 0.032,-0.064 0.10666,-0.13333 0.272,-0.13333 0.28266,0 0.288,0.21333 0.288,0.31467 v 1.21066 c 0,0.11734 0.0107,0.272 -0.10667,0.352 -0.0533,0.0373 -0.128,0.0533 -0.192,0.0533 -0.0587,0 -0.12267,-0.016 -0.17067,-0.0533 -0.0853,-0.0587 -0.10133,-0.15466 -0.10133,-0.25066 v -0.52267 h -0.448 v 0.55467 c 0,0.112 0,0.208 0.048,0.31466 0.10133,0.23467 0.368,0.29867 0.432,0.31467 0.112,0.0213 0.21867,0.0213 0.26133,0.0213 0.096,0 0.56534,0.016 0.69867,-0.40533 0.0427,-0.128 0.0373,-0.25067 0.0373,-0.29867 z m 1.6,-2.20266 h -0.43733 l -0.25067,2.22933 -0.25066,-2.22933 h -0.43734 l 0.42134,2.85866 h 0.512 z"
       id="text69"
       transform="translate(350.78187,6.3668868)"
       aria-label="5v" />
    <path
       style="fill:none;stroke:#231f20;stroke-linecap:round;stroke-linejoin:round"
       d="M 95.600008,83.149606 V 120.94488"
       id="path2" />
    <path
       style="fill:none;stroke:#231f20;stroke-linecap:round;stroke-linejoin:round"
       d="M 114.80001,102.04725 H 76.400007"
       id="path3" />
    <path
       style="font-weight:500;font-stretch:condensed;font-size:5.33333px;font-family:'Akzidenz-Grotesk BQ Condensed A';-inkscape-font-specification:'Akzidenz-Grotesk BQ Condensed A Medium Condensed';white-space:pre;fill:#666666"
       d="m -239.30453,115.74776 v -1.392 c 0,-0.144 -0.0107,-0.19733 -0.0373,-0.272 -0.08,-0.25066 -0.30933,-0.336 -0.55467,-0.336 -0.24,0 -0.368,0.0907 -0.44266,0.15467 v -0.81067 h 0.928 v -0.432 h -1.344 v 1.89334 h 0.39466 v -0.08 c 0,-0.10134 0.016,-0.15467 0.0373,-0.19734 0.032,-0.064 0.10666,-0.13333 0.272,-0.13333 0.28266,0 0.288,0.21333 0.288,0.31467 v 1.21066 c 0,0.11734 0.0107,0.272 -0.10667,0.352 -0.0533,0.0373 -0.128,0.0533 -0.192,0.0533 -0.0587,0 -0.12267,-0.016 -0.17067,-0.0533 -0.0853,-0.0587 -0.10133,-0.15466 -0.10133,-0.25066 v -0.52267 h -0.448 v 0.55467 c 0,0.112 0,0.208 0.048,0.31466 0.10133,0.23467 0.368,0.29867 0.432,0.31467 0.112,0.0213 0.21867,0.0213 0.26133,0.0213 0.096,0 0.56534,0.016 0.69867,-0.40533 0.0427,-0.128 0.0373,-0.25067 0.0373,-0.29867 z m 1.6,-2.20266 h -0.43733 l -0.25067,2.22933 -0.25066,-2.22933 h -0.43734 l 0.42134,2.85866 h 0.512 z"
       id="text71"
       transform="translate(320.50453,-31.399924)"
       aria-label="5v" />
    <path
       style="font-weight:500;font-stretch:condensed;font-size:5.33333px;font-family:'Akzidenz-Grotesk BQ Condensed A';-inkscape-font-specification:'Akzidenz-Grotesk BQ Condensed A Medium Condensed';white-space:pre;fill:#666666"
       d="m -239.92319,115.07576 v -0.448 h -0.944 v 0.448 z m 1.84,0.672 v -1.392 c 0,-0.144 -0.0107,-0.19733 -0.0373,-0.272 -0.08,-0.25066 -0.30933,-0.336 -0.55466,-0.336 -0.24,0 -0.368,0.0907 -0.44267,0.15467 v -0.81067 h 0.928 v -0.432 h -1.344 v 1.89334 h 0.39467 v -0.08 c 0,-0.10134 0.016,-0.15467 0.0373,-0.19734 0.032,-0.064 0.10667,-0.13333 0.272,-0.13333 0.28267,0 0.288,0.21333 0.288,0.31467 v 1.21066 c 0,0.11734 0.0107,0.272 -0.10667,0.352 -0.0533,0.0373 -0.128,0.0533 -0.192,0.0533 -0.0587,0 -0.12266,-0.016 -0.17066,-0.0533 -0.0853,-0.0587 -0.10134,-0.15466 -0.10134,-0.25066 v -0.52267 h -0.448 v 0.55467 c 0,0.112 0,0.208 0.048,0.31466 0.10134,0.23467 0.368,0.29867 0.432,0.31467 0.112,0.0213 0.21867,0.0213 0.26134,0.0213 0.096,0 0.56533,0.016 0.69866,-0.40533 0.0427,-0.128 0.0373,-0.25067 0.0373,-0.29867 z m 1.6,-2.20266 h -0.43734 l -0.25066,2.22933 -0.25067,-2.22933 h -0.43733 l 0.42133,2.85866 h 0.512 z"
       id="text75"
       transform="translate(319.28319,6.3668868)"
       aria-label="-5v" />
    <path
       style="fill:none;fill-opacity:1;stroke:#666666;stroke-linecap:round;stroke-linejoin:round;stroke-opacity:1"
       d="m 115.20001,83.149606 h 4.8 v 37.795274 h -4.8"
       id="path79" />
    <path
       style="fill:#e6e6e6;fill-opacity:1;stroke:#666666;stroke-linecap:round;stroke-linejoin:round;stroke-opacity:1"
       d="m 76.800007,83.149604 h -4.8"
       id="path80" />
    <path
       style="fill:#e6e6e6;fill-opacity:1;stroke:#666666;stroke-linecap:round;stroke-linejoin:round;stroke-opacity:1"
       d="m 76.800006,120.94488 h -4.8"
       id="path81" />
    <path
       style="fill:#e6e6e6;fill-opacity:1;stroke:#666666;stroke-width:0.999997;stroke-linecap:round;stroke-linejoin:round;stroke-opacity:1"
       d="m 74.400006,92.598424 h -2.4"
       id="path82" />
    <path
       style="fill:#e6e6e6;fill-opacity:1;stroke:#666666;stroke-width:0.999997;stroke-linecap:round;stroke-linejoin:round;stroke-opacity:1"
       d="m 74.400006,111.49606 h -2.4"
       id="path83" />
    <path
       style="fill:#e6e6e6;fill-opacity:1;stroke:#666666;stroke-width:1;stroke-linecap:round;stroke-linejoin:round;stroke-opacity:1"
       d="M 74.150007,102.04724 H 71.750006"
       id="path84" />
    <path
       style="fill:#e6e6e6;fill-opacity:1;stroke:#666666;stroke-width:1;stroke-linecap:round;stroke-linejoin:round;stroke-opacity:1"
       d="M 68.936211,102.04724 H 62.563797"
       id="path85" />
    <path
       style="fill:#e6e6e6;fill-opacity:1;stroke:#666666;stroke-width:1;stroke-linecap:round;stroke-linejoin:round;stroke-opacity:1"
       d="m 128.77243,102.04724 h -6.37242"
       id="path86" />
  </g>
  <g
     inkscape:groupmode="layer"
     id="layer1"
     inkscape:label="components"
     style="display:inline"
     sodipodi:insensitive="true">
    <circle
       style="fill:#ff0000;stroke:none"
       id="circle10"
       cx="48.000004"
       cy="236.22047"
       r="13.020405"
       inkscape:label="ParamFrequency" />
    <circle
       style="display:inline;fill:#ff0000;stroke:none"
       id="path1"
       cx="47.802315"
       cy="58.344349"
       r="13.020405"
       inkscape:label="ParamShape"
       transform="translate(0.1976891,-1.6514366)" />
    <circle
       style="display:inline;fill:#ff0000;stroke:none"
       id="circle8"
       cx="47.802315"
       cy="236.07457"
       r="13.020405"
       inkscape:label="ParamCenter"
       transform="translate(0.19768934,-94.50687)" />
    <circle
       style="fill:#ff0000;stroke:none"
       id="circle9"
       cx="144.00002"
       cy="141.73228"
       r="13.020405"
       inkscape:label="ParamXSpread" />
    <circle
       style="fill:#ff0000;stroke:none"
       id="circle11"
       cx="144.00002"
       cy="56.692913"
       r="13.020405"
       inkscape:label="ParamStability" />
    <circle
       style="fill:#ff0000;stroke:none"
       id="circle12"
       cx="144.00002"
       cy="236.22047"
       r="13.020405"
       inkscape:label="ParamYSpread" />
    <circle
       style="fill:#00ff00;stroke:none;stroke-width:1"
       id="circle13"
       cx="23.832815"
       cy="322.64069"
       r="4.3401351"
       inkscape:label="InShape" />
    <circle
       style="fill:#0000ff;fill-opacity:1;stroke:none;stroke-width:1"
       id="circle15"
       cx="23.832815"
       cy="443.5784"
       r="4.3401351"
       inkscape:label="OutA" />
    <circle
       style="fill:#0000ff;fill-opacity:1;stroke:none;stroke-width:1"
       id="circle16"
       cx="71.639389"
       r="4.3401351"
       inkscape:label="OutB"
       cy="443.5784" />
    <circle
       style="fill:#0000ff;fill-opacity:1;stroke:none;stroke-width:1"
       id="circle17"
       cx="119.31353"
       cy="443.5784"
       r="4.3401351"
       inkscape:label="OutC" />
    <circle
       style="fill:#0000ff;fill-opacity:1;stroke:none;stroke-width:1"
       id="circle18"
       cx="166.98767"
       cy="443.5784"
       r="4.3401351"
       inkscape:label="OutD" />
    <circle
       style="fill:#0000ff;fill-opacity:1;stroke:none;stroke-width:1"
       id="circle19"
       cx="166.98767"
       cy="385.63715"
       r="4.3401351"
       inkscape:label="OutMax" />
    <circle
       style="fill:#00ff00;stroke:none;stroke-width:1"
       id="circle20"
       cx="119.31353"
       cy="385.63715"
       r="4.3401351"
       inkscape:label="InYSpread" />
    <circle
       style="fill:#00ff00;stroke:none;stroke-width:1"
       id="circle21"
       cx="71.639389"
       cy="385.63715"
       r="4.3401351"
       inkscape:label="InCenter" />
    <circle
       style="fill:#0000ff;fill-opacity:1;stroke:none;stroke-width:1"
       id="circle22"
       cx="23.639292"
       cy="387.22815"
       r="4.3401351"
       inkscape:label="OutMin" />
    <circle
       style="fill:#00ff00;stroke:none;stroke-width:1"
       id="circle23"
       cx="166.98767"
       cy="322.64069"
       r="4.3401351"
       inkscape:label="InSpread" />
    <circle
       style="fill:#00ff00;stroke:none;stroke-width:1"
       id="circle24"
       cx="119.31353"
       cy="322.64069"
       r="4.3401351"
       inkscape:label="InFrequency" />
    <circle
       style="fill:#00ff00;stroke:none;stroke-width:1"
       id="circle25"
       cx="71.639389"
       cy="322.64069"
       r="4.3401351"
       inkscape:label="InStability" />
  </g>
</svg>
