<?xml version="1.0" encoding="UTF-8"?>
<svg xmlns="http://www.w3.org/2000/svg" xmlns:xlink="http://www.w3.org/1999/xlink" xmlns:svg="http://www.w3.org/2000/svg" xmlns:sodipodi="http://sodipodi.sourceforge.net/DTD/sodipodi-0.dtd" xmlns:inkscape="http://www.inkscape.org/namespaces/inkscape" version="1.1" viewBox="0 0 144 364.3">
  <!-- Generator: Adobe Illustrator 29.7.1, SVG Export Plug-In . SVG Version: 2.1.1 Build 8)  -->
  <defs>
    <style>
      .st0 {
        fill: #e6e6e6;
      }

      .st1, .st2 {
        fill: #231f20;
      }

      .st3 {
        fill: lime;
      }

      .st4 {
        display: none;
        opacity: .3;
      }

      .st2 {
        stroke: #231f20;
        stroke-miterlimit: 10;
        stroke-width: .8px;
      }

      .st5 {
        fill: blue;
      }

      .st6 {
        fill: #fff;
      }

      .st7 {
        fill: red;
      }
    </style>
  </defs>
  <g id="svg31" inkscape:version="1.4.2 (ebf0e940, 2025-05-08)" sodipodi:docname="quadlfo.svg">
    <sodipodi:namedview id="namedview31" bordercolor="#000000" borderopacity="0.25" inkscape:current-layer="layer1" inkscape:cx="36.125241" inkscape:cy="355.50811" inkscape:deskcolor="#d1d1d1" inkscape:document-units="mm" inkscape:pagecheckerboard="0" inkscape:pageopacity="0.0" inkscape:showpageshadow="2" inkscape:window-height="1186" inkscape:window-maximized="0" inkscape:window-width="1928" inkscape:window-x="211" inkscape:window-y="70" inkscape:zoom="3.9169289" pagecolor="#ffffff" showgrid="false"/>
    <rect id="rect13" class="st0" x="-.3" y="-.5" width="143.8" height="364.5"/>
    <path id="rect1" class="st2" d="M133.5,345.5H9.6c-2.3,0-4.1-1.9-4.1-4.1v-27.6c0-2.3,1.8-4.1,4.1-4.1h123.9c2.3,0,4.1,1.8,4.1,4.1v27.6c0,2.3-1.8,4.1-4.1,4.1Z"/>
    <path id="rect5" class="st2" d="M25.8,298.7H9.6c-2.3,0-4.1-1.8-4.1-4.1v-27.6c0-2.3,1.8-4.1,4.1-4.1h16.2c2.3,0,4.1,1.8,4.1,4.1v27.6c0,2.3-1.8,4.1-4.1,4.1h0Z"/>
    <path id="rect8" class="st2" d="M133.6,298.7h-16.2c-2.3,0-4.1-1.8-4.1-4.1v-27.6c0-2.3,1.8-4.1,4.1-4.1h16.2c2.3,0,4.1,1.8,4.1,4.1v27.6c0,2.3-1.8,4.1-4.1,4.1h0Z"/>
    <path id="text12" class="st1" d="M8.6,218.2c0,1,.9,1.4,1.4,1.4s1.4-.5,1.4-1.4-.8-1.2-1.2-1.4c-.4-.2-.7-.2-.7-.6s.2-.5.5-.5.5.1.5.5h.8c0-.9-.8-1.3-1.3-1.3-.7,0-1.3.6-1.3,1.3s.7,1.1,1.1,1.3c.6.2.8.3.8.8s-.3.6-.6.6-.5-.2-.6-.6h-.9ZM11.9,219.5h.8v-1.7c0-.3,0-1,.7-1s.7.6.7,1v1.7h.8v-1.9c0-.2,0-.7-.3-1.1-.2-.3-.7-.5-1-.5s-.8.3-.9.3v-1.3h-.8v4.4ZM18.9,216.1h-.7v.4s0,0,0,0c0,0-.4-.5-1.1-.5s-1.7.7-1.7,1.8.8,1.8,1.6,1.8.9-.2,1.2-.5v.4h.7v-3.3ZM18.1,217.8c0,.6-.4,1.1-1,1.1s-1-.5-1-1,.3-1.1,1-1.1,1,.3,1,1ZM19.4,220.6h.8v-1.4c.2.2.5.4,1,.4.9,0,1.7-.8,1.7-1.8s-.6-1.8-1.7-1.8-.7,0-1.1.5h0s0-.4,0-.4h-.7v4.4ZM20.2,217.8c0-.6.5-1,1-1s1,.4,1,1-.5,1-1,1-1-.3-1-1ZM26.7,218.2c0-.1,0-.2,0-.4,0-.8-.6-1.7-1.7-1.7s-1.7.8-1.7,1.8.7,1.8,1.8,1.8,1.4-.6,1.6-1.2h-.8c-.1.3-.4.4-.8.4-.6,0-.9-.5-.9-.7h2.6ZM24.1,217.5c.1-.6.6-.8.9-.8s.8.2.9.8h-1.8Z"/>
    <path id="text13" class="st1" d="M26.5,28.1c0,1,.9,1.4,1.4,1.4s1.4-.5,1.4-1.4-.8-1.2-1.2-1.4c-.4-.2-.7-.2-.7-.6s.2-.5.5-.5.5.1.5.5h.8c0-.9-.8-1.3-1.3-1.3-.7,0-1.3.6-1.3,1.3s.7,1.1,1.1,1.3c.6.2.8.3.8.8s-.3.6-.6.6-.5-.2-.6-.6h-.9ZM29.9,29.4h.8v-1.7c0-.3,0-1,.7-1s.7.6.7,1v1.7h.8v-1.9c0-.2,0-.7-.3-1.1-.2-.3-.7-.5-1-.5s-.8.3-.9.3v-1.3h-.8v4.4ZM36.9,26.1h-.7v.4h0s-.4-.5-1.1-.5-1.7.7-1.7,1.8.8,1.8,1.6,1.8.9-.2,1.2-.5v.4h.7v-3.3ZM36.1,27.7c0,.6-.4,1.1-1,1.1s-1-.5-1-1,.3-1.1,1-1.1,1,.3,1,1ZM37.4,30.5h.8v-1.4c.2.2.5.4,1,.4.9,0,1.7-.8,1.7-1.8s-.6-1.8-1.7-1.8-.7,0-1.1.5h0v-.4h-.7v4.4ZM38.2,27.7c0-.6.5-1,1-1s1,.4,1,1-.5,1-1,1-1-.3-1-1ZM44.7,28.1c0-.1,0-.2,0-.4,0-.8-.6-1.7-1.7-1.7s-1.7.8-1.7,1.8.7,1.8,1.8,1.8,1.4-.6,1.6-1.2h-.8c-.1.3-.4.4-.8.4-.6,0-.9-.5-.9-.7h2.6ZM42.1,27.5c.1-.6.6-.8.9-.8s.8.2.9.8h-1.8Z"/>
    <path id="text14" class="st1" d="M96.4,28.1c0,1,.9,1.4,1.4,1.4s1.4-.5,1.4-1.4-.8-1.2-1.2-1.4c-.4-.2-.7-.2-.7-.6s.2-.5.5-.5.5.1.5.5h.8c0-.9-.8-1.3-1.3-1.3-.7,0-1.3.6-1.3,1.3s.7,1.1,1.1,1.3c.6.2.8.3.8.8s-.3.6-.6.6-.5-.2-.6-.6h-.9ZM100,29.4h.8v-2.6h.5v-.7h-.5v-1.1h-.8v1.1h-.4v.7h.4v2.6ZM105,26.1h-.7v.4h0s-.4-.5-1.1-.5-1.7.7-1.7,1.8.8,1.8,1.6,1.8.9-.2,1.2-.5v.4h.7v-3.3ZM104.2,27.7c0,.6-.4,1.1-1,1.1s-1-.5-1-1,.3-1.1,1-1.1,1,.3,1,1ZM105.5,29.4h.7v-.4c.2.2.5.5,1.1.5,1.2,0,1.7-1.1,1.7-1.8s-.7-1.8-1.7-1.8-.8.1-1,.4v-1.4h-.8v4.4ZM106.3,27.7c0-.5.4-1,1-1s1,.4,1,1-.4,1.1-1,1.1-1-.3-1-1.1ZM109.5,29.4h.8v-3.3h-.8v3.3ZM109.5,25.7h.8v-.7h-.8v.7ZM111,29.4h.8v-4.4h-.8v4.4ZM112.4,29.4h.8v-3.3h-.8v3.3ZM112.4,25.7h.8v-.7h-.8v.7ZM114,29.4h.8v-2.6h.5v-.7h-.5v-1.1h-.8v1.1h-.4v.7h.4v2.6ZM116,30.5h.9l1.9-4.4h-.9l-.8,2.1-.8-2.1h-.9l1.2,3-.6,1.4Z"/>
    <path id="text15" class="st1" d="M20.5,97.1h.8v-1.8h1.4v-.8h-1.4v-1.1h1.4v-.8h-2.3v4.4ZM23.4,97.1h.8v-1.9c0-.2,0-.8.7-.8v-.8h0c-.4,0-.6.2-.7.4h0v-.3h-.7v3.3ZM28.5,95.8c0-.1,0-.2,0-.4,0-.8-.6-1.7-1.7-1.7s-1.7.8-1.7,1.8.7,1.8,1.8,1.8,1.4-.6,1.6-1.2h-.8c-.1.3-.4.4-.8.4-.6,0-.9-.5-.9-.7h2.6ZM25.9,95.1c.1-.6.6-.8.9-.8s.8.2.9.8h-1.8ZM31.7,93.7v.4h0c-.1-.2-.4-.5-1.1-.5s-1.7.8-1.7,1.7.7,1.8,1.7,1.8.6,0,1-.4v1.4h.8v-4.4h-.7ZM29.7,95.4c0-.5.4-1,1-1s1,.5,1,1.1-.4,1-1,1-1-.4-1-1.1ZM35.2,93.7v1.7c0,.5-.2,1-.7,1s-.7-.7-.7-1v-1.7h-.8v1.7c0,.3,0,.8.2,1.2.2.2.5.5,1.1.5s.7-.3.9-.4h0v.3h.7v-3.3h-.8ZM39.9,95.8c0-.1,0-.2,0-.4,0-.8-.6-1.7-1.7-1.7s-1.7.8-1.7,1.8.7,1.8,1.8,1.8,1.4-.6,1.6-1.2h-.8c-.1.3-.4.4-.8.4-.6,0-.9-.5-.9-.7h2.6ZM37.3,95.1c.1-.6.6-.8.9-.8s.8.2.9.8h-1.8ZM40.5,97.1h.8v-1.6c0-.3,0-.6.1-.8.1-.2.4-.3.5-.3.7,0,.7.8.7,1.1v1.6h.8v-1.8c0-.3,0-.8-.3-1.2-.3-.3-.7-.5-1-.5-.5,0-.8.3-.9.4v-.3h-.7v3.3ZM46.5,96c-.2.3-.5.5-.7.5-.6,0-1-.5-1-1s.5-1,1-1,.7.3.8.5h.9c-.3-1-1.3-1.2-1.7-1.2-.9,0-1.8.7-1.8,1.8s.9,1.8,1.8,1.8,1.4-.5,1.7-1.2h-.9ZM48.2,98.2h.9l1.9-4.4h-.9l-.8,2.1-.8-2.1h-.9l1.2,3-.6,1.4Z"/>
    <path id="text16" class="st1" d="M94.7,97.1h.9l.7-1.1.7,1.1h.9l-1.2-1.7,1-1.6h-.9l-.6,1-.6-1h-.9l1,1.6-1.2,1.7ZM99.8,95.8c0,1,.9,1.4,1.4,1.4s1.4-.5,1.4-1.4-.8-1.2-1.2-1.4c-.4-.2-.7-.2-.7-.6s.2-.5.5-.5.5.1.5.5h.8c0-.9-.8-1.3-1.3-1.3-.7,0-1.3.6-1.3,1.3s.7,1.1,1.1,1.3c.6.2.8.3.8.8s-.3.6-.6.6-.5-.2-.6-.6h-.9ZM103.1,98.2h.8v-1.4c.2.2.5.4,1,.4.9,0,1.7-.8,1.7-1.8s-.6-1.8-1.7-1.8-.7,0-1.1.5h0v-.4h-.7v4.4ZM103.9,95.4c0-.6.5-1,1-1s1,.4,1,1-.5,1-1,1-1-.3-1-1ZM107.2,97.1h.8v-1.9c0-.2,0-.8.7-.8v-.8h0c-.4,0-.6.2-.7.4h0v-.3h-.7v3.3ZM112.3,95.8c0-.1,0-.2,0-.4,0-.8-.6-1.7-1.7-1.7s-1.7.8-1.7,1.8.7,1.8,1.8,1.8,1.4-.6,1.6-1.2h-.8c-.1.3-.4.4-.8.4-.6,0-.9-.5-.9-.7h2.6ZM109.7,95.1c.1-.6.6-.8.9-.8s.8.2.9.8h-1.8ZM116.2,93.7h-.7v.4h0s-.4-.5-1.1-.5-1.7.7-1.7,1.8.8,1.8,1.6,1.8.9-.2,1.2-.5v.4h.7v-3.3ZM115.4,95.4c0,.6-.4,1.1-1,1.1s-1-.5-1-1,.3-1.1,1-1.1,1,.3,1,1ZM120.1,92.6h-.8v1.4c-.2-.2-.5-.4-1-.4-.8,0-1.7.7-1.7,1.8s.9,1.8,1.7,1.8.9-.3,1.1-.5h0v.4h.7v-4.4ZM117.4,95.4c0-.5.4-1,1-1s1,.5,1,1-.4,1-1,1-1-.5-1-1.1Z"/>
    <path id="text17" class="st1" d="M28.8,162.9c-.2.2-.5.6-1.1.6s-1.5-.7-1.5-1.5.7-1.5,1.4-1.5.9.2,1.2.6h.9c-.4-1-1.4-1.4-2.1-1.4-1.3,0-2.3,1.1-2.3,2.3s1,2.3,2.3,2.3,1.7-.5,2-1.3h-1ZM33.5,162.8c0-.1,0-.2,0-.4,0-.8-.6-1.7-1.7-1.7s-1.7.8-1.7,1.8.7,1.8,1.8,1.8,1.4-.6,1.6-1.2h-.8c-.1.3-.4.4-.8.4-.6,0-.9-.5-.9-.7h2.6ZM30.8,162.2c.1-.6.6-.8.9-.8s.8.2.9.8h-1.8ZM34,164.1h.8v-1.6c0-.3,0-.6.1-.8.1-.2.4-.3.5-.3.7,0,.7.8.7,1.1v1.6h.8v-1.8c0-.3,0-.8-.3-1.2-.3-.3-.7-.5-1-.5-.5,0-.8.3-.9.4v-.3h-.7v3.3ZM37.8,164.1h.8v-2.6h.5v-.7h-.5v-1.1h-.8v1.1h-.4v.7h.4v2.6ZM42.7,162.8c0-.1,0-.2,0-.4,0-.8-.6-1.7-1.7-1.7s-1.7.8-1.7,1.8.7,1.8,1.8,1.8,1.4-.6,1.6-1.2h-.8c-.1.3-.4.4-.8.4-.6,0-.9-.5-.9-.7h2.6ZM40.1,162.2c.1-.6.6-.8.9-.8s.8.2.9.8h-1.8ZM43.3,164.1h.8v-1.9c0-.2,0-.8.7-.8v-.8h0c-.4,0-.6.2-.7.4h0v-.3h-.7v3.3Z"/>
    <path id="text18" class="st1" d="M94.6,165.3h.9l1.9-4.4h-.9l-.8,2.1-.8-2.1h-.9l1.2,3-.6,1.4ZM99.2,162.9c0,1,.9,1.4,1.4,1.4s1.4-.5,1.4-1.4-.8-1.2-1.2-1.4c-.4-.2-.7-.2-.7-.6s.2-.5.5-.5.5.1.5.5h.8c0-.9-.8-1.3-1.3-1.3-.7,0-1.3.6-1.3,1.3s.7,1.1,1.1,1.3c.6.2.8.3.8.8s-.3.6-.6.6-.5-.2-.6-.6h-.9ZM102.5,165.3h.8v-1.4c.2.2.5.4,1,.4.9,0,1.7-.8,1.7-1.8s-.6-1.8-1.7-1.8-.7,0-1.1.5h0v-.4h-.7v4.4ZM103.3,162.5c0-.6.5-1,1-1s1,.4,1,1-.5,1-1,1-1-.3-1-1ZM106.6,164.1h.8v-1.9c0-.2,0-.8.7-.8v-.8h0c-.4,0-.6.2-.7.4h0v-.3h-.7v3.3ZM111.7,162.8c0-.1,0-.2,0-.4,0-.8-.6-1.7-1.7-1.7s-1.7.8-1.7,1.8.7,1.8,1.8,1.8,1.4-.6,1.6-1.2h-.8c-.1.3-.4.4-.8.4-.6,0-.9-.5-.9-.7h2.6ZM109.1,162.2c.1-.6.6-.8.9-.8s.8.2.9.8h-1.8ZM115.6,160.8h-.7v.4h0s-.4-.5-1.1-.5-1.7.7-1.7,1.8.8,1.8,1.6,1.8.9-.2,1.2-.5v.4h.7v-3.3ZM114.8,162.5c0,.6-.4,1.1-1,1.1s-1-.5-1-1,.3-1.1,1-1.1,1,.3,1,1ZM119.6,159.7h-.8v1.4c-.2-.2-.5-.4-1-.4-.8,0-1.7.7-1.7,1.8s.9,1.8,1.7,1.8.9-.3,1.1-.5h0v.4h.7v-4.4ZM116.9,162.5c0-.5.4-1,1-1s1,.5,1,1-.4,1-1,1-1-.5-1-1.1Z"/>
    <path id="text19" class="st1" d="M47.3,218.2c0,1,.9,1.4,1.4,1.4s1.4-.5,1.4-1.4-.8-1.2-1.2-1.4c-.4-.2-.7-.2-.7-.6s.2-.5.5-.5.5.1.5.5h.8c0-.9-.8-1.3-1.3-1.3-.7,0-1.3.6-1.3,1.3s.7,1.1,1.1,1.3c.6.2.8.3.8.8s-.3.6-.6.6-.5-.2-.6-.6h-.9ZM50.9,219.5h.8v-2.6s.5,0,.5,0v-.7h-.5s0-1.1,0-1.1h-.8v1.1s-.4,0-.4,0v.7h.4s0,2.6,0,2.6ZM55.8,216.1h-.7v.4s0,0,0,0c0,0-.4-.5-1.1-.5s-1.7.7-1.7,1.8.8,1.8,1.6,1.8.9-.2,1.2-.5v.4h.7v-3.3ZM55.1,217.8c0,.6-.4,1.1-1,1.1s-1-.5-1-1,.3-1.1,1-1.1,1,.3,1,1ZM56.4,219.5h.7v-.4c.2.2.5.5,1.1.5,1.2,0,1.7-1.1,1.7-1.8s-.7-1.8-1.7-1.8-.8.1-1,.4v-1.4h-.8v4.4ZM57.1,217.8c0-.5.4-1,1-1s1,.4,1,1-.4,1.1-1,1.1-1-.3-1-1.1Z"/>
    <path id="text20" class="st1" d="M83.7,219.5h.8v-1.8s1.4,0,1.4,0v-.8h-1.4s0-1.1,0-1.1h1.4v-.8h-2.3v4.4ZM86.5,219.5h.8v-1.9c0-.2,0-.8.7-.8v-.8h0c-.4,0-.6.2-.7.4h0s0-.3,0-.3h-.7v3.3ZM91.6,218.2c0-.1,0-.2,0-.4,0-.8-.6-1.7-1.7-1.7s-1.7.8-1.7,1.8.7,1.8,1.8,1.8,1.4-.6,1.6-1.2h-.8c-.1.3-.4.4-.8.4-.6,0-.9-.5-.9-.7h2.6ZM89,217.5c.1-.6.6-.8.9-.8s.8.2.9.8h-1.8ZM94.8,216.1v.4s0,0,0,0c-.1-.2-.4-.5-1.1-.5s-1.7.8-1.7,1.7.7,1.8,1.7,1.8.6,0,1-.4v1.4h.8v-4.4h-.7ZM92.9,217.8c0-.5.4-1,1-1s1,.5,1,1.1-.4,1-1,1-1-.4-1-1.1Z"/>
    <path id="text21" class="st1" d="M115.2,218.2c0,1,.9,1.4,1.4,1.4s1.4-.5,1.4-1.4-.8-1.2-1.2-1.4c-.4-.2-.7-.2-.7-.6s.2-.5.5-.5.5.1.5.5h.8c0-.9-.8-1.3-1.3-1.3-.7,0-1.3.6-1.3,1.3s.7,1.1,1.1,1.3c.6.2.8.3.8.8s-.3.6-.6.6-.5-.2-.6-.6h-.9ZM118.5,220.6h.8v-1.4c.2.2.5.4,1,.4.9,0,1.7-.8,1.7-1.8s-.6-1.8-1.7-1.8-.7,0-1.1.5h0s0-.4,0-.4h-.7v4.4ZM119.3,217.8c0-.6.5-1,1-1s1,.4,1,1-.5,1-1,1-1-.3-1-1ZM122.6,219.5h.8v-1.9c0-.2,0-.8.7-.8v-.8h0c-.4,0-.6.2-.7.4h0s0-.3,0-.3h-.7v3.3ZM127.7,218.2c0-.1,0-.2,0-.4,0-.8-.6-1.7-1.7-1.7s-1.7.8-1.7,1.8.7,1.8,1.8,1.8,1.4-.6,1.6-1.2h-.8c-.1.3-.4.4-.8.4-.6,0-.9-.5-.9-.7h2.6ZM125.1,217.5c.1-.6.6-.8.9-.8s.8.2.9.8h-1.8ZM131.6,216.1h-.7v.4s0,0,0,0c0,0-.4-.5-1.1-.5s-1.7.7-1.7,1.8.8,1.8,1.6,1.8.9-.2,1.2-.5v.4h.7v-3.3ZM130.8,217.8c0,.6-.4,1.1-1,1.1s-1-.5-1-1,.3-1.1,1-1.1,1,.3,1,1ZM135.6,215h-.8v1.4c-.2-.2-.5-.4-1-.4-.8,0-1.7.7-1.7,1.8s.9,1.8,1.7,1.8.9-.3,1.1-.5h0s0,.4,0,.4h.7v-4.4ZM132.9,217.8c0-.5.4-1,1-1s1,.5,1,1-.4,1-1,1-1-.5-1-1.1Z"/>
    <path id="text22" class="st6" d="M22.5,265.1h-.8v3.3h0l-1.1-3.3h-.7l-1.1,3.3h0v-3.3h-.8v4.4h1.1l1.2-3.4h0l1.2,3.4h1.1v-4.4ZM17.2,265.1h-.8v3.3h.8v-3.3ZM17.2,268.8h-.8v.7h.8v-.7ZM15.7,265.1h-.8v1.6c0,.3,0,.6-.1.8-.1.2-.4.3-.5.3-.7,0-.7-.8-.7-1.1v-1.6h-.8v1.8c0,.3,0,.8.3,1.2.3.3.7.5,1,.5.5,0,.8-.3.9-.4v.3h.7v-3.3Z"/>
    <path id="text23" class="st1" d="M90.2,266.3c.2-.2.5-.6,1.1-.6s1.5.7,1.5,1.5-.7,1.5-1.4,1.5-.9-.2-1.2-.6h-.9c.4,1,1.4,1.4,2.1,1.4,1.3,0,2.3-1.1,2.3-2.3s-1-2.3-2.3-2.3-1.7.5-2,1.3h1ZM85.5,266.4c0,.1,0,.2,0,.4,0,.8.6,1.7,1.7,1.7s1.7-.8,1.7-1.8-.7-1.8-1.8-1.8-1.4.6-1.6,1.2h.8c.1-.3.4-.4.8-.4.6,0,.9.5.9.7h-2.6ZM88.1,267c-.1.6-.6.8-.9.8s-.8-.2-.9-.8h1.8ZM85,265.1h-.8v1.6c0,.3,0,.6-.1.8-.1.2-.4.3-.5.3-.7,0-.7-.8-.7-1.1v-1.6h-.8v1.8c0,.3,0,.8.3,1.2.3.3.7.5,1,.5.5,0,.8-.3.9-.4v.3h.7v-3.3Z"/>
    <path id="text24" class="st1" d="M55.2,263.9h-.9l-1.9,4.4h.9l.8-2.1.8,2.1h.9l-1.2-3,.6-1.4ZM50.6,266.3c0-1-.9-1.4-1.4-1.4s-1.4.5-1.4,1.4.8,1.2,1.2,1.4c.4.2.7.2.7.6s-.2.5-.5.5-.5-.1-.5-.5h-.8c0,.9.8,1.3,1.3,1.3.7,0,1.3-.6,1.3-1.3s-.7-1.1-1.1-1.3c-.6-.2-.8-.3-.8-.8s.3-.6.6-.6.5.2.6.6h.9Z"/>
    <path id="text25" class="st6" d="M131.5,265.1h-.8v3.3h0l-1.1-3.3h-.7l-1.1,3.3h0v-3.3h-.8v4.4h1.1l1.2-3.4h0l1.2,3.4h1.1v-4.4ZM122.9,268.4h.7v-.4h0s.4.5,1.1.5,1.7-.7,1.7-1.8-.8-1.8-1.6-1.8-.9.2-1.2.5v-.4h-.7v3.3ZM123.6,266.8c0-.6.4-1.1,1-1.1s1,.5,1,1-.3,1.1-1,1.1-1-.3-1-1ZM122.6,265.1h-.9l-.7,1.1-.7-1.1h-.9l1.2,1.7-1,1.6h.9l.6-1,.6,1h.9l-1-1.6,1.2-1.7Z"/>
    <path id="text26" class="st6" d="M127.5,313h-.9l-.5,1.1h-1.6l-.5-1.1h-.9l1.9,4.4h.6l1.8-4.4ZM125.4,316.3h0l-.5-1.4h1l-.5,1.4Z"/>
    <path id="text27" class="st6" d="M90.7,313h-1.2c-.3,0-.8,0-1.1.3-.3.2-.6.5-.6,1.1s.5,1,.8,1.1c-.1,0-.5.3-.5.8s.2.6.4.8c.4.3.9.3,1.4.3h.9v-4.4ZM89.9,315h-.4c-.7,0-.8-.4-.8-.6,0-.6.7-.6.8-.6h.4v1.2ZM89.9,316.7h-.3c-.5,0-.6-.2-.6-.5,0-.5.5-.5.7-.5h.3v1Z"/>
    <path id="text28" class="st6" d="M52.2,314.3c.2-.2.5-.6,1.1-.6s1.5.7,1.5,1.5-.7,1.5-1.4,1.5-.9-.2-1.2-.6h-.9c.4,1,1.4,1.4,2.1,1.4,1.3,0,2.3-1.1,2.3-2.3s-1-2.3-2.3-2.3-1.7.5-2,1.3h1Z"/>
    <path id="text29" class="st6" d="M19.3,313h-1c-.5,0-1.1,0-1.5.3-.6.4-1.1,1.1-1.1,1.9s.3,1.4.7,1.7c.3.2.7.5,1.8.5h1v-4.4ZM18.4,316.7h-.2c-.5,0-.9,0-1.3-.4-.3-.3-.5-.7-.5-1.1s.2-1,.7-1.2c.3-.2.6-.2,1.1-.2h.2v2.9Z"/>
    <circle id="path1" class="st7" cx="35.9" cy="47.6" r="9.8" inkscape:label="ParamShape"/>
    <circle id="circle8" class="st7" cx="35.9" cy="180.9" r="9.8" inkscape:label="ParamCenter"/>
    <circle id="circle9" class="st7" cx="107.4" cy="114.6" r="9.8" inkscape:label="ParamXSpread"/>
    <circle id="circle10" class="st7" cx="35.9" cy="114.6" r="9.8" inkscape:label="ParamFrequency"/>
    <circle id="circle11" class="st7" cx="107.4" cy="47.6" r="9.8" inkscape:label="ParamStability"/>
    <circle id="circle12" class="st7" cx="107.4" cy="180.9" r="9.8" inkscape:label="ParamYSpread"/>
    <circle id="circle13" class="st3" cx="17.9" cy="240.3" r="3.3" inkscape:label="InShape"/>
    <circle id="circle15" class="st5" cx="17.9" cy="331.2" r="3.3" inkscape:label="OutA"/>
    <circle id="circle16" class="st5" cx="53.7" cy="331.2" r="3.3" inkscape:label="OutB"/>
    <circle id="circle17" class="st5" cx="89.5" cy="331.2" r="3.3" inkscape:label="OutC"/>
    <circle id="circle18" class="st5" cx="125.2" cy="331.2" r="3.3" inkscape:label="OutD"/>
    <circle id="circle19" class="st5" cx="125.2" cy="284.9" r="3.3" inkscape:label="OutMax"/>
    <circle id="circle20" class="st3" cx="89.5" cy="284.9" r="3.3" inkscape:label="InYSpread"/>
    <circle id="circle21" class="st3" cx="53.7" cy="284.9" r="3.3" inkscape:label="InCenter"/>
    <circle id="circle22" class="st5" cx="17.9" cy="284.9" r="3.3" inkscape:label="OutMin"/>
    <circle id="circle23" class="st3" cx="125.2" cy="240.3" r="3.3" inkscape:label="InSpread"/>
    <circle id="circle24" class="st3" cx="89.5" cy="240.3" r="3.3" inkscape:label="InFrequency"/>
    <circle id="circle25" class="st3" cx="53.7" cy="240.3" r="3.3" inkscape:label="InStability"/>
    <image class="st4" width="700" height="774" transform="translate(-3.7 -5.8) scale(.5)" xlink:href="../../../../Library/Mobile Documents/com~apple~CloudDocs/Screenshots/Screenshot 2025-09-07 at 4.46.15 PM.png"/>
  </g>
</svg>