<?xml version="1.0" encoding="UTF-8"?>
<svg xmlns="http://www.w3.org/2000/svg" width="30.48mm" height="128.5mm" viewBox="0 0 86.4 364.25">
  <g id="Background">
    <rect x="0" width="86.4" height="364.25" fill="#f0f0f0"/>
  </g>
  <g id="UI">
    <g>
      <path id="path12" d="M38.59,22.8h1.2v-1.2h1.2v2.4h1.2v-3.6h1.2v4.8h1.2v-6h1.2v6h1.2v-3.6h1.2v2.4h1.2v-1.2h1.2" fill="none" stroke="#b2b2b2" stroke-linecap="round" stroke-linejoin="round" stroke-width=".5"/>
      <path id="path13" d="M52.36,25.2l3.6-6c0,1.31,1.01,3.6,2.4,3.6h4.8l1.2,2.4" fill="none" stroke="#b2b2b2" stroke-linecap="square" stroke-linejoin="bevel" stroke-width=".5"/>
      <path id="path17" d="M68.4,19.2h-1.2v7.2h1.2" fill="none" stroke="#b2b2b2" stroke-linecap="square" stroke-linejoin="bevel" stroke-width=".5"/>
      <path id="path18" d="M78,19.2h1.2v7.2h-1.2" fill="none" stroke="#b2b2b2" stroke-linecap="square" stroke-linejoin="bevel" stroke-width=".5"/>
      <path id="path21" d="M69.6,19.84l2.4,2.4" fill="none" stroke="#b2b2b2" stroke-linejoin="bevel" stroke-width=".5"/>
      <path id="path22" d="M72,19.84l-2.4,2.4" fill="none" stroke="#b2b2b2" stroke-linejoin="bevel" stroke-width=".5"/>
      <path id="path23-5" d="M69.6,23.44l2.4,2.4" fill="none" stroke="#b2b2b2" stroke-linejoin="bevel" stroke-width=".5"/>
      <path id="path24" d="M69.6,25.84l2.4-2.4" fill="none" stroke="#b2b2b2" stroke-linejoin="bevel" stroke-width=".5"/>
      <path id="path25-3" d="M74.4,19.84l2.4,2.4" fill="none" stroke="#b2b2b2" stroke-linejoin="bevel" stroke-width=".5"/>
      <path id="path26-7" d="M76.8,19.84l-2.4,2.4" fill="none" stroke="#b2b2b2" stroke-linejoin="bevel" stroke-width=".5"/>
      <rect id="rect26" x="74.4" y="23.44" width="2.4" height="2.4" fill="none" stroke="#b2b2b2" stroke-linejoin="bevel" stroke-width=".5"/>
    </g>
    <line x1="19.2" y1="259.2" x2="64.8" y2="259.2" fill="none" stroke="#b2b2b2" stroke-miterlimit="11.34" stroke-width=".5"/>
    <line x1="19.2" y1="216" x2="64.8" y2="216" fill="none" stroke="#b2b2b2" stroke-miterlimit="11.34" stroke-width=".5"/>
    <line x1="18" y1="172.8" x2="63.6" y2="172.8" fill="none" stroke="#b2b2b2" stroke-miterlimit="11.34" stroke-width=".5"/>
    <line x1="18" y1="129.6" x2="63.6" y2="129.6" fill="none" stroke="#b2b2b2" stroke-miterlimit="11.34" stroke-width=".5"/>
    <line x1="14.4" y1="268.8" x2="7.2" y2="276" fill="none" stroke="#b2b2b2" stroke-miterlimit="11.34" stroke-width=".5"/>
    <path d="M28.8,268.8c3.98,0,7.2,3.22,7.2,7.2" fill="none" stroke="#b2b2b2" stroke-miterlimit="11.34" stroke-width=".5"/>
  </g>
  <g id="Text">
    <g>
      <rect x="7.2" y="16.8" width="43.2" height="12" fill="none"/>
      <path d="M9.97,26.06c-.31,0-.6-.04-.88-.12s-.53-.19-.76-.33c-.23-.14-.41-.3-.55-.48s-.23-.37-.27-.57l1.43-.41c.07.17.18.33.35.45s.37.2.62.2c.25,0,.45-.05.62-.17.16-.12.25-.28.25-.47,0-.15-.06-.28-.18-.4s-.28-.2-.5-.26l-.89-.22c-.31-.08-.58-.2-.81-.37-.23-.17-.41-.37-.54-.62s-.19-.52-.19-.83c0-.61.2-1.08.6-1.42.4-.34.97-.51,1.7-.51.4,0,.75.06,1.05.17.3.11.56.27.77.49s.38.49.51.81l-1.42.42c-.05-.16-.15-.31-.31-.44-.16-.13-.36-.2-.62-.2s-.45.06-.59.17c-.14.11-.21.28-.21.5,0,.15.06.27.17.37.11.1.27.17.47.22l.89.23c.51.13.91.36,1.19.71.28.35.43.74.43,1.17,0,.4-.09.74-.27,1.02-.18.28-.45.5-.8.65-.35.15-.77.23-1.26.23Z" fill="#231f20"/>
      <path d="M14.31,25.95l-1.84-6.3h1.48l1.13,4.07,1.08-4.07h1.44l1.1,4,1.12-4h1.48l-1.85,6.3h-1.51l-1.06-4.05-1.07,4.05h-1.5Z" fill="#231f20"/>
      <path d="M21.75,25.95v-6.3h4.1v1.33h-2.66v1.15h2.22v1.29h-2.22v1.2h2.7v1.33h-4.15Z" fill="#231f20"/>
      <path d="M26.81,25.95v-6.3h1.45v4.97h2.68v1.33h-4.13Z" fill="#231f20"/>
      <path d="M31.49,25.95v-6.3h1.45v4.97h2.68v1.33h-4.13Z" fill="#231f20"/>
    </g>
  </g>
  <g id="Layer_8" data-name="Layer 8">
    <rect x="6.8" y="34.02" width="72.85" height="51.02" rx="2.83" ry="2.83" fill="#1a1a2e" stroke="#404060" stroke-miterlimit="11.34" stroke-width=".85"/>
    <g>
      <line x1="15.93" y1="129.6" x2="27.27" y2="129.6" fill="none" stroke="red" stroke-miterlimit="11.34" stroke-width=".57"/>
      <line x1="21.6" y1="123.93" x2="21.6" y2="135.27" fill="none" stroke="red" stroke-miterlimit="11.34" stroke-width=".57"/>
      <circle cx="21.6" cy="129.6" r="4.25" fill="none" stroke="red" stroke-miterlimit="11.34" stroke-width=".43"/>
    </g>
    <g>
      <line x1="60.55" y1="129.6" x2="69.05" y2="129.6" fill="none" stroke="#06f" stroke-miterlimit="11.34" stroke-width=".57"/>
      <line x1="64.8" y1="125.35" x2="64.8" y2="133.85" fill="none" stroke="#06f" stroke-miterlimit="11.34" stroke-width=".57"/>
      <circle cx="64.8" cy="129.6" r="3.4" fill="none" stroke="#06f" stroke-miterlimit="11.34" stroke-width=".43"/>
    </g>
    <g isolation="isolate">
      <g>
        <path d="M14.84,158.4v-4.9h1.65c.33,0,.61.06.86.19s.45.31.59.53c.14.23.21.49.21.79,0,.32-.09.6-.27.85-.18.24-.42.42-.71.53l1.18,2.01h-.78l-1.09-1.88h-.96v1.88h-.69ZM15.52,155.89h1.03c.17,0,.32-.04.45-.12s.24-.18.32-.31c.08-.13.12-.28.12-.45,0-.26-.09-.47-.27-.64-.18-.16-.42-.25-.71-.25h-.94v1.76Z" fill="#231f20"/>
        <path d="M19.25,158.4v-4.9h.69v4.9h-.69Z" fill="#231f20"/>
        <path d="M22.77,158.48c-.26,0-.5-.03-.71-.09-.21-.06-.4-.14-.55-.25s-.29-.22-.39-.35c-.1-.13-.18-.27-.22-.41l.67-.22c.07.19.2.36.4.5.2.14.44.21.72.22.35,0,.62-.07.82-.21s.3-.32.3-.55c0-.21-.09-.38-.26-.51-.17-.13-.4-.23-.69-.3l-.57-.15c-.22-.06-.43-.15-.61-.26-.18-.11-.33-.25-.44-.43-.11-.17-.16-.38-.16-.62,0-.45.15-.8.44-1.05.29-.25.71-.38,1.26-.38.32,0,.59.05.83.15.23.1.43.23.58.4.15.16.26.34.33.54l-.67.22c-.08-.21-.21-.38-.41-.51s-.43-.19-.71-.19-.53.07-.7.21c-.17.14-.26.33-.26.57,0,.21.07.36.2.47.13.11.31.19.54.25l.57.14c.46.11.81.3,1.06.56.25.26.37.54.37.85,0,.27-.07.51-.2.72s-.33.38-.59.5c-.26.12-.58.19-.96.19Z" fill="#231f20"/>
        <path d="M25.47,158.4v-4.9h2.95v.63h-2.26v1.46h2.04v.62h-2.04v1.57h2.27v.63h-2.96Z" fill="#231f20"/>
      </g>
    </g>
    <g>
      <line x1="15.93" y1="172.8" x2="27.27" y2="172.8" fill="none" stroke="red" stroke-miterlimit="11.34" stroke-width=".57"/>
      <line x1="21.6" y1="167.13" x2="21.6" y2="178.47" fill="none" stroke="red" stroke-miterlimit="11.34" stroke-width=".57"/>
      <circle cx="21.6" cy="172.8" r="4.25" fill="none" stroke="red" stroke-miterlimit="11.34" stroke-width=".43"/>
    </g>
    <g>
      <line x1="60.55" y1="172.8" x2="69.05" y2="172.8" fill="none" stroke="#06f" stroke-miterlimit="11.34" stroke-width=".57"/>
      <line x1="64.8" y1="168.55" x2="64.8" y2="177.05" fill="none" stroke="#06f" stroke-miterlimit="11.34" stroke-width=".57"/>
      <circle cx="64.8" cy="172.8" r="3.4" fill="none" stroke="#06f" stroke-miterlimit="11.34" stroke-width=".43"/>
    </g>
    <g isolation="isolate">
      <g>
        <path d="M14.24,201.6v-4.9h2.97v.63h-2.28v1.54h1.99v.63h-1.99v2.1h-.69Z" fill="#231f20"/>
        <path d="M17.5,201.6l1.97-4.9h.73l1.97,4.9h-.74l-.53-1.31h-2.16l-.53,1.31h-.74ZM19,199.67h1.69l-.84-2.11-.85,2.11Z" fill="#231f20"/>
        <path d="M22.87,201.6v-4.9h.69v4.27h2.27v.63h-2.96Z" fill="#231f20"/>
        <path d="M26.54,201.6v-4.9h.69v4.27h2.27v.63h-2.96Z" fill="#231f20"/>
      </g>
    </g>
    <g>
      <line x1="15.93" y1="216" x2="27.27" y2="216" fill="none" stroke="red" stroke-miterlimit="11.34" stroke-width=".57"/>
      <line x1="21.6" y1="210.33" x2="21.6" y2="221.67" fill="none" stroke="red" stroke-miterlimit="11.34" stroke-width=".57"/>
      <circle cx="21.6" cy="216" r="4.25" fill="none" stroke="red" stroke-miterlimit="11.34" stroke-width=".43"/>
    </g>
    <g>
      <line x1="60.55" y1="216" x2="69.05" y2="216" fill="none" stroke="#06f" stroke-miterlimit="11.34" stroke-width=".57"/>
      <line x1="64.8" y1="211.75" x2="64.8" y2="220.25" fill="none" stroke="#06f" stroke-miterlimit="11.34" stroke-width=".57"/>
      <circle cx="64.8" cy="216" r="3.4" fill="none" stroke="#06f" stroke-miterlimit="11.34" stroke-width=".43"/>
    </g>
    <g isolation="isolate">
      <g>
        <path d="M12.58,244.88c-.47,0-.88-.11-1.25-.33-.36-.22-.65-.52-.85-.9-.21-.38-.31-.82-.31-1.31s.1-.93.31-1.31c.21-.38.49-.68.85-.9s.77-.33,1.24-.33c.3,0,.59.05.87.16s.52.26.74.46.38.42.5.68l-.62.28c-.09-.19-.21-.36-.36-.5-.15-.14-.33-.25-.52-.33-.19-.08-.4-.12-.61-.12-.33,0-.62.08-.88.25-.26.16-.46.39-.6.67-.14.28-.22.61-.22.99s.07.71.22.99c.15.29.35.51.61.68.26.16.55.24.88.24.21,0,.42-.04.61-.13.19-.09.36-.21.51-.36s.27-.33.37-.52l.62.27c-.12.27-.28.5-.5.71-.21.21-.46.37-.74.48-.28.11-.57.17-.88.17Z" fill="#231f20"/>
        <path d="M17.38,244.91c-.38,0-.71-.08-1-.23s-.51-.38-.67-.66c-.16-.28-.24-.61-.24-.98v-3.14h.69v3.14c0,.24.05.46.16.64.11.19.25.33.43.43.18.1.4.15.64.15s.46-.05.64-.15.33-.25.43-.43c.1-.19.15-.4.15-.64v-3.14h.69v3.14c0,.37-.08.69-.24.98-.16.28-.39.5-.68.66s-.63.23-1.02.23Z" fill="#231f20"/>
        <path d="M20.49,244.8v-4.9h1.65c.33,0,.61.06.86.19.25.13.45.31.59.53.14.23.21.49.21.79,0,.32-.09.6-.27.85-.18.24-.42.42-.71.53l1.18,2.01h-.78l-1.09-1.88h-.96v1.88h-.69ZM21.18,242.29h1.03c.17,0,.32-.04.45-.12s.24-.18.32-.32c.08-.13.12-.28.12-.45,0-.26-.09-.47-.27-.64-.18-.16-.42-.25-.71-.25h-.94v1.76Z" fill="#231f20"/>
        <path d="M26.36,244.8l-2.01-4.9h.74l1.65,4.1,1.66-4.1h.74l-2.01,4.9h-.76Z" fill="#231f20"/>
        <path d="M29.81,244.8v-4.9h2.95v.63h-2.26v1.46h2.04v.62h-2.04v1.57h2.28v.63h-2.96Z" fill="#231f20"/>
      </g>
    </g>
    <g>
      <line x1="15.93" y1="259.2" x2="27.27" y2="259.2" fill="none" stroke="red" stroke-miterlimit="11.34" stroke-width=".57"/>
      <line x1="21.6" y1="253.53" x2="21.6" y2="264.87" fill="none" stroke="red" stroke-miterlimit="11.34" stroke-width=".57"/>
      <circle cx="21.6" cy="259.2" r="4.25" fill="none" stroke="red" stroke-miterlimit="11.34" stroke-width=".43"/>
    </g>
    <g>
      <line x1="60.55" y1="259.2" x2="69.05" y2="259.2" fill="none" stroke="#06f" stroke-miterlimit="11.34" stroke-width=".57"/>
      <line x1="64.8" y1="254.95" x2="64.8" y2="263.45" fill="none" stroke="#06f" stroke-miterlimit="11.34" stroke-width=".57"/>
      <circle cx="64.8" cy="259.2" r="3.4" fill="none" stroke="#06f" stroke-miterlimit="11.34" stroke-width=".43"/>
    </g>
    <g isolation="isolate">
      <g>
        <path d="M13.85,331.2v-4.9h1.65c.33,0,.62.07.87.2.25.13.45.32.59.56.14.24.21.51.21.82s-.07.57-.2.81c-.13.24-.31.42-.54.56-.23.14-.5.2-.79.2h-1.1v1.75h-.69ZM14.54,328.81h1.09c.25,0,.45-.09.61-.26.16-.18.24-.4.24-.68s-.09-.51-.28-.68c-.18-.17-.42-.26-.7-.26h-.96v1.88Z" fill="#231f20"/>
        <path d="M17.95,331.2v-4.9h.69v4.9h-.69Z" fill="#231f20"/>
        <path d="M19.88,331.2v-4.9h.71l2.77,3.75v-3.75h.69v4.9h-.69l-2.79-3.79v3.79h-.69Z" fill="#231f20"/>
        <path d="M27.53,331.28c-.5,0-.93-.11-1.32-.33-.38-.22-.69-.52-.9-.9s-.33-.82-.33-1.31.11-.94.33-1.32.52-.68.9-.9c.39-.22.83-.33,1.32-.33.27,0,.53.04.78.13.25.09.48.21.68.36.2.15.37.33.49.52l-.55.36c-.09-.14-.21-.27-.36-.38s-.31-.2-.49-.26c-.18-.06-.36-.09-.54-.09-.36,0-.68.08-.96.25s-.5.39-.65.67c-.16.29-.24.62-.24.99s.08.7.23.98c.16.28.38.51.66.67s.61.25.97.25c.29,0,.55-.06.78-.18.23-.12.41-.29.54-.5s.2-.46.21-.74h-1.18v-.57h1.86v.5c0,.42-.1.8-.29,1.11-.19.32-.45.56-.78.74s-.71.26-1.14.26Z" fill="#231f20"/>
      </g>
    </g>
    <g isolation="isolate">
      <g>
        <path d="M54.97,288v-4.9h1.65c.33,0,.61.06.86.19.25.13.45.3.59.53s.21.49.21.79c0,.32-.09.61-.27.85-.18.24-.42.42-.71.53l1.18,2.01h-.78l-1.09-1.88h-.96v1.88h-.69ZM55.66,285.49h1.03c.17,0,.32-.04.45-.12.13-.08.24-.18.32-.32.08-.13.12-.28.12-.45,0-.26-.09-.47-.27-.64-.18-.16-.42-.24-.71-.24h-.95v1.76Z" fill="#231f20"/>
        <path d="M59.39,288v-4.9h2.95v.63h-2.26v1.46h2.04v.62h-2.04v1.57h2.27v.63h-2.96Z" fill="#231f20"/>
        <path d="M65.11,288.08c-.26,0-.5-.03-.71-.09s-.4-.14-.55-.25c-.16-.1-.29-.22-.39-.35s-.17-.27-.22-.41l.67-.22c.07.19.2.36.4.5.2.14.44.21.72.22.35,0,.62-.07.82-.21.2-.14.3-.32.3-.55,0-.21-.09-.38-.26-.51-.17-.13-.4-.23-.69-.3l-.57-.15c-.22-.06-.43-.15-.61-.26-.18-.11-.33-.25-.44-.43-.11-.17-.16-.38-.16-.62,0-.45.15-.8.44-1.05.29-.25.71-.38,1.26-.38.32,0,.59.05.83.15.23.1.43.23.58.4.15.16.26.34.33.54l-.67.22c-.08-.21-.21-.38-.41-.51s-.43-.19-.71-.19c-.29,0-.53.07-.7.21s-.26.33-.26.57c0,.21.07.36.2.47.13.11.31.19.54.25l.57.14c.46.11.81.3,1.06.56.25.26.38.54.38.85,0,.27-.07.5-.2.72s-.33.38-.59.5-.58.19-.96.19Z" fill="#231f20"/>
        <path d="M67.81,288v-4.9h2.95v.63h-2.26v1.46h2.04v.62h-2.04v1.57h2.28v.63h-2.96Z" fill="#231f20"/>
        <path d="M72.94,288v-4.27h-1.53v-.63h3.76v.63h-1.53v4.27h-.69Z" fill="#231f20"/>
      </g>
    </g>
    <g>
      <line x1="17.35" y1="345.6" x2="25.85" y2="345.6" fill="none" stroke="#06f" stroke-miterlimit="11.34" stroke-width=".57"/>
      <line x1="21.6" y1="341.35" x2="21.6" y2="349.85" fill="none" stroke="#06f" stroke-miterlimit="11.34" stroke-width=".57"/>
      <circle cx="21.6" cy="345.6" r="3.4" fill="none" stroke="#06f" stroke-miterlimit="11.34" stroke-width=".43"/>
    </g>
    <g>
      <line x1="60.55" y1="302.4" x2="69.05" y2="302.4" fill="none" stroke="#06f" stroke-miterlimit="11.34" stroke-width=".57"/>
      <line x1="64.8" y1="298.15" x2="64.8" y2="306.65" fill="none" stroke="#06f" stroke-miterlimit="11.34" stroke-width=".57"/>
      <circle cx="64.8" cy="302.4" r="3.4" fill="none" stroke="#06f" stroke-miterlimit="11.34" stroke-width=".43"/>
    </g>
    <rect x="52.8" y="324" width="24" height="36" rx="2.83" ry="2.83" fill="#2a2a2a"/>
    <g>
      <line x1="60.55" y1="345.6" x2="69.05" y2="345.6" fill="none" stroke="#06f" stroke-miterlimit="11.34" stroke-width=".57"/>
      <line x1="64.8" y1="341.35" x2="64.8" y2="349.85" fill="none" stroke="#06f" stroke-miterlimit="11.34" stroke-width=".57"/>
      <circle cx="64.8" cy="345.6" r="3.4" fill="none" stroke="#06f" stroke-miterlimit="11.34" stroke-width=".43"/>
    </g>
    <g isolation="isolate">
      <g>
        <path d="M60.43,331.28c-.48,0-.9-.11-1.27-.32-.37-.21-.66-.51-.87-.9-.21-.38-.31-.82-.31-1.31s.1-.94.31-1.32c.21-.38.49-.68.86-.9.36-.22.78-.33,1.26-.33s.9.11,1.26.33c.36.22.65.52.85.9.21.38.31.82.31,1.31s-.1.93-.31,1.32-.49.68-.85.9c-.36.21-.78.32-1.25.32ZM60.43,330.65c.33,0,.63-.08.88-.25.26-.16.46-.39.6-.67.14-.29.22-.61.22-.99s-.07-.7-.22-.98c-.15-.29-.35-.51-.61-.68-.26-.16-.56-.24-.89-.24s-.63.08-.9.24c-.26.16-.47.39-.61.68-.15.29-.22.62-.22.98s.08.7.22.99c.15.28.36.51.62.67s.57.25.91.25Z" fill="#fff"/>
        <path d="M65.59,331.31c-.38,0-.71-.08-1-.24s-.51-.38-.67-.66c-.16-.28-.24-.61-.24-.98v-3.14h.69v3.14c0,.24.05.46.16.64.1.19.25.33.43.43.18.1.4.15.64.15s.46-.05.64-.15c.19-.1.33-.25.43-.43.1-.19.15-.4.15-.64v-3.14h.69v3.14c0,.37-.08.69-.24.98-.16.28-.39.5-.68.66-.29.16-.63.24-1.02.24Z" fill="#fff"/>
        <path d="M69.61,331.2v-4.27h-1.53v-.63h3.76v.63h-1.53v4.27h-.69Z" fill="#fff"/>
      </g>
    </g>
    <polygon points="16.8 115.2 26.4 115.2 21.6 108 16.8 115.2" fill="none" stroke="#231f20" stroke-miterlimit="10" stroke-width=".5"/>
  </g>
</svg>