<?xml version="1.0" encoding="UTF-8"?>
<svg xmlns="http://www.w3.org/2000/svg" width="40.64mm" height="128.5mm" viewBox="0 0 115.2 364.25">
  <g id="Background">
    <rect x="0" width="115.2" height="364.25" fill="#f0f0f0"/>
  </g>
  <g id="UI">
    <rect x="72" y="302.4" width="28.8" height="43.17" rx="2.37" ry="2.37"/>
    <g>
      <rect x="74.4" y="304.8" width="24" height="9.6" fill="none"/>
      <path d="M82.03,312.13c-.48,0-.9-.11-1.27-.32-.37-.21-.66-.51-.86-.9-.21-.38-.31-.82-.31-1.31s.1-.94.31-1.32c.21-.38.49-.68.86-.9.36-.22.78-.33,1.26-.33s.9.11,1.26.33c.36.22.65.52.85.9.21.38.31.82.31,1.31s-.1.93-.31,1.32-.49.68-.85.9c-.36.21-.78.32-1.25.32ZM82.03,311.5c.33,0,.62-.08.88-.25s.46-.39.6-.67c.14-.29.22-.61.22-.99s-.07-.7-.22-.98c-.15-.29-.35-.51-.61-.68-.26-.16-.56-.24-.89-.24s-.63.08-.9.24c-.26.16-.47.39-.61.68-.15.29-.22.62-.22.98s.07.7.22.99c.15.28.36.51.62.67s.57.25.91.25Z" fill="#fff"/>
      <path d="M87.19,312.15c-.38,0-.71-.08-1-.24-.29-.16-.51-.38-.67-.66-.16-.28-.24-.61-.24-.98v-3.14h.69v3.14c0,.24.05.46.16.64s.25.33.43.43c.18.1.4.15.64.15s.46-.05.64-.15c.19-.1.33-.25.43-.43s.15-.4.15-.64v-3.14h.69v3.14c0,.37-.08.69-.24.98s-.39.5-.68.66-.63.24-1.02.24Z" fill="#fff"/>
      <path d="M91.21,312.05v-4.27h-1.53v-.63h3.76v.63h-1.53v4.27h-.69Z" fill="#fff"/>
    </g>
    <g>
      <path id="path12" d="M43.2,22.8h1.7v-1.7h1.7v3.4h1.7v-5.1h1.7v6.8h1.7v-8.5h1.7v8.5h1.7v-5.1h1.7v3.4h1.7v-1.7h1.7" fill="none" stroke="#b2b2b2" stroke-linecap="round" stroke-linejoin="round" stroke-width=".85"/>
      <path id="path13" d="M62.72,26.2l5.1-8.5c0,1.86,1.43,5.1,3.4,5.1h6.8l1.7,3.4" fill="none" stroke="#b2b2b2" stroke-linecap="square" stroke-linejoin="bevel" stroke-width=".85"/>
      <path id="path17" d="M85.44,17.7h-1.7v10.2h1.7" fill="none" stroke="#b2b2b2" stroke-linecap="square" stroke-linejoin="bevel" stroke-width=".85"/>
      <path id="path18" d="M99.05,17.7h1.7v10.2h-1.7" fill="none" stroke="#b2b2b2" stroke-linecap="square" stroke-linejoin="bevel" stroke-width=".85"/>
      <path id="path21" d="M87.14,18.6l3.4,3.4" fill="none" stroke="#b2b2b2" stroke-linejoin="bevel" stroke-width=".85"/>
      <path id="path22" d="M90.55,18.6l-3.4,3.4" fill="none" stroke="#b2b2b2" stroke-linejoin="bevel" stroke-width=".85"/>
      <path id="path23-5" d="M87.14,23.7l3.4,3.4" fill="none" stroke="#b2b2b2" stroke-linejoin="bevel" stroke-width=".85"/>
      <path id="path24" d="M87.14,27.1l3.4-3.4" fill="none" stroke="#b2b2b2" stroke-linejoin="bevel" stroke-width=".85"/>
      <path id="path25-3" d="M93.95,18.6l3.4,3.4" fill="none" stroke="#b2b2b2" stroke-linejoin="bevel" stroke-width=".85"/>
      <path id="path26-7" d="M97.35,18.6l-3.4,3.4" fill="none" stroke="#b2b2b2" stroke-linejoin="bevel" stroke-width=".85"/>
      <rect id="rect26" x="93.95" y="23.7" width="3.4" height="3.4" fill="none" stroke="#b2b2b2" stroke-linejoin="bevel" stroke-width=".85"/>
    </g>
    <line x1="28.8" y1="172.8" x2="57.6" y2="172.8" fill="none" stroke="#b2b2b2" stroke-miterlimit="11.34" stroke-width=".5"/>
  </g>
  <g id="Text">
    <g>
      <rect x="14.4" y="16.8" width="43.2" height="12" fill="none"/>
      <path d="M16.38,25.95v-4.97h-1.84v-1.33h5.11v1.33h-1.84v4.97h-1.44Z" fill="#231f20"/>
      <path d="M20.18,25.95v-6.3h1.45v6.3h-1.45Z" fill="#231f20"/>
      <path d="M22.63,25.95v-6.3h1.52l2.76,3.84v-3.84h1.45v6.3h-1.45l-2.84-3.95v3.95h-1.45Z" fill="#231f20"/>
      <path d="M29.36,25.95v-6.3h4.1v1.33h-2.66v1.15h2.22v1.29h-2.22v1.2h2.7v1.33h-4.15Z" fill="#231f20"/>
    </g>
    <g isolation="isolate">
      <path d="M49.3,53.86v-4.9h2.97v.63h-2.28v1.54h1.99v.63h-1.99v2.1h-.69Z"/>
      <path d="M53.12,53.86v-4.9h1.65c.33,0,.61.06.86.19s.45.31.59.53c.14.23.21.49.21.79,0,.32-.09.6-.27.85-.18.24-.42.42-.71.53l1.18,2.01h-.78l-1.09-1.88h-.96v1.88h-.69ZM53.81,51.35h1.03c.17,0,.32-.04.45-.12s.24-.18.32-.31c.08-.13.12-.28.12-.45,0-.26-.09-.47-.27-.64-.18-.16-.42-.25-.71-.25h-.95v1.76Z"/>
      <path d="M57.54,53.86v-4.9h2.95v.63h-2.26v1.46h2.04v.62h-2.04v1.57h2.27v.63h-2.96Z"/>
      <path d="M65.76,54.14l-.6-.6c-.19.13-.39.23-.63.3s-.48.1-.74.1c-.48,0-.9-.11-1.27-.32-.37-.21-.66-.51-.87-.9-.21-.38-.31-.82-.31-1.32,0-.37.06-.71.18-1.02.12-.31.29-.57.5-.8s.47-.4.77-.52c.3-.12.62-.19.98-.19.48,0,.9.11,1.27.33.36.22.65.52.85.9.21.38.31.82.31,1.31,0,.34-.05.66-.15.95-.1.29-.24.55-.42.76l.57.57-.44.44ZM63.8,53.31c.17,0,.32-.02.47-.07.14-.05.28-.12.41-.2l-.68-.69.45-.43.7.71c.12-.16.21-.35.27-.55.06-.2.09-.43.09-.67,0-.37-.07-.7-.22-.99s-.35-.51-.61-.67c-.26-.16-.56-.25-.9-.25s-.63.08-.89.25c-.26.16-.47.39-.61.67s-.22.61-.22.99.07.7.22.99c.15.28.36.51.62.67.26.16.56.25.9.25Z"/>
    </g>
    <g isolation="isolate">
      <path d="M19.58,156v-4.9h1.51c.47,0,.88.1,1.24.31s.64.5.85.86c.21.37.31.79.31,1.27s-.1.9-.31,1.27c-.21.37-.49.66-.85.87s-.78.31-1.24.31h-1.51ZM20.26,155.36h.83c.24,0,.46-.05.66-.14.21-.09.39-.22.54-.39s.28-.36.36-.58c.09-.22.13-.46.13-.71s-.04-.49-.13-.71c-.09-.22-.21-.41-.36-.58s-.34-.29-.54-.39c-.21-.09-.43-.14-.66-.14h-.83v3.61Z"/>
      <path d="M23.85,156l1.97-4.9h.74l1.97,4.9h-.73l-.53-1.31h-2.16l-.53,1.31h-.74ZM25.35,154.08h1.69l-.84-2.11-.85,2.11Z"/>
      <path d="M29.22,156v-4.9h.73l1.62,2.4,1.62-2.4h.73v4.9h-.69v-3.79l-1.67,2.46-1.66-2.45v3.79h-.69Z"/>
      <path d="M35.17,156v-4.9h1.65c.33,0,.62.07.87.2.25.13.45.32.59.56.14.24.21.51.21.82s-.07.57-.2.81c-.13.24-.31.42-.54.56-.23.14-.5.2-.79.2h-1.1v1.75h-.69ZM35.85,153.61h1.09c.25,0,.45-.09.61-.26.16-.18.24-.4.24-.68s-.09-.51-.28-.68c-.19-.18-.42-.26-.7-.26h-.96v1.88Z"/>
    </g>
    <g isolation="isolate">
      <path d="M78.65,156v-4.9h1.65c.33,0,.61.07.86.2.25.13.45.32.59.56.14.24.21.51.21.82s-.07.57-.2.81c-.13.24-.31.42-.54.56-.23.14-.5.2-.79.2h-1.1v1.75h-.69ZM79.34,153.61h1.09c.25,0,.45-.09.61-.26.16-.18.24-.4.24-.68s-.09-.51-.28-.68c-.18-.18-.42-.26-.7-.26h-.96v1.88Z"/>
      <path d="M82.75,156v-4.9h.69v4.9h-.69Z"/>
      <path d="M84.69,156v-4.9h.71l2.77,3.75v-3.75h.69v4.9h-.69l-2.79-3.79v3.79h-.69Z"/>
      <path d="M92.33,156.08c-.49,0-.93-.11-1.32-.33-.38-.22-.69-.52-.9-.9-.22-.38-.33-.82-.33-1.31s.11-.94.33-1.32c.22-.38.52-.68.9-.9.38-.22.83-.33,1.32-.33.27,0,.53.04.78.13.25.09.48.21.68.36.2.15.37.33.49.52l-.55.36c-.09-.15-.21-.27-.36-.39-.15-.11-.31-.2-.49-.26s-.36-.09-.54-.09c-.36,0-.68.08-.96.25-.28.16-.5.39-.66.67-.16.28-.24.62-.24.99s.08.7.23.98.38.51.66.67c.28.16.61.25.97.25.29,0,.55-.06.78-.18.23-.12.41-.28.54-.5.13-.21.2-.46.21-.74h-1.18v-.57h1.85v.5c0,.42-.1.8-.29,1.11-.19.32-.45.56-.78.74-.33.18-.71.26-1.14.26Z"/>
    </g>
    <g isolation="isolate">
      <path d="M22.63,312v-4.27h-1.53v-.63h3.76v.63h-1.53v4.27h-.69Z"/>
      <path d="M25.57,312v-4.9h1.65c.33,0,.62.06.87.19.25.13.45.31.59.53.14.23.21.49.21.79,0,.32-.09.6-.27.85-.18.24-.42.42-.71.53l1.18,2.01h-.78l-1.09-1.88h-.96v1.88h-.69ZM26.25,309.49h1.03c.17,0,.32-.04.45-.12s.24-.18.32-.31c.08-.13.12-.28.12-.45,0-.26-.09-.47-.27-.64-.18-.16-.42-.25-.71-.25h-.95v1.76Z"/>
      <path d="M29.98,312v-4.9h.69v4.9h-.69Z"/>
      <path d="M34.14,312.08c-.5,0-.93-.11-1.32-.33-.38-.22-.69-.52-.9-.9s-.33-.82-.33-1.31.11-.94.33-1.32.52-.68.9-.9c.39-.22.83-.33,1.32-.33.27,0,.53.04.78.13.25.09.48.21.68.36.2.15.37.33.49.52l-.55.36c-.09-.14-.21-.27-.36-.38s-.31-.2-.49-.26c-.18-.06-.36-.09-.54-.09-.36,0-.68.08-.96.25s-.5.39-.65.67c-.16.29-.24.62-.24.99s.08.7.23.98c.16.28.38.51.66.67s.61.25.97.25c.29,0,.55-.06.78-.18.23-.12.41-.29.54-.5s.2-.46.21-.74h-1.18v-.57h1.86v.5c0,.42-.1.8-.29,1.11-.19.32-.45.56-.78.74s-.71.26-1.14.26Z"/>
    </g>
    <g isolation="isolate">
      <path d="M48.6,312l-2.01-4.9h.73l1.65,4.1,1.66-4.1h.74l-2.01,4.9h-.76Z"/>
      <path d="M51.54,312.59l1.93-5.82h.67l-1.92,5.82h-.68Z"/>
      <path d="M56.98,312.08c-.48,0-.9-.11-1.27-.32s-.66-.51-.86-.9c-.21-.38-.31-.82-.31-1.31s.1-.94.31-1.32c.21-.38.49-.68.86-.9.36-.22.78-.33,1.26-.33s.9.11,1.26.33c.36.22.65.52.85.9.21.38.31.82.31,1.31s-.1.93-.31,1.32c-.21.38-.49.68-.85.9s-.78.32-1.25.32ZM56.99,311.45c.33,0,.62-.08.88-.25.26-.16.46-.39.6-.67.14-.29.22-.61.22-.99s-.07-.7-.22-.98c-.15-.29-.35-.51-.61-.68-.26-.16-.56-.25-.89-.25s-.63.08-.9.25c-.26.16-.46.39-.61.68-.15.29-.22.62-.22.98s.07.7.22.99c.15.28.36.51.62.67.26.16.56.25.91.25Z"/>
      <path d="M62.4,312.08c-.47,0-.88-.11-1.25-.33-.36-.22-.65-.52-.85-.9s-.31-.82-.31-1.31.1-.93.31-1.31.49-.68.85-.9c.36-.22.77-.33,1.24-.33.3,0,.59.05.87.17.28.11.52.26.74.46.22.19.38.42.5.67l-.62.28c-.09-.19-.21-.36-.36-.5s-.33-.25-.52-.33-.4-.12-.61-.12c-.33,0-.62.08-.88.25-.26.16-.46.39-.6.67-.14.29-.22.61-.22.99s.07.71.22.99c.15.29.35.51.61.68.26.16.55.24.89.24.21,0,.42-.04.61-.13.19-.09.36-.21.51-.36s.27-.33.37-.52l.62.27c-.12.27-.28.5-.5.71s-.46.37-.74.48-.57.17-.88.17Z"/>
      <path d="M66.36,312v-4.27h-1.53v-.63h3.76v.63h-1.53v4.27h-.69Z"/>
    </g>
  </g>
</svg>